<svg width="521" height="530" viewBox="0 0 521 530" fill="none" xmlns="http://www.w3.org/2000/svg">
<path d="M352.248 412.286C416.946 347.551 416.946 242.594 352.248 177.858C287.55 113.123 182.654 113.123 117.955 177.858C53.2573 242.594 53.2573 347.551 117.955 412.286C182.653 477.022 287.55 477.022 352.248 412.286Z" fill="#00A580"/>
<path d="M163.377 211.312C163.377 211.312 116.8 204.317 108.09 259.093C99.3788 313.869 107.44 433.982 180.088 436.682C252.733 439.381 163.377 211.312 163.377 211.312Z" fill="#F6B74C"/>
<path d="M379.636 285.991C357.455 276.128 333.75 262.508 317.566 252.696C316.577 252.092 315.618 251.511 314.7 250.938C304.285 244.569 297.641 240.179 297.641 240.179V190.277C297.641 190.277 349.918 215.823 385.198 236.411C386.572 237.206 387.916 237.997 389.235 238.784C390.092 239.284 390.941 239.799 391.763 240.293C391.783 240.306 391.796 240.311 391.814 240.324C392.757 240.9 393.685 241.471 394.598 242.016C404.772 248.284 412.501 253.731 415.451 257.324C428.345 273.101 418.308 303.194 379.636 285.991Z" fill="#F6B74C"/>
<path d="M391.816 240.326L374.895 255.898L385.198 236.411C386.572 237.205 387.916 237.997 389.235 238.783C390.092 239.283 390.942 239.798 391.763 240.293C391.784 240.306 391.796 240.313 391.816 240.326Z" fill="#3B1034"/>
<path d="M317.565 252.693C316.576 252.092 315.62 251.511 314.697 250.942C313.295 241.394 309.722 217.789 307.442 209.01C307.267 208.318 307.681 207.615 308.373 207.432C309.065 207.252 309.768 207.67 309.943 208.363C312.486 218.15 316.467 245.086 317.565 252.693Z" fill="#008661"/>
<path d="M362.005 271.668C362.005 271.668 435.401 194.494 449.274 179.585C470.768 156.488 494.144 170.689 472.143 206.869C440.191 259.41 433.902 279.531 410.235 289.579C405.764 291.477 400.669 291.22 396.338 289.031L362.005 271.668Z" fill="#F6B74C"/>
<path d="M458.756 178.504C456.78 176.178 455.591 173.333 455.571 169.289C455.545 163.955 456.342 155.876 458.403 151.609C461.495 145.197 471.62 126.834 477.232 125.187C482.842 123.54 475.32 140.074 473.842 143.494C472.363 146.917 472.614 149.797 472.614 149.797C472.614 149.797 492.772 113.239 497.367 112.437C501.962 111.638 492.549 133.616 490.186 139.033C490.186 139.033 506.884 112.348 509.96 112.777C516.138 113.635 498.44 143.811 498.44 143.811C498.44 143.811 513.617 122.094 517.068 124.746C520.725 127.555 504.409 150.774 504.409 150.774C504.409 150.774 516.343 138.092 520.345 139.006C524.344 139.916 501.313 168.512 497.25 172.476C493.188 176.436 481.061 189.861 473.051 188.897C468.057 188.293 461.812 182.105 458.756 178.504Z" fill="#FFB890"/>
<path d="M467.254 178.354C481.566 177.291 483.329 160.192 483.344 160.019C483.407 159.337 482.905 158.73 482.223 158.664C481.536 158.601 480.932 159.103 480.866 159.786C480.808 160.405 479.276 174.964 467.069 175.873C467.061 175.873 467.054 175.88 467.054 175.875C466.369 175.926 465.854 176.522 465.905 177.207C465.958 177.895 466.577 178.387 467.254 178.354Z" fill="#FF8E69"/>
<path d="M501.681 158.403C502.33 158.355 502.837 157.809 502.832 157.149C502.824 156.462 502.261 155.911 501.574 155.919C488.824 156.056 482.233 146.036 482.167 145.934C481.797 145.356 481.026 145.186 480.448 145.561C479.87 145.932 479.702 146.703 480.075 147.282C480.372 147.744 487.49 158.56 501.6 158.408C501.627 158.405 501.653 158.405 501.681 158.403Z" fill="#FF8E69"/>
<path d="M151.446 209.802C151.446 209.802 108.561 194.979 136.991 160.743C165.421 126.509 231.673 141.766 242.035 150.555C264.84 169.9 252.8 184.956 252.8 184.956C252.8 184.956 218.428 220.791 151.446 209.802Z" fill="#00A580"/>
<path d="M150.234 177.113C149.721 177.113 149.224 176.837 148.968 176.35C148.598 175.649 148.864 174.782 149.564 174.414C150.721 173.8 178.245 159.413 207.149 161.976C207.938 162.047 208.518 162.742 208.45 163.531C208.379 164.32 207.684 164.904 206.895 164.833C178.841 162.349 151.182 176.801 150.906 176.946C150.69 177.06 150.462 177.113 150.234 177.113Z" fill="#008661"/>
<path d="M190.027 165.142C189.608 165.142 189.192 164.959 188.908 164.607C184.334 158.915 170.052 156.452 169.907 156.426C169.126 156.294 168.601 155.556 168.733 154.774C168.865 153.993 169.605 153.468 170.384 153.6C171.015 153.706 185.886 156.271 191.142 162.81C191.64 163.427 191.541 164.33 190.924 164.825C190.661 165.041 190.344 165.142 190.027 165.142Z" fill="#008661"/>
<path d="M352.789 478.283H163.858C163.415 462.45 163.141 444.278 162.976 427.059C162.882 417.044 162.824 407.349 162.786 398.649C162.697 377.378 162.74 361.971 162.74 361.971C162.74 361.971 162.157 356.407 161.188 348.067C160.427 341.563 159.431 333.37 158.29 324.792C157.503 318.943 156.649 312.924 155.754 307.139C155.391 304.759 155.011 302.428 154.63 300.169C153.52 293.534 152.368 287.495 151.22 282.776C145.514 259.356 128.427 213.324 143.427 201.073C172.077 176.707 193.072 164.543 193.072 164.543L232.522 163.406C232.522 163.406 295.278 175.992 303.649 198.929C305.86 204.973 309.905 224.891 314.763 251.473C314.832 251.896 314.908 252.323 314.984 252.749C315.111 253.414 315.225 254.081 315.359 254.753C315.39 254.949 315.428 255.159 315.466 255.362C315.542 255.794 315.61 256.212 315.694 256.639C315.752 256.961 315.808 257.291 315.872 257.621C317.677 267.663 319.592 278.508 321.544 289.825V289.832C323.903 303.483 326.332 317.814 328.746 332.188V332.196C339.219 394.754 349.33 458.322 351.861 472.122C352.269 474.305 352.573 476.347 352.789 478.283Z" fill="#F6B74C"/>
<path d="M254.643 392.28L162.979 427.062C162.885 417.045 162.826 407.352 162.788 398.649C188.274 396.911 254.643 392.28 254.643 392.28Z" fill="#008661"/>
<path d="M242.674 199.901C242.116 199.244 241.132 199.224 240.549 199.828C232.677 207.97 222.635 211.246 210.595 209.637C209.75 209.525 209.005 210.188 209.005 211.04C209.005 211.748 209.525 212.355 210.227 212.446C223.115 214.113 234.138 210.55 242.557 201.875C243.074 201.342 243.156 200.472 242.674 199.901Z" fill="#008661"/>
<path d="M199.493 330.892L198.95 332.016L180.461 370.457L161.191 348.067C160.428 341.564 159.433 333.368 158.29 324.797L172.529 295.593L198.57 329.682L199.493 330.892Z" fill="#008661"/>
<path d="M197.979 330.89L218.415 288.978L245.379 324.272L226.345 363.837L197.979 330.89Z" fill="#008661"/>
<path d="M244.702 324.571L265.141 282.657L292.105 317.951L273.069 357.519L244.702 324.571Z" fill="#008661"/>
<path d="M328.754 332.185V332.193L319.437 351.545L291.535 319.136L291.071 318.6L291.665 317.38L311.51 276.691L321.55 289.824V289.832C323.908 303.48 326.338 317.809 328.754 332.185Z" fill="#008661"/>
<path d="M224.284 464.343C223.558 464.343 222.937 463.795 222.861 463.059C222.78 462.272 223.35 461.567 224.137 461.486C224.682 461.43 278.927 455.548 296.516 433.354C297.007 432.735 297.908 432.631 298.529 433.121C299.148 433.613 299.252 434.514 298.762 435.136C280.423 458.276 226.713 464.102 224.433 464.338C224.385 464.34 224.334 464.343 224.284 464.343Z" fill="#008661"/>
<path d="M214.107 450.01C213.399 450.01 212.783 449.485 212.689 448.764C212.585 447.98 213.138 447.259 213.922 447.155C214.097 447.133 231.63 444.755 251.734 436.696C270.18 429.303 294.639 415.472 306.413 391.562C306.763 390.852 307.62 390.56 308.33 390.91C309.04 391.26 309.332 392.12 308.982 392.831C296.797 417.573 271.669 431.802 252.733 439.384C232.304 447.561 214.472 449.974 214.295 449.997C214.231 450.005 214.168 450.01 214.107 450.01Z" fill="#008661"/>
<path d="M228.026 382.313C228.843 382.313 229.497 381.636 229.462 380.819C225.98 300.175 201.433 206.037 201.161 205.012C200.961 204.245 200.175 203.789 199.411 203.992C198.646 204.192 198.189 204.976 198.392 205.742C198.661 206.765 223.14 300.634 226.601 380.948C226.632 381.712 227.26 382.313 228.026 382.313Z" fill="white"/>
<path d="M277.235 377.412C278.052 377.412 278.706 376.732 278.671 375.917C275.133 295.349 250.657 201.485 250.388 200.46C250.188 199.694 249.401 199.237 248.638 199.44C247.872 199.64 247.416 200.424 247.619 201.191C247.888 202.211 272.295 295.811 275.81 376.046C275.843 376.813 276.469 377.412 277.235 377.412Z" fill="white"/>
<path d="M218.231 200.807C215.101 200.807 211.825 200.546 208.404 200.023C193.977 197.813 182.297 191.8 181.808 191.546C181.105 191.181 180.831 190.316 181.197 189.613C181.562 188.91 182.426 188.636 183.129 189.001C183.246 189.062 194.936 195.073 208.906 197.199C227.322 200.003 240.797 195.076 248.958 182.554C249.389 181.889 250.276 181.704 250.941 182.135C251.603 182.566 251.79 183.455 251.359 184.119C244.178 195.134 232.835 200.807 218.231 200.807Z" fill="#008661"/>
<path d="M226.49 193.972C208.556 197.06 190.734 183.048 190.734 183.048C193.277 171.95 193.328 158.835 192.326 149.172C191.822 144.288 191.251 141.088 191.251 141.088L239.057 158.642L240.835 176.484L241.269 180.846C241.269 180.846 241.487 191.391 226.49 193.972Z" fill="#FFB890"/>
<path d="M240.835 176.484C216.638 174.926 198.867 156.845 192.037 146.61C191.533 141.725 191.249 141.091 191.249 141.091L239.055 158.644L240.835 176.484Z" fill="#3B1034"/>
<path d="M260.714 87.4185C260.714 87.4185 263.689 75.3509 275.463 76.9697C287.237 78.5886 290.016 126.684 261.168 124.903L260.714 87.4185Z" fill="#FF8E69"/>
<path d="M271.644 127.549C267.647 150.69 253.223 167.545 228.595 164.952C174.799 159.279 166.38 83.8485 166.38 83.8485C162.312 44.9434 192.968 25.3526 229.85 31.8964C266.732 38.4453 270.462 61.7939 272.808 79.9232C273.51 85.3481 274.226 96.0201 273.675 108.169C273.586 110.069 273.475 112.003 273.318 113.967C273.127 116.367 272.892 118.798 272.585 121.239C272.324 123.337 272.017 125.448 271.644 127.549Z" fill="#FFB890"/>
<path d="M239.593 149.565C241.682 149.685 244.368 149.322 246.967 147.482C247.464 147.132 247.581 146.444 247.231 145.947C246.878 145.452 246.191 145.333 245.697 145.683C241.424 148.705 236.834 146.805 236.641 146.721C236.083 146.482 235.436 146.741 235.198 147.297C234.96 147.853 235.213 148.5 235.769 148.741C235.89 148.794 237.419 149.441 239.593 149.565Z" fill="#FF8E69"/>
<path d="M232.627 63.6436C232.627 63.6436 242.382 65.676 248.686 62.111C254.511 58.8175 255.81 58.2745 258.168 58.4801C262.028 58.8175 264.749 71.314 264.749 71.314L273.135 76.8225C273.135 76.8225 270.629 60.2841 266.283 54.9912C261.936 49.6983 248.012 46.4886 238.474 54.3417C228.937 62.1973 232.627 63.6436 232.627 63.6436Z" fill="#3B1034"/>
<path d="M240.927 50.7466C244.997 56.6865 239.755 64.6385 232.627 63.6439C224.34 62.4869 213.04 61.5684 209.462 64.4482C203.589 69.1779 204.791 75.6075 201.603 80.6695C198.413 85.7289 174.669 82.7146 174.669 82.7146L172.623 67.0389C172.623 67.0389 222.836 44.8574 234.762 46.9964C237.744 47.5318 239.689 48.9375 240.927 50.7466Z" fill="#3B1034"/>
<path d="M172.62 89.1995C172.62 89.1995 165.046 96.776 157.174 96.9105C149.303 97.045 157.174 81.1384 157.174 81.1384C157.174 81.1384 142.963 78.6493 145.182 68.4999C147.401 58.3505 156.865 58.3505 156.865 58.3505C156.865 58.3505 148.223 37.2068 156.053 30.6529C163.884 24.0964 170.036 35.1973 170.036 35.1973C170.036 35.1973 172.057 5.38348 191.614 3.1633C211.171 0.943128 196.217 22.8277 196.217 22.8277C196.217 22.8277 214.378 -3.18005 231.924 0.943128C249.47 5.06631 229.462 22.8277 229.462 22.8277C229.462 22.8277 256.682 3.1633 269.559 11.7268C282.436 20.2904 258.891 30.6529 258.891 30.6529C258.891 30.6529 284.021 33.4439 283.862 46.8487C283.702 60.2535 264.749 57.0818 264.749 57.0818C264.749 57.0818 191.746 56.9727 172.62 89.1995Z" fill="#3B1034"/>
<path d="M264.748 71.314C264.748 71.314 265.283 78.9539 269.28 83.9804C271.347 86.5786 272.782 89.6209 273.266 92.9067L273.855 96.9107C273.855 96.9107 275.833 80.3291 272.029 74.3385C270.216 72.1234 267.571 71.5474 264.748 71.314Z" fill="#3B1034"/>
<path d="M195.114 92.6806C194.781 93.2287 194.54 93.8554 194.358 94.5329C194.135 95.3905 194.013 96.3446 193.96 97.3443C193.602 103.931 196.052 112.85 189.436 114.167C181.78 115.694 178.658 99.6558 178.159 96.7378C178.11 96.4461 178.085 96.2862 178.085 96.2862C177.586 95.591 177.038 94.9566 176.472 94.373C172.422 90.2448 167.161 88.9279 167.161 88.9279C176.444 75.8022 202.838 71.3213 202.838 71.3213C203.269 82.3232 197.322 89.0319 195.114 92.6806Z" fill="#3B1034"/>
<path d="M212.368 90.6258C211.868 90.5142 211.394 90.2604 211.011 89.8672C209.966 88.7888 209.991 87.0685 211.069 86.0231C211.434 85.6679 214.782 82.5368 219.544 82.1232C224.527 81.6893 227.715 83.0722 228.062 83.232C229.426 83.8587 230.025 85.4699 229.399 86.835C228.777 88.1925 227.18 88.7939 225.82 88.1849C225.732 88.1468 223.51 87.2359 220.016 87.5404C217.125 87.7916 214.876 89.9052 214.853 89.9255C214.171 90.5852 213.23 90.8187 212.368 90.6258Z" fill="#3B1034"/>
<path d="M250.563 87.5631C250.114 87.3195 249.729 86.944 249.47 86.4594C248.763 85.1349 249.262 83.4881 250.586 82.7802C251.035 82.5392 255.117 80.456 259.806 81.372C264.716 82.3311 267.396 84.5411 267.688 84.7898C268.826 85.7667 268.956 87.4845 267.979 88.6237C267.008 89.7554 265.307 89.8949 264.168 88.9307C264.094 88.8699 262.21 87.3804 258.767 86.708C255.916 86.1523 253.175 87.5606 253.147 87.5758C252.308 88.0249 251.339 87.9869 250.563 87.5631Z" fill="#3B1034"/>
<path d="M222.775 131.424C222.775 131.424 244.013 131.982 255.776 129.33C255.776 129.33 257.298 143.768 239.027 143.638C223.913 143.532 222.775 131.424 222.775 131.424Z" fill="white"/>
<path d="M219.944 111.33C220.008 113.066 215.367 114.644 209.578 114.857C203.788 115.07 199.044 113.837 198.978 112.104C198.914 110.369 203.555 108.79 209.344 108.577C215.136 108.362 219.881 109.595 219.944 111.33Z" fill="#FF8E69"/>
<path d="M273.318 113.967C272.136 114.144 270.848 114.269 269.491 114.322C263.702 114.532 258.952 113.302 258.891 111.564C258.828 109.833 263.466 108.255 269.258 108.037C270.832 107.976 272.334 108.029 273.678 108.169C273.586 110.072 273.477 112.005 273.318 113.967Z" fill="#FF8E69"/>
<path d="M222.184 99.2021C222.298 102.31 221.017 104.881 219.323 104.944C217.629 105.008 216.164 102.539 216.049 99.4304C215.935 96.3222 217.216 93.7519 218.91 93.6885C220.604 93.625 222.07 96.0938 222.184 99.2021Z" fill="#3B1034"/>
<path d="M260.349 98.5803C260.463 101.689 259.182 104.259 257.488 104.322C255.794 104.386 254.329 101.917 254.215 98.8086C254.1 95.7004 255.381 93.1301 257.075 93.0666C258.767 93.0032 260.232 95.472 260.349 98.5803Z" fill="#3B1034"/>
<path d="M238.721 122.791C237.924 122.657 237.295 121.992 237.237 121.15C237.169 120.163 237.912 119.305 238.898 119.236C240.529 119.122 241.845 118.937 242.768 118.777C241.921 112.832 239.471 104.758 239.443 104.67C239.154 103.723 239.689 102.723 240.635 102.434C241.581 102.145 242.583 102.678 242.872 103.624C242.996 104.033 245.927 113.695 246.526 120.028C246.607 120.898 246.052 121.7 245.21 121.926C245.116 121.951 242.867 122.548 239.152 122.809C239.002 122.824 238.86 122.817 238.721 122.791Z" fill="#FF8E69"/>
<path d="M178.085 96.2813C178.085 96.2813 171.783 85.5711 160.963 90.4961C150.145 95.4186 161.242 142.299 188.376 132.329L178.085 96.2813Z" fill="#FFB890"/>
<path d="M175.739 120.059C174.907 119.917 174.268 119.201 174.251 118.329C173.994 105.421 163.818 100.057 163.714 100.004C162.834 99.5523 162.487 98.4739 162.936 97.5909C163.387 96.7105 164.465 96.3603 165.347 96.8145C165.844 97.0682 177.532 103.231 177.831 118.258C177.852 119.247 177.065 120.064 176.076 120.084C175.96 120.087 175.848 120.079 175.739 120.059Z" fill="#FF8E69"/>
<path d="M165.495 111.693C164.904 111.594 164.376 111.198 164.135 110.602C163.763 109.686 164.204 108.641 165.119 108.268C165.731 108.019 171.198 105.9 175.136 108.039C176.006 108.511 176.328 109.6 175.854 110.468C175.382 111.338 174.299 111.66 173.427 111.188C171.34 110.051 167.61 111.122 166.471 111.587C166.149 111.716 165.812 111.746 165.495 111.693Z" fill="#FF8E69"/>
<path d="M217.489 125.22C212.971 124.629 208.829 122.515 205.667 119.148C202.046 115.291 200.142 110.257 200.306 104.97C200.471 99.6817 202.683 94.7745 206.535 91.1512C210.389 87.5279 215.42 85.6223 220.705 85.7872C225.995 85.9521 230.894 88.1647 234.515 92.0215C238.137 95.8757 240.041 100.912 239.876 106.2C239.711 111.488 237.5 116.395 233.648 120.019C229.796 123.642 224.762 125.547 219.478 125.382C218.811 125.36 218.146 125.304 217.489 125.22ZM222.422 88.0125C221.833 87.9363 221.243 87.8881 220.644 87.8704C215.915 87.7232 211.414 89.4283 207.965 92.6685C204.518 95.9112 202.538 100.301 202.391 105.033C202.244 109.765 203.948 114.269 207.186 117.717C210.427 121.168 214.809 123.15 219.544 123.294C224.273 123.441 228.774 121.736 232.22 118.496C235.669 115.253 237.647 110.864 237.794 106.132C237.941 101.402 236.237 96.8957 232.999 93.4475C230.169 90.4331 226.464 88.5402 222.422 88.0125Z" fill="white"/>
<path d="M260.579 120.558C256.306 120 252.393 118.001 249.404 114.816C245.98 111.173 244.182 106.41 244.337 101.412C244.492 96.4132 246.584 91.7723 250.225 88.3469C253.867 84.9215 258.624 83.12 263.622 83.2773C273.928 83.5996 282.066 92.2544 281.746 102.574C281.427 112.893 272.774 121.028 262.461 120.708C261.827 120.69 261.198 120.64 260.579 120.558ZM265.207 85.4975C264.664 85.4264 264.114 85.3808 263.556 85.363C259.116 85.226 254.889 86.8245 251.653 89.8693C248.417 92.9116 246.558 97.0348 246.421 101.478C246.284 105.921 247.882 110.15 250.925 113.388C253.966 116.626 258.086 118.485 262.527 118.623C271.691 118.907 279.378 111.678 279.664 102.508C279.928 93.9012 273.57 86.5936 265.207 85.4975Z" fill="white"/>
<path d="M238.261 103.041C237.931 102.998 237.617 102.838 237.386 102.566C236.892 101.985 236.95 101.12 237.526 100.618C237.673 100.488 241.182 97.5121 245.955 99.9708C246.637 100.321 246.906 101.161 246.556 101.843C246.206 102.526 245.367 102.795 244.684 102.445C241.621 100.866 239.433 102.65 239.341 102.726C239.03 102.99 238.636 103.092 238.261 103.041Z" fill="white"/>
<path d="M203.309 99.6992C202.944 100.374 202.1 100.625 201.425 100.26C201.356 100.227 198.298 98.6056 193.957 97.342C189.44 96.0175 183.532 95.0863 178.158 96.733C178.11 96.4412 178.085 96.2814 178.085 96.2814C177.585 95.5861 177.037 94.9518 176.472 94.3682C182.604 92.1785 189.273 93.0919 194.357 94.5306C199.097 95.8678 202.46 97.6642 202.744 97.8139C203.418 98.1793 203.674 99.0242 203.309 99.6992Z" fill="white"/>
<path d="M163.377 461.154C162.121 461.154 160.876 460.626 159.999 459.596C158.409 457.731 158.632 454.927 160.496 453.336C251.098 376.031 280.012 306.181 288.317 261.194C297.218 212.964 285.028 182.749 284.904 182.45C283.965 180.184 285.038 177.588 287.302 176.647C289.567 175.708 292.164 176.781 293.102 179.047C293.65 180.369 306.418 212.015 297.045 262.805C291.58 292.416 279.654 322.453 261.596 352.081C239.136 388.939 207.057 425.279 166.255 460.091C165.421 460.806 164.396 461.154 163.377 461.154Z" fill="#F6B74C"/>
<path d="M161.465 269.859C161.465 269.859 158.095 287.985 152.909 310.892C152.227 313.902 151.511 317 150.768 320.149C148.522 329.679 146.016 339.699 143.348 349.359C142.806 351.325 142.258 353.279 141.698 355.205C141.424 356.181 141.137 357.151 140.856 358.115C134.559 379.538 127.573 397.725 121.089 402.534C108.067 412.198 75.9601 410.76 90.8863 346.316C93.3866 335.507 96.2877 324.579 99.3764 313.869C100.987 308.271 102.731 302.76 104.344 297.32C122.072 237.322 141.525 203.941 141.525 203.941L161.465 269.859Z" fill="#F6B74C"/>
<path d="M171.098 258.644L166.065 274.566L164.163 280.561L155.756 307.14C155.394 304.76 155.013 302.428 154.633 300.17L161.277 279.191L168.081 257.692C168.342 256.855 169.234 256.393 170.066 256.657C170.903 256.918 171.365 257.814 171.098 258.644Z" fill="#008661"/>
<path d="M162.788 281.256C162.355 281.256 161.926 281.081 161.612 280.733C161.023 280.084 161.074 279.082 161.723 278.493L171.697 269.465C172.346 268.879 173.348 268.927 173.936 269.577C174.525 270.226 174.474 271.229 173.825 271.817L163.851 280.843C163.547 281.122 163.166 281.256 162.788 281.256Z" fill="#008661"/>
<path d="M243.511 366.6L264.956 363.854L267.754 392.255L247.357 392.125C247.357 392.125 240.308 382.489 243.511 366.6Z" fill="#FFB890"/>
<path d="M264.957 363.855C264.957 363.855 279.441 351.29 286.664 350.402C295.963 349.257 299.764 360.363 299.764 360.363L264.957 363.855Z" fill="#FF8E69"/>
<path d="M287.625 383.831V363.751C287.625 356.39 293.609 350.402 300.966 350.402H317.961C325.318 350.402 331.303 356.39 331.303 363.751V383.831C331.303 391.192 325.318 397.18 317.961 397.18H300.966C293.609 397.18 287.625 391.192 287.625 383.831ZM300.966 357.255C297.388 357.255 294.474 360.168 294.474 363.751V383.831C294.474 387.412 297.385 390.327 300.966 390.327H317.961C321.539 390.327 324.453 387.414 324.453 383.831V363.751C324.453 360.171 321.542 357.255 317.961 357.255H300.966Z" fill="#E8311B"/>
<path d="M302.962 408.55C319.572 413.546 336.182 413.546 352.792 408.55V340.301C336.182 339.146 319.572 339.146 302.962 340.301V408.55Z" fill="#FF6129"/>
<path d="M326.87 389.182C326.87 389.182 352.409 360.888 341.327 353.941C330.24 346.996 326.87 389.182 326.87 389.182Z" fill="#E8311B"/>
<path d="M321.375 403.995C321.814 404.059 322.252 403.815 322.422 403.387L335.259 370.987C335.459 370.485 335.213 369.916 334.708 369.716C334.206 369.516 333.638 369.762 333.438 370.267L320.601 402.666C320.401 403.168 320.647 403.737 321.152 403.937C321.225 403.965 321.301 403.985 321.375 403.995Z" fill="#BE2D08"/>
<path d="M326.86 387.216C326.86 387.216 328.394 349.12 315.433 350.878C302.475 352.637 326.86 387.216 326.86 387.216Z" fill="#E8311B"/>
<path d="M327.108 388.977C327.253 388.997 327.402 388.984 327.55 388.936C328.062 388.769 328.343 388.213 328.173 387.701L321.671 367.861C321.504 367.346 320.949 367.067 320.436 367.234C319.922 367.402 319.643 367.958 319.81 368.47L326.312 388.31C326.434 388.677 326.751 388.926 327.108 388.977Z" fill="#BE2D08"/>
<path d="M265.801 392.98C265.801 392.98 292.95 404.231 301.762 392.897C313.135 378.271 311.538 361.446 297.352 354.182C288.636 349.719 272.021 363.59 261.102 364.143C261.102 364.143 254.777 388.086 265.801 392.98Z" fill="#FFB890"/>
<path d="M122.554 356.387C122.554 356.387 97.3551 358.891 91.0331 384.285C84.7112 409.679 123.954 412.779 161.066 406.718C198.179 400.656 253.276 393.496 253.276 393.496C250.979 385.239 250.218 374.94 252.437 364.725C252.437 364.725 218.398 365.24 191.127 359.521C176.616 356.473 141.779 353.761 122.554 356.387Z" fill="#F6B74C"/>
<path d="M143.349 349.359C142.806 351.325 142.258 353.279 141.698 355.205C131.831 355.078 115.621 356.943 105.587 358.782C105.587 358.782 122.207 348.577 143.349 349.359Z" fill="#3B1034"/>
<path d="M67.0743 137.267C63.8538 160.74 62.9738 192.891 64.0516 226.683C64.0668 227.185 64.262 227.665 64.5968 228.038C65.9205 229.504 68.3524 228.51 68.2789 226.533C65.2003 145.602 74.2534 94.0585 94.9588 74.3078C95.7323 73.5695 95.9047 72.3566 95.2505 71.5117C94.4998 70.5449 93.1051 70.4587 92.2404 71.2782C79.9464 82.9424 71.4791 105.142 67.0743 137.267Z" fill="#00A580"/>
<path d="M73.3862 108.958C73.3862 108.958 56.3983 108.425 58.5031 78.5784C58.5031 78.5784 84.2752 86.7714 73.3862 108.958Z" fill="#00CCA1"/>
<path d="M71.5069 124.288C71.5069 124.288 71.0936 107.288 100.994 107.727C100.994 107.727 94.2512 133.933 71.5069 124.288Z" fill="#00CCA1"/>
<path d="M85.7436 82.7599C85.7436 82.7599 79.6879 66.8685 108.026 57.3103C108.026 57.3103 110.4 84.262 85.7436 82.7599Z" fill="#00CCA1"/>
<path d="M66.7748 155.016C66.7748 155.016 50.6085 160.263 42.4988 131.464C42.4988 131.464 69.5186 130.454 66.7748 155.016Z" fill="#00CCA1"/>
<path d="M67.2213 170.928C67.2213 170.928 63.8765 154.255 93.4017 149.515C93.4017 149.515 91.2919 176.489 67.2213 170.928Z" fill="#00CCA1"/>
<path d="M65.6718 192.772C65.6718 192.772 49.607 198.326 40.9546 169.684C40.9546 169.684 67.9541 168.159 65.6718 192.772Z" fill="#00CCA1"/>
<path d="M428.781 387.322C417.296 408.042 398.741 434.304 377.633 460.707C377.318 461.098 376.877 461.367 376.385 461.464C374.445 461.844 373.096 459.588 374.341 458.051C425.29 395.117 448.921 348.43 444.184 320.205C444.007 319.152 444.595 318.076 445.625 317.792C446.804 317.467 447.973 318.236 448.173 319.41C451.024 336.116 444.499 358.965 428.781 387.322Z" fill="#00A580"/>
<path d="M440.687 360.876C440.687 360.876 454.604 370.637 470.801 345.484C470.801 345.484 445.265 336.586 440.687 360.876Z" fill="#00CCA1"/>
<path d="M433.006 374.273C433.006 374.273 443.523 360.914 419.325 343.333C419.325 343.333 409.025 368.351 433.006 374.273Z" fill="#00CCA1"/>
<path d="M446.492 332.493C446.492 332.493 460.858 323.407 443.903 298.759C443.903 298.759 425.855 318.908 446.492 332.493Z" fill="#00CCA1"/>
<path d="M418.387 401.709C418.387 401.709 428.183 415.606 451.929 397.418C451.929 397.418 430.904 380.4 418.387 401.709Z" fill="#00CCA1"/>
<path d="M408.497 414.173C408.497 414.173 421.164 402.833 400.369 381.332C400.369 381.332 385.9 404.188 408.497 414.173Z" fill="#00CCA1"/>
<path d="M396.652 432.586C396.652 432.586 406.182 446.666 430.267 428.932C430.267 428.932 409.57 411.521 396.652 432.586Z" fill="#00CCA1"/>
<path d="M335.558 130.974C335.558 130.974 325.673 82.5845 342.61 82.1354C359.547 81.6863 335.558 130.974 335.558 130.974Z" fill="#00CCA1"/>
<path d="M331.941 151.121C331.411 150.903 331.082 150.342 331.173 149.753L338.165 105.15C338.274 104.457 338.923 103.985 339.613 104.091C340.305 104.198 340.776 104.85 340.67 105.54L333.679 150.144C333.57 150.837 332.92 151.309 332.231 151.2C332.129 151.185 332.033 151.159 331.941 151.121Z" fill="#00A580"/>
<path d="M336.861 128.785C336.861 128.785 360.209 85.2695 373.512 95.7665C386.815 106.263 336.861 128.785 336.861 128.785Z" fill="#00CCA1"/>
<path d="M335.426 130.586C335.254 130.515 335.091 130.404 334.959 130.251C334.498 129.726 334.549 128.924 335.076 128.46L355.381 110.607C355.908 110.145 356.707 110.199 357.171 110.724C357.633 111.249 357.582 112.051 357.054 112.515L336.75 130.368C336.374 130.695 335.86 130.764 335.426 130.586Z" fill="#00A580"/>
<path d="M60.6255 329.098C60.6255 329.098 58.4751 279.754 41.9361 283.431C25.3971 287.108 60.6255 329.098 60.6255 329.098Z" fill="#00CCA1"/>
<path d="M69.0189 347.765C69.4779 347.425 69.6655 346.801 69.4322 346.25L51.8307 304.678C51.5568 304.034 50.8138 303.732 50.1697 304.006C49.5231 304.277 49.2238 305.023 49.4977 305.668L67.0992 347.24C67.3731 347.884 68.1161 348.186 68.7602 347.912C68.8541 347.871 68.9403 347.823 69.0189 347.765Z" fill="#00A580"/>
<path d="M58.83 327.291C58.83 327.291 25.6226 290.746 15.2636 304.161C4.9045 317.576 58.83 327.291 58.83 327.291Z" fill="#00CCA1"/>
<path d="M60.6585 328.689C60.8107 328.578 60.9375 328.431 61.0313 328.251C61.3508 327.629 61.1074 326.863 60.4861 326.543L36.4561 314.156C35.8348 313.836 35.069 314.079 34.7495 314.701C34.4299 315.323 34.6734 316.089 35.2947 316.409L59.3247 328.796C59.7659 329.027 60.2832 328.969 60.6585 328.689Z" fill="#00A580"/>
<path d="M314.262 39.0135C316.63 40.5612 319.805 39.8939 321.349 37.519C322.894 35.144 322.227 31.9647 319.858 30.4169C317.49 28.8692 314.315 29.5365 312.77 31.9114C311.226 34.2839 311.893 37.4631 314.262 39.0135Z" fill="#FF6129"/>
<path d="M381.774 325.777C384.143 327.324 387.318 326.657 388.862 324.282C390.406 321.907 389.739 318.728 387.371 317.18C385.002 315.632 381.827 316.3 380.283 318.675C378.736 321.047 379.406 324.226 381.774 325.777Z" fill="#FF6129"/>
<path d="M16.2655 371.178C18.634 372.725 21.809 372.058 23.3533 369.683C24.8977 367.308 24.2307 364.129 21.8622 362.579C19.4937 361.031 16.3188 361.698 14.7744 364.073C13.2301 366.448 13.897 369.63 16.2655 371.178Z" fill="#FF6129"/>
<path d="M484.604 271.439C486.973 272.987 490.148 272.317 491.692 269.945C493.236 267.57 492.569 264.391 490.201 262.84C487.832 261.292 484.657 261.96 483.113 264.335C481.566 266.71 482.236 269.892 484.604 271.439Z" fill="#008661"/>
<path d="M56.5911 423.916C58.9596 425.464 62.1345 424.796 63.6789 422.422C65.2232 420.047 64.5563 416.867 62.1878 415.317C59.8193 413.769 56.6444 414.439 55.1 416.811C53.5531 419.186 54.2226 422.366 56.5911 423.916Z" fill="#008661"/>
<path d="M471.062 423.916C473.431 425.464 476.606 424.796 478.15 422.422C479.695 420.047 479.028 416.867 476.659 415.317C474.291 413.769 471.116 414.439 469.571 416.811C468.027 419.186 468.694 422.366 471.062 423.916Z" fill="#008661"/>
<path d="M81.088 276.686C81.088 279.521 78.7955 281.82 75.9655 281.82C73.1355 281.82 70.843 279.521 70.843 276.686C70.843 273.852 73.1355 271.553 75.9655 271.553C78.7955 271.553 81.088 273.852 81.088 276.686Z" fill="#FF6129"/>
<path d="M39.6917 234.178C39.6917 237.013 37.3993 239.312 34.5693 239.312C31.7417 239.312 29.4468 237.013 29.4468 234.178C29.4468 231.344 31.7392 229.045 34.5693 229.045C37.3993 229.045 39.6917 231.344 39.6917 234.178Z" fill="#008661"/>
<path d="M379.469 159.84C379.707 162.664 382.185 164.762 385.002 164.523C387.822 164.285 389.914 161.803 389.676 158.977C389.437 156.153 386.96 154.054 384.143 154.293C381.323 154.531 379.231 157.013 379.469 159.84Z" fill="#FF6129"/>
<path d="M417.155 113.995C417.393 116.819 419.871 118.917 422.688 118.678C425.506 118.44 427.598 115.958 427.362 113.132C427.123 110.308 424.646 108.209 421.829 108.448C419.009 108.686 416.917 111.168 417.155 113.995Z" fill="#008661"/>
<path d="M88.1674 25.6923C88.4058 28.5164 90.8834 30.6148 93.7007 30.3762C96.5181 30.1377 98.6127 27.6562 98.3743 24.8296C98.136 22.0055 95.6584 19.9072 92.8411 20.1457C90.0212 20.3842 87.9291 22.8682 88.1674 25.6923Z" fill="#008661"/>
</svg>
