<svg width="486" height="498" viewBox="0 0 486 498" fill="none" xmlns="http://www.w3.org/2000/svg">
<path d="M217.476 466.359C308.281 466.359 381.893 392.684 381.893 301.801C381.893 210.919 308.281 137.243 217.476 137.243C126.671 137.243 53.0586 210.919 53.0586 301.801C53.0586 392.684 126.671 466.359 217.476 466.359Z" fill="#00A580"/>
<path d="M230.889 131.074C295.59 115.945 343.94 86.1077 338.88 64.4303C333.82 42.7529 277.267 37.4441 212.565 52.5728C147.863 67.7014 99.5139 97.5385 104.574 119.216C109.634 140.893 166.187 146.202 230.889 131.074Z" fill="#F6B74C"/>
<path d="M141.16 256.541C141.16 256.541 129.092 230.561 94.3823 241.206C94.3823 241.206 112.085 277.764 141.16 256.541Z" fill="#00A580"/>
<path d="M114.156 205.668L152.296 291.142C153.836 290.913 155.117 290.339 156.084 289.449L117.944 203.975C117.475 202.927 116.25 202.459 115.203 202.925C114.156 203.393 113.688 204.62 114.156 205.668Z" fill="#00A580"/>
<path d="M125.843 228.116C125.843 228.116 153.361 237.806 159.542 192.205C159.542 192.205 117.81 201.65 125.843 228.116Z" fill="#00CCA1"/>
<path d="M140.09 256.455C140.09 256.455 168.65 262.407 168.733 216.388C168.733 216.388 128.622 231.289 140.09 256.455Z" fill="#00CCA1"/>
<path d="M140.735 260.142C140.735 260.142 128.083 233.836 91.5362 261.759C91.5362 261.759 127.754 284.56 140.735 260.142Z" fill="#00CCA1"/>
<path d="M127.708 225.667C127.708 225.667 115.704 199.058 78.4846 226.078C78.4846 226.078 114.133 249.757 127.708 225.667Z" fill="#00CCA1"/>
<path d="M117.599 211.134C117.599 211.134 138.095 190.358 99.5242 165.308C99.5242 165.308 90.2552 207.113 117.599 211.134Z" fill="#00CCA1"/>
<path d="M197.411 334.405L190.042 404.182C190.042 404.182 188.406 406.021 186.058 408.666C165.497 413.376 139.23 416.348 129.805 404.182C128.866 402.973 127.985 401.462 127.15 399.686C113.308 370.349 112.188 268.5 112.188 268.5L137.053 260.843L176.973 248.543L197.411 334.405Z" fill="#F6B74C"/>
<path d="M197.41 334.405L190.041 404.182C190.041 404.182 188.405 406.021 186.057 408.666C165.496 413.376 139.23 416.348 129.805 404.182C128.866 402.973 127.985 401.462 127.149 399.686C136.776 398.547 144.756 393.641 149.581 384.996C157.772 370.299 149.528 289.52 149.528 289.52C141.759 281.88 138.429 268.958 137.053 260.843L176.972 248.543L197.41 334.405Z" fill="#E9981A"/>
<path d="M271.69 66.7888C271.69 66.7888 301.324 93.8537 286.44 165.981C284.188 176.897 274.604 184.748 263.468 184.748H184.897C171.919 184.748 161.047 175.053 159.401 162.17C158.248 153.162 155.719 143.518 157.798 123.374C163.795 65.27 195.513 52.1368 195.513 52.1368C216.097 48.4291 259.532 48.5726 271.69 66.7888Z" fill="#3B1034"/>
<path d="M404.979 240.002C404.979 240.002 404.979 240.002 404.979 240.009C404.246 246.473 399.475 251.881 392.972 253.364C388.708 254.336 384.219 255.359 384.156 255.372C384.088 255.379 384.035 255.384 383.997 255.392C383.922 255.399 383.889 255.404 383.889 255.404C376.613 256.578 369 257.76 361.44 258.843C359.523 259.115 357.607 259.387 355.702 259.644C348.552 260.616 341.526 261.467 334.945 262.105C329.433 262.641 324.231 263.019 319.527 263.198C310.515 263.533 304.689 263.639 304.689 263.639C304.689 263.639 291.952 247.165 297.003 228.176C297.003 228.176 300.617 222.937 304.931 223.108C317.864 223.599 340.33 220.622 362.062 219.461C364.646 219.315 367.226 219.201 369.773 219.126C376.097 218.924 382.253 218.942 387.971 219.31C388.273 219.33 388.578 219.355 388.88 219.385C396.888 220.194 403.874 224.969 404.72 233.025C404.727 233.088 404.732 233.15 404.74 233.213C404.898 234.805 405.004 236.236 405.067 237.543C405.105 238.375 405.074 239.193 404.979 240.002Z" fill="#FFB890"/>
<path d="M429.572 147.978C420.195 179.542 414.93 214.113 406.071 237.548C405.749 238.395 405.389 239.213 404.979 240.004C404.979 240.004 404.986 240.012 404.979 240.012C398.951 251.865 384.251 256.775 372.189 250.445L365.852 247.125L359.875 243.989C359.875 243.989 361.843 237.546 369.775 219.128C372.305 213.259 375.438 206.171 379.316 197.688C381.611 192.658 384.974 186.491 388.769 179.645V179.638C396.671 165.368 406.438 148.12 412.327 131.976C421.048 108.078 447.02 89.2468 429.572 147.978Z" fill="#FFB890"/>
<path d="M388.215 208.753C386.921 210.841 382.89 217.337 378.536 225.433L366.843 248.034L361.443 258.84C359.525 259.112 357.61 259.384 355.705 259.641C348.555 260.613 341.528 261.465 334.947 262.102L362.062 219.458C364.646 219.312 367.226 219.199 369.773 219.123C372.302 213.254 375.435 206.166 379.314 197.683C381.609 192.653 389.984 173.741 393.779 166.893C396.175 174.084 396.004 196.166 388.215 208.753Z" fill="#FF8E69"/>
<path d="M440.882 101.219C440.882 101.219 432.652 104.083 425.933 109.539C427.528 107.453 428.837 105.586 429.509 103.72C434.879 88.7909 443.995 81.9573 446.132 84.2822C448.268 86.597 440.882 101.219 440.882 101.219Z" fill="#FF8E69"/>
<path d="M445.536 104.786C445.536 104.786 453.088 95.01 453.76 86.4913C454.432 77.9726 464.725 61.9906 458.927 59.9831C454.034 58.2905 445.38 87.8717 438.894 95.7858C432.059 104.126 445.536 104.786 445.536 104.786Z" fill="#FF8E69"/>
<path d="M436.359 103.007C436.359 103.007 450.752 91.0651 453.224 82.5162C455.698 73.9673 466.207 61.2397 464.74 58.3027C463.273 55.3657 454.545 63.8491 449.758 74.0252C444.972 84.2038 436.359 103.007 436.359 103.007Z" fill="#FFB890"/>
<path d="M434.193 133.258C432.104 134.16 430.176 134.724 428.414 135.027C426.336 135.374 424.37 135.195 422.603 134.601C417.547 132.896 414.145 127.835 414.482 122.407C414.484 122.392 414.482 122.372 414.484 122.357C414.824 120.153 415.687 117.735 417.14 115.166C417.208 115.045 417.275 114.926 417.348 114.8C417.633 114.329 417.917 113.868 418.204 113.417C424.38 103.987 437.248 98.0828 437.248 98.0828C437.248 98.0828 449.738 80.3829 455.018 72.7282C460.303 65.0785 469.665 55.6354 470.408 59.8318C471.153 64.0282 459.488 82.5013 457.489 95.6169C455.496 108.737 434.193 133.258 434.193 133.258Z" fill="#FFB890"/>
<path d="M250.583 155.087C268.642 157.356 280.106 145.034 283.148 125.941C284.455 117.753 282.796 103.677 282.328 98.8512C280.34 78.4386 268.927 43.1371 224.726 44.4167C224.726 44.4167 194.924 44.6811 180.184 64.5371C162.554 88.2846 167.849 103.315 167.338 118.38C167.099 125.473 168.473 132.541 171.68 138.868C173.678 142.81 176.373 146.918 179.942 150.225C196.653 168.137 223.82 161.129 250.583 155.087Z" fill="#3B1034"/>
<path d="M267.722 267.505C268.857 267.83 270.007 268.127 271.157 268.409C271.849 268.578 272.546 268.741 273.246 268.887C278.362 270.011 283.187 271.041 288.049 271.89C288.784 272.018 289.524 272.144 290.264 272.265C300.008 273.847 310.085 274.673 323.061 274.101C323.441 267.724 323.104 255.437 322.744 250.034C322.688 249.074 322.61 248.127 322.517 247.203C321.113 230.974 317.416 220.551 317.416 220.551C289.707 220.438 273.958 206.491 273.958 206.491C272.81 223.672 267.722 267.505 267.722 267.505Z" fill="#00A580"/>
<path d="M288.051 271.89C288.786 272.019 289.526 272.145 290.266 272.266C288.2 261.885 288.686 254.087 288.693 253.989C288.728 253.41 288.298 252.908 287.719 252.866C287.14 252.838 286.647 253.269 286.597 253.84C286.569 254.263 286.111 261.722 288.051 271.89Z" fill="#008661"/>
<path d="M269.292 327.234C264.41 346.067 277.844 400.812 277.844 400.812C227.495 436.73 158.606 401.741 158.606 401.741C158.606 401.741 162.678 377.8 164.412 350.868C165.431 335.103 163.355 313.098 160.34 293.147C160.224 292.396 160.113 291.666 159.99 290.92C159.602 288.424 159.197 285.958 158.785 283.547C158.618 282.57 158.447 281.598 158.274 280.633C157.524 276.417 156.751 272.389 155.976 268.661C155.827 267.961 155.687 267.266 155.533 266.596C154.765 262.986 153.998 259.684 153.265 256.79C147.686 234.828 146.423 215.521 164.188 207.504C178.004 201.275 194.308 194.388 200.894 191.635C202.779 190.842 203.866 190.393 203.866 190.393C203.866 190.393 240.355 184.172 249.589 191.605C250.228 192.116 250.903 192.612 251.627 193.106C261.561 199.899 279.917 206.111 288.799 222.619C297.245 238.309 282.17 232.732 288.099 272.137C292.201 299.383 274.172 308.401 269.292 327.234Z" fill="#00A580"/>
<path d="M285.96 294.789C283.657 311.967 278.536 331.017 268.965 351.211C268.008 341.627 267.837 332.836 269.292 327.232C269.36 326.967 269.43 326.708 269.506 326.451V326.443C269.858 325.398 270.198 324.353 270.533 323.315C281.198 289.764 279.668 261.004 275.843 241.327C270.721 214.992 260.622 199.04 260.524 198.884C260.365 198.637 260.239 198.388 260.139 198.129C259.371 196.207 260.051 193.952 261.85 192.796C263.896 191.479 266.619 192.071 267.933 194.124C268.159 194.476 270.973 198.915 274.401 206.806C277.791 214.594 281.78 225.74 284.485 239.639C285.373 244.206 286.146 249.236 286.687 254.682V254.714C287.097 258.757 287.374 263.026 287.475 267.505C287.676 275.91 287.274 285.049 285.96 294.789Z" fill="#F6B74C"/>
<path d="M237.08 381.981C249.747 381.981 259.791 377.178 260.365 376.898C260.891 376.641 261.107 376.009 260.853 375.483C260.596 374.956 259.965 374.737 259.439 374.994C259.252 375.085 240.591 383.986 222.592 377.392C222.043 377.191 221.434 377.473 221.235 378.022C221.034 378.571 221.316 379.18 221.865 379.379C227.062 381.286 232.261 381.981 237.08 381.981Z" fill="#008661"/>
<path d="M252.936 371.321C215.332 371.321 183.07 342.136 182.726 341.818C182.3 341.428 182.273 340.765 182.663 340.34C183.053 339.914 183.715 339.884 184.14 340.274C184.502 340.607 220.876 373.487 260.904 368.765C261.475 368.697 261.996 369.107 262.064 369.682C262.132 370.256 261.722 370.775 261.148 370.843C258.39 371.168 255.646 371.321 252.936 371.321Z" fill="#008661"/>
<path d="M160.664 392.288C159.461 392.288 158.263 391.797 157.395 390.834C155.764 389.028 155.908 386.24 157.712 384.608C198.923 347.357 215.359 305.234 206.561 259.414C199.982 225.153 181.142 201.665 180.951 201.431C179.416 199.541 179.703 196.766 181.588 195.229C183.473 193.693 186.249 193.977 187.784 195.866C188.615 196.889 208.217 221.332 215.208 257.747C219.333 279.232 218.163 300.388 211.728 320.627C203.727 345.795 187.537 369.52 163.614 391.147C162.771 391.912 161.716 392.288 160.664 392.288Z" fill="#F6B74C"/>
<path d="M187.362 298.005C187.362 298.01 187.357 298.018 187.349 298.018C187.067 298.376 186.586 298.504 186.169 298.338C174.982 293.965 165.466 288.2 158.782 283.552C158.616 282.575 158.445 281.603 158.271 280.638C164.875 285.378 174.932 291.718 186.929 296.403C187.578 296.658 187.799 297.459 187.362 298.005Z" fill="#008661"/>
<path d="M245.655 256.193C257.513 256.193 266.39 251.52 271.552 242.473C271.841 241.964 271.665 241.317 271.156 241.027C270.651 240.737 270.004 240.914 269.712 241.422C256.021 265.424 219.038 247.765 218.666 247.586C218.142 247.329 217.508 247.548 217.252 248.075C216.995 248.601 217.214 249.236 217.74 249.49C218.135 249.682 227.545 254.226 238.898 255.727C241.246 256.039 243.501 256.193 245.655 256.193Z" fill="#008661"/>
<path d="M252.002 201.078C251.964 202.111 251.891 203.136 251.791 204.153C251.453 207.493 250.817 210.75 250.014 213.833C249.83 214.536 249.641 215.224 249.442 215.906C249.442 215.914 249.435 215.921 249.435 215.929C249.128 216.969 248.813 217.987 248.484 218.974C247.95 220.556 247.394 222.057 246.83 223.47C246.558 224.143 246.297 224.803 246.025 225.433C243.493 231.4 241.122 235.238 241.122 235.238C239.907 232.581 237.289 228.977 233.894 224.951C233.396 224.36 232.878 223.75 232.352 223.143C231.745 222.448 231.116 221.737 230.472 221.02C229.755 220.214 229.015 219.403 228.255 218.581C227.595 217.871 226.923 217.153 226.244 216.428C225.68 215.828 225.109 215.226 224.532 214.627C223.128 213.168 221.701 211.705 220.259 210.257C219.58 209.561 218.89 208.874 218.203 208.191C211.501 201.506 204.938 195.363 200.893 191.642C202.781 190.851 203.87 190.398 203.87 190.398C203.87 190.398 240.355 184.174 249.596 191.615C250.225 192.121 250.905 192.617 251.63 193.108C252.01 195.756 252.113 198.436 252.002 201.078Z" fill="#FFB890"/>
<path d="M252.002 201.078C251.964 202.111 251.891 203.136 251.791 204.154C250.87 204.967 249.911 205.743 248.924 206.468C246.737 208.086 244.424 209.494 242.076 210.7C241.097 211.211 240.101 211.68 239.114 212.121C234.652 214.126 230.175 215.496 226.246 216.425C225.683 215.826 225.111 215.224 224.535 214.624C227.827 213.876 231.587 212.831 235.415 211.345C236.577 210.892 237.748 210.4 238.913 209.859C243.581 207.713 248.184 204.856 252.002 201.078Z" fill="#00A580"/>
<path d="M249.435 215.927C249.128 216.967 248.813 217.985 248.484 218.972C246.626 220.04 244.724 220.972 242.821 221.791C241.804 222.236 240.788 222.647 239.778 223.02C237.773 223.78 235.792 224.41 233.897 224.944C233.399 224.352 232.88 223.743 232.354 223.136C233.567 222.813 234.821 222.448 236.091 222.03C237.269 221.649 238.47 221.224 239.675 220.755C242.952 219.493 246.289 217.912 249.435 215.927Z" fill="#00A580"/>
<path d="M246.83 223.471C246.559 224.143 246.297 224.803 246.025 225.433C243.992 224.458 241.898 223.667 239.776 223.025C238.548 222.644 237.317 222.322 236.089 222.037C234.194 221.604 232.314 221.269 230.469 221.02C229.752 220.214 229.012 219.403 228.252 218.582C231.912 218.954 235.802 219.629 239.673 220.763C240.727 221.07 241.772 221.415 242.819 221.796C243.813 222.161 244.802 222.556 245.773 222.99C246.128 223.141 246.481 223.302 246.83 223.471Z" fill="#00A580"/>
<path d="M250.014 213.833C249.83 214.536 249.641 215.224 249.442 215.906C246.135 214.194 242.617 212.977 239.111 212.121C237.868 211.813 236.632 211.556 235.409 211.345C229.842 210.342 224.494 210.151 220.259 210.254C219.579 209.559 218.89 208.871 218.203 208.189C223.521 207.924 231.131 208.043 238.907 209.859C239.962 210.108 241.021 210.385 242.076 210.7C244.082 211.292 246.077 212.017 248.03 212.881C248.695 213.181 249.354 213.496 250.014 213.833Z" fill="#00A580"/>
<path d="M250.193 190.842C250.193 190.842 250.94 200.403 237.466 203.526C221.347 207.274 204.442 195.491 204.442 195.491C206.166 185.28 205.529 173.368 204.11 164.653C203.398 160.243 202.711 157.374 202.711 157.374L202.718 157.379L247.019 170.799L248.721 181.582L249.564 186.897L250.193 190.842Z" fill="#FFB890"/>
<path d="M248.723 181.585C226.113 182.345 210.097 170.806 203.72 162.338C203.05 158.212 202.748 157.462 202.721 157.381L247.022 170.801L248.723 181.585Z" fill="#3B1034"/>
<path d="M262.615 111.274C262.615 111.274 264.291 102.264 273.027 102.957C281.76 103.647 285.847 138.933 264.54 138.85L262.615 111.274Z" fill="#FF8E69"/>
<path d="M273.829 153.979C266.909 154.623 260.755 149.513 260.111 142.586C259.467 135.659 264.573 129.5 271.494 128.856C278.415 128.211 284.568 133.322 285.212 140.248C285.857 147.173 280.748 153.334 273.829 153.979ZM271.766 131.77C266.45 132.264 262.529 136.994 263.025 142.314C263.519 147.634 268.245 151.558 273.56 151.062C278.873 150.566 282.796 145.838 282.301 140.518C281.805 135.198 277.078 131.276 271.766 131.77Z" fill="white"/>
<path d="M275.78 122.627C275.785 122.81 275.787 122.987 275.79 123.171C275.81 124.808 275.815 126.475 275.777 128.171C275.772 128.264 275.775 128.362 275.77 128.453C275.725 130.642 275.637 132.861 275.491 135.092C275.36 137.007 275.267 138.949 274.965 140.868C271.381 163.656 257.146 174.263 237.484 173.535C201.321 172.2 185.884 138.067 180.048 118.488C177.952 111.461 177.144 106.713 177.144 106.713C174.539 80.2472 201.925 56.6911 226.624 56.686C261.234 56.6785 269.06 76.6427 272.518 92.5366C272.903 94.272 273.231 95.9597 273.53 97.5667C274.436 102.38 275.614 111.791 275.78 122.627Z" fill="#FFB890"/>
<path d="M247.356 157.621C249.073 157.719 251.277 157.419 253.411 155.91C253.819 155.621 253.915 155.056 253.628 154.651C253.338 154.243 252.775 154.147 252.37 154.434C248.861 156.918 245.094 155.354 244.935 155.286C244.477 155.089 243.946 155.303 243.75 155.759C243.554 156.218 243.763 156.747 244.218 156.946C244.316 156.988 245.575 157.52 247.356 157.621Z" fill="#FF8E69"/>
<path d="M188.844 113.977C185.255 109.609 178.165 111.504 178.165 111.504C165.162 68.5474 201.684 45.2935 237.848 53.316C274.013 61.341 272.526 92.5444 272.526 92.5444C264.442 95.6677 253.583 93.776 253.583 93.776L249.372 81.4211L250.754 94.5569C243.911 97.8641 230.487 98.2545 230.487 98.2545C228.076 96.0279 225.985 85.4362 225.985 85.4362L225.703 98.6626C218.764 101.184 200.222 105.975 200.222 105.975C199.977 100.728 199.965 88.7157 199.965 88.7157C199.965 88.7157 195.619 95.9851 197.687 103.267C197.687 103.267 202.174 124.057 198.626 128.045C195.082 132.032 188.844 113.977 188.844 113.977Z" fill="#3B1034"/>
<path d="M198.629 108.254C198.629 108.254 201.593 117.773 204.991 127.725C210.719 144.503 218.523 168.437 203.645 171.958C203.645 171.958 212.164 160.243 202.711 142.296C195.664 128.919 188.421 115.863 190.364 106.231C192.304 96.5969 198.629 108.254 198.629 108.254Z" fill="#3B1034"/>
<path d="M232.173 105.916C232.629 105.712 233.001 105.332 233.185 104.826C233.535 103.843 233.027 102.765 232.05 102.413C228.202 101.022 219.817 100.468 215.614 108.297C215.12 109.219 215.465 110.365 216.384 110.858C217.302 111.355 218.447 111.007 218.943 110.088C222.64 103.194 230.442 105.858 230.772 105.974C231.247 106.141 231.746 106.108 232.173 105.916Z" fill="#3B1034"/>
<path d="M269.229 106.128C269.727 106.143 270.231 105.964 270.613 105.589C271.356 104.858 271.368 103.667 270.643 102.922C267.787 99.9896 260.486 95.826 253.291 101.035C252.445 101.647 252.257 102.831 252.868 103.675C253.477 104.521 254.66 104.71 255.506 104.098C261.838 99.5111 267.696 105.317 267.943 105.566C268.298 105.924 268.761 106.11 269.229 106.128Z" fill="#3B1034"/>
<path d="M265.857 91.801C265.857 91.801 266.647 97.0881 270.54 101.441C272.551 103.692 274.013 106.378 274.625 109.335L275.37 112.939C275.37 112.939 276.296 97.7833 272.531 92.5441L265.857 91.801Z" fill="#3B1034"/>
<path d="M231.323 142.842C231.323 142.842 249.745 142.263 259.804 139.379C259.804 139.379 261.842 151.809 246.01 152.613C232.913 153.275 231.323 142.842 231.323 142.842Z" fill="white"/>
<path d="M224.943 127.145C225.091 128.717 220.961 130.394 215.719 130.891C210.477 131.389 206.105 130.518 205.957 128.946C205.808 127.374 209.938 125.697 215.181 125.201C220.423 124.704 224.794 125.573 224.943 127.145Z" fill="#FF8E69"/>
<path d="M275.782 122.624C275.785 122.808 275.79 122.984 275.792 123.168C275.813 124.808 275.818 126.473 275.777 128.168C274.987 128.281 274.157 128.372 273.293 128.44C267.513 128.873 262.676 127.951 262.494 126.375C262.316 124.803 266.851 123.176 272.629 122.727C273.724 122.647 274.783 122.614 275.782 122.624Z" fill="#FF8E69"/>
<path d="M230.248 117.39C230.515 120.206 229.488 122.606 227.953 122.752C226.42 122.899 224.961 120.732 224.691 117.919C224.425 115.103 225.452 112.702 226.987 112.556C228.522 112.41 229.982 114.574 230.248 117.39Z" fill="#3B1034"/>
<path d="M264.188 114.43C264.455 117.246 263.428 119.647 261.893 119.793C260.361 119.939 258.901 117.775 258.634 114.959C258.367 112.143 259.394 109.743 260.929 109.597C262.462 109.45 263.922 111.614 264.188 114.43Z" fill="#3B1034"/>
<path d="M244.983 137.603C244.055 137.689 243.219 137.024 243.101 136.092C242.978 135.14 243.65 134.268 244.603 134.145C246.013 133.964 247.155 133.74 247.976 133.551C246.883 128.218 244.276 121.118 244.246 121.04C243.914 120.138 244.374 119.138 245.273 118.805C246.174 118.47 247.173 118.934 247.505 119.833C247.641 120.198 250.81 128.825 251.688 134.553C251.816 135.392 251.32 136.2 250.518 136.467C250.435 136.495 248.414 137.16 245.046 137.593C245.024 137.598 245.004 137.601 244.983 137.603Z" fill="#FF8E69"/>
<path d="M188.056 117.022C188.056 117.022 182.142 108.178 173.139 112.921C164.137 117.664 175.933 157.19 198.631 147.329L188.056 117.022Z" fill="#FFB890"/>
<path d="M195.493 148.4C195.885 149.296 196.137 150.274 196.233 151.301C196.729 156.624 192.81 161.349 187.492 161.845C182.182 162.339 177.453 158.42 176.958 153.097C176.64 149.677 178.161 146.5 180.697 144.543C181.958 143.566 183.476 142.888 185.142 142.637L184.87 139.72C182.489 140.045 180.348 141.029 178.601 142.473C175.48 145.034 173.643 149.052 174.043 153.369C174.687 160.296 180.841 165.407 187.762 164.762C194.683 164.117 199.789 157.959 199.145 151.032C199.029 149.777 198.734 148.584 198.276 147.473L195.493 148.4Z" fill="white"/>
<path d="M187.555 137.671C187.545 137.671 187.538 137.674 187.528 137.674C186.571 137.747 185.736 137.032 185.66 136.075C184.815 125.176 175.963 121.14 175.875 121.103C174.997 120.715 174.599 119.687 174.987 118.808C175.375 117.929 176.401 117.531 177.277 117.919C177.72 118.115 188.119 122.853 189.126 135.805C189.201 136.755 188.499 137.583 187.555 137.671Z" fill="#FF8E69"/>
<path d="M178.384 131.024C177.68 131.09 176.975 130.717 176.653 130.039C176.24 129.173 176.61 128.133 177.476 127.722C177.994 127.475 182.648 125.359 186.199 127.032C187.067 127.44 187.439 128.478 187.032 129.347C186.624 130.216 185.587 130.588 184.719 130.18C182.95 129.347 179.897 130.422 178.968 130.863C178.78 130.954 178.583 131.007 178.384 131.024Z" fill="#FF8E69"/>
<path d="M270.664 65.2804C270.664 65.2804 205.197 62.6658 164.674 91.8037C164.674 91.8037 164.913 79.2473 169.561 65.5373V65.5298C170.449 62.9102 171.499 60.2528 172.74 57.6282C177.979 46.5201 186.632 36.0796 200.896 32.3441C220.79 27.1301 236.746 31.193 248.96 39.7168C251.388 41.4119 253.666 43.2809 255.797 45.2909C261.963 51.0993 266.901 58.0639 270.664 65.2804Z" fill="#F6B74C"/>
<path d="M255.798 45.2931C241.649 47.0941 206.416 51.4769 169.564 65.532C170.452 62.9124 171.502 60.255 172.742 57.6304C187.203 48.5752 222.454 39.7643 248.96 39.7214C251.386 41.4141 253.664 43.2831 255.798 45.2931Z" fill="#FF6129"/>
<path d="M302.044 497.673C301.535 495.875 301.03 494.074 300.521 492.268C299.467 488.517 298.417 484.747 297.378 480.976C289.017 450.674 281.352 420.617 277.841 400.814C277.841 400.814 229.948 428.687 158.608 401.738C158.608 401.738 156.917 409.607 154.035 422.4C153.668 424.007 153.288 425.693 152.888 427.448C151.564 433.297 150.039 439.947 148.355 447.186C147.281 451.77 146.148 456.589 144.96 461.586C143.362 468.306 141.658 475.364 139.876 482.601C139.876 482.608 139.876 482.613 139.876 482.613C139.705 483.288 139.542 483.971 139.366 484.653C139.358 484.674 139.358 484.694 139.358 484.719C138.309 488.983 137.231 493.311 136.134 497.673H302.044Z" fill="#FF6129"/>
<path d="M154.103 423.394C154.103 424.895 153.658 426.293 152.89 427.451C153.29 425.693 153.67 424.008 154.038 422.404C154.083 422.724 154.103 423.059 154.103 423.394Z" fill="#E8311B"/>
<path d="M185.416 423.391C185.416 427.474 182.109 430.783 178.029 430.783C173.95 430.783 170.643 427.474 170.643 423.391C170.643 419.308 173.95 415.998 178.029 415.998C182.109 415.995 185.416 419.308 185.416 423.391Z" fill="#E8311B"/>
<path d="M209.342 430.783C213.421 430.783 216.728 427.473 216.728 423.391C216.728 419.308 213.421 415.998 209.342 415.998C205.263 415.998 201.956 419.308 201.956 423.391C201.956 427.473 205.263 430.783 209.342 430.783Z" fill="#E8311B"/>
<path d="M240.657 430.783C244.736 430.783 248.043 427.473 248.043 423.391C248.043 419.308 244.736 415.998 240.657 415.998C236.577 415.998 233.27 419.308 233.27 423.391C233.27 427.473 236.577 430.783 240.657 430.783Z" fill="#E8311B"/>
<path d="M271.97 430.783C276.049 430.783 279.356 427.473 279.356 423.391C279.356 419.308 276.049 415.998 271.97 415.998C267.89 415.998 264.583 419.308 264.583 423.391C264.583 427.473 267.89 430.783 271.97 430.783Z" fill="#E8311B"/>
<path d="M154.103 454.4C154.103 458.486 150.794 461.795 146.719 461.795C146.115 461.795 145.527 461.722 144.963 461.586C146.148 456.589 147.283 451.77 148.355 447.186C151.645 447.937 154.103 450.879 154.103 454.4Z" fill="#E8311B"/>
<path d="M185.416 454.4C185.416 458.483 182.109 461.793 178.03 461.793C173.95 461.793 170.643 458.483 170.643 454.4C170.643 450.317 173.95 447.007 178.03 447.007C182.109 447.007 185.416 450.317 185.416 454.4Z" fill="#E8311B"/>
<path d="M209.342 461.793C213.421 461.793 216.728 458.483 216.728 454.4C216.728 450.317 213.421 447.007 209.342 447.007C205.263 447.007 201.956 450.317 201.956 454.4C201.956 458.483 205.263 461.793 209.342 461.793Z" fill="#E8311B"/>
<path d="M240.657 461.793C244.737 461.793 248.044 458.483 248.044 454.4C248.044 450.317 244.737 447.007 240.657 447.007C236.578 447.007 233.271 450.317 233.271 454.4C233.271 458.483 236.578 461.793 240.657 461.793Z" fill="#E8311B"/>
<path d="M271.97 461.793C276.049 461.793 279.356 458.483 279.356 454.4C279.356 450.317 276.049 447.007 271.97 447.007C267.89 447.007 264.583 450.317 264.583 454.4C264.583 458.483 267.89 461.793 271.97 461.793Z" fill="#E8311B"/>
<path d="M154.103 485.412C154.103 489.495 150.796 492.805 146.717 492.805C142.637 492.805 139.33 489.495 139.33 485.412C139.33 481.329 142.637 478.019 146.717 478.019C150.796 478.019 154.103 481.329 154.103 485.412Z" fill="#E8311B"/>
<path d="M185.416 485.412C185.416 489.495 182.109 492.805 178.029 492.805C173.95 492.805 170.643 489.495 170.643 485.412C170.643 481.329 173.95 478.019 178.029 478.019C182.109 478.019 185.416 481.329 185.416 485.412Z" fill="#E8311B"/>
<path d="M216.731 485.412C216.731 489.495 213.424 492.805 209.344 492.805C205.265 492.805 201.958 489.495 201.958 485.412C201.958 481.329 205.265 478.019 209.344 478.019C213.424 478.019 216.731 481.329 216.731 485.412Z" fill="#E8311B"/>
<path d="M248.043 485.412C248.043 489.495 244.736 492.805 240.657 492.805C236.577 492.805 233.27 489.495 233.27 485.412C233.27 481.329 236.577 478.019 240.657 478.019C244.736 478.019 248.043 481.329 248.043 485.412Z" fill="#E8311B"/>
<path d="M279.359 485.412C279.359 489.495 276.052 492.805 271.972 492.805C267.893 492.805 264.586 489.495 264.586 485.412C264.586 481.329 267.893 478.019 271.972 478.019C276.049 478.019 279.359 481.329 279.359 485.412Z" fill="#E8311B"/>
<path d="M300.524 492.268C297.811 491.18 295.898 488.518 295.898 485.41C295.898 483.745 296.449 482.211 297.378 480.976C298.42 484.747 299.467 488.518 300.524 492.268Z" fill="#E8311B"/>
<path d="M186.649 245.941C186.649 245.941 196.434 248.916 209.83 253.407C212.181 254.191 214.639 255.022 217.181 255.901C242.635 264.644 275.898 277.253 283.355 285.734C295.797 299.887 287.656 325.481 240.496 310.252C224.485 305.081 208.169 298.482 193.592 292.021C191.665 291.165 189.77 290.311 187.912 289.464C162.366 277.863 155.482 261.415 155.482 261.415L186.649 245.941Z" fill="#FFB890"/>
<path d="M277.972 312.952C277.972 312.952 337.504 283.248 367.429 236.309C392.221 197.421 381.279 193.751 361.037 209.136C340.795 224.519 317.174 243.896 302.257 252.135C272.77 268.424 256.419 274.999 256.419 274.999L277.972 312.952Z" fill="#FFB890"/>
<path d="M384.095 187.952C384.095 187.952 388.703 176.968 387.219 168.867C385.731 160.764 391.354 143.321 385.454 142.89C380.479 142.528 379.754 172.235 375.677 181.22C371.379 190.688 384.095 187.952 384.095 187.952Z" fill="#FF8E69"/>
<path d="M374.285 188.456C374.285 188.456 385.689 174.487 386.444 165.941C387.199 157.394 394.784 143.402 392.851 140.896C390.918 138.389 384.234 148.034 381.591 158.55C378.946 169.069 374.285 188.456 374.285 188.456Z" fill="#FFB890"/>
<path d="M374.21 183.633C374.21 183.633 377.871 168.271 375.35 166.575C372.828 164.88 365.812 173.323 364.105 188.525C363.582 193.194 359.437 198.781 357.31 206.925C354.796 216.552 363.705 225.123 373.195 222.159C373.231 222.149 373.263 222.136 373.299 222.126C374.849 221.632 376.148 220.554 376.935 219.128C380.574 212.537 393.372 188.512 392.906 177.547C392.365 164.769 399.975 145.125 398.493 141.296C397.013 137.468 389.909 148.133 386.328 156.351C382.749 164.568 374.21 183.633 374.21 183.633Z" fill="#FFB890"/>
<path d="M209.833 253.407C212.183 254.19 214.642 255.021 217.184 255.9C215.261 268.253 199.877 287.043 193.595 292.023C191.667 291.167 189.772 290.313 187.915 289.466C200.772 275.703 207.872 258.58 209.833 253.407Z" fill="#3B1034"/>
<path d="M157.211 279.538C166.953 286.275 176.167 291.766 186.737 295.394C186.737 295.394 204.276 276.749 216.348 250.223L157.712 211.597C157.712 211.597 142.237 216.426 139.358 233.685C136.889 248.49 142.459 269.334 157.211 279.538Z" fill="#00A580"/>
<path d="M58.2307 119.138C55.0345 142.44 54.1612 174.356 55.2308 207.902C55.2459 208.401 55.4397 208.877 55.7719 209.247C57.0881 210.703 59.4991 209.715 59.4261 207.753C56.3708 127.413 65.3579 76.2449 85.9041 56.6383C86.6717 55.9053 86.8428 54.7014 86.1935 53.8626C85.4485 52.9029 84.0644 52.8172 83.2062 53.6308C71.0053 65.2074 62.6046 87.2472 58.2307 119.138Z" fill="#00A580"/>
<path d="M64.4974 91.0325C64.4974 91.0325 47.6381 90.5036 49.727 60.8745C49.727 60.8745 75.3015 69.0103 64.4974 91.0325Z" fill="#00CCA1"/>
<path d="M62.6298 106.254C62.6298 106.254 62.2195 89.378 91.8937 89.8137C91.8937 89.8137 85.2019 115.826 62.6298 106.254Z" fill="#00CCA1"/>
<path d="M76.7611 65.0259C76.7611 65.0259 70.7513 49.2529 98.8752 39.762C98.8752 39.762 101.231 66.517 76.7611 65.0259Z" fill="#00CCA1"/>
<path d="M57.9334 136.757C57.9334 136.757 41.8896 141.966 33.8412 113.377C33.8412 113.377 60.659 112.375 57.9334 136.757Z" fill="#00CCA1"/>
<path d="M58.3791 152.55C58.3791 152.55 55.0596 135.999 84.3613 131.294C84.3613 131.294 82.2649 158.071 58.3791 152.55Z" fill="#00CCA1"/>
<path d="M56.8415 174.235C56.8415 174.235 40.8983 179.749 32.3089 151.316C32.3089 151.316 59.104 149.805 56.8415 174.235Z" fill="#00CCA1"/>
<path d="M380.687 393.827C369.289 414.396 350.875 440.466 329.926 466.677C329.614 467.065 329.176 467.332 328.688 467.427C326.762 467.805 325.424 465.566 326.659 464.04C377.222 401.565 400.675 355.218 395.974 327.199C395.797 326.154 396.381 325.085 397.406 324.803C398.576 324.483 399.736 325.244 399.935 326.41C402.761 342.994 396.286 365.677 380.687 393.827Z" fill="#00A580"/>
<path d="M392.503 367.574C392.503 367.574 406.315 377.264 422.389 352.297C422.389 352.297 397.046 343.461 392.503 367.574Z" fill="#00CCA1"/>
<path d="M384.883 380.875C384.883 380.875 395.319 367.614 371.305 350.161C371.305 350.161 361.082 374.994 384.883 380.875Z" fill="#00CCA1"/>
<path d="M398.264 339.398C398.264 339.398 412.521 330.378 395.694 305.91C395.694 305.91 377.783 325.912 398.264 339.398Z" fill="#00CCA1"/>
<path d="M370.372 408.109C370.372 408.109 380.094 421.904 403.66 403.849C403.66 403.849 382.794 386.956 370.372 408.109Z" fill="#00CCA1"/>
<path d="M360.556 420.482C360.556 420.482 373.127 409.225 352.491 387.88C352.491 387.88 338.133 410.573 360.556 420.482Z" fill="#00CCA1"/>
<path d="M348.801 438.763C348.801 438.763 358.259 452.74 382.162 435.136C382.162 435.136 361.621 417.849 348.801 438.763Z" fill="#00CCA1"/>
<path d="M26.5452 306.217C26.5452 306.217 16.7352 258.177 33.5441 257.732C50.353 257.286 26.5452 306.217 26.5452 306.217Z" fill="#00CCA1"/>
<path d="M22.9564 326.217C22.4305 326 22.1033 325.443 22.1939 324.856L29.1324 280.578C29.2406 279.89 29.8849 279.422 30.5694 279.528C31.2565 279.633 31.7246 280.281 31.6189 280.966L24.6804 325.244C24.5722 325.932 23.9279 326.401 23.2433 326.295C23.1427 326.282 23.047 326.254 22.9564 326.217Z" fill="#00A580"/>
<path d="M27.8389 304.046C27.8389 304.046 51.01 260.848 64.2125 271.268C77.415 281.689 27.8389 304.046 27.8389 304.046Z" fill="#00CCA1"/>
<path d="M26.417 305.832C26.2434 305.761 26.0848 305.648 25.954 305.499C25.4959 304.978 25.5463 304.182 26.0697 303.721L46.2208 285.999C46.7443 285.54 47.537 285.591 47.9976 286.114C48.4556 286.636 48.4052 287.432 47.8818 287.893L27.7307 305.615C27.3557 305.943 26.8449 306.011 26.417 305.832Z" fill="#00A580"/>
<path d="M449.901 207.464C449.901 207.464 494.286 186.711 484.624 172.938C474.962 159.165 449.901 207.464 449.901 207.464Z" fill="#00CCA1"/>
<path d="M435.997 222.27C436.485 222.562 437.124 222.494 437.542 222.071L468.928 190.102C469.416 189.605 469.408 188.807 468.913 188.321C468.417 187.832 467.621 187.84 467.133 188.336L435.748 220.305C435.26 220.801 435.267 221.597 435.763 222.086C435.833 222.159 435.914 222.219 435.997 222.27Z" fill="#00A580"/>
<path d="M450.873 205.129C450.873 205.129 471.714 160.757 455.486 156.359C439.256 151.964 450.873 205.129 450.873 205.129Z" fill="#00CCA1"/>
<path d="M450.289 207.337C450.45 207.433 450.634 207.496 450.833 207.511C451.525 207.569 452.134 207.053 452.189 206.36L454.394 179.602C454.452 178.91 453.936 178.303 453.244 178.245C452.551 178.187 451.942 178.703 451.887 179.396L449.682 206.153C449.64 206.65 449.889 207.1 450.289 207.337Z" fill="#00A580"/>
<path d="M331.117 133.437C330.397 133.437 329.707 133.024 329.39 132.324C328.957 131.369 329.378 130.246 330.332 129.813C381.687 106.451 408.535 75.9702 422.014 54.5122C436.613 31.2735 439.118 13.3142 439.143 13.1353C439.281 12.0976 440.23 11.3696 441.269 11.5031C442.306 11.6391 443.039 12.5912 442.903 13.629C442.804 14.3846 440.318 32.427 425.351 56.3308C411.603 78.29 384.229 109.463 331.902 133.269C331.645 133.382 331.378 133.437 331.117 133.437Z" fill="#00A580"/>
<path d="M363.902 112.385C363.902 112.385 349.451 127.135 324.533 100.693C324.533 100.693 353.052 84.3933 363.902 112.385Z" fill="#00CCA1"/>
<path d="M379.498 102.929C379.498 102.929 397.215 113.526 377.384 143.976C377.384 143.976 354.859 120.057 379.498 102.929Z" fill="#00CCA1"/>
<path d="M418.838 63.7236C418.838 63.7236 399.641 71.3104 414.286 104.572C414.286 104.572 440.381 84.6174 418.838 63.7236Z" fill="#00CCA1"/>
<path d="M426.806 49.754C426.806 49.754 419.517 30.427 386.068 44.5804C386.068 44.5804 405.605 70.9979 426.806 49.754Z" fill="#00CCA1"/>
<path d="M403.147 80.4008C403.147 80.4008 395.851 99.7253 362.407 85.5569C362.407 85.5569 381.956 59.1469 403.147 80.4008Z" fill="#00CCA1"/>
<path d="M30.0737 382.701C32.4243 384.238 35.5752 383.575 37.1078 381.218C38.6405 378.86 37.9786 375.704 35.628 374.165C33.2775 372.629 30.1266 373.291 28.5939 375.649C27.0587 378.009 27.7206 381.165 30.0737 382.701Z" fill="#FF6129"/>
<path d="M352.667 47.2356C354.237 49.5655 357.398 50.1775 359.724 48.6008C362.052 47.024 362.666 43.8578 361.095 41.5279C359.525 39.198 356.364 38.5858 354.038 40.1626C351.711 41.7394 351.096 44.9056 352.667 47.2356Z" fill="#FF6129"/>
<path d="M411.683 440.491C414.034 442.028 417.185 441.365 418.717 439.007C420.25 436.65 419.588 433.494 417.237 431.957C414.887 430.421 411.736 431.083 410.203 433.441C408.668 435.798 409.33 438.955 411.683 440.491Z" fill="#FF6129"/>
<path d="M133.361 52.9778C135.711 54.5143 138.862 53.8519 140.395 51.4942C141.928 49.1366 141.266 45.9805 138.915 44.4415C136.565 42.905 133.414 43.57 131.881 45.9251C130.348 48.2827 131.01 51.4388 133.361 52.9778Z" fill="#FF6129"/>
<path d="M433.583 306.071C435.934 307.607 439.084 306.945 440.617 304.587C442.15 302.23 441.488 299.074 439.137 297.537C436.787 296.001 433.636 296.663 432.103 299.021C430.568 301.376 431.232 304.532 433.583 306.071Z" fill="#FF6129"/>
<path d="M2.30731 155.371C4.65789 156.908 7.80878 156.245 9.34144 153.888C10.8741 151.53 10.2122 148.374 7.86163 146.835C5.51105 145.298 2.36016 145.961 0.827504 148.319C-0.707671 150.676 -0.0457812 153.832 2.30731 155.371Z" fill="#FF6129"/>
<path d="M11.2619 218.768C13.6125 220.304 16.7634 219.642 18.296 217.284C19.8287 214.927 19.1668 211.77 16.8162 210.231C14.4656 208.695 11.3148 209.357 9.7821 211.715C8.24692 214.073 8.91132 217.229 11.2619 218.768Z" fill="#008661"/>
<path d="M273.105 8.62157C274.675 10.9515 277.836 11.5636 280.161 9.98676C282.489 8.40997 283.103 5.24376 281.533 2.91384C279.963 0.583913 276.802 -0.028144 274.476 1.54865C272.146 3.12292 271.534 6.29165 273.105 8.62157Z" fill="#008661"/>
<path d="M458.894 255.304C461.244 256.84 464.395 256.178 465.928 253.82C467.46 251.463 466.798 248.306 464.448 246.77C462.097 245.234 458.946 245.896 457.414 248.254C455.879 250.611 456.543 253.767 458.894 255.304Z" fill="#008661"/>
<path d="M74.4856 458.67C76.8362 460.206 79.9871 459.544 81.5198 457.186C83.0524 454.828 82.3905 451.672 80.0399 450.136C77.6894 448.599 74.5385 449.262 73.0058 451.619C71.4732 453.977 72.135 457.133 74.4856 458.67Z" fill="#008661"/>
</svg>
