<svg width="571" height="34" viewBox="0 0 571 34" fill="none" xmlns="http://www.w3.org/2000/svg">
<rect width="81" height="34" rx="5" fill="#0B7077"/>
<path d="M27.164 13.44H24.224V21H23.144V13.44H20.204V12.48H27.164V13.44ZM31.5893 21.06C30.9893 21.06 30.4453 20.94 29.9573 20.7C29.4693 20.46 29.0453 20.136 28.6853 19.728C28.3333 19.312 28.0613 18.848 27.8693 18.336C27.6773 17.816 27.5813 17.284 27.5813 16.74C27.5813 16.172 27.6813 15.632 27.8813 15.12C28.0893 14.6 28.3733 14.14 28.7333 13.74C29.1013 13.332 29.5293 13.012 30.0173 12.78C30.5053 12.54 31.0373 12.42 31.6133 12.42C32.2133 12.42 32.7573 12.544 33.2453 12.792C33.7333 13.04 34.1533 13.372 34.5053 13.788C34.8573 14.204 35.1293 14.668 35.3213 15.18C35.5133 15.692 35.6093 16.216 35.6093 16.752C35.6093 17.32 35.5093 17.864 35.3093 18.384C35.1093 18.896 34.8253 19.356 34.4573 19.764C34.0973 20.164 33.6733 20.48 33.1853 20.712C32.6973 20.944 32.1653 21.06 31.5893 21.06ZM28.6733 16.74C28.6733 17.172 28.7413 17.592 28.8773 18C29.0213 18.4 29.2213 18.756 29.4773 19.068C29.7333 19.38 30.0413 19.628 30.4013 19.812C30.7613 19.996 31.1613 20.088 31.6013 20.088C32.0573 20.088 32.4653 19.992 32.8253 19.8C33.1853 19.608 33.4893 19.352 33.7373 19.032C33.9933 18.712 34.1853 18.352 34.3133 17.952C34.4493 17.552 34.5173 17.148 34.5173 16.74C34.5173 16.308 34.4453 15.892 34.3013 15.492C34.1653 15.092 33.9653 14.736 33.7013 14.424C33.4453 14.104 33.1373 13.856 32.7773 13.68C32.4253 13.496 32.0333 13.404 31.6013 13.404C31.1453 13.404 30.7373 13.5 30.3773 13.692C30.0173 13.876 29.7093 14.128 29.4533 14.448C29.2053 14.768 29.0133 15.128 28.8773 15.528C28.7413 15.92 28.6733 16.324 28.6733 16.74ZM37.1098 21V12.48H40.0618C40.9738 12.48 41.7338 12.672 42.3418 13.056C42.9578 13.432 43.4178 13.944 43.7218 14.592C44.0258 15.232 44.1778 15.944 44.1778 16.728C44.1778 17.592 44.0098 18.344 43.6738 18.984C43.3378 19.624 42.8618 20.12 42.2458 20.472C41.6298 20.824 40.9018 21 40.0618 21H37.1098ZM43.0858 16.728C43.0858 16.088 42.9658 15.52 42.7258 15.024C42.4938 14.528 42.1538 14.14 41.7058 13.86C41.2578 13.58 40.7098 13.44 40.0618 13.44H38.1898V20.04H40.0618C40.7178 20.04 41.2698 19.896 41.7178 19.608C42.1658 19.312 42.5058 18.916 42.7378 18.42C42.9698 17.916 43.0858 17.352 43.0858 16.728ZM49.1557 21.06C48.5557 21.06 48.0117 20.94 47.5237 20.7C47.0357 20.46 46.6117 20.136 46.2517 19.728C45.8997 19.312 45.6277 18.848 45.4357 18.336C45.2437 17.816 45.1477 17.284 45.1477 16.74C45.1477 16.172 45.2477 15.632 45.4477 15.12C45.6557 14.6 45.9397 14.14 46.2997 13.74C46.6677 13.332 47.0957 13.012 47.5837 12.78C48.0717 12.54 48.6037 12.42 49.1797 12.42C49.7797 12.42 50.3237 12.544 50.8117 12.792C51.2997 13.04 51.7197 13.372 52.0717 13.788C52.4237 14.204 52.6957 14.668 52.8877 15.18C53.0797 15.692 53.1757 16.216 53.1757 16.752C53.1757 17.32 53.0757 17.864 52.8757 18.384C52.6757 18.896 52.3917 19.356 52.0237 19.764C51.6637 20.164 51.2397 20.48 50.7517 20.712C50.2637 20.944 49.7317 21.06 49.1557 21.06ZM46.2397 16.74C46.2397 17.172 46.3077 17.592 46.4437 18C46.5877 18.4 46.7877 18.756 47.0437 19.068C47.2997 19.38 47.6077 19.628 47.9677 19.812C48.3277 19.996 48.7277 20.088 49.1677 20.088C49.6237 20.088 50.0317 19.992 50.3917 19.8C50.7517 19.608 51.0557 19.352 51.3037 19.032C51.5597 18.712 51.7517 18.352 51.8797 17.952C52.0157 17.552 52.0837 17.148 52.0837 16.74C52.0837 16.308 52.0117 15.892 51.8677 15.492C51.7317 15.092 51.5317 14.736 51.2677 14.424C51.0117 14.104 50.7037 13.856 50.3437 13.68C49.9917 13.496 49.5997 13.404 49.1677 13.404C48.7117 13.404 48.3037 13.5 47.9437 13.692C47.5837 13.876 47.2757 14.128 47.0197 14.448C46.7717 14.768 46.5797 15.128 46.4437 15.528C46.3077 15.92 46.2397 16.324 46.2397 16.74ZM59.6803 14.268C59.5843 14.156 59.4563 14.048 59.2963 13.944C59.1363 13.84 58.9563 13.748 58.7563 13.668C58.5563 13.58 58.3363 13.512 58.0963 13.464C57.8643 13.408 57.6203 13.38 57.3643 13.38C56.7083 13.38 56.2243 13.504 55.9123 13.752C55.6003 14 55.4443 14.34 55.4443 14.772C55.4443 15.076 55.5243 15.316 55.6843 15.492C55.8443 15.668 56.0883 15.812 56.4163 15.924C56.7523 16.036 57.1763 16.152 57.6883 16.272C58.2803 16.4 58.7923 16.556 59.2243 16.74C59.6563 16.924 59.9883 17.172 60.2203 17.484C60.4523 17.788 60.5683 18.196 60.5683 18.708C60.5683 19.116 60.4883 19.472 60.3283 19.776C60.1763 20.072 59.9603 20.32 59.6803 20.52C59.4003 20.712 59.0723 20.856 58.6963 20.952C58.3203 21.04 57.9123 21.084 57.4723 21.084C57.0403 21.084 56.6163 21.04 56.2003 20.952C55.7923 20.856 55.4043 20.72 55.0363 20.544C54.6683 20.368 54.3243 20.148 54.0043 19.884L54.5203 18.972C54.6483 19.108 54.8123 19.244 55.0123 19.38C55.2203 19.508 55.4523 19.628 55.7083 19.74C55.9723 19.852 56.2563 19.944 56.5603 20.016C56.8643 20.08 57.1763 20.112 57.4963 20.112C58.1043 20.112 58.5763 20.004 58.9123 19.788C59.2483 19.564 59.4163 19.24 59.4163 18.816C59.4163 18.496 59.3203 18.24 59.1283 18.048C58.9443 17.856 58.6683 17.696 58.3003 17.568C57.9323 17.44 57.4843 17.312 56.9563 17.184C56.3803 17.04 55.8963 16.884 55.5043 16.716C55.1123 16.54 54.8163 16.312 54.6163 16.032C54.4243 15.752 54.3283 15.388 54.3283 14.94C54.3283 14.396 54.4603 13.936 54.7243 13.56C54.9883 13.184 55.3523 12.9 55.8163 12.708C56.2803 12.516 56.8043 12.42 57.3883 12.42C57.7723 12.42 58.1283 12.46 58.4563 12.54C58.7923 12.62 59.1043 12.732 59.3923 12.876C59.6803 13.02 59.9443 13.192 60.1843 13.392L59.6803 14.268Z" fill="white"/>
<rect x="105.5" y="0.5" width="78" height="33" rx="4.5" stroke="#C4C4C4"/>
<path d="M133.388 21V14.496L130.58 19.5H129.92L127.1 14.496V21H126.02V12.48H127.16L130.244 18.012L133.34 12.48H134.468V21H133.388ZM142.292 20.04V21H136.508V12.48H142.184V13.44H137.588V16.2H141.584V17.1H137.588V20.04H142.292ZM139.868 11.46L139.172 11.22L139.868 10.008H140.924L139.868 11.46ZM143.774 21V12.48H146.726C147.638 12.48 148.398 12.672 149.006 13.056C149.622 13.432 150.082 13.944 150.386 14.592C150.69 15.232 150.842 15.944 150.842 16.728C150.842 17.592 150.674 18.344 150.338 18.984C150.002 19.624 149.526 20.12 148.91 20.472C148.294 20.824 147.566 21 146.726 21H143.774ZM149.75 16.728C149.75 16.088 149.63 15.52 149.39 15.024C149.158 14.528 148.818 14.14 148.37 13.86C147.922 13.58 147.374 13.44 146.726 13.44H144.854V20.04H146.726C147.382 20.04 147.934 19.896 148.382 19.608C148.83 19.312 149.17 18.916 149.402 18.42C149.634 17.916 149.75 17.352 149.75 16.728ZM152.364 21V12.48H153.444V21H152.364ZM158.937 21.06C158.337 21.06 157.793 20.94 157.305 20.7C156.817 20.46 156.393 20.136 156.033 19.728C155.681 19.312 155.409 18.848 155.217 18.336C155.025 17.816 154.929 17.284 154.929 16.74C154.929 16.172 155.029 15.632 155.229 15.12C155.437 14.6 155.721 14.14 156.081 13.74C156.449 13.332 156.877 13.012 157.365 12.78C157.853 12.54 158.385 12.42 158.961 12.42C159.561 12.42 160.105 12.544 160.593 12.792C161.081 13.04 161.501 13.372 161.853 13.788C162.205 14.204 162.477 14.668 162.669 15.18C162.861 15.692 162.957 16.216 162.957 16.752C162.957 17.32 162.857 17.864 162.657 18.384C162.457 18.896 162.173 19.356 161.805 19.764C161.445 20.164 161.021 20.48 160.533 20.712C160.045 20.944 159.513 21.06 158.937 21.06ZM156.021 16.74C156.021 17.172 156.089 17.592 156.225 18C156.369 18.4 156.569 18.756 156.825 19.068C157.081 19.38 157.389 19.628 157.749 19.812C158.109 19.996 158.509 20.088 158.949 20.088C159.405 20.088 159.813 19.992 160.173 19.8C160.533 19.608 160.837 19.352 161.085 19.032C161.341 18.712 161.533 18.352 161.661 17.952C161.797 17.552 161.865 17.148 161.865 16.74C161.865 16.308 161.793 15.892 161.649 15.492C161.513 15.092 161.313 14.736 161.049 14.424C160.793 14.104 160.485 13.856 160.125 13.68C159.773 13.496 159.381 13.404 158.949 13.404C158.493 13.404 158.085 13.5 157.725 13.692C157.365 13.876 157.057 14.128 156.801 14.448C156.553 14.768 156.361 15.128 156.225 15.528C156.089 15.92 156.021 16.324 156.021 16.74Z" fill="#818C96"/>
<rect x="208.5" y="0.5" width="105" height="33" rx="4.5" stroke="#C4C4C4"/>
<path d="M231.612 12.48H232.524L236.004 21H234.852L233.844 18.504H230.268L229.272 21H228.12L231.612 12.48ZM233.604 17.664L232.068 13.728L230.484 17.664H233.604ZM236.69 12.48L239.51 19.644L242.318 12.48H243.458L240.002 21H239.018L235.55 12.48H236.69ZM246.507 12.48H247.419L250.899 21H249.747L248.739 18.504H245.163L244.167 21H243.015L246.507 12.48ZM248.499 17.664L246.963 13.728L245.379 17.664H248.499ZM253.116 14.472V21H252.036V12.48H252.948L258.156 19.14V12.492H259.236V21H258.252L253.116 14.472ZM260.718 16.68C260.718 16.16 260.806 15.652 260.982 15.156C261.166 14.652 261.43 14.196 261.774 13.788C262.126 13.372 262.554 13.044 263.058 12.804C263.562 12.556 264.134 12.432 264.774 12.432C265.534 12.432 266.186 12.608 266.73 12.96C267.274 13.304 267.678 13.748 267.942 14.292L267.09 14.844C266.922 14.484 266.706 14.2 266.442 13.992C266.186 13.776 265.906 13.624 265.602 13.536C265.306 13.448 265.014 13.404 264.726 13.404C264.254 13.404 263.834 13.5 263.466 13.692C263.106 13.884 262.802 14.14 262.554 14.46C262.306 14.78 262.118 15.14 261.99 15.54C261.87 15.932 261.81 16.328 261.81 16.728C261.81 17.168 261.882 17.592 262.026 18C262.178 18.408 262.386 18.768 262.65 19.08C262.914 19.392 263.226 19.64 263.586 19.824C263.946 20.008 264.338 20.1 264.762 20.1C265.058 20.1 265.362 20.048 265.674 19.944C265.986 19.84 266.278 19.68 266.55 19.464C266.822 19.24 267.038 18.952 267.198 18.6L268.098 19.092C267.922 19.516 267.65 19.876 267.282 20.172C266.914 20.468 266.502 20.692 266.046 20.844C265.598 20.996 265.154 21.072 264.714 21.072C264.13 21.072 263.594 20.948 263.106 20.7C262.618 20.444 262.194 20.108 261.834 19.692C261.482 19.268 261.206 18.796 261.006 18.276C260.814 17.748 260.718 17.216 260.718 16.68ZM264.582 23.232C264.374 23.232 264.146 23.204 263.898 23.148C263.658 23.092 263.422 23.008 263.19 22.896L263.478 22.308C263.638 22.388 263.786 22.452 263.922 22.5C264.066 22.548 264.226 22.572 264.402 22.572C264.65 22.572 264.842 22.52 264.978 22.416C265.114 22.32 265.182 22.176 265.182 21.984C265.182 21.784 265.11 21.608 264.966 21.456C264.83 21.304 264.634 21.152 264.378 21L264.762 20.724C265.09 20.924 265.354 21.132 265.554 21.348C265.754 21.564 265.854 21.836 265.854 22.164C265.854 22.492 265.742 22.752 265.518 22.944C265.294 23.136 264.982 23.232 264.582 23.232ZM271.925 12.48H272.837L276.317 21H275.165L274.157 18.504H270.581L269.585 21H268.433L271.925 12.48ZM273.917 17.664L272.381 13.728L270.797 17.664H273.917ZM277.454 21V12.48H280.406C281.318 12.48 282.078 12.672 282.686 13.056C283.302 13.432 283.762 13.944 284.066 14.592C284.37 15.232 284.522 15.944 284.522 16.728C284.522 17.592 284.354 18.344 284.018 18.984C283.682 19.624 283.206 20.12 282.59 20.472C281.974 20.824 281.246 21 280.406 21H277.454ZM283.43 16.728C283.43 16.088 283.31 15.52 283.07 15.024C282.838 14.528 282.498 14.14 282.05 13.86C281.602 13.58 281.054 13.44 280.406 13.44H278.534V20.04H280.406C281.062 20.04 281.614 19.896 282.062 19.608C282.51 19.312 282.85 18.916 283.082 18.42C283.314 17.916 283.43 17.352 283.43 16.728ZM289.499 21.06C288.899 21.06 288.355 20.94 287.867 20.7C287.379 20.46 286.955 20.136 286.595 19.728C286.243 19.312 285.971 18.848 285.779 18.336C285.587 17.816 285.491 17.284 285.491 16.74C285.491 16.172 285.591 15.632 285.791 15.12C285.999 14.6 286.283 14.14 286.643 13.74C287.011 13.332 287.439 13.012 287.927 12.78C288.415 12.54 288.947 12.42 289.523 12.42C290.123 12.42 290.667 12.544 291.155 12.792C291.643 13.04 292.063 13.372 292.415 13.788C292.767 14.204 293.039 14.668 293.231 15.18C293.423 15.692 293.519 16.216 293.519 16.752C293.519 17.32 293.419 17.864 293.219 18.384C293.019 18.896 292.735 19.356 292.367 19.764C292.007 20.164 291.583 20.48 291.095 20.712C290.607 20.944 290.075 21.06 289.499 21.06ZM286.583 16.74C286.583 17.172 286.651 17.592 286.787 18C286.931 18.4 287.131 18.756 287.387 19.068C287.643 19.38 287.951 19.628 288.311 19.812C288.671 19.996 289.071 20.088 289.511 20.088C289.967 20.088 290.375 19.992 290.735 19.8C291.095 19.608 291.399 19.352 291.647 19.032C291.903 18.712 292.095 18.352 292.223 17.952C292.359 17.552 292.427 17.148 292.427 16.74C292.427 16.308 292.355 15.892 292.211 15.492C292.075 15.092 291.875 14.736 291.611 14.424C291.355 14.104 291.047 13.856 290.687 13.68C290.335 13.496 289.943 13.404 289.511 13.404C289.055 13.404 288.647 13.5 288.287 13.692C287.927 13.876 287.619 14.128 287.363 14.448C287.115 14.768 286.923 15.128 286.787 15.528C286.651 15.92 286.583 16.324 286.583 16.74Z" fill="#818C96"/>
<rect x="338.5" y="0.5" width="124" height="33" rx="4.5" stroke="#C4C4C4"/>
<path d="M359.02 21V12.48H362.572C362.948 12.48 363.292 12.56 363.604 12.72C363.916 12.872 364.188 13.08 364.42 13.344C364.652 13.6 364.832 13.892 364.96 14.22C365.088 14.54 365.152 14.868 365.152 15.204C365.152 15.668 365.048 16.112 364.84 16.536C364.632 16.952 364.34 17.292 363.964 17.556C363.588 17.812 363.148 17.94 362.644 17.94H360.1V21H359.02ZM360.1 16.98H362.584C362.88 16.98 363.136 16.9 363.352 16.74C363.576 16.58 363.748 16.364 363.868 16.092C363.996 15.82 364.06 15.524 364.06 15.204C364.06 14.868 363.988 14.568 363.844 14.304C363.7 14.032 363.512 13.82 363.28 13.668C363.048 13.516 362.792 13.44 362.512 13.44H360.1V16.98ZM366.497 21V12.48H370.145C370.521 12.48 370.865 12.56 371.177 12.72C371.489 12.872 371.761 13.08 371.993 13.344C372.225 13.6 372.405 13.892 372.533 14.22C372.661 14.54 372.725 14.868 372.725 15.204C372.725 15.596 372.649 15.968 372.497 16.32C372.353 16.672 372.145 16.972 371.873 17.22C371.609 17.468 371.297 17.64 370.937 17.736L373.001 21H371.777L369.833 17.94H367.577V21H366.497ZM367.577 16.98H370.157C370.453 16.98 370.709 16.9 370.925 16.74C371.149 16.572 371.321 16.352 371.441 16.08C371.569 15.808 371.633 15.516 371.633 15.204C371.633 14.884 371.561 14.592 371.417 14.328C371.273 14.056 371.085 13.84 370.853 13.68C370.621 13.52 370.365 13.44 370.085 13.44H367.577V16.98ZM377.839 21.06C377.239 21.06 376.695 20.94 376.207 20.7C375.719 20.46 375.295 20.136 374.935 19.728C374.583 19.312 374.311 18.848 374.119 18.336C373.927 17.816 373.831 17.284 373.831 16.74C373.831 16.172 373.931 15.632 374.131 15.12C374.339 14.6 374.623 14.14 374.983 13.74C375.351 13.332 375.779 13.012 376.267 12.78C376.755 12.54 377.287 12.42 377.863 12.42C378.463 12.42 379.007 12.544 379.495 12.792C379.983 13.04 380.403 13.372 380.755 13.788C381.107 14.204 381.379 14.668 381.571 15.18C381.763 15.692 381.859 16.216 381.859 16.752C381.859 17.32 381.759 17.864 381.559 18.384C381.359 18.896 381.075 19.356 380.707 19.764C380.347 20.164 379.923 20.48 379.435 20.712C378.947 20.944 378.415 21.06 377.839 21.06ZM374.923 16.74C374.923 17.172 374.991 17.592 375.127 18C375.271 18.4 375.471 18.756 375.727 19.068C375.983 19.38 376.291 19.628 376.651 19.812C377.011 19.996 377.411 20.088 377.851 20.088C378.307 20.088 378.715 19.992 379.075 19.8C379.435 19.608 379.739 19.352 379.987 19.032C380.243 18.712 380.435 18.352 380.563 17.952C380.699 17.552 380.767 17.148 380.767 16.74C380.767 16.308 380.695 15.892 380.551 15.492C380.415 15.092 380.215 14.736 379.951 14.424C379.695 14.104 379.387 13.856 379.027 13.68C378.675 13.496 378.283 13.404 377.851 13.404C377.395 13.404 376.987 13.5 376.627 13.692C376.267 13.876 375.959 14.128 375.703 14.448C375.455 14.768 375.263 15.128 375.127 15.528C374.991 15.92 374.923 16.324 374.923 16.74ZM383.36 21V12.48H388.988V13.44H384.44V16.284H388.268V17.184H384.44V21H383.36ZM396.14 20.04V21H390.356V12.48H396.032V13.44H391.436V16.2H395.432V17.1H391.436V20.04H396.14ZM402.626 14.268C402.53 14.156 402.402 14.048 402.242 13.944C402.082 13.84 401.902 13.748 401.702 13.668C401.502 13.58 401.282 13.512 401.042 13.464C400.81 13.408 400.566 13.38 400.31 13.38C399.654 13.38 399.17 13.504 398.858 13.752C398.546 14 398.39 14.34 398.39 14.772C398.39 15.076 398.47 15.316 398.63 15.492C398.79 15.668 399.034 15.812 399.362 15.924C399.698 16.036 400.122 16.152 400.634 16.272C401.226 16.4 401.738 16.556 402.17 16.74C402.602 16.924 402.934 17.172 403.166 17.484C403.398 17.788 403.514 18.196 403.514 18.708C403.514 19.116 403.434 19.472 403.274 19.776C403.122 20.072 402.906 20.32 402.626 20.52C402.346 20.712 402.018 20.856 401.642 20.952C401.266 21.04 400.858 21.084 400.418 21.084C399.986 21.084 399.562 21.04 399.146 20.952C398.738 20.856 398.35 20.72 397.982 20.544C397.614 20.368 397.27 20.148 396.95 19.884L397.466 18.972C397.594 19.108 397.758 19.244 397.958 19.38C398.166 19.508 398.398 19.628 398.654 19.74C398.918 19.852 399.202 19.944 399.506 20.016C399.81 20.08 400.122 20.112 400.442 20.112C401.05 20.112 401.522 20.004 401.858 19.788C402.194 19.564 402.362 19.24 402.362 18.816C402.362 18.496 402.266 18.24 402.074 18.048C401.89 17.856 401.614 17.696 401.246 17.568C400.878 17.44 400.43 17.312 399.902 17.184C399.326 17.04 398.842 16.884 398.45 16.716C398.058 16.54 397.762 16.312 397.562 16.032C397.37 15.752 397.274 15.388 397.274 14.94C397.274 14.396 397.406 13.936 397.67 13.56C397.934 13.184 398.298 12.9 398.762 12.708C399.226 12.516 399.75 12.42 400.334 12.42C400.718 12.42 401.074 12.46 401.402 12.54C401.738 12.62 402.05 12.732 402.338 12.876C402.626 13.02 402.89 13.192 403.13 13.392L402.626 14.268ZM409.938 14.268C409.842 14.156 409.714 14.048 409.554 13.944C409.394 13.84 409.214 13.748 409.014 13.668C408.814 13.58 408.594 13.512 408.354 13.464C408.122 13.408 407.878 13.38 407.622 13.38C406.966 13.38 406.482 13.504 406.17 13.752C405.858 14 405.702 14.34 405.702 14.772C405.702 15.076 405.782 15.316 405.942 15.492C406.102 15.668 406.346 15.812 406.674 15.924C407.01 16.036 407.434 16.152 407.946 16.272C408.538 16.4 409.05 16.556 409.482 16.74C409.914 16.924 410.246 17.172 410.478 17.484C410.71 17.788 410.826 18.196 410.826 18.708C410.826 19.116 410.746 19.472 410.586 19.776C410.434 20.072 410.218 20.32 409.938 20.52C409.658 20.712 409.33 20.856 408.954 20.952C408.578 21.04 408.17 21.084 407.73 21.084C407.298 21.084 406.874 21.04 406.458 20.952C406.05 20.856 405.662 20.72 405.294 20.544C404.926 20.368 404.582 20.148 404.262 19.884L404.778 18.972C404.906 19.108 405.07 19.244 405.27 19.38C405.478 19.508 405.71 19.628 405.966 19.74C406.23 19.852 406.514 19.944 406.818 20.016C407.122 20.08 407.434 20.112 407.754 20.112C408.362 20.112 408.834 20.004 409.17 19.788C409.506 19.564 409.674 19.24 409.674 18.816C409.674 18.496 409.578 18.24 409.386 18.048C409.202 17.856 408.926 17.696 408.558 17.568C408.19 17.44 407.742 17.312 407.214 17.184C406.638 17.04 406.154 16.884 405.762 16.716C405.37 16.54 405.074 16.312 404.874 16.032C404.682 15.752 404.586 15.388 404.586 14.94C404.586 14.396 404.718 13.936 404.982 13.56C405.246 13.184 405.61 12.9 406.074 12.708C406.538 12.516 407.062 12.42 407.646 12.42C408.03 12.42 408.386 12.46 408.714 12.54C409.05 12.62 409.362 12.732 409.65 12.876C409.938 13.02 410.202 13.192 410.442 13.392L409.938 14.268ZM415.703 21.06C415.103 21.06 414.559 20.94 414.071 20.7C413.583 20.46 413.159 20.136 412.799 19.728C412.447 19.312 412.175 18.848 411.983 18.336C411.791 17.816 411.695 17.284 411.695 16.74C411.695 16.172 411.795 15.632 411.995 15.12C412.203 14.6 412.487 14.14 412.847 13.74C413.215 13.332 413.643 13.012 414.131 12.78C414.619 12.54 415.151 12.42 415.727 12.42C416.327 12.42 416.871 12.544 417.359 12.792C417.847 13.04 418.267 13.372 418.619 13.788C418.971 14.204 419.243 14.668 419.435 15.18C419.627 15.692 419.723 16.216 419.723 16.752C419.723 17.32 419.623 17.864 419.423 18.384C419.223 18.896 418.939 19.356 418.571 19.764C418.211 20.164 417.787 20.48 417.299 20.712C416.811 20.944 416.279 21.06 415.703 21.06ZM412.787 16.74C412.787 17.172 412.855 17.592 412.991 18C413.135 18.4 413.335 18.756 413.591 19.068C413.847 19.38 414.155 19.628 414.515 19.812C414.875 19.996 415.275 20.088 415.715 20.088C416.171 20.088 416.579 19.992 416.939 19.8C417.299 19.608 417.603 19.352 417.851 19.032C418.107 18.712 418.299 18.352 418.427 17.952C418.563 17.552 418.631 17.148 418.631 16.74C418.631 16.308 418.559 15.892 418.415 15.492C418.279 15.092 418.079 14.736 417.815 14.424C417.559 14.104 417.251 13.856 416.891 13.68C416.539 13.496 416.147 13.404 415.715 13.404C415.259 13.404 414.851 13.5 414.491 13.692C414.131 13.876 413.823 14.128 413.567 14.448C413.319 14.768 413.127 15.128 412.991 15.528C412.855 15.92 412.787 16.324 412.787 16.74ZM421.223 21V12.48H424.871C425.247 12.48 425.591 12.56 425.903 12.72C426.215 12.872 426.487 13.08 426.719 13.344C426.951 13.6 427.131 13.892 427.259 14.22C427.387 14.54 427.451 14.868 427.451 15.204C427.451 15.596 427.375 15.968 427.223 16.32C427.079 16.672 426.871 16.972 426.599 17.22C426.335 17.468 426.023 17.64 425.663 17.736L427.727 21H426.503L424.559 17.94H422.303V21H421.223ZM422.303 16.98H424.883C425.179 16.98 425.435 16.9 425.651 16.74C425.875 16.572 426.047 16.352 426.167 16.08C426.295 15.808 426.359 15.516 426.359 15.204C426.359 14.884 426.287 14.592 426.143 14.328C425.999 14.056 425.811 13.84 425.579 13.68C425.347 13.52 425.091 13.44 424.811 13.44H422.303V16.98ZM434.894 20.04V21H429.11V12.48H434.786V13.44H430.19V16.2H434.186V17.1H430.19V20.04H434.894ZM441.379 14.268C441.283 14.156 441.155 14.048 440.995 13.944C440.835 13.84 440.655 13.748 440.455 13.668C440.255 13.58 440.035 13.512 439.795 13.464C439.563 13.408 439.319 13.38 439.063 13.38C438.407 13.38 437.923 13.504 437.611 13.752C437.299 14 437.143 14.34 437.143 14.772C437.143 15.076 437.223 15.316 437.383 15.492C437.543 15.668 437.787 15.812 438.115 15.924C438.451 16.036 438.875 16.152 439.387 16.272C439.979 16.4 440.491 16.556 440.923 16.74C441.355 16.924 441.687 17.172 441.919 17.484C442.151 17.788 442.267 18.196 442.267 18.708C442.267 19.116 442.187 19.472 442.027 19.776C441.875 20.072 441.659 20.32 441.379 20.52C441.099 20.712 440.771 20.856 440.395 20.952C440.019 21.04 439.611 21.084 439.171 21.084C438.739 21.084 438.315 21.04 437.899 20.952C437.491 20.856 437.103 20.72 436.735 20.544C436.367 20.368 436.023 20.148 435.703 19.884L436.219 18.972C436.347 19.108 436.511 19.244 436.711 19.38C436.919 19.508 437.151 19.628 437.407 19.74C437.671 19.852 437.955 19.944 438.259 20.016C438.563 20.08 438.875 20.112 439.195 20.112C439.803 20.112 440.275 20.004 440.611 19.788C440.947 19.564 441.115 19.24 441.115 18.816C441.115 18.496 441.019 18.24 440.827 18.048C440.643 17.856 440.367 17.696 439.999 17.568C439.631 17.44 439.183 17.312 438.655 17.184C438.079 17.04 437.595 16.884 437.203 16.716C436.811 16.54 436.515 16.312 436.315 16.032C436.123 15.752 436.027 15.388 436.027 14.94C436.027 14.396 436.159 13.936 436.423 13.56C436.687 13.184 437.051 12.9 437.515 12.708C437.979 12.516 438.503 12.42 439.087 12.42C439.471 12.42 439.827 12.46 440.155 12.54C440.491 12.62 440.803 12.732 441.091 12.876C441.379 13.02 441.643 13.192 441.883 13.392L441.379 14.268Z" fill="#818C96"/>
<rect x="487.5" y="0.5" width="83" height="33" rx="4.5" stroke="#C4C4C4"/>
<path d="M514.56 18.804C514.56 19.244 514.448 19.628 514.224 19.956C514 20.284 513.696 20.54 513.312 20.724C512.936 20.908 512.52 21 512.064 21H508.02V12.48H512.256C512.656 12.48 513 12.588 513.288 12.804C513.584 13.012 513.808 13.284 513.96 13.62C514.12 13.948 514.2 14.292 514.2 14.652C514.2 15.068 514.092 15.46 513.876 15.828C513.668 16.188 513.368 16.456 512.976 16.632C513.464 16.776 513.848 17.044 514.128 17.436C514.416 17.82 514.56 18.276 514.56 18.804ZM513.468 18.612C513.468 18.348 513.408 18.104 513.288 17.88C513.176 17.656 513.02 17.476 512.82 17.34C512.628 17.204 512.404 17.136 512.148 17.136H509.1V20.064H512.064C512.328 20.064 512.564 19.996 512.772 19.86C512.988 19.724 513.156 19.548 513.276 19.332C513.404 19.108 513.468 18.868 513.468 18.612ZM509.1 13.416V16.26H511.812C512.068 16.26 512.292 16.196 512.484 16.068C512.684 15.94 512.84 15.768 512.952 15.552C513.072 15.336 513.132 15.1 513.132 14.844C513.132 14.572 513.076 14.332 512.964 14.124C512.86 13.908 512.712 13.736 512.52 13.608C512.336 13.48 512.124 13.416 511.884 13.416H509.1ZM518.487 12.48H519.399L522.879 21H521.727L520.719 18.504H517.143L516.147 21H514.995L518.487 12.48ZM520.479 17.664L518.943 13.728L517.359 17.664H520.479ZM519.315 11.46L518.619 11.22L519.315 10.008H520.371L519.315 11.46ZM528.903 14.268C528.807 14.156 528.679 14.048 528.519 13.944C528.359 13.84 528.179 13.748 527.979 13.668C527.779 13.58 527.559 13.512 527.319 13.464C527.087 13.408 526.843 13.38 526.587 13.38C525.931 13.38 525.447 13.504 525.135 13.752C524.823 14 524.667 14.34 524.667 14.772C524.667 15.076 524.747 15.316 524.907 15.492C525.067 15.668 525.311 15.812 525.639 15.924C525.975 16.036 526.399 16.152 526.911 16.272C527.503 16.4 528.015 16.556 528.447 16.74C528.879 16.924 529.211 17.172 529.443 17.484C529.675 17.788 529.791 18.196 529.791 18.708C529.791 19.116 529.711 19.472 529.551 19.776C529.399 20.072 529.183 20.32 528.903 20.52C528.623 20.712 528.295 20.856 527.919 20.952C527.543 21.04 527.135 21.084 526.695 21.084C526.263 21.084 525.839 21.04 525.423 20.952C525.015 20.856 524.627 20.72 524.259 20.544C523.891 20.368 523.547 20.148 523.227 19.884L523.743 18.972C523.871 19.108 524.035 19.244 524.235 19.38C524.443 19.508 524.675 19.628 524.931 19.74C525.195 19.852 525.479 19.944 525.783 20.016C526.087 20.08 526.399 20.112 526.719 20.112C527.327 20.112 527.799 20.004 528.135 19.788C528.471 19.564 528.639 19.24 528.639 18.816C528.639 18.496 528.543 18.24 528.351 18.048C528.167 17.856 527.891 17.696 527.523 17.568C527.155 17.44 526.707 17.312 526.179 17.184C525.603 17.04 525.119 16.884 524.727 16.716C524.335 16.54 524.039 16.312 523.839 16.032C523.647 15.752 523.551 15.388 523.551 14.94C523.551 14.396 523.683 13.936 523.947 13.56C524.211 13.184 524.575 12.9 525.039 12.708C525.503 12.516 526.027 12.42 526.611 12.42C526.995 12.42 527.351 12.46 527.679 12.54C528.015 12.62 528.327 12.732 528.615 12.876C528.903 13.02 529.167 13.192 529.407 13.392L528.903 14.268ZM531.211 21V12.48H532.291V21H531.211ZM533.777 16.68C533.777 16.16 533.865 15.652 534.041 15.156C534.225 14.652 534.489 14.196 534.833 13.788C535.185 13.372 535.613 13.044 536.117 12.804C536.621 12.556 537.193 12.432 537.833 12.432C538.593 12.432 539.245 12.608 539.789 12.96C540.333 13.304 540.737 13.748 541.001 14.292L540.149 14.844C539.981 14.484 539.765 14.2 539.501 13.992C539.245 13.776 538.965 13.624 538.661 13.536C538.365 13.448 538.073 13.404 537.785 13.404C537.313 13.404 536.893 13.5 536.525 13.692C536.165 13.884 535.861 14.14 535.613 14.46C535.365 14.78 535.177 15.14 535.049 15.54C534.929 15.932 534.869 16.328 534.869 16.728C534.869 17.168 534.941 17.592 535.085 18C535.237 18.408 535.445 18.768 535.709 19.08C535.973 19.392 536.285 19.64 536.645 19.824C537.005 20.008 537.397 20.1 537.821 20.1C538.117 20.1 538.421 20.048 538.733 19.944C539.045 19.84 539.337 19.68 539.609 19.464C539.881 19.24 540.097 18.952 540.257 18.6L541.157 19.092C540.981 19.516 540.709 19.876 540.341 20.172C539.973 20.468 539.561 20.692 539.105 20.844C538.657 20.996 538.213 21.072 537.773 21.072C537.189 21.072 536.653 20.948 536.165 20.7C535.677 20.444 535.253 20.108 534.893 19.692C534.541 19.268 534.265 18.796 534.065 18.276C533.873 17.748 533.777 17.216 533.777 16.68ZM545.871 21.06C545.271 21.06 544.727 20.94 544.239 20.7C543.751 20.46 543.327 20.136 542.967 19.728C542.615 19.312 542.343 18.848 542.151 18.336C541.959 17.816 541.863 17.284 541.863 16.74C541.863 16.172 541.963 15.632 542.163 15.12C542.371 14.6 542.655 14.14 543.015 13.74C543.383 13.332 543.811 13.012 544.299 12.78C544.787 12.54 545.319 12.42 545.895 12.42C546.495 12.42 547.039 12.544 547.527 12.792C548.015 13.04 548.435 13.372 548.787 13.788C549.139 14.204 549.411 14.668 549.603 15.18C549.795 15.692 549.891 16.216 549.891 16.752C549.891 17.32 549.791 17.864 549.591 18.384C549.391 18.896 549.107 19.356 548.739 19.764C548.379 20.164 547.955 20.48 547.467 20.712C546.979 20.944 546.447 21.06 545.871 21.06ZM542.955 16.74C542.955 17.172 543.023 17.592 543.159 18C543.303 18.4 543.503 18.756 543.759 19.068C544.015 19.38 544.323 19.628 544.683 19.812C545.043 19.996 545.443 20.088 545.883 20.088C546.339 20.088 546.747 19.992 547.107 19.8C547.467 19.608 547.771 19.352 548.019 19.032C548.275 18.712 548.467 18.352 548.595 17.952C548.731 17.552 548.799 17.148 548.799 16.74C548.799 16.308 548.727 15.892 548.583 15.492C548.447 15.092 548.247 14.736 547.983 14.424C547.727 14.104 547.419 13.856 547.059 13.68C546.707 13.496 546.315 13.404 545.883 13.404C545.427 13.404 545.019 13.5 544.659 13.692C544.299 13.876 543.991 14.128 543.735 14.448C543.487 14.768 543.295 15.128 543.159 15.528C543.023 15.92 542.955 16.324 542.955 16.74Z" fill="#818C96"/>
</svg>
