<svg width="300" height="306" viewBox="0 0 300 306" fill="none" xmlns="http://www.w3.org/2000/svg">
<path d="M202.753 237.569C240.079 200.221 240.079 139.669 202.753 102.322C165.427 64.9746 104.91 64.9746 67.5844 102.322C30.2586 139.669 30.2586 200.221 67.5844 237.569C104.91 274.916 165.427 274.916 202.753 237.569Z" fill="#00A580"/>
<path d="M93.7891 121.622C93.7891 121.622 66.918 117.587 61.8926 149.188C56.8672 180.79 61.518 250.086 103.43 251.643C145.341 253.201 93.7891 121.622 93.7891 121.622Z" fill="#F6B74C"/>
<path d="M218.554 164.706C205.757 159.016 192.081 151.158 182.744 145.498C182.174 145.149 181.621 144.814 181.091 144.483C175.082 140.809 171.249 138.277 171.249 138.277V109.487C171.249 109.487 201.409 124.225 221.763 136.103C222.555 136.561 223.331 137.018 224.092 137.471C224.586 137.76 225.076 138.057 225.55 138.342C225.562 138.35 225.569 138.353 225.579 138.36C226.124 138.692 226.659 139.022 227.186 139.336C233.055 142.952 237.515 146.095 239.216 148.168C246.656 157.27 240.865 174.631 218.554 164.706Z" fill="#F6B74C"/>
<path d="M225.581 138.361L215.819 147.345L221.763 136.103C222.556 136.561 223.331 137.017 224.092 137.471C224.586 137.76 225.077 138.057 225.551 138.342C225.562 138.35 225.57 138.354 225.581 138.361Z" fill="#3B1034"/>
<path d="M182.744 145.496C182.174 145.149 181.622 144.814 181.089 144.486C180.28 138.977 178.219 125.359 176.904 120.294C176.803 119.895 177.041 119.489 177.441 119.384C177.84 119.28 178.245 119.521 178.346 119.921C179.814 125.567 182.111 141.107 182.744 145.496Z" fill="#008661"/>
<path d="M208.382 156.443C208.382 156.443 250.726 111.92 258.73 103.318C271.13 89.9928 284.616 98.186 271.923 119.059C253.489 149.371 249.861 160.979 236.207 166.776C233.628 167.871 230.689 167.723 228.19 166.46L208.382 156.443Z" fill="#F6B74C"/>
<path d="M264.2 102.695C263.061 101.352 262.374 99.7114 262.363 97.378C262.348 94.301 262.807 89.64 263.997 87.1778C265.78 83.4787 271.622 72.8848 274.86 71.9348C278.096 70.9847 273.757 80.5232 272.904 82.4965C272.051 84.4712 272.196 86.1327 272.196 86.1327C272.196 86.1327 283.825 65.0415 286.476 64.5789C289.127 64.1178 283.696 76.7977 282.333 79.923C282.333 79.923 291.967 64.5277 293.741 64.7751C297.305 65.2698 287.095 82.6794 287.095 82.6794C287.095 82.6794 295.851 70.1503 297.842 71.6801C299.952 73.3005 290.539 86.6962 290.539 86.6962C290.539 86.6962 297.424 79.3799 299.732 79.9069C302.039 80.4324 288.752 96.93 286.409 99.2166C284.065 101.502 277.069 109.247 272.447 108.691C269.566 108.342 265.963 104.772 264.2 102.695Z" fill="#FFB890"/>
<path d="M269.103 102.608C277.36 101.995 278.377 92.13 278.386 92.0304C278.422 91.6366 278.133 91.2868 277.739 91.2487C277.342 91.2121 276.994 91.502 276.956 91.8957C276.923 92.2529 276.039 100.653 268.996 101.177C268.992 101.177 268.987 101.181 268.987 101.178C268.592 101.207 268.295 101.551 268.324 101.947C268.355 102.343 268.712 102.627 269.103 102.608Z" fill="#FF8E69"/>
<path d="M288.964 91.0978C289.339 91.07 289.632 90.7553 289.629 90.3747C289.624 89.978 289.299 89.6603 288.903 89.6647C281.547 89.7438 277.745 83.963 277.707 83.9045C277.493 83.5707 277.048 83.4726 276.715 83.6893C276.381 83.903 276.285 84.348 276.5 84.6818C276.671 84.9482 280.777 91.1886 288.918 91.1008C288.934 91.0993 288.948 91.0993 288.964 91.0978Z" fill="#FF8E69"/>
<path d="M86.9057 120.751C86.9057 120.751 62.1648 112.199 78.5665 92.4475C94.9683 72.6973 133.191 81.4994 139.169 86.5702C152.325 97.7306 145.379 106.417 145.379 106.417C145.379 106.417 125.55 127.091 86.9057 120.751Z" fill="#00A580"/>
<path d="M86.2065 101.892C85.9109 101.892 85.6242 101.733 85.4764 101.452C85.2628 101.048 85.4164 100.547 85.8202 100.335C86.4873 99.9806 102.367 91.6805 119.042 93.159C119.497 93.2 119.832 93.6011 119.793 94.0564C119.752 94.5116 119.351 94.8483 118.896 94.8073C102.711 93.3742 86.7536 101.712 86.5941 101.796C86.4698 101.862 86.3381 101.892 86.2065 101.892Z" fill="#008661"/>
<path d="M109.164 94.9858C108.923 94.9858 108.683 94.8804 108.519 94.677C105.88 91.3935 97.6399 89.9721 97.5565 89.9575C97.1059 89.8814 96.8031 89.4554 96.8791 89.0045C96.9552 88.5537 97.3824 88.2507 97.8316 88.3268C98.1958 88.3883 106.775 89.8682 109.808 93.6405C110.094 93.9963 110.037 94.5174 109.682 94.8028C109.53 94.9273 109.347 94.9858 109.164 94.9858Z" fill="#008661"/>
<path d="M203.065 275.644H94.0669C93.8109 266.51 93.6529 256.026 93.5578 246.092C93.5037 240.314 93.47 234.721 93.4481 229.701C93.3969 217.43 93.4218 208.541 93.4218 208.541C93.4218 208.541 93.0853 205.331 92.5264 200.519C92.0875 196.768 91.5125 192.041 90.8542 187.091C90.4007 183.717 89.9076 180.245 89.3912 176.907C89.182 175.534 88.9625 174.189 88.7431 172.886C88.1023 169.058 87.4381 165.574 86.7753 162.852C83.4836 149.34 73.6258 122.783 82.2795 115.715C98.8086 101.658 110.921 94.6404 110.921 94.6404L133.681 93.9846C133.681 93.9846 169.886 101.245 174.715 114.479C175.991 117.965 178.324 129.457 181.128 144.792C181.167 145.036 181.211 145.282 181.255 145.528C181.328 145.912 181.394 146.297 181.471 146.685C181.489 146.797 181.511 146.919 181.533 147.036C181.577 147.285 181.616 147.526 181.664 147.772C181.698 147.958 181.73 148.149 181.767 148.339C182.809 154.133 183.913 160.389 185.04 166.918V166.922C186.4 174.798 187.802 183.066 189.195 191.359V191.363C195.237 227.454 201.07 264.128 202.53 272.09C202.765 273.349 202.941 274.527 203.065 275.644Z" fill="#F6B74C"/>
<path d="M146.442 226.027L93.5592 246.094C93.5051 240.314 93.4714 234.722 93.4495 229.701C108.153 228.699 146.442 226.027 146.442 226.027Z" fill="#008661"/>
<path d="M139.537 115.039C139.216 114.66 138.648 114.648 138.311 114.997C133.77 119.694 127.977 121.584 121.03 120.656C120.543 120.592 120.113 120.974 120.113 121.465C120.113 121.874 120.413 122.224 120.818 122.276C128.253 123.238 134.613 121.183 139.47 116.178C139.769 115.871 139.815 115.369 139.537 115.039Z" fill="#008661"/>
<path d="M114.625 190.611L114.312 191.259L103.645 213.437L92.5279 200.52C92.0876 196.768 91.5141 192.04 90.8542 187.095L99.069 170.246L114.093 189.913L114.625 190.611Z" fill="#008661"/>
<path d="M113.752 190.609L125.542 166.429L141.098 186.792L130.117 209.617L113.752 190.609Z" fill="#008661"/>
<path d="M140.708 186.964L152.499 162.783L168.055 183.145L157.073 205.972L140.708 186.964Z" fill="#008661"/>
<path d="M189.199 191.357V191.361L183.824 202.526L167.727 183.828L167.459 183.52L167.801 182.815L179.251 159.341L185.043 166.918V166.922C186.403 174.796 187.805 183.063 189.199 191.357Z" fill="#008661"/>
<path d="M128.927 267.602C128.509 267.602 128.151 267.285 128.107 266.861C128.06 266.407 128.389 266 128.843 265.953C129.157 265.921 160.452 262.528 170.6 249.724C170.884 249.366 171.403 249.306 171.761 249.589C172.118 249.873 172.178 250.393 171.896 250.751C161.316 264.102 130.329 267.463 129.014 267.599C128.986 267.6 128.957 267.602 128.927 267.602Z" fill="#008661"/>
<path d="M123.057 259.333C122.648 259.333 122.293 259.03 122.239 258.614C122.179 258.162 122.498 257.746 122.95 257.686C123.051 257.673 133.166 256.301 144.765 251.652C155.407 247.386 169.517 239.407 176.31 225.613C176.512 225.203 177.006 225.035 177.416 225.237C177.826 225.439 177.994 225.935 177.792 226.345C170.762 240.619 156.265 248.828 145.341 253.202C133.555 257.92 123.267 259.312 123.165 259.325C123.128 259.33 123.092 259.333 123.057 259.333Z" fill="#008661"/>
<path d="M131.087 220.277C131.558 220.277 131.935 219.886 131.915 219.415C129.906 172.889 115.744 118.579 115.588 117.987C115.472 117.545 115.019 117.282 114.578 117.399C114.136 117.515 113.873 117.967 113.99 118.409C114.145 118.999 128.268 173.154 130.265 219.49C130.282 219.93 130.645 220.277 131.087 220.277Z" fill="white"/>
<path d="M159.477 217.449C159.948 217.449 160.325 217.057 160.305 216.587C158.264 170.105 144.143 115.953 143.988 115.361C143.872 114.919 143.419 114.656 142.978 114.773C142.536 114.889 142.273 115.341 142.39 115.783C142.545 116.371 156.627 170.371 158.654 216.661C158.673 217.103 159.035 217.449 159.477 217.449Z" fill="white"/>
<path d="M125.435 115.562C123.63 115.562 121.74 115.411 119.766 115.11C111.443 113.835 104.705 110.365 104.422 110.219C104.017 110.008 103.859 109.509 104.07 109.104C104.28 108.698 104.779 108.54 105.184 108.751C105.252 108.786 111.996 112.254 120.056 113.48C130.68 115.098 138.455 112.255 143.163 105.031C143.411 104.648 143.923 104.541 144.307 104.79C144.689 105.038 144.797 105.551 144.548 105.934C140.405 112.289 133.861 115.562 125.435 115.562Z" fill="#008661"/>
<path d="M130.2 111.618C119.854 113.4 109.572 105.316 109.572 105.316C111.039 98.9135 111.069 91.3468 110.491 85.7725C110.2 82.9546 109.87 81.1086 109.87 81.1086L137.451 91.2356L138.477 101.529L138.727 104.046C138.727 104.046 138.853 110.13 130.2 111.618Z" fill="#FFB890"/>
<path d="M138.477 101.529C124.517 100.631 114.264 90.1992 110.324 84.294C110.033 81.4761 109.869 81.1101 109.869 81.1101L137.45 91.237L138.477 101.529Z" fill="#3B1034"/>
<path d="M149.945 50.1454C149.945 50.1454 151.661 43.1833 158.454 44.1172C165.247 45.0512 166.85 72.7985 150.207 71.7708L149.945 50.1454Z" fill="#FF8E69"/>
<path d="M156.251 73.2976C153.945 86.648 145.624 96.3724 131.415 94.8763C100.379 91.6031 95.5216 48.0857 95.5216 48.0857C93.1749 25.6405 110.861 14.3381 132.139 18.1134C153.417 21.8916 155.569 35.3619 156.923 45.8212C157.328 48.9509 157.74 55.1078 157.423 62.1167C157.372 63.2132 157.307 64.3286 157.217 65.4617C157.107 66.8465 156.971 68.2488 156.794 69.6571C156.643 70.8677 156.466 72.0856 156.251 73.2976Z" fill="#FFB890"/>
<path d="M137.76 85.9992C138.965 86.068 140.515 85.8587 142.014 84.7974C142.301 84.5954 142.368 84.1987 142.166 83.9118C141.963 83.6263 141.567 83.5575 141.281 83.7596C138.816 85.503 136.168 84.4066 136.057 84.3583C135.735 84.2207 135.362 84.37 135.225 84.6906C135.087 85.0112 135.233 85.3844 135.554 85.5235C135.624 85.5542 136.506 85.9275 137.76 85.9992Z" fill="#FF8E69"/>
<path d="M133.741 36.429C133.741 36.429 139.369 37.6015 143.006 35.5448C146.367 33.6447 147.116 33.3315 148.476 33.4501C150.703 33.6447 152.273 40.8542 152.273 40.8542L157.111 44.0322C157.111 44.0322 155.665 34.4909 153.158 31.4373C150.65 28.3837 142.617 26.5319 137.114 31.0625C131.612 35.5946 133.741 36.429 133.741 36.429Z" fill="#3B1034"/>
<path d="M138.529 28.9884C140.878 32.4153 137.853 37.003 133.741 36.4291C128.96 35.7616 122.441 35.2317 120.376 36.8932C116.988 39.6218 117.682 43.3312 115.843 46.2516C114.002 49.1705 100.304 47.4314 100.304 47.4314L99.1233 38.3878C99.1233 38.3878 128.092 25.5908 134.973 26.8248C136.693 27.1337 137.815 27.9447 138.529 28.9884Z" fill="#3B1034"/>
<path d="M99.1217 51.1728C99.1217 51.1728 94.7517 55.5439 90.2105 55.6214C85.6693 55.699 90.2105 46.5221 90.2105 46.5221C90.2105 46.5221 82.0118 45.0861 83.2919 39.2307C84.5721 33.3753 90.032 33.3753 90.032 33.3753C90.032 33.3753 85.0461 21.177 89.5639 17.3959C94.0816 13.6133 97.6309 20.0177 97.6309 20.0177C97.6309 20.0177 98.7969 2.81739 110.08 1.53652C121.362 0.255651 112.735 12.8814 112.735 12.8814C112.735 12.8814 123.213 -2.12311 133.336 0.255651C143.458 2.63441 131.915 12.8814 131.915 12.8814C131.915 12.8814 147.619 1.53652 155.048 6.47702C162.477 11.4175 148.893 17.3959 148.893 17.3959C148.893 17.3959 163.392 19.0061 163.299 26.7397C163.207 34.4732 152.273 32.6434 152.273 32.6434C152.273 32.6434 110.156 32.5804 99.1217 51.1728Z" fill="#3B1034"/>
<path d="M152.273 40.8542C152.273 40.8542 152.581 45.2619 154.887 48.1618C156.079 49.6608 156.908 51.4159 157.187 53.3116L157.526 55.6216C157.526 55.6216 158.668 46.0553 156.473 42.5992C155.427 41.3212 153.901 40.9889 152.273 40.8542Z" fill="#3B1034"/>
<path d="M112.099 53.1811C111.907 53.4973 111.768 53.8589 111.663 54.2497C111.534 54.7445 111.464 55.2949 111.433 55.8717C111.227 59.6718 112.64 64.8173 108.823 65.577C104.406 66.4582 102.605 57.2052 102.317 55.5218C102.289 55.3535 102.275 55.2612 102.275 55.2612C101.986 54.8601 101.67 54.4942 101.344 54.1575C99.0077 51.7758 95.9719 51.0161 95.9719 51.0161C101.328 43.4436 116.555 40.8584 116.555 40.8584C116.804 47.2057 113.373 51.0761 112.099 53.1811Z" fill="#3B1034"/>
<path d="M122.053 51.9958C121.765 51.9313 121.491 51.785 121.27 51.5581C120.667 50.9359 120.682 49.9434 121.304 49.3403C121.515 49.1354 123.446 47.329 126.193 47.0904C129.068 46.8401 130.907 47.6379 131.107 47.7301C131.895 48.0917 132.24 49.0212 131.878 49.8088C131.52 50.5919 130.598 50.9388 129.814 50.5875C129.763 50.5656 128.481 50.04 126.465 50.2157C124.797 50.3606 123.5 51.58 123.487 51.5917C123.093 51.9723 122.55 52.107 122.053 51.9958Z" fill="#3B1034"/>
<path d="M144.089 50.2287C143.83 50.0882 143.608 49.8715 143.458 49.5919C143.05 48.8278 143.338 47.8778 144.102 47.4694C144.361 47.3303 146.716 46.1285 149.422 46.6569C152.254 47.2103 153.8 48.4853 153.969 48.6287C154.625 49.1923 154.7 50.1833 154.137 50.8406C153.577 51.4935 152.595 51.574 151.938 51.0177C151.896 50.9826 150.809 50.1233 148.822 49.7354C147.177 49.4148 145.596 50.2273 145.58 50.236C145.095 50.4951 144.537 50.4732 144.089 50.2287Z" fill="#3B1034"/>
<path d="M128.057 75.5329C128.057 75.5329 140.31 75.8549 147.097 74.3252C147.097 74.3252 147.974 82.6545 137.434 82.5799C128.714 82.5184 128.057 75.5329 128.057 75.5329Z" fill="white"/>
<path d="M126.424 63.9405C126.461 64.9418 123.783 65.8523 120.443 65.9753C117.103 66.0983 114.366 65.3868 114.328 64.387C114.291 63.3857 116.969 62.4752 120.309 62.3523C123.65 62.2278 126.388 62.9393 126.424 63.9405Z" fill="#FF8E69"/>
<path d="M157.216 65.4615C156.535 65.564 155.791 65.6357 155.009 65.6665C151.669 65.788 148.929 65.078 148.893 64.0753C148.857 63.0769 151.533 62.1664 154.874 62.0405C155.783 62.0054 156.649 62.0361 157.424 62.1166C157.372 63.2145 157.309 64.33 157.216 65.4615Z" fill="#FF8E69"/>
<path d="M127.716 56.9436C127.782 58.7368 127.043 60.2197 126.066 60.2563C125.089 60.2929 124.243 58.8686 124.177 57.0753C124.111 55.2821 124.85 53.7992 125.827 53.7627C126.805 53.7261 127.65 55.1504 127.716 56.9436Z" fill="#3B1034"/>
<path d="M149.735 56.5847C149.8 58.3779 149.062 59.8608 148.084 59.8974C147.107 59.934 146.261 58.5097 146.195 56.7165C146.13 54.9232 146.868 53.4404 147.846 53.4038C148.822 53.3672 149.667 54.7915 149.735 56.5847Z" fill="#3B1034"/>
<path d="M137.257 70.5526C136.797 70.475 136.434 70.0915 136.401 69.6055C136.361 69.036 136.79 68.5412 137.359 68.5017C138.3 68.4359 139.059 68.329 139.592 68.2368C139.103 64.807 137.69 60.149 137.674 60.0978C137.507 59.5517 137.815 58.975 138.361 58.8081C138.907 58.6412 139.485 58.9486 139.652 59.4946C139.723 59.7303 141.414 65.3047 141.76 68.9585C141.807 69.4606 141.486 69.9231 141 70.0534C140.946 70.0681 139.649 70.4121 137.505 70.5628C137.419 70.5716 137.337 70.5672 137.257 70.5526Z" fill="#FF8E69"/>
<path d="M102.275 55.2583C102.275 55.2583 98.639 49.0793 92.3963 51.9207C86.1552 54.7605 92.5573 81.8067 108.211 76.0552L102.275 55.2583Z" fill="#FFB890"/>
<path d="M100.921 68.9763C100.441 68.8944 100.073 68.4816 100.062 67.978C99.9147 60.5314 94.0437 57.4368 93.9837 57.4061C93.476 57.1455 93.2756 56.5233 93.5345 56.0139C93.7949 55.506 94.4167 55.304 94.9259 55.566C95.2126 55.7124 101.956 59.2681 102.128 67.937C102.14 68.5079 101.686 68.9793 101.116 68.991C101.049 68.9924 100.984 68.988 100.921 68.9763Z" fill="#FF8E69"/>
<path d="M95.011 64.1498C94.6701 64.0927 94.3658 63.8643 94.2268 63.5203C94.0117 62.9919 94.2663 62.3888 94.7944 62.1736C95.147 62.0301 98.3013 60.8078 100.573 62.0419C101.075 62.3141 101.261 62.9421 100.987 63.4428C100.715 63.9449 100.091 64.1308 99.5873 63.8585C98.3832 63.2027 96.2311 63.8204 95.5742 64.0883C95.3884 64.163 95.1938 64.1805 95.011 64.1498Z" fill="#FF8E69"/>
<path d="M125.008 71.9539C122.401 71.6128 120.012 70.3934 118.187 68.4509C116.098 66.2259 114.999 63.3216 115.095 60.2709C115.19 57.2202 116.465 54.3892 118.688 52.2988C120.911 50.2084 123.814 49.109 126.863 49.2042C129.915 49.2993 132.741 50.5758 134.831 52.8009C136.92 55.0245 138.018 57.9302 137.923 60.9809C137.828 64.0315 136.552 66.8626 134.33 68.953C132.108 71.0434 129.204 72.1427 126.155 72.0476C125.77 72.0344 125.387 72.0022 125.008 71.9539ZM127.853 50.488C127.514 50.4441 127.173 50.4163 126.828 50.406C124.099 50.3211 121.503 51.3048 119.513 53.1742C117.525 55.045 116.382 57.5774 116.297 60.3075C116.212 63.0376 117.195 65.6359 119.064 67.6253C120.933 69.6161 123.461 70.7594 126.193 70.8429C128.921 70.9278 131.518 69.944 133.507 68.0747C135.496 66.2039 136.637 63.6714 136.722 60.9414C136.807 58.2127 135.824 55.6129 133.956 53.6236C132.323 51.8845 130.185 50.7925 127.853 50.488Z" fill="white"/>
<path d="M149.867 69.2646C147.402 68.9425 145.145 67.789 143.42 65.9519C141.445 63.8498 140.408 61.1022 140.497 58.2184C140.586 55.3346 141.793 52.6572 143.894 50.681C145.995 48.7048 148.739 47.6655 151.623 47.7562C157.569 47.9421 162.263 52.9353 162.079 58.8888C161.895 64.8423 156.903 69.5354 150.953 69.3509C150.587 69.3407 150.224 69.3114 149.867 69.2646ZM152.537 49.0371C152.224 48.9961 151.907 48.9697 151.585 48.9595C149.023 48.8804 146.584 49.8027 144.718 51.5593C142.851 53.3145 141.778 55.6932 141.699 58.2564C141.62 60.8196 142.542 63.2599 144.298 65.1277C146.052 66.9956 148.429 68.0686 150.991 68.1477C156.278 68.3116 160.713 64.1411 160.878 58.8507C161.03 53.8854 157.362 49.6695 152.537 49.0371Z" fill="white"/>
<path d="M136.991 59.1584C136.801 59.1335 136.62 59.0413 136.487 58.8846C136.201 58.5494 136.235 58.0503 136.567 57.7604C136.652 57.6858 138.677 55.9687 141.43 57.3871C141.824 57.5891 141.979 58.0737 141.777 58.4675C141.575 58.8612 141.091 59.0164 140.697 58.8144C138.93 57.9039 137.667 58.933 137.615 58.9769C137.435 59.1291 137.208 59.1877 136.991 59.1584Z" fill="white"/>
<path d="M116.827 57.2303C116.616 57.6197 116.129 57.7646 115.74 57.5538C115.7 57.5348 113.936 56.5994 111.431 55.8704C108.826 55.1062 105.417 54.569 102.317 55.5191C102.289 55.3507 102.274 55.2585 102.274 55.2585C101.986 54.8574 101.67 54.4914 101.344 54.1547C104.882 52.8914 108.729 53.4184 111.663 54.2484C114.397 55.0199 116.337 56.0563 116.501 56.1427C116.89 56.3535 117.038 56.8409 116.827 57.2303Z" fill="white"/>
<path d="M93.789 265.762C93.0648 265.762 92.3464 265.457 91.8402 264.863C90.9229 263.787 91.0517 262.17 92.127 261.252C144.397 216.653 161.079 176.354 165.87 150.4C171.005 122.575 163.972 105.144 163.901 104.971C163.359 103.664 163.978 102.166 165.285 101.623C166.591 101.082 168.089 101.701 168.631 103.008C168.947 103.771 176.313 122.028 170.905 151.33C167.753 168.413 160.872 185.742 150.454 202.835C137.496 224.099 118.989 245.064 95.4495 265.149C94.9681 265.561 94.3771 265.762 93.789 265.762Z" fill="#F6B74C"/>
<path d="M92.6859 155.399C92.6859 155.399 90.7416 165.857 87.7497 179.073C87.3562 180.809 86.9436 182.596 86.5149 184.413C85.2187 189.911 83.7732 195.692 82.2342 201.265C81.9211 202.399 81.6051 203.526 81.2817 204.637C81.1237 205.201 80.9584 205.76 80.796 206.316C77.1634 218.676 73.1328 229.169 69.3919 231.943C61.8794 237.518 43.3562 236.688 51.9675 199.509C53.41 193.273 55.0837 186.969 56.8656 180.79C57.7946 177.56 58.8012 174.381 59.7317 171.242C69.9595 136.628 81.1823 117.37 81.1823 117.37L92.6859 155.399Z" fill="#F6B74C"/>
<path d="M98.2437 148.929L95.3396 158.115L94.2424 161.574L89.3925 176.908C89.1833 175.535 88.9638 174.189 88.7444 172.886L92.5775 160.783L96.5027 148.38C96.6534 147.897 97.1684 147.631 97.6483 147.783C98.131 147.934 98.3973 148.45 98.2437 148.929Z" fill="#008661"/>
<path d="M93.4497 161.975C93.1995 161.975 92.9523 161.874 92.7709 161.673C92.4315 161.299 92.4607 160.72 92.8352 160.381L98.5892 155.172C98.9638 154.834 99.5417 154.862 99.8811 155.237C100.221 155.611 100.191 156.19 99.8167 156.529L94.0627 161.736C93.8871 161.897 93.6677 161.975 93.4497 161.975Z" fill="#008661"/>
<path d="M140.02 211.211L152.393 209.627L154.006 226.012L142.239 225.938C142.239 225.938 138.172 220.378 140.02 211.211Z" fill="#FFB890"/>
<path d="M152.393 209.628C152.393 209.628 160.75 202.379 164.916 201.866C170.281 201.206 172.474 207.613 172.474 207.613L152.393 209.628Z" fill="#FF8E69"/>
<path d="M165.47 221.153V209.568C165.47 205.321 168.923 201.866 173.167 201.866H182.972C187.217 201.866 190.669 205.321 190.669 209.568V221.153C190.669 225.399 187.217 228.854 182.972 228.854H173.167C168.923 228.854 165.47 225.399 165.47 221.153ZM173.167 205.82C171.103 205.82 169.422 207.501 169.422 209.568V221.153C169.422 223.218 171.102 224.9 173.167 224.9H182.972C185.037 224.9 186.718 223.22 186.718 221.153V209.568C186.718 207.502 185.038 205.82 182.972 205.82H173.167Z" fill="#E8311B"/>
<path d="M174.319 235.414C183.902 238.296 193.484 238.296 203.067 235.414V196.039C193.484 195.373 183.902 195.373 174.319 196.039V235.414Z" fill="#FF6129"/>
<path d="M188.112 224.24C188.112 224.24 202.846 207.916 196.453 203.908C190.056 199.902 188.112 224.24 188.112 224.24Z" fill="#E8311B"/>
<path d="M184.942 232.786C185.195 232.822 185.448 232.682 185.546 232.435L192.952 213.743C193.067 213.453 192.925 213.125 192.634 213.009C192.345 212.894 192.017 213.036 191.901 213.327L184.496 232.019C184.38 232.309 184.522 232.637 184.813 232.752C184.855 232.768 184.899 232.78 184.942 232.786Z" fill="#BE2D08"/>
<path d="M188.106 223.105C188.106 223.105 188.991 201.127 181.514 202.141C174.038 203.156 188.106 223.105 188.106 223.105Z" fill="#E8311B"/>
<path d="M188.25 224.121C188.333 224.133 188.419 224.126 188.504 224.098C188.8 224.001 188.962 223.681 188.864 223.385L185.113 211.939C185.016 211.642 184.696 211.481 184.4 211.577C184.103 211.674 183.942 211.995 184.039 212.29L187.79 223.736C187.86 223.948 188.043 224.092 188.25 224.121Z" fill="#BE2D08"/>
<path d="M152.88 226.431C152.88 226.431 168.543 232.922 173.627 226.383C180.188 217.945 179.266 208.238 171.082 204.047C166.054 201.472 156.468 209.475 150.169 209.794C150.169 209.794 146.52 223.607 152.88 226.431Z" fill="#FFB890"/>
<path d="M70.2375 205.319C70.2375 205.319 55.6996 206.764 52.0523 221.414C48.4051 236.065 71.0451 237.854 92.4562 234.356C113.867 230.859 145.654 226.728 145.654 226.728C144.329 221.965 143.89 216.023 145.17 210.13C145.17 210.13 125.532 210.427 109.799 207.127C101.427 205.369 81.3286 203.804 70.2375 205.319Z" fill="#F6B74C"/>
<path d="M82.2344 201.265C81.9213 202.399 81.6053 203.526 81.2819 204.637C75.5894 204.564 66.2378 205.64 60.4487 206.701C60.4487 206.701 70.0373 200.814 82.2344 201.265Z" fill="#3B1034"/>
<path d="M38.2298 78.9041C36.3718 92.4462 35.8642 110.995 36.4859 130.49C36.4947 130.78 36.6074 131.057 36.8005 131.272C37.5642 132.118 38.9672 131.544 38.9248 130.404C37.1487 83.7128 42.3716 53.9762 54.3171 42.5815C54.7633 42.1555 54.8628 41.4558 54.4853 40.9684C54.0523 40.4106 53.2476 40.3609 52.7487 40.8337C45.6561 47.563 40.7711 60.3703 38.2298 78.9041Z" fill="#00A580"/>
<path d="M41.8715 62.5719C41.8715 62.5719 32.0708 62.2645 33.2851 45.0452C33.2851 45.0452 48.1536 49.7719 41.8715 62.5719Z" fill="#00CCA1"/>
<path d="M40.7873 71.4163C40.7873 71.4163 40.5488 61.6085 57.7991 61.8618C57.7991 61.8618 53.909 76.9804 40.7873 71.4163Z" fill="#00CCA1"/>
<path d="M49.0007 47.4576C49.0007 47.4576 45.507 38.2895 61.8561 32.7751C61.8561 32.7751 63.2255 48.3242 49.0007 47.4576Z" fill="#00CCA1"/>
<path d="M38.0571 89.1438C38.0571 89.1438 28.7305 92.171 24.0518 75.5563C24.0518 75.5563 39.6401 74.9737 38.0571 89.1438Z" fill="#00CCA1"/>
<path d="M38.3149 98.3237C38.3149 98.3237 36.3852 88.7047 53.4189 85.9702C53.4189 85.9702 52.2017 101.532 38.3149 98.3237Z" fill="#00CCA1"/>
<path d="M37.4208 110.926C37.4208 110.926 28.1527 114.13 23.1609 97.6063C23.1609 97.6063 38.7375 96.7265 37.4208 110.926Z" fill="#00CCA1"/>
<path d="M246.907 223.167C240.281 235.121 229.576 250.272 217.398 265.504C217.217 265.73 216.962 265.885 216.678 265.941C215.559 266.16 214.781 264.859 215.499 263.972C244.892 227.664 258.526 200.729 255.793 184.445C255.691 183.838 256.03 183.217 256.624 183.053C257.305 182.866 257.979 183.309 258.095 183.987C259.739 193.625 255.975 206.807 246.907 223.167Z" fill="#00A580"/>
<path d="M253.776 207.909C253.776 207.909 261.805 213.54 271.149 199.029C271.149 199.029 256.417 193.896 253.776 207.909Z" fill="#00CCA1"/>
<path d="M249.345 215.638C249.345 215.638 255.412 207.931 241.452 197.788C241.452 197.788 235.509 212.222 249.345 215.638Z" fill="#00CCA1"/>
<path d="M257.125 191.535C257.125 191.535 265.413 186.292 255.631 172.073C255.631 172.073 245.219 183.697 257.125 191.535Z" fill="#00CCA1"/>
<path d="M240.91 231.467C240.91 231.467 246.562 239.484 260.262 228.991C260.262 228.991 248.132 219.173 240.91 231.467Z" fill="#00CCA1"/>
<path d="M235.204 238.657C235.204 238.657 242.512 232.115 230.516 219.711C230.516 219.711 222.168 232.897 235.204 238.657Z" fill="#00CCA1"/>
<path d="M228.371 249.281C228.371 249.281 233.869 257.403 247.764 247.173C247.764 247.173 235.823 237.128 228.371 249.281Z" fill="#00CCA1"/>
<path d="M193.124 75.2734C193.124 75.2734 187.421 47.3563 197.193 47.0972C206.964 46.8381 193.124 75.2734 193.124 75.2734Z" fill="#00CCA1"/>
<path d="M191.038 86.8968C190.732 86.7709 190.542 86.4474 190.595 86.1077L194.628 60.3747C194.691 59.9751 195.066 59.7028 195.464 59.7643C195.863 59.8258 196.135 60.202 196.074 60.6001L192.04 86.3332C191.977 86.7328 191.603 87.0051 191.205 86.9421C191.146 86.9334 191.091 86.9187 191.038 86.8968Z" fill="#00A580"/>
<path d="M193.876 74.0105C193.876 74.0105 207.346 48.9055 215.021 54.9614C222.696 61.0174 193.876 74.0105 193.876 74.0105Z" fill="#00CCA1"/>
<path d="M193.048 75.0499C192.949 75.0089 192.855 74.9445 192.779 74.8566C192.513 74.5536 192.542 74.091 192.846 73.8232L204.561 63.5235C204.865 63.2571 205.326 63.2878 205.594 63.5908C205.86 63.8938 205.831 64.3564 205.526 64.6243L193.812 74.924C193.595 75.1128 193.298 75.1523 193.048 75.0499Z" fill="#00A580"/>
<path d="M34.5096 189.576C34.5096 189.576 33.269 161.108 23.7273 163.229C14.1856 165.351 34.5096 189.576 34.5096 189.576Z" fill="#00CCA1"/>
<path d="M39.3518 200.345C39.6166 200.149 39.7248 199.789 39.5902 199.471L29.4355 175.487C29.2775 175.115 28.8489 174.941 28.4772 175.099C28.1042 175.256 27.9315 175.686 28.0896 176.058L38.2443 200.042C38.4023 200.414 38.8309 200.588 39.2025 200.43C39.2567 200.406 39.3064 200.379 39.3518 200.345Z" fill="#00A580"/>
<path d="M33.4735 188.534C33.4735 188.534 14.3154 167.45 8.33906 175.189C2.36268 182.928 33.4735 188.534 33.4735 188.534Z" fill="#00CCA1"/>
<path d="M34.5284 189.34C34.6162 189.276 34.6893 189.191 34.7435 189.087C34.9278 188.728 34.7873 188.286 34.4289 188.102L20.5655 180.955C20.207 180.771 19.7652 180.911 19.5809 181.27C19.3965 181.629 19.537 182.071 19.8954 182.255L33.7589 189.402C34.0134 189.535 34.3119 189.501 34.5284 189.34Z" fill="#00A580"/>
<path d="M180.838 22.2194C182.204 23.1123 184.036 22.7273 184.927 21.3571C185.818 19.987 185.433 18.1528 184.067 17.2598C182.7 16.3669 180.869 16.7519 179.978 18.122C179.087 19.4907 179.471 21.3249 180.838 22.2194Z" fill="#FF6129"/>
<path d="M219.787 187.66C221.154 188.552 222.986 188.167 223.877 186.797C224.768 185.427 224.383 183.593 223.016 182.7C221.65 181.807 219.818 182.192 218.927 183.562C218.035 184.931 218.421 186.765 219.787 187.66Z" fill="#FF6129"/>
<path d="M8.91719 213.852C10.2836 214.745 12.1153 214.36 13.0063 212.99C13.8973 211.62 13.5125 209.786 12.146 208.891C10.7796 207.998 8.94791 208.383 8.05694 209.754C7.16596 211.124 7.55074 212.959 8.91719 213.852Z" fill="#FF6129"/>
<path d="M279.112 156.311C280.479 157.204 282.311 156.818 283.202 155.449C284.092 154.079 283.708 152.245 282.341 151.35C280.975 150.457 279.143 150.842 278.252 152.212C277.36 153.583 277.746 155.418 279.112 156.311Z" fill="#008661"/>
<path d="M32.182 244.278C33.5484 245.171 35.3801 244.786 36.2711 243.416C37.1621 242.046 36.7773 240.212 35.4108 239.317C34.0444 238.424 32.2127 238.811 31.3217 240.18C30.4293 241.55 30.8155 243.384 32.182 244.278Z" fill="#008661"/>
<path d="M271.3 244.278C272.666 245.171 274.498 244.786 275.389 243.416C276.28 242.046 275.895 240.212 274.529 239.317C273.162 238.424 271.331 238.811 270.44 240.18C269.549 241.55 269.934 243.384 271.3 244.278Z" fill="#008661"/>
<path d="M46.3146 159.338C46.3146 160.973 44.992 162.3 43.3593 162.3C41.7266 162.3 40.4041 160.973 40.4041 159.338C40.4041 157.703 41.7266 156.377 43.3593 156.377C44.992 156.377 46.3146 157.703 46.3146 159.338Z" fill="#FF6129"/>
<path d="M22.4323 134.815C22.4323 136.45 21.1097 137.776 19.477 137.776C17.8458 137.776 16.5217 136.45 16.5217 134.815C16.5217 133.179 17.8443 131.853 19.477 131.853C21.1097 131.853 22.4323 133.179 22.4323 134.815Z" fill="#008661"/>
<path d="M218.458 91.9266C218.595 93.5559 220.025 94.7665 221.65 94.6289C223.277 94.4913 224.484 93.0596 224.346 91.4289C224.209 89.7996 222.779 88.589 221.154 88.7266C219.527 88.8642 218.32 90.2959 218.458 91.9266Z" fill="#FF6129"/>
<path d="M240.2 65.4775C240.337 67.1068 241.767 68.3174 243.392 68.1798C245.017 68.0422 246.224 66.6105 246.088 64.9798C245.951 63.3505 244.521 62.1399 242.896 62.2775C241.269 62.4151 240.062 63.8468 240.2 65.4775Z" fill="#008661"/>
<path d="M50.3991 14.5341C50.5366 16.1634 51.966 17.374 53.5914 17.2364C55.2168 17.0988 56.4252 15.6671 56.2877 14.0364C56.1502 12.4072 54.7208 11.1965 53.0954 11.3341C51.4686 11.4717 50.2616 12.9049 50.3991 14.5341Z" fill="#008661"/>
</svg>
