<svg width="41" height="41" viewBox="0 0 41 41" fill="none" xmlns="http://www.w3.org/2000/svg">
<path fill-rule="evenodd" clip-rule="evenodd" d="M20.5 41C31.8218 41 41 31.8218 41 20.5C41 9.17816 31.8218 0 20.5 0C9.17816 0 0 9.17816 0 20.5C0 31.8218 9.17816 41 20.5 41Z" fill="#016A70"/>
<path d="M25.6562 13H14.3438C13.0516 13 12 14.0516 12 15.3438V26.6562C12 27.9488 13.0516 29 14.3438 29H25.6562C26.9488 29 28 27.9488 28 26.6562V15.3438C28 14.0516 26.9488 13 25.6562 13ZM27.0625 26.6562C27.0625 27.4316 26.4316 28.0625 25.6562 28.0625H14.3438C13.5684 28.0625 12.9375 27.4316 12.9375 26.6562V15.3438C12.9375 14.5684 13.5684 13.9375 14.3438 13.9375H25.6562C26.4316 13.9375 27.0625 14.5684 27.0625 15.3438V26.6562Z" fill="white"/>
<path d="M25.1562 14.9062C24.6394 14.9062 24.2188 15.3269 24.2188 15.8438C24.2188 16.3606 24.6394 16.7812 25.1562 16.7812C25.6731 16.7812 26.0938 16.3606 26.0938 15.8438C26.0938 15.3269 25.6731 14.9062 25.1562 14.9062Z" fill="white"/>
<path d="M20 16.7812C17.6737 16.7812 15.7812 18.6737 15.7812 21C15.7812 23.3263 17.6737 25.2188 20 25.2188C22.3263 25.2188 24.2188 23.3263 24.2188 21C24.2188 18.6737 22.3263 16.7812 20 16.7812ZM20 24.2812C18.1906 24.2812 16.7188 22.8094 16.7188 21C16.7188 19.1906 18.1906 17.7188 20 17.7188C21.8094 17.7188 23.2812 19.1906 23.2812 21C23.2812 22.8094 21.8094 24.2812 20 24.2812Z" fill="white"/>
</svg>
