<svg width="109" height="32" viewBox="0 0 109 32" fill="none" xmlns="http://www.w3.org/2000/svg">
<path d="M12.9332 24H7.02893C5.15455 24 3.83467 23.6798 3.0693 23.0394C2.31955 22.3833 1.94467 21.2353 1.94467 19.5952V7.31801H12.9332V10.2233H5.20141V14.1361H10.6137L10.3794 17.0414H5.20141V19.3609C5.20141 20.0169 5.34979 20.4699 5.64657 20.7198C5.94335 20.9698 6.48223 21.0947 7.26322 21.0947H12.9332V24ZM45.1195 24H41.7222L40.785 21.1181H35.1853L34.2715 24H30.8742L36.2162 8.7238C36.4505 8.19272 36.7082 7.82566 36.9894 7.6226C37.2861 7.41954 37.6454 7.31801 38.0671 7.31801C38.4889 7.31801 38.8247 7.41173 39.0746 7.59917C39.3401 7.78661 39.5744 8.16149 39.7775 8.7238L45.1195 24ZM40.0352 18.3769L38.0671 11.7697L36.0053 18.3769H40.0352ZM59.7325 14.0424L56.7335 20.3684C56.2961 21.2119 55.7495 21.6336 55.0934 21.6336C54.453 21.6336 53.9141 21.1884 53.4768 20.2981L50.4309 14.0424V24H47.1742V7.31801H50.384L55.0934 16.9476L59.7794 7.31801H62.9892V24H59.7325V14.0424ZM78.4891 19.1969C78.4891 20.7433 78.0674 21.9304 77.2239 22.7582C76.3961 23.5861 75.2324 24 73.7329 24H71.4836C69.6405 24 68.3284 23.6798 67.5474 23.0394C66.7821 22.399 66.3994 21.29 66.3994 19.7124V7.31801H73.4517C75.045 7.31801 76.2399 7.71632 77.0365 8.51293C77.8487 9.30954 78.2548 10.4342 78.2548 11.8868C78.2548 12.7303 78.0362 13.4488 77.5988 14.0424C77.1771 14.6359 76.7085 15.0576 76.193 15.3076C77.7238 16.0261 78.4891 17.3225 78.4891 19.1969ZM73.194 13.8315C74.3967 13.8315 74.9981 13.2301 74.9981 12.0274C74.9981 10.8247 74.3967 10.2233 73.194 10.2233H69.6561V13.8315H73.194ZM75.2324 19.0329C75.2324 18.2831 75.0996 17.7208 74.8341 17.3459C74.5685 16.9555 74.0921 16.7602 73.4049 16.7602H69.6561V19.3843C69.6561 20.0248 69.8123 20.4699 70.1247 20.7198C70.4527 20.9698 70.9838 21.0947 71.7179 21.0947H73.4049C74.6232 21.0947 75.2324 20.4074 75.2324 19.0329ZM84.7965 20.8604C85.0464 21.0947 85.1714 21.6024 85.1714 22.3833C85.1714 23.1643 85.0464 23.6798 84.7965 23.9297C84.5622 24.1796 84.0545 24.3046 83.2736 24.3046C82.4926 24.3046 81.9771 24.1796 81.7272 23.9297C81.4773 23.6798 81.3523 23.1643 81.3523 22.3833C81.3523 21.6024 81.4773 21.0947 81.7272 20.8604C81.9771 20.6105 82.4926 20.4855 83.2736 20.4855C84.0545 20.4855 84.5622 20.6105 84.7965 20.8604ZM94.2134 24.0234L91.5659 24C90.3944 24 89.504 23.6564 88.8949 22.9691C88.3013 22.2818 88.0045 21.4618 88.0045 20.509V6.38082H91.0504V12.2851L94.682 10.5982C96.0722 10.5982 97.0953 10.9731 97.7513 11.7228C98.3292 12.3945 98.6885 13.48 98.8291 14.9795C98.8759 15.6043 98.8994 16.3775 98.8994 17.2991C98.8994 21.782 97.3374 24.0234 94.2134 24.0234ZM91.8236 21.3993H93.3231C95.01 21.3993 95.8535 20.0326 95.8535 17.2991C95.8535 15.9089 95.7207 14.9405 95.4552 14.3938C95.2053 13.8471 94.6508 13.5738 93.7917 13.5738L91.0504 15.0498V20.3215C91.0504 20.9463 91.3081 21.3056 91.8236 21.3993ZM108.706 10.6685L107.863 13.6675C107.629 13.5738 107.363 13.5269 107.066 13.5269C106.285 13.5269 105.325 13.8627 104.184 14.5344V24H101.139V10.6216H103.411L104.114 11.7931L107.347 10.4576C107.504 10.442 107.715 10.4342 107.98 10.4342C108.246 10.4342 108.488 10.5123 108.706 10.6685Z" fill="#016A70"/>
<mask id="mask0_17_493" style="mask-type:alpha" maskUnits="userSpaceOnUse" x="7" y="27" width="93" height="5">
<rect width="92.6777" height="4.16529" transform="matrix(-1 0 0 1 99.7065 27.0742)" fill="#C4C4C4"/>
</mask>
<g mask="url(#mask0_17_493)">
<path d="M84.5192 26.5577L84.2425 26.5093L84.781 26.4399L84.5229 26.3891C84.264 26.3895 83.9285 26.4657 83.746 26.4252C83.7237 26.386 84.0056 26.3735 84.0775 26.3423C84.1412 26.3103 84.1931 26.2785 84.2328 26.2473C84.0918 26.2476 83.9368 26.2552 83.777 26.2695C83.562 26.2929 83.3512 26.3042 83.1677 26.3023C82.7925 26.3086 82.4301 26.3023 82.0222 26.3037L82.1579 26.2094L81.6322 26.2315C81.5765 26.2387 81.5101 26.2271 81.4554 26.236C80.9998 26.3112 80.807 26.2702 80.5883 26.2363C80.5435 26.2275 80.4895 26.2209 80.4277 26.2167C79.82 26.2347 79.2719 26.3401 78.7246 26.3942C78.6216 26.408 78.5228 26.4258 78.4352 26.4461C78.2448 26.4858 78.0331 26.5181 77.8193 26.5403C77.6056 26.5624 77.3966 26.5736 77.2116 26.5728C76.8024 26.5719 76.3401 26.5981 75.8694 26.6489C75.7294 26.6656 75.5894 26.6767 75.4581 26.6813C75.3269 26.6859 75.2074 26.6841 75.1072 26.6759L74.789 26.7297C74.6511 26.7078 74.4762 26.6958 74.2749 26.6945C74.0736 26.6931 73.8502 26.7023 73.6182 26.7215C73.3709 26.7424 73.1198 26.7565 72.8632 26.7786C72.3333 26.8209 71.8176 26.8467 71.3321 26.8553C70.609 26.8809 69.9026 26.9007 69.1731 26.9325C68.7168 26.9479 68.2722 26.9564 67.842 26.9579C67.3266 26.9639 66.7691 26.993 66.1964 27.0438C66.2236 27.0915 66.4747 27.0774 66.6432 27.0758C67.1869 27.0679 67.7434 27.0474 68.3028 27.0319C68.5547 27.0259 68.7998 27.0236 69.0365 27.0251C69.4322 27.0231 69.8493 27.0104 70.2808 26.9872C70.9623 26.9616 71.6221 26.9494 72.2534 26.9505C72.3029 26.9524 72.3482 26.9557 72.3887 26.9605C72.3971 26.9646 72.3988 26.9698 72.3935 26.9755C72.3883 26.9813 72.3762 26.9874 72.3586 26.9934C72.341 26.9993 72.3184 27.0049 72.2929 27.0095C72.2674 27.0141 72.2399 27.0176 72.2131 27.0197C71.9623 27.052 71.693 27.0867 71.4566 27.0916C71.4475 27.0919 71.4377 27.0928 71.4281 27.094C71.4185 27.0953 71.4092 27.0969 71.4009 27.0988C70.8716 27.167 70.4364 27.1554 70.0241 27.1665C69.3395 27.1965 68.6796 27.2105 68.0544 27.2084C67.9599 27.2085 67.8578 27.2124 67.7519 27.2199C67.0971 27.2504 66.4847 27.2538 65.9436 27.23C65.7209 27.224 65.5138 27.2104 65.2745 27.2102C65.127 27.2093 64.9987 27.2006 64.8972 27.1848C64.7957 27.169 64.7231 27.1463 64.6838 27.1181C64.5828 27.133 64.4802 27.1462 64.3773 27.1576C64.3159 27.1642 64.2569 27.1659 64.2124 27.1625C64.1679 27.1591 64.1412 27.1507 64.1376 27.1392C64.1191 27.1068 64.2594 27.0906 64.3811 27.0767C64.3077 27.0698 64.225 27.0657 64.135 27.0646C63.6279 27.0572 63.084 27.0659 62.5151 27.0906C62.0733 27.1201 61.7208 27.0961 61.256 27.1377C61.2003 27.1449 61.1545 27.1343 61.1032 27.1318C60.9694 27.1185 60.8029 27.1155 60.6179 27.1231C60.4329 27.1307 60.2351 27.1486 60.0415 27.1754C59.8005 27.1023 59.28 27.1858 58.8955 27.1933C58.7771 27.2305 58.913 27.224 58.9188 27.2342C58.9246 27.2444 58.9188 27.2342 58.9652 27.2282C59.3491 27.2809 59.875 27.2924 60.4691 27.2611C60.579 27.2612 60.6837 27.2636 60.7822 27.2682C60.9314 27.2748 61.0996 27.2741 61.2795 27.2663C61.476 27.2605 61.6565 27.2633 61.8123 27.2744C61.902 27.2742 61.9778 27.2798 62.0328 27.2906C62.0877 27.3014 62.12 27.3171 62.1267 27.3362C62.0668 27.351 62.0004 27.3645 61.9301 27.3762C61.5631 27.4224 61.1971 27.4416 60.9041 27.4298C60.3942 27.4096 59.7875 27.4294 59.2453 27.4225C58.8788 27.4197 58.4887 27.4276 58.0826 27.4462C58.0826 27.4462 58.0933 27.4649 58.0942 27.4666C58.0462 27.4747 57.9957 27.4812 57.9457 27.4858C57.9457 27.4858 57.9457 27.4858 57.9408 27.4773C57.9631 27.4691 57.9933 27.4614 58.0279 27.4551L58.1486 27.4395C58.0665 27.4355 57.9899 27.4234 57.9044 27.4308C57.7242 27.4445 57.552 27.4502 57.3981 27.4478C57.2443 27.4453 57.1119 27.4346 57.0091 27.4164C56.8267 27.393 56.6 27.3824 56.3434 27.3852C56.1468 27.3826 55.9573 27.3771 55.7759 27.3687C55.7759 27.3687 55.7642 27.3483 55.6783 27.3374C55.7597 27.3241 55.8445 27.3131 55.929 27.3051C56.2964 27.2852 56.6648 27.267 57.0258 27.2533C57.1588 27.2519 57.2839 27.2541 57.3985 27.2601C57.7162 27.2672 58.0731 27.2572 58.4484 27.2308C58.4484 27.2308 58.5227 27.2213 58.5598 27.2165C58.4545 27.1716 58.0914 27.2165 57.9445 27.1861C57.8551 27.1867 57.6978 27.1905 57.7032 27.1825C57.7154 27.1718 57.7169 27.1619 57.7075 27.1534C57.698 27.1449 57.6779 27.1382 57.6486 27.1336C57.6193 27.1289 57.5816 27.1266 57.538 27.1267C57.4944 27.1269 57.4461 27.1294 57.3966 27.1342C56.9833 27.1603 56.594 27.1676 56.2525 27.1556C56.1231 27.1558 55.9779 27.1635 55.8495 27.1655C55.7708 27.1678 55.699 27.1665 55.638 27.1617C55.3276 27.1259 54.9099 27.1233 54.4476 27.1542C54.2242 27.1653 54.0154 27.1668 53.8321 27.1586C53.7017 27.1571 53.6464 27.1825 53.5535 27.1945L53.1592 27.2197L53.6656 27.2514C53.5574 27.3238 53.4713 27.3477 53.2945 27.3522C53.0365 27.359 52.7852 27.3621 52.5422 27.3614C52.3624 27.3608 52.214 27.3452 51.9706 27.373C51.9276 27.3775 51.8862 27.3789 51.8534 27.3771C51.5684 27.3525 51.2252 27.3468 50.8472 27.3605C50.6515 27.3145 50.3181 27.3593 50.0098 27.3954C49.9103 27.3607 50.0906 27.3447 50.1981 27.3235C49.9402 27.3257 49.6803 27.3245 49.4141 27.3295C49.334 27.3277 49.2425 27.3309 49.1467 27.3388C49.0509 27.3467 48.9534 27.3591 48.8619 27.3751C48.8174 27.3855 48.7636 27.3932 48.7118 27.3969C48.6601 27.4005 48.6143 27.3996 48.5839 27.3945C48.4457 27.3794 48.2244 27.3933 48.1102 27.3678C48.0696 27.3619 48.0116 27.3611 47.9465 27.3655C47.8814 27.3699 47.8135 27.3791 47.755 27.3917C47.8191 27.3956 47.8761 27.4017 47.9249 27.41C48.0996 27.4368 48.0355 27.4817 47.8134 27.5468C47.4725 27.5433 47.1242 27.5443 46.8082 27.532C46.6321 27.521 46.4162 27.5244 46.185 27.5419C45.9537 27.5595 45.7162 27.5904 45.4992 27.6312C45.4206 27.647 45.3311 27.6578 45.2484 27.6617C45.1656 27.6656 45.0957 27.6622 45.0526 27.6522C45.0258 27.6407 45.0175 27.6261 45.0284 27.6097L45.2512 27.5809C45.2512 27.5809 45.2425 27.5656 45.2406 27.5622L44.9202 27.5596C44.7507 27.5595 44.5738 27.5641 44.4136 27.5628C44.1782 27.5542 43.9096 27.559 43.6241 27.5768C43.3609 27.595 43.1021 27.6088 42.8502 27.618C42.6064 27.6275 42.4297 27.5973 42.1977 27.5924C42.0223 27.5888 41.8293 27.5927 41.6262 27.604C41.2752 27.624 40.9531 27.624 40.6893 27.6041C40.3816 27.7114 40.232 27.7288 39.9464 27.6998L39.8121 27.6915L39.7754 27.7146L39.6728 27.7095C39.4809 27.705 39.2889 27.7005 39.0886 27.6989C38.8101 27.7088 38.5094 27.7356 38.2159 27.7766C38.1602 27.7838 38.0843 27.8082 38.0354 27.8273C37.9865 27.8464 37.8798 27.9041 37.8015 27.9416C37.8868 27.969 37.9815 27.9952 38.0493 28.0266C38.056 28.032 38.0554 28.0384 38.0473 28.0454C38.0392 28.0523 38.0239 28.0596 38.0027 28.0666C37.9815 28.0736 37.9549 28.0801 37.9251 28.0857C37.8953 28.0913 37.8631 28.0957 37.8311 28.0986C37.7687 28.105 37.7071 28.1092 37.6488 28.1112C37.3619 28.1145 37.0871 28.112 36.8272 28.1037C36.7323 28.092 36.6024 28.0909 36.458 28.1006C36.3137 28.1102 36.1631 28.1301 36.0303 28.1571C35.6902 28.1409 35.2951 28.1457 34.8721 28.1711C34.4247 28.1556 33.8843 28.1869 33.4663 28.153C33.476 28.1701 33.4329 28.1994 33.3728 28.2163C33.2776 28.2419 33.1699 28.2657 33.054 28.2866L32.1702 28.3274C32.1371 28.3484 32.0958 28.3696 32.0468 28.3908C32.0132 28.4076 31.9547 28.424 31.8837 28.4366C31.8127 28.4491 31.7348 28.4569 31.6665 28.4581C31.4906 28.4644 31.3431 28.4505 31.1334 28.4848C31.4564 28.5173 31.8919 28.513 32.3625 28.4726C32.8046 28.442 33.2298 28.4266 33.6225 28.4272C33.7519 28.427 33.9224 28.4288 33.9629 28.4473C34.0525 28.4998 34.287 28.4915 34.5606 28.4818C34.7755 28.4712 34.9718 28.4724 35.1334 28.4853C35.2949 28.4981 35.4171 28.5223 35.4899 28.5558C35.5083 28.5882 35.4642 28.6158 35.2756 28.6346L34.4913 28.7101C34.3757 28.7004 34.266 28.6889 34.1627 28.6757C33.9886 28.6581 33.7737 28.6533 33.5347 28.6616C33.2956 28.6699 33.0389 28.6911 32.7845 28.7235C32.6545 28.7403 32.5245 28.7571 32.4302 28.7491C32.3475 28.74 32.2713 28.729 32.2022 28.7163C32.1883 28.7078 32.1827 28.6981 32.1858 28.6874C32.1357 28.6923 32.0856 28.6988 32.0372 28.7065C31.6499 28.7967 31.35 28.7951 31.0775 28.7717C31.0038 28.7648 30.9477 28.7537 30.873 28.7451C30.7983 28.7364 30.7719 28.7252 30.704 28.7285C30.1627 28.758 30.0068 28.6593 29.5505 28.6633C29.5283 28.6594 29.5145 28.6536 29.5104 28.6465C29.5063 28.6393 29.5121 28.6311 29.5272 28.6224C29.5595 28.6145 29.5968 28.6078 29.6357 28.6028C29.6746 28.5978 29.714 28.5946 29.7501 28.5936C29.9601 28.581 30.1455 28.5849 30.2747 28.6046C30.3662 28.6127 30.4631 28.6192 30.5648 28.6239L31.0216 28.4809C30.579 28.494 30.1604 28.494 29.7755 28.4807C29.6915 28.4732 29.5493 28.4861 29.4311 28.4885L28.5615 28.5019C28.3828 28.503 28.2304 28.4806 27.9811 28.5328C27.9811 28.5328 27.8165 28.5412 27.7725 28.5341C27.7286 28.527 27.5339 28.4826 27.4177 28.4537C27.2829 28.4619 27.0962 28.4842 27.0122 28.4767C26.8655 28.4584 26.7385 28.4349 26.6334 28.4067L26.1082 28.447C26.1088 28.4828 26.1279 28.5165 26.1654 28.5475C26.2063 28.5774 26.2049 28.6133 26.1613 28.6523C26.1177 28.6913 26.0331 28.7323 25.9144 28.7718L25.3957 28.9813C25.3111 28.9953 25.2208 29.0047 25.1373 29.0083C25.0537 29.0119 24.9809 29.0094 24.9286 29.0012C24.7055 28.977 24.4555 28.958 24.2323 28.9338C23.9445 28.9709 24.0185 29.0308 23.8092 29.0834L23.1313 29.1708C23.0279 29.2517 22.9226 29.3293 23.237 29.3564C23.2995 29.3611 23.2574 29.3922 23.3145 29.4049C23.07 29.4657 22.8012 29.4839 22.5534 29.5213C22.4557 29.5482 22.374 29.5767 22.3123 29.6054C22.2445 29.6486 22.107 29.6927 21.9295 29.7283C21.7521 29.7638 21.5489 29.7879 21.3638 29.7953C21.0534 29.818 20.7356 29.8522 20.4246 29.8963C20.3183 29.9116 20.2091 29.9227 20.1044 29.929C19.9996 29.9352 19.9017 29.9364 19.8172 29.9325C19.5163 29.9256 19.2616 29.9017 19.0697 29.8625C18.8799 29.8292 18.6241 29.8132 18.3254 29.8158C17.8147 29.8817 17.7117 29.9809 17.4026 30.0682L17.9365 30.078C17.9559 30.1121 17.9205 30.155 18.1394 30.1542C18.3582 30.1535 18.2472 30.1861 18.1762 30.219C18.1512 30.2355 18.1024 30.2526 18.0381 30.2672C17.9738 30.2818 17.8979 30.2931 17.8232 30.2992L17.3688 30.3413C17.2076 30.3574 17.0516 30.3642 16.918 30.3611C16.7843 30.358 16.6782 30.3451 16.6112 30.3238C16.5343 30.3036 16.4281 30.2899 16.2992 30.2836C16.135 30.2671 15.9999 30.2425 15.899 30.2109L15.2574 30.257C15.2301 30.2252 15.1419 30.2029 15.0079 30.1938C14.8738 30.1848 14.702 30.1896 14.5215 30.2074L14.0891 30.2357C13.6083 30.2666 13.5028 30.2565 13.362 30.1668L13.9386 30.0065C13.8548 29.9643 13.7738 29.9272 13.6929 29.8901C13.8366 29.8373 14.0282 29.7874 14.2484 29.7454C14.4539 29.7002 14.6652 29.6565 14.8815 29.6144C15.1162 29.5714 15.364 29.5339 15.6553 29.4854C15.7062 29.4697 15.7801 29.4419 15.8745 29.4151C15.9689 29.3891 16.0675 29.3636 16.1698 29.3387C16.1504 29.3046 16.133 29.2739 16.1702 29.2344C15.9908 29.247 15.8055 29.2691 15.6309 29.2986C15.4563 29.3281 15.2979 29.3642 15.1701 29.4035C15.1486 29.4105 15.1223 29.4171 15.0929 29.4227C15.0634 29.4284 15.0316 29.4331 14.9995 29.4365C14.6843 29.4607 14.5337 29.5112 14.3796 29.5731C14.2758 29.6047 14.142 29.6328 13.9968 29.6535C13.7182 29.6894 13.4454 29.7355 13.179 29.7754C13.0975 29.7886 13.0127 29.7995 12.9283 29.8077C12.6498 29.8335 12.3696 29.8696 12.1018 29.9142C12.0144 29.9255 11.9306 29.9405 11.8572 29.9579C11.7839 29.9753 11.7233 29.9946 11.6804 30.0142C11.7467 30.0357 11.7824 30.0628 11.7855 30.0939C11.7972 30.1143 11.6016 30.156 11.5092 30.1862C11.4167 30.2164 11.598 30.2022 11.6595 30.2052C11.9121 30.2111 11.9589 30.2233 11.8077 30.2903C11.7572 30.3114 11.7236 30.3325 11.7092 30.3523C11.6947 30.3721 11.6997 30.3901 11.7236 30.4054C11.7595 30.4684 11.8687 30.5201 11.9437 30.5818C11.8273 30.6224 11.6327 30.6657 11.6115 30.716C11.6013 30.7271 11.5798 30.7389 11.5485 30.7506C11.5171 30.7622 11.4769 30.7733 11.4305 30.7832C11.3082 30.8045 11.1971 30.8299 11.1057 30.8575C11.0142 30.8852 10.945 30.9143 10.9032 30.9426C10.8896 30.9543 10.8566 30.9667 10.8109 30.9773C10.7652 30.988 10.7101 30.996 10.6568 30.9999C10.593 31.0047 10.536 31.0041 10.4974 30.9982C10.4587 30.9922 10.4416 30.9815 10.4493 30.9682C10.4478 30.9431 10.4562 30.9169 10.4746 30.89C10.4639 30.8712 10.4532 30.8525 10.4954 30.8215C10.305 30.8328 10.1052 30.8555 9.91758 30.8871C9.72997 30.9187 9.56175 30.958 9.43121 31.0007C9.28693 31.0449 9.15385 31.0913 8.9939 31.143C9.02688 31.2009 9.02689 31.2009 8.68647 31.3033L6.88086 31.3532L6.5108 31.421C6.16569 31.4801 6.08364 31.4761 5.86688 31.4455L5.72098 31.4168C5.41454 31.4563 5.06165 31.5018 4.86999 31.4277C4.80775 31.476 4.76713 31.4922 4.78127 31.4995C4.87275 31.5707 5.03172 31.6311 5.2519 31.6783C5.30803 31.6894 5.34754 31.7062 5.41295 31.7161C5.62386 31.7717 5.67278 31.8576 5.5497 31.9562C5.48861 31.9999 5.39988 32.0446 5.28636 32.0889C5.45252 32.1504 5.67262 32.2013 5.94077 32.2404C6.16836 32.2706 6.35575 32.311 6.49762 32.3605C6.62499 32.4105 6.81573 32.448 7.05891 32.471C7.18226 32.4808 7.27227 32.5001 7.31999 32.5269C7.33418 32.5997 7.30155 32.6775 7.22281 32.7588C7.20798 32.7836 7.16585 32.8103 7.09972 32.8369C7.03359 32.8635 6.94526 32.8893 6.84165 32.9122C6.84165 32.9122 6.79176 32.9296 6.76777 32.94C6.74779 33.0281 6.82259 33.1057 6.98713 33.1676C7.01408 33.1852 7.06925 33.1979 7.14669 33.2044C7.22413 33.2108 7.32089 33.2108 7.42659 33.2042C7.64986 33.1937 7.85845 33.1924 8.07439 33.1865C8.30707 33.1782 8.51204 33.1848 8.66771 33.2056C8.82338 33.2264 8.92402 33.2606 8.95902 33.3047C8.96131 33.3172 8.96811 33.3291 8.97939 33.3405C8.98596 33.3463 8.98953 33.3526 8.99006 33.3592L8.49415 33.5036L9.05517 33.561C9.08814 33.6189 8.81884 33.6537 8.68384 33.6966L8.76728 33.7206C8.87469 33.7342 9.01937 33.7082 9.15035 33.6932L9.28037 33.6764L9.29589 33.7037C9.37682 33.7408 9.67202 33.6991 9.78718 33.7263C9.90235 33.7535 9.82015 33.7842 9.64759 33.8137C9.52764 33.8357 9.39884 33.8532 9.27086 33.865C9.14288 33.8767 9.01907 33.8824 8.90874 33.8816C8.84287 33.8786 8.78821 33.872 8.74812 33.862C8.51524 33.8196 8.25798 33.7831 7.97825 33.7529C7.76379 33.7257 7.49523 33.7141 7.19145 33.719C7.10231 33.7169 6.9948 33.7234 6.88781 33.7372C6.78082 33.751 6.68121 33.7712 6.60645 33.7944L6.44914 33.7982C6.44914 33.7982 6.36307 33.8221 6.37526 33.826C6.43514 33.8968 6.36556 33.9834 6.17687 34.0728L6.34097 34.0809C6.57547 34.0726 6.42676 34.1265 6.46183 34.1531C6.62841 34.1481 6.8449 34.1256 6.92389 34.1593L7.0421 34.1569L6.99568 34.1629L6.93954 34.1518L6.71903 34.2022C6.82353 34.2107 6.89921 34.221 6.99151 34.2256C7.04249 34.2295 7.08307 34.2365 7.11082 34.2462C7.13857 34.2558 7.1529 34.2678 7.15297 34.2815C7.15271 34.3027 7.18019 34.3205 7.23281 34.3332C7.28544 34.3459 7.36144 34.3532 7.45358 34.3543C7.56348 34.3548 7.6264 34.3777 7.69084 34.3859L7.41084 34.5244C7.41084 34.5244 7.55013 34.5064 7.47432 34.5308L7.46462 34.5138L7.29496 34.5484C7.17273 34.5788 7.08723 34.5862 7.01502 34.5644C6.94282 34.5426 6.95929 34.5716 6.92464 34.5633C6.93725 34.5854 7.01583 34.6009 7.08318 34.6141C7.16106 34.6245 7.24896 34.6322 7.3454 34.637C7.17159 34.7344 7.16327 34.7373 7.41717 34.763C7.67107 34.7888 7.58347 34.8275 7.79593 34.833C8.0084 34.8386 7.76682 34.9044 7.62461 34.9173C7.5192 34.9257 7.41171 34.9389 7.30953 34.9558C7.20734 34.9728 7.11288 34.9932 7.03267 35.0155L7.07534 35.0905C7.13787 35.0843 7.20051 35.0762 7.26107 35.0665C7.46689 35.0254 7.65413 34.9866 7.8372 35.0105L7.75002 35.0675L8.38909 35.0345C8.37255 35.0771 8.27515 35.1257 8.11741 35.17C8.14118 35.1944 8.15576 35.22 8.16106 35.2467C8.17173 35.2654 8.23481 35.2536 8.27583 35.2556C8.42219 35.2588 8.54229 35.2715 8.62559 35.2926C8.70889 35.3138 8.75285 35.3427 8.75355 35.3769C8.77004 35.4058 8.54506 35.4659 8.40439 35.4639C8.05315 35.4697 7.67335 35.492 7.2855 35.5295C7.04906 35.5344 7.01568 35.4583 6.62663 35.5103C6.61891 35.5454 6.66873 35.5739 6.76859 35.5914C6.86846 35.6088 7.01292 35.6144 7.18016 35.6071C7.08507 35.6852 6.55841 35.7055 6.53511 35.7872C6.66626 35.7814 6.80649 35.7678 6.94194 35.7478C7.07739 35.7278 7.20335 35.702 7.30738 35.673C7.32983 35.6658 7.35802 35.6592 7.38934 35.6538C7.42065 35.6484 7.4541 35.6443 7.48655 35.642C7.519 35.6396 7.54942 35.639 7.57499 35.6403C7.60056 35.6416 7.62045 35.6447 7.63282 35.6493C7.55992 35.6788 7.47965 35.7129 7.38817 35.7448C7.29669 35.7767 7.27466 35.7905 7.20869 35.7972C6.71653 35.8607 6.48255 35.9749 6.05677 36.0499C5.94534 36.0643 5.93147 36.1099 6.02821 36.1048C6.12025 36.0996 6.20356 36.1003 6.26884 36.1067C6.33412 36.1132 6.3788 36.1251 6.39784 36.1412C6.46925 36.16 6.55819 36.175 6.6624 36.1857C6.22574 36.303 5.70509 36.4066 5.14934 36.4868C5.04409 36.5027 4.93431 36.5123 4.8361 36.5144C4.52586 36.5145 4.19667 36.5238 3.85512 36.5421C3.73399 36.5471 3.62206 36.5466 3.52542 36.5407C3.20845 36.5267 2.95675 36.5574 2.72681 36.6437L2.34621 36.7805C2.35881 36.8026 2.42269 36.8273 2.47188 36.8612L2.17459 36.9342L-0.0941615 36.766L-0.5496 36.9289L-1.20267 36.9198C-1.25273 36.9245 -1.30303 36.931 -1.35122 36.939C-1.48332 36.9871 -1.5866 37.0333 -1.72992 37.0792C-1.87323 37.1251 -2.1292 37.1307 -2.30772 37.1848C-2.48623 37.2388 -2.66503 37.24 -2.88595 37.2721C-2.90673 37.314 -2.88527 37.3516 -2.82291 37.3828C-2.80255 37.4186 -2.69028 37.4406 -2.67088 37.4747C-2.67302 37.5091 -2.63131 37.5384 -2.54951 37.5597C-2.46772 37.5811 -2.34842 37.594 -2.20246 37.5971C-1.79372 37.6704 -1.3008 37.7226 -0.738652 37.7522C-0.689275 37.7543 -0.648328 37.7593 -0.618358 37.7667C-0.588396 37.7742 -0.570053 37.784 -0.564455 37.7955C-0.565222 37.8289 -0.527743 37.8578 -0.454734 37.88C-0.381717 37.9022 -0.275009 37.9172 -0.142453 37.9239C-0.107146 37.9253 -0.0805027 37.9295 -0.0658313 37.936C-0.015554 37.9402 0.0210965 37.9483 0.0405296 37.9594C0.0599704 37.9705 0.0615332 37.9843 0.0451124 37.9995C0.0286993 38.0146 -0.00515944 38.0306 -0.053194 38.046C-0.101236 38.0613 -0.16184 38.0753 -0.229121 38.0868C-0.326718 38.1054 -0.426408 38.1231 -0.527786 38.14C-0.521967 38.1502 -0.421364 38.1518 -0.436053 38.1611C-0.475776 38.1904 -0.48497 38.218 -0.46294 38.2415C-0.44091 38.265 -0.388243 38.2838 -0.30911 38.2964L-0.851324 38.5345C-1.18045 38.5675 -1.50329 38.6234 -1.75859 38.6917C-1.75893 38.7029 -1.74425 38.7122 -1.71599 38.7189C-1.68772 38.7255 -1.64689 38.7291 -1.59757 38.7294C-1.46522 38.7343 -1.34019 38.7438 -1.19757 38.7492C-1.1104 38.7532 -1.03787 38.762 -0.984173 38.7752C-0.930477 38.7884 -0.896697 38.8056 -0.884791 38.8258L-1.20315 38.9144C-1.10115 38.936 -1.02548 38.9464 -0.958123 38.9596C-0.996286 38.9874 -1.06193 39.0162 -1.14998 39.0437C-1.23801 39.0713 -1.34609 39.0968 -1.46583 39.1183C-1.49793 39.1227 -1.53068 39.126 -1.56215 39.1278C-1.59362 39.1297 -1.62319 39.1301 -1.64906 39.1291C-1.89561 39.0987 -2.18402 39.1524 -2.46413 39.2031C-2.74424 39.2538 -2.8963 39.2844 -3.10309 39.3238L-3.49877 39.3291C-3.59892 39.3478 -3.68828 39.3698 -3.75972 39.3933C-3.83115 39.4168 -3.88265 39.4411 -3.91013 39.4644C-3.8888 39.5019 -3.70114 39.4814 -3.5893 39.4852C-3.32395 39.5086 -2.97509 39.5036 -2.60056 39.4711C-2.5077 39.4592 -2.41249 39.4688 -2.32213 39.47C-2.1272 39.4746 -1.93986 39.4822 -1.76098 39.4927C-1.64317 39.5025 -1.53308 39.5145 -1.4314 39.5288C-1.40425 39.5765 -1.83182 39.6134 -1.58915 39.6369C-1.67272 39.6477 -1.70403 39.6627 -1.747 39.6573C-2.02228 39.6882 -2.29351 39.7036 -2.52922 39.7014C-2.98159 39.6949 -3.49525 39.7166 -4.02814 39.7648C-4.60335 39.8148 -5.15511 39.8358 -5.63792 39.8261C-5.82181 39.8255 -6.02735 39.8358 -6.23886 39.856C-6.48867 39.8841 -6.73672 39.9017 -6.96692 39.9078C-7.04314 39.908 -7.12807 39.9128 -7.21477 39.9218C-7.30148 39.9307 -7.3875 39.9436 -7.46586 39.9593C-7.45908 39.9713 -7.38439 39.9799 -7.40102 39.9857C-7.63928 40.0749 -7.73588 40.1678 -8.10262 40.259C-8.35335 40.2913 -8.64121 40.3284 -8.80516 40.2855C-8.96911 40.2427 -8.91035 40.2059 -8.58408 40.0962C-8.65489 40.0946 -8.74017 40.0997 -8.82503 40.1106C-8.90989 40.1216 -8.98894 40.1376 -9.04838 40.156L-9.33057 40.2381L-9.58488 40.3166C-9.56258 40.3557 -9.54512 40.3864 -9.52669 40.4188C-9.49759 40.4531 -9.52954 40.495 -9.61805 40.5384C-9.67147 40.5621 -9.71795 40.5858 -9.7571 40.6093C-9.91609 40.7033 -9.96213 40.7922 -9.89005 40.866C-9.75195 40.972 -9.55964 41.0695 -9.31535 41.1575C-9.0573 41.2431 -8.91609 41.351 -8.7035 41.4443C-8.59506 41.4867 -8.46336 41.5248 -8.30978 41.5581C-8.01847 41.632 -7.6993 41.7024 -7.40702 41.7781C-7.11474 41.8537 -6.78473 41.9081 -6.46015 41.9705C-5.97686 42.0445 -5.45447 42.1084 -4.89588 42.1619C-4.55023 42.2087 -4.1953 42.2544 -3.87557 42.3082C-3.49795 42.369 -3.05433 42.4125 -2.55576 42.4379C-2.11541 42.4683 -1.72198 42.5133 -1.38299 42.572C-1.34744 42.5783 -1.31938 42.5864 -1.29959 42.596C-1.23855 42.6558 -1.0675 42.6979 -0.812575 42.716C-0.828065 42.7335 -0.847871 42.7513 -0.871904 42.7693C-0.907282 42.7908 -0.914653 42.8109 -0.893031 42.827C-0.871416 42.8432 -0.821817 42.8546 -0.750669 42.8597C-0.546745 42.8746 -0.377258 42.8997 -0.249783 42.9341C-0.202951 42.9428 -0.173921 42.9553 -0.165138 42.9707C-0.156354 42.9862 -0.168078 43.004 -0.199351 43.0227C-0.227039 43.0419 -0.229078 43.0596 -0.20518 43.0735C-0.18129 43.0874 -0.132573 43.0968 -0.0653428 43.1005C0.107261 43.1187 0.292074 43.1333 0.487917 43.1443C0.904647 43.1686 1.38935 43.1683 1.9128 43.1435C1.96851 43.1363 2.02464 43.1474 2.08963 43.139C2.45979 43.1112 2.80357 43.1069 3.07934 43.1266C3.40268 43.1343 3.74071 43.1327 4.08165 43.1363C4.57422 43.1339 5.02861 43.1485 5.43212 43.1798C5.89337 43.1496 6.15254 43.2021 6.54185 43.2031C6.90128 43.2085 7.24196 43.2214 7.56065 43.2418C8.07442 43.2688 8.58623 43.2924 9.09265 43.324C9.56773 43.3391 10.0051 43.3679 10.3975 43.41C10.5479 43.429 10.8201 43.3994 10.9225 43.4392C11.0249 43.479 11.2316 43.4743 11.3986 43.4875L11.9255 43.5201C12.0161 43.5279 12.1158 43.5328 12.2229 43.5348C12.7128 43.5375 13.0521 43.5906 13.5068 43.6015L13.5533 43.5955C14.3606 43.6745 15.2846 43.7179 16.298 43.7244C16.8899 43.7486 17.5371 43.7474 18.1652 43.7652C18.3151 43.8007 18.6689 43.757 18.8568 43.7894C19.0447 43.8219 19.3516 43.8006 19.5939 43.8059C19.8361 43.8112 20.073 43.8246 20.3319 43.8241C20.5567 43.8243 20.7465 43.8388 20.8842 43.8663C21.1982 43.9118 21.5811 43.9385 22.0156 43.9453C22.5905 43.9571 23.1341 43.984 23.7188 43.9781C23.7104 44.0112 23.7463 44.0394 23.8227 44.0597C23.8991 44.0801 24.0133 44.0919 24.1536 44.0939C24.7788 44.1065 25.3457 44.1395 25.9792 44.1492L26.1487 44.1493L28.0435 44.1683C28.5539 44.172 29.0458 44.1781 29.5665 44.1822C29.7615 44.1571 29.7662 44.2004 29.9011 44.1921C29.9388 44.1708 29.9832 44.1614 30.0496 44.173L30.0642 44.1985L32.2265 44.2324C33.0731 44.2572 33.9637 44.2646 34.8906 44.2547C35.1105 44.2572 35.3157 44.2656 35.503 44.2799C35.6767 44.2851 35.8577 44.2874 36.0452 44.2868C36.2987 44.2804 36.5464 44.2771 36.7872 44.2771C37.4207 44.2868 38.0856 44.2816 38.7792 44.2744C39.4729 44.2673 39.9985 44.28 40.6159 44.279C41.034 44.2781 41.4502 44.2738 41.8831 44.2638C42.0897 44.2591 42.3443 44.2335 42.5583 44.2242C42.7723 44.2149 42.8421 44.2151 42.8704 44.2297C42.9635 44.2707 43.1976 44.2442 43.3848 44.2402C43.7497 44.2334 43.8015 44.2194 43.9006 44.1134L43.4528 44.0797C43.3431 44.0688 43.2051 44.0669 43.0521 44.0741C42.8991 44.0814 42.7362 44.0975 42.5792 44.121C42.5175 44.1311 42.4529 44.139 42.3892 44.1444C42.3256 44.1498 42.2641 44.1525 42.2084 44.1523C41.7566 44.1466 41.3111 44.1346 40.8769 44.1247L40.8134 44.1183L40.8094 44.0237C40.8669 44.0144 40.9264 44.0068 40.9858 44.001L43.1637 43.9396C43.6635 43.9246 44.1824 43.8906 44.6729 43.8767C45.1634 43.8629 45.4277 43.8544 45.8083 43.8401C45.9689 43.8319 46.1326 43.8212 46.2983 43.808C46.2887 43.7989 46.2832 43.7892 46.2819 43.779C46.2731 43.7637 46.2615 43.7432 46.3319 43.7269C46.4087 43.7037 46.5114 43.684 46.6194 43.6715C46.7208 43.6633 46.8192 43.6587 46.9105 43.6578C47.3522 43.6498 47.8568 43.5999 48.3165 43.5186L48.477 43.5729C49.1673 43.5424 49.8679 43.5124 50.589 43.4834C50.7334 43.4755 50.8849 43.4604 51.0323 43.4391C51.1901 43.4187 51.3354 43.3763 51.5015 43.353C51.6657 43.3363 51.8288 43.3232 51.9877 43.3141C51.9447 43.3001 51.888 43.289 51.8193 43.281C51.7518 43.2782 51.7026 43.2694 51.6789 43.2561C51.6551 43.2427 51.658 43.2254 51.6873 43.2066C51.7387 43.1744 51.7613 43.144 51.6494 43.1402C51.5461 43.1328 51.4722 43.1169 51.4364 43.0943C51.4005 43.0717 51.4043 43.0434 51.4473 43.0126C51.4661 42.9947 51.4794 42.9771 51.487 42.96L51.5335 42.954C51.6867 42.8904 51.9925 42.8674 52.2121 42.8153C52.3157 42.8003 52.4229 42.7916 52.517 42.7907C52.7598 42.7795 52.9962 42.7746 53.2474 42.7605C53.3673 42.754 53.4928 42.7422 53.6163 42.7257C53.7928 42.703 53.8113 42.7006 53.9138 42.6179C53.7547 42.6194 53.6286 42.607 53.5568 42.583C53.4849 42.5589 53.4718 42.5246 53.5196 42.4859C53.6509 42.4014 53.7895 42.3122 54.3832 42.2521C54.1896 42.2492 54.0033 42.2433 53.825 42.2345C53.7731 42.2326 53.7343 42.2264 53.7137 42.2167C53.6931 42.207 53.6917 42.1943 53.7097 42.1802C53.7277 42.1662 53.7643 42.1515 53.8145 42.1381C53.8647 42.1247 53.9261 42.1132 53.9906 42.1053C54.304 42.0574 54.631 42.0254 54.9348 42.0128C55.1907 42.0073 55.4218 42.0104 55.7207 42.0102L56.0736 41.9648C56.0678 41.9545 56.1196 41.9406 56.1064 41.9349C56.0168 41.8825 55.9179 41.8313 55.816 41.7749C55.9787 41.7445 56.1196 41.7078 56.2227 41.669C56.3257 41.6301 56.3867 41.5908 56.3987 41.5554C56.4075 41.5447 56.4052 41.535 56.3919 41.5269C56.3787 41.5188 56.3549 41.5126 56.3222 41.5086C56.2293 41.5017 56.1576 41.4887 56.1126 41.4704C56.0676 41.4521 56.0506 41.4291 56.0628 41.4031L56.3372 41.3074C57.1634 41.2391 57.9748 41.1903 58.7562 41.1619L59.4617 41.1405C59.5468 41.1149 59.5205 41.1036 59.4403 41.103C59.3602 41.1024 59.135 41.1095 58.9777 41.1133C58.8419 41.1183 58.7212 41.115 58.6275 41.1037C58.5337 41.0924 58.4701 41.0735 58.4426 41.0488L58.6795 40.9397C58.6678 40.9192 58.6514 40.8903 58.5229 40.8922C58.4351 40.8898 58.3704 40.8795 58.3393 40.863C58.3082 40.8464 58.3124 40.8246 58.3513 40.801C58.3572 40.7839 58.3484 40.7683 58.3251 40.755C58.1351 40.7539 57.9461 40.7545 57.7737 40.7493C57.6934 40.7476 57.6256 40.7412 57.5749 40.7307C57.5242 40.7202 57.4918 40.7058 57.4799 40.6884C57.4736 40.6715 57.4888 40.6522 57.5241 40.6321C57.5594 40.6119 57.6139 40.5916 57.6831 40.5727C57.9533 40.5492 58.2004 40.5489 58.3704 40.5718C58.4309 40.5898 58.5282 40.5996 58.6494 40.5999C58.7706 40.6003 58.9101 40.5912 59.0493 40.5739C59.2088 40.5539 59.3679 40.5451 59.4981 40.5491C59.6283 40.5531 59.7209 40.5696 59.7595 40.5957C59.9231 40.5856 60.0683 40.5778 60.2114 40.5667C60.3803 40.5526 60.5399 40.5485 60.6731 40.5547C60.8861 40.5591 61.1156 40.5565 61.3565 40.5471C62.0507 40.5234 62.7459 40.5014 63.4181 40.4916C63.5959 40.4887 63.7498 40.4963 63.9257 40.4901C64.1015 40.4839 64.2407 40.5007 64.4606 40.4669C64.5025 40.4616 64.5447 40.4582 64.5838 40.457C64.6229 40.4558 64.6578 40.4567 64.6858 40.4598C65.0721 40.4865 65.525 40.4903 66.0179 40.4709C66.693 40.4661 67.393 40.4527 68.0691 40.4496C68.2673 40.4523 68.4547 40.4593 68.6292 40.4707C68.7621 40.4775 68.9012 40.4822 69.0459 40.4846C69.1567 40.4868 69.2628 40.4804 69.2441 40.5176C69.2254 40.5547 69.3915 40.5315 69.4873 40.5246C69.8163 40.5066 70.1526 40.4822 70.4924 40.4517C70.8272 40.4186 71.1552 40.3993 71.4569 40.395C71.6747 40.3925 71.8994 40.402 72.1795 40.3512C72.1688 40.3325 72.1582 40.3138 72.0972 40.2942C72.3256 40.2404 72.5863 40.1941 72.8575 40.1591C73.1288 40.1241 73.403 40.1015 73.6572 40.0931L74.0079 39.9913C74.0943 39.9793 74.1824 39.9706 74.267 39.9656C74.3516 39.9607 74.4308 39.9597 74.4999 39.9626C74.5533 39.964 74.6184 39.9603 74.6833 39.9519C74.7481 39.9435 74.8083 39.9312 74.8528 39.9171C74.9194 39.8991 75.0007 39.8837 75.0866 39.8726C75.1725 39.8615 75.2592 39.8553 75.3357 39.8548C75.5766 39.8438 75.8338 39.8182 76.0809 39.7807C76.145 39.7588 76.1852 39.7361 76.1965 39.7154C76.2078 39.6948 76.1897 39.6772 76.1444 39.6647C76.0714 39.6426 76.0304 39.6145 76.0239 39.582C76.0174 39.5495 76.0455 39.5134 76.1066 39.4758C76.1379 39.4527 76.1483 39.4308 76.1373 39.4115C76.1263 39.3922 76.0941 39.3758 76.0426 39.3634C75.8504 39.3059 75.9018 39.2736 76.2163 39.1783C76.2674 39.1624 76.3289 39.1475 76.3971 39.1346C76.4653 39.1217 76.5385 39.1111 76.6123 39.1034C76.7852 39.0879 76.9558 39.0763 77.1209 39.069C77.2138 39.057 77.309 39.0667 77.416 39.062C77.951 39.0388 78.0293 39.0012 78.2025 38.9204L78.3288 38.8621C78.563 38.8148 78.8191 38.7756 79.0787 38.7472C79.3383 38.7188 79.5949 38.7019 79.8301 38.6978C79.9235 38.6975 80.031 38.6894 80.136 38.6748C80.4776 38.6302 80.8235 38.5993 81.1509 38.5842C81.3549 38.5757 81.5748 38.5538 81.7842 38.5209C81.9936 38.4881 82.1836 38.4458 82.3314 38.3992C82.4641 38.3571 82.6377 38.3194 82.8281 38.2913C83.051 38.2625 83.0716 38.2288 82.9471 38.2028C82.8227 38.1768 82.6142 38.1433 82.4292 38.116C82.3648 38.1067 82.325 38.0916 82.314 38.0723C82.303 38.0531 82.3214 38.0305 82.3672 38.007C82.3965 37.9668 82.4016 37.9287 82.3823 37.8935C82.372 37.8789 82.3791 37.8622 82.4032 37.8444C82.4273 37.8266 82.4677 37.8083 82.5219 37.7905C82.576 37.7728 82.6426 37.7562 82.717 37.7417C82.7915 37.7272 82.8722 37.7152 82.9536 37.7065C83.2972 37.6622 83.6315 37.6191 83.9819 37.5868C84.1287 37.5715 84.2754 37.5526 84.4183 37.5305C84.7109 37.4759 85.0239 37.4306 85.3392 37.3972C85.4888 37.3823 85.6351 37.3562 85.7463 37.3246C86.0973 37.2395 86.4208 37.15 86.7108 37.0577C86.7807 37.0291 86.8721 37.0012 86.9794 36.9757C87.0867 36.9502 87.2075 36.9278 87.3342 36.9097C87.4363 36.8965 87.5195 36.8675 87.5982 36.8482C87.6554 36.8036 87.6615 36.7623 87.616 36.7282C87.5704 36.6941 87.4746 36.6683 87.3377 36.6533C87.2078 36.6353 87.0863 36.6144 86.974 36.5923C86.8387 36.5745 86.6778 36.5637 86.4974 36.5605C86.2837 36.5509 86.1257 36.5235 86.0439 36.4819C86.6289 36.4065 87.1853 36.2982 87.6981 36.3235L88.0877 36.255C88.0722 36.2277 88.0586 36.2039 88.046 36.1817C87.9533 36.1414 87.9244 36.0906 87.9616 36.0336C87.9923 36.006 87.9895 35.9809 87.9536 35.9608C87.9176 35.9407 87.8498 35.9263 87.7569 35.9192C87.2067 35.8457 86.5704 35.7961 86.0545 35.7127C85.8927 35.697 85.7033 35.6899 85.4943 35.6916C85.2921 35.6866 85.3005 35.649 85.5332 35.6025C85.6638 35.5783 85.797 35.555 85.9321 35.5328C86.5281 35.5291 86.7709 35.6404 87.4509 35.6095L87.7662 35.4628C87.8514 35.4605 87.9341 35.4596 88.0138 35.4601L89.1542 35.5197C89.2491 35.5227 89.3231 35.5329 89.3676 35.5491C89.4121 35.5654 89.4253 35.587 89.4058 35.6116C89.3981 35.6417 89.4138 35.6692 89.4524 35.6933C89.4773 35.7102 89.4613 35.7326 89.4082 35.7557C89.2883 35.8077 89.4421 35.8153 89.5392 35.8284C89.5641 35.8297 89.5927 35.8295 89.6235 35.828C89.6543 35.8264 89.6866 35.8235 89.7185 35.8194C89.7505 35.8153 89.7815 35.8101 89.8097 35.804C89.8379 35.7979 89.8627 35.7912 89.8828 35.7841C90.054 35.7346 90.2037 35.6824 90.372 35.6278C90.2525 35.5756 90.3931 35.4898 90.2067 35.4425C90.1858 35.4331 90.1775 35.4216 90.1821 35.4087C90.1868 35.3959 90.2044 35.3819 90.2338 35.3677C90.3098 35.3311 90.3459 35.2955 90.3387 35.2643C90.3314 35.2331 90.281 35.2076 90.1926 35.1902L90.1819 35.1715C90.4152 35.1085 90.3534 35.0525 90.445 34.9859L90.6694 34.9423C91.2277 34.8374 91.2286 34.8391 91.7093 34.843C91.8062 34.8031 91.6831 34.797 91.5908 34.7925L90.8177 34.7477C90.3122 34.7178 89.7921 34.6971 89.2275 34.6858C88.6628 34.6744 88.0334 34.6368 87.4497 34.6096C87.4202 34.6075 87.3977 34.6033 87.3839 34.5975C87.3702 34.5916 87.3657 34.5842 87.3708 34.5759C87.394 34.5669 87.4243 34.5583 87.4596 34.5505C87.4949 34.5428 87.5342 34.5363 87.5746 34.5313C87.7604 34.5074 87.9509 34.492 88.1488 34.472L88.5178 34.4372L88.6313 34.3915C88.7052 34.3637 88.7556 34.3298 88.8539 34.3098C88.9349 34.2949 89.0228 34.2836 89.1085 34.277C89.1942 34.2705 89.2745 34.2689 89.3411 34.2726C89.5257 34.2817 89.6927 34.2949 89.869 34.3069C90.0453 34.3189 90.1424 34.332 90.2953 34.3379C90.6059 34.3406 90.906 34.3476 91.1945 34.3591C91.4374 34.3862 91.6621 34.4183 91.8672 34.4552C91.9951 34.4698 92.1147 34.4873 92.3332 34.4683C92.4368 34.451 92.5262 34.4284 92.5855 34.4043C92.6447 34.3803 92.6701 34.3564 92.6571 34.3369C92.6454 34.3217 92.6122 34.3096 92.5607 34.3018C92.5092 34.2941 92.441 34.2909 92.3627 34.2926C92.1435 34.2898 91.9407 34.2803 91.7586 34.2644C91.505 34.2356 91.1964 34.2232 90.8506 34.2279C90.7334 34.2321 90.6548 34.2166 90.5522 34.2115C90.4497 34.2065 90.3628 34.1939 90.2485 34.2032C89.8932 34.227 89.7229 34.1905 89.51 34.1667C89.438 34.1562 89.3933 34.1392 89.381 34.1175C89.3687 34.0959 89.3892 34.0705 89.4402 34.0441C89.5385 33.9915 89.6586 33.9386 89.7989 33.8863C89.8711 33.8606 89.9636 33.8362 90.0691 33.815C90.1746 33.7938 90.2903 33.7763 90.4071 33.7641C90.477 33.7319 90.5143 33.7002 90.5156 33.6719C90.5169 33.6437 90.4822 33.6197 90.4146 33.6022C90.2423 33.5623 90.0896 33.5216 89.7036 33.5439C89.5221 33.5525 89.3514 33.5541 89.198 33.5488C88.858 33.5415 88.4657 33.5575 88.0582 33.5952C87.9528 33.6048 87.8492 33.6114 87.7504 33.6147C87.0459 33.6379 86.3747 33.6495 85.7016 33.6576C85.345 33.6615 84.9854 33.6603 84.6132 33.6718C83.7402 33.6965 82.9455 33.6838 82.1028 33.6919C81.6615 33.696 81.2665 33.6793 80.9385 33.6427C80.8746 33.6304 80.8197 33.6161 80.7745 33.5998C80.9919 33.5573 81.2306 33.5235 81.4679 33.5019C81.7052 33.4803 81.933 33.4715 82.1296 33.4764C82.2377 33.4883 82.3773 33.4905 82.5331 33.4827C82.6888 33.4748 82.8544 33.4574 83.0115 33.4322L82.5548 33.4179C82.252 33.4112 81.9418 33.4092 81.6473 33.3996C81.1794 33.3831 80.7458 33.3567 80.2612 33.3461C79.87 33.3363 79.52 33.3112 79.2221 33.2716C79.0068 33.2427 78.761 33.2223 78.4896 33.2106C78.2967 33.2044 78.2967 33.2044 78.1733 33.1454C78.2712 33.1072 78.3977 33.1018 78.5169 33.1011C79.2315 33.077 79.9115 33.0728 80.5432 33.0885C80.8619 33.0899 81.1446 33.1061 81.3778 33.1363C81.4349 33.1491 81.581 33.1431 81.6982 33.1389C82.0658 33.1326 82.4171 33.1344 82.7479 33.1444C83.2053 33.1609 83.7147 33.157 84.2564 33.1327C84.3591 33.1031 84.2409 33.1055 84.2351 33.0953C83.8155 33.0762 83.4043 33.0543 82.9765 33.0381C82.8595 33.0324 82.7345 33.0295 82.6028 33.0296C82.1113 33.0396 81.7016 33.0119 81.4313 32.9503C81.4177 32.9264 81.2399 32.9292 81.1613 32.9138C81.1227 32.9004 81.0969 32.8846 81.0848 32.867C81.1993 32.823 81.3288 32.8227 81.4284 32.8227C81.7176 32.8276 81.9958 32.8369 82.2616 32.8506C82.5088 32.8636 82.7823 32.867 83.0749 32.8609C83.2909 32.855 83.4755 32.8641 83.6933 32.8616C83.8115 32.8564 83.9338 32.848 84.0578 32.8366C83.9198 32.8059 83.7321 32.787 83.508 32.7813C83.3381 32.763 83.1257 32.7575 83.0985 32.7098C83.1788 32.6757 83.2682 32.6751 83.3399 32.6787C83.4894 32.6785 83.6337 32.6807 83.7722 32.6851C84.0659 32.6948 84.3838 32.6949 84.7194 32.6855C84.8961 32.682 85.0637 32.683 85.2196 32.6887C85.5727 32.6962 85.9111 32.7129 86.2345 32.7205C86.8968 32.7284 87.5009 32.7566 88.1374 32.7714C88.279 32.7751 88.406 32.788 88.5927 32.7658C88.7793 32.7435 88.7877 32.7406 88.8097 32.7268C88.8619 32.7038 88.8778 32.6814 88.8539 32.6644C88.8169 32.6486 88.7447 32.6397 88.6503 32.6395C88.0814 32.6142 87.5418 32.5788 87.0349 32.5333C86.8118 32.5242 86.6163 32.5056 86.4553 32.4782C86.3276 32.4593 86.1761 32.4468 86.0056 32.4411C85.7576 32.4274 85.499 32.4175 85.231 32.4111C85.1062 32.4078 85.0002 32.3976 84.9191 32.3814C84.8379 32.3652 84.7833 32.3432 84.7585 32.3166L85.0871 32.2286C85.1388 32.2245 85.19 32.2209 85.2406 32.2179L87.968 32.2814L88.2381 32.2831C88.5341 32.2779 88.6065 32.2649 88.8873 32.1629C88.2464 32.1389 87.7426 32.0689 87.4261 31.96C87.5022 31.9483 87.5802 31.9382 87.6582 31.9301C88.1704 31.9043 88.6545 31.8975 89.092 31.9098C89.3519 31.911 89.6191 31.9077 89.8873 31.906C89.8088 31.8558 89.5084 31.8708 89.3125 31.8594C88.8446 31.8417 88.4308 31.8051 88.0845 31.7508C87.965 31.7297 87.8156 31.7161 87.6431 31.7108C87.4704 31.709 87.3261 31.6962 87.2229 31.6735C87.1196 31.6508 87.0605 31.6189 87.0506 31.5806C87.0343 31.5459 86.9993 31.5137 86.946 31.4844C87.0403 31.4428 87.1901 31.403 87.3672 31.3725C87.5443 31.3419 87.7366 31.3227 87.908 31.3184C88.2738 31.3012 88.6533 31.2732 89.0367 31.235C89.2277 31.2158 89.415 31.2047 89.5864 31.2026C89.7375 31.2009 89.9093 31.187 90.0756 31.1629C90.2419 31.1389 90.3934 31.106 90.5072 31.0692C90.6608 31.0239 90.8041 30.978 90.9474 30.9321C91.0907 30.8862 91.257 30.8282 91.4243 30.7719C91.5718 30.7631 91.7155 30.7574 91.8533 30.755C91.9605 30.757 92.0856 30.7509 92.2139 30.7373C92.3421 30.7237 92.4681 30.7031 92.5771 30.6781C92.5132 30.6535 92.441 30.6317 92.3649 30.6031C92.4693 30.5654 92.545 30.5269 92.5874 30.49C92.6298 30.4531 92.638 30.4185 92.6115 30.3885C92.596 30.3612 92.7095 30.3155 92.7487 30.2794C92.7992 30.2482 92.8087 30.2192 92.7759 30.196C92.7432 30.1728 92.6697 30.1566 92.5651 30.1495C92.4354 30.1364 92.3298 30.1166 92.2527 30.0911C92.2272 30.0844 92.2142 30.0753 92.2149 30.0646C92.2157 30.0539 92.2301 30.0419 92.2569 30.0297C92.2836 30.0175 92.3219 30.0055 92.3682 29.9949C92.4145 29.9842 92.4673 29.9752 92.5219 29.9686C92.6889 29.95 92.8548 29.9379 93.01 29.9331C93.2774 29.9242 93.5334 29.9187 93.778 29.9164C94.0484 29.913 94.3494 29.8918 94.6502 29.8551C94.9194 29.8204 95.1609 29.7893 95.2926 29.723C95.4242 29.6566 95.6348 29.6588 95.7967 29.6105C95.7057 29.5669 95.5441 29.5367 95.3281 29.5228C95.1867 29.5178 95.0687 29.5048 94.9817 29.4845C94.8946 29.4643 94.8404 29.4372 94.8225 29.4051L95.314 29.2705C95.7065 29.2071 95.9237 29.2559 96.3478 29.2305L95.9108 29.1808C95.902 29.1759 95.8987 29.1701 95.9011 29.1637C95.9435 29.0632 96.011 29.0417 96.4577 28.986L96.7084 28.9536L97.1052 28.9153C97.1688 28.8947 97.2127 28.8732 97.2327 28.853C97.2527 28.8328 97.248 28.8145 97.219 28.8001C97.1609 28.7758 97.1432 28.7447 97.1676 28.7098C97.2061 28.6867 97.2093 28.6653 97.1766 28.6495C97.1439 28.6337 97.0775 28.6244 96.9887 28.6232C96.9179 28.6213 96.9126 28.5946 96.8741 28.5794C96.8358 28.5586 96.7703 28.5426 96.682 28.5325C96.5937 28.5224 96.4847 28.5185 96.3625 28.5211C96.0019 28.5232 95.6632 28.5153 95.3524 28.4977L95.4081 28.4905C95.0841 28.506 94.7812 28.5079 94.5142 28.4961C94.2465 28.4812 93.9031 28.4907 93.6188 28.4817C93.3874 28.4838 93.2112 28.4632 93.1277 28.4243C93.0467 28.3872 92.7527 28.3959 92.5274 28.403C92.394 28.4076 92.2651 28.4095 92.142 28.4088C91.9768 28.4004 91.7702 28.4083 91.5567 28.4312C91.4926 28.4383 91.4295 28.442 91.3735 28.442C90.8307 28.4517 90.289 28.463 89.7536 28.468C89.63 28.4651 89.4851 28.4718 89.3359 28.4871C89.2731 28.4938 89.2121 28.4966 89.1609 28.4951C88.315 28.4798 87.3603 28.5187 86.531 28.4977C86.4305 28.4927 86.3192 28.4917 86.2003 28.4946C85.9331 28.507 85.7011 28.499 85.5395 28.4719C85.4523 28.4575 85.3405 28.4496 85.2112 28.4486C85.082 28.4476 84.9381 28.4537 84.7887 28.4663C84.5402 28.4831 84.3105 28.4849 84.1239 28.4716C83.76 28.4593 83.3774 28.4542 82.979 28.4564C82.8569 28.4586 82.7496 28.4538 82.6653 28.4425C82.5811 28.4312 82.5222 28.4136 82.4932 28.3911C82.5911 28.3529 82.698 28.3482 82.7996 28.3516C83.1934 28.3429 83.5862 28.3325 83.9726 28.3284C84.3184 28.3166 84.6503 28.3131 84.9632 28.3177C85.1186 28.3229 85.3125 28.311 85.5027 28.2847C85.7356 28.2514 85.9756 28.2348 86.174 28.2384C86.3211 28.2393 86.4764 28.2364 86.6376 28.2298C86.7408 28.2219 86.8466 28.2082 86.9441 28.1903C86.9827 28.1825 87.0248 28.176 87.0677 28.1711C87.1105 28.1662 87.1531 28.1631 87.1928 28.1619C87.2324 28.1608 87.2683 28.1616 87.2981 28.1644C87.3279 28.1671 87.3509 28.1718 87.3656 28.178C87.5149 28.2301 87.8487 28.2035 88.1344 28.1978C88.5627 28.1096 88.8815 28.1618 89.2817 28.112C89.3134 28.1087 89.3446 28.1067 89.3734 28.1062C89.4022 28.1056 89.428 28.1065 89.4493 28.1087C90.2239 28.1387 91.1267 28.1137 91.94 28.124C92.0297 28.1256 92.1338 28.1204 92.2404 28.1091C92.9376 28.0343 93.608 28.0131 94.1204 28.0496C94.1827 28.0529 94.2536 28.053 94.3299 28.05C94.6802 28.0203 95.0152 28.0084 95.307 28.0155C95.7642 28.0132 96.2038 28.015 96.6684 28.0082C96.9886 27.9984 97.2696 28.0088 97.4831 28.0384C97.4899 28.0504 97.6321 28.0375 97.741 28.0363C97.8037 28.0062 97.858 27.9791 97.9226 27.9525C97.9803 27.9196 98.0668 27.8863 98.1761 27.8549C98.2855 27.8234 98.4152 27.7946 98.5564 27.7703C98.7978 27.7392 98.822 27.694 98.653 27.6774C98.2176 27.6224 97.67 27.5999 97.0506 27.6115C96.5328 27.6125 96.0057 27.6146 95.4806 27.6201C95.1743 27.6249 94.8514 27.6354 94.5534 27.6373C94.4529 27.6413 94.3496 27.6473 94.2446 27.6551C94.1158 27.6665 93.9908 27.6727 93.8762 27.6734C93.5084 27.6638 93.0978 27.6721 92.6642 27.698C92.5054 27.7036 92.3529 27.7055 92.2089 27.7036C91.8684 27.6966 91.4993 27.7018 91.1113 27.719C90.8701 27.7287 90.6363 27.7338 90.4122 27.7341C90.333 27.7352 90.2686 27.7271 90.1924 27.7332C89.5214 27.7978 89.0463 27.7511 88.4425 27.776C88.149 27.7829 87.8686 27.7829 87.6052 27.776C87.0912 27.7764 86.563 27.7834 86.0225 27.7972C85.3077 27.8199 84.6454 27.812 83.963 27.8214C83.8282 27.8233 83.6981 27.823 83.5736 27.8204C82.968 27.803 82.3102 27.8067 81.6163 27.8314C81.4587 27.8349 81.3172 27.8306 81.2006 27.8185C81.0839 27.8065 80.9947 27.7871 80.9386 27.7615C80.9148 27.7439 80.9302 27.7211 80.9818 27.6974C81.0675 27.6672 81.1642 27.6376 81.2704 27.609L85.1332 27.5133C85.2954 27.5083 85.4536 27.5056 85.607 27.5053C86.0581 27.5044 86.5232 27.497 86.9997 27.483C87.4707 27.4698 87.9206 27.4721 88.3768 27.4682C88.5112 27.4668 88.6492 27.4637 88.7901 27.4588C89.7428 27.4197 90.6717 27.3959 91.5703 27.3874C91.9484 27.3862 92.3569 27.3683 92.7423 27.3625C93.1277 27.3567 93.6548 27.3546 94.112 27.3523L95.5276 27.3526C95.8061 27.3515 96.0772 27.3549 96.3473 27.3567C96.6751 27.2322 96.788 27.203 97.2254 27.1484C97.3751 27.1283 97.5273 27.1163 97.6642 27.1138C98.0984 27.1236 98.6433 27.0827 99.055 27.0881C99.3035 27.0854 99.5143 27.0992 99.6659 27.1282C99.7976 27.1509 99.9481 27.1688 100.115 27.1818C100.573 27.0753 100.613 27.0061 100.269 26.9792C100.176 26.9729 100.047 26.9748 99.9798 26.9616C99.9411 26.9535 99.8883 26.9489 99.8256 26.9481C99.7628 26.9473 99.6919 26.9503 99.6183 26.957C99.3861 26.9744 99.1684 26.9785 98.9871 26.9689C98.8166 26.9561 98.6074 26.9566 98.38 26.9703C98.2128 26.9919 98.0659 26.9615 97.9214 26.9527C97.7768 26.9439 97.6582 26.9281 97.4324 26.9517C97.3911 26.9564 97.35 26.9592 97.3124 26.96C97.2748 26.9607 97.2417 26.9593 97.2155 26.9559C96.973 26.9407 96.6837 26.9423 96.3709 26.9606C95.8912 26.9786 95.4412 26.9792 95.0364 26.9626C94.7941 26.948 94.5874 26.9222 94.4246 26.886C94.3803 26.874 94.3144 26.8667 94.2332 26.865C93.8259 26.8725 93.3837 26.9009 92.935 26.9483C92.766 26.9672 92.5972 26.9822 92.4322 26.993C92.0931 27.0168 91.7651 27.0301 91.458 27.0326C91.0117 27.033 90.5471 27.0422 90.0682 27.06C89.7726 27.07 89.4878 27.0736 89.2172 27.071C88.939 27.0697 88.642 27.0773 88.333 27.0936C88.0256 27.1068 87.7547 27.0992 87.553 27.0716C87.4865 27.0568 87.433 27.0391 87.3934 27.019C87.8435 26.9537 88.309 26.9205 88.6961 26.9261C88.8432 26.9218 88.9653 26.9261 89.1202 26.9007L89.1251 26.9092C89.1559 26.9147 89.2024 26.916 89.2558 26.9128C89.3091 26.9097 89.3655 26.9023 89.4143 26.892C89.3959 26.8597 89.3784 26.829 89.3658 26.8069C89.0708 26.8108 88.7844 26.8104 88.508 26.8059C88.2751 26.7994 87.9588 26.8566 87.7571 26.8351C87.3638 26.862 87.1134 26.8248 86.7607 26.8355C86.4079 26.8463 86.0194 26.8817 85.6667 26.8924C85.3589 26.8983 85.0601 26.8996 84.7718 26.8963C84.6723 26.8916 84.5576 26.8927 84.4348 26.8995C84.262 26.9123 84.1014 26.9145 83.9712 26.9057C83.8411 26.8969 83.7467 26.8776 83.6988 26.8499C83.7439 26.824 83.8046 26.7906 83.8746 26.756C83.7458 26.7275 83.5502 26.7156 83.3169 26.7218L82.9872 26.7205C82.8998 26.7212 82.833 26.7135 82.8006 26.699C82.7682 26.6844 82.7727 26.6642 82.8131 26.6424C83.4383 26.5325 83.4613 26.5204 83.9202 26.5911L84.5295 26.5582L84.5192 26.5577ZM76.2783 26.8594L76.3248 26.8535L76.2783 26.8594ZM0.351234 38.5459L0.361902 38.5646L0.350263 38.5442L0.248134 38.5573L0.241346 38.5454L0.351234 38.5459ZM15.1819 30.3344C15.3262 30.3139 15.472 30.2951 15.6183 30.2781C15.6566 30.2755 15.6925 30.2749 15.7228 30.2764C15.7532 30.2779 15.7772 30.2814 15.7927 30.2867C15.8043 30.3072 15.7227 30.3213 15.6484 30.3309C15.5547 30.3438 15.459 30.352 15.3712 30.3546C15.2833 30.3573 15.2065 30.3543 15.1486 30.346L15.0646 30.3385L15.1819 30.3344ZM89.5463 35.3156C89.4512 35.319 89.3611 35.3196 89.2781 35.3173C88.9098 35.3007 88.5573 35.2767 88.1798 35.2614C87.7034 35.2225 87.1561 35.2067 86.5582 35.2145C86.3246 35.2183 86.1273 35.2057 85.9893 35.1781C85.9066 35.1633 85.8 35.1547 85.6758 35.1527L84.0953 35.1078C83.9976 35.0985 83.9131 35.0854 83.8439 35.0689C83.9831 35.051 84.076 35.039 84.1317 35.0318C84.2473 35.0298 84.3467 35.0353 84.4198 35.0477C84.4984 35.0687 84.6313 35.0771 84.792 35.071C84.9542 35.066 85.1124 35.0633 85.2658 35.063C85.5555 35.064 85.8471 35.0685 86.1377 35.0712C86.2508 35.1298 86.5846 35.1032 86.8703 35.0975L87.0911 35.1001C87.8128 35.1304 88.5022 35.1722 89.1559 35.2252C89.2822 35.2341 89.3911 35.2484 89.4791 35.2676C89.5122 35.2826 89.5228 35.3012 89.5101 35.3221L89.5565 35.3161L89.5463 35.3156ZM57.3192 40.9139C57.1441 40.9179 56.9618 40.9261 56.7749 40.9383C56.631 40.9509 56.4905 40.9585 56.3591 40.9609C55.6231 40.974 54.856 41.0043 54.0683 41.0514C53.9653 41.0585 53.8663 41.062 53.7752 41.0618L53.1304 41.0498C52.9273 41.0431 52.9234 41.0363 53.0713 40.9459C53.194 40.9284 53.3181 40.9124 53.4427 40.898C53.517 40.8885 53.6377 40.8729 53.666 40.8875C53.8382 40.9275 54.1524 40.9016 54.4167 40.8931C55.1818 40.8713 55.9708 40.8391 56.7432 40.8126C56.9065 40.8062 57.0647 40.8029 57.2161 40.8029C57.3101 40.8015 57.3958 40.8041 57.4696 40.8104C57.4912 40.8111 57.5092 40.813 57.5226 40.816C57.5359 40.819 57.5443 40.823 57.547 40.8279C57.5498 40.8327 57.5469 40.8382 57.5385 40.844C57.5302 40.8498 57.5166 40.8558 57.4987 40.8615C57.4355 40.8816 57.3625 40.9009 57.2821 40.9187L57.3192 40.9139ZM51.7148 27.799L50.9612 27.7883C50.8708 27.7871 50.7941 27.7751 50.6974 27.7802C50.1814 27.7966 49.7035 27.792 49.2843 27.7667C49.1415 27.7564 48.9745 27.7544 48.7924 27.7607C48.2349 27.7793 47.7089 27.7801 47.2288 27.763C46.9185 27.7595 46.6281 27.748 46.3619 27.7285C46.3414 27.7239 46.3286 27.7178 46.3244 27.7104C46.3203 27.7031 46.3248 27.6947 46.3377 27.6859C46.341 27.6803 46.3501 27.6743 46.3644 27.6683C46.3786 27.6623 46.3977 27.6564 46.4202 27.6511C46.4428 27.6457 46.4683 27.641 46.4949 27.6374C46.5216 27.6337 46.5489 27.6311 46.5748 27.6297C46.9111 27.6033 47.2303 27.5941 47.5064 27.6029C47.7624 27.6133 48.0381 27.6164 48.329 27.612C48.6074 27.6109 48.7963 27.645 49.1403 27.6189C49.2859 27.6104 49.4142 27.6132 49.5037 27.6269C49.6839 27.6498 49.9354 27.651 50.2135 27.6305C50.3798 27.6202 50.5388 27.6157 50.6844 27.6174C51.0376 27.6248 51.375 27.6399 51.7023 27.6543C51.8054 27.6577 51.9158 27.6582 52.032 27.6557L53.6704 27.6273C54.0642 27.6186 54.457 27.6082 54.8434 27.6041C55.1594 27.5952 55.4534 27.598 55.7152 27.6124C55.9944 27.6275 56.2988 27.6337 56.6228 27.6307C57.1259 27.639 57.6261 27.6421 58.1736 27.641C58.5229 27.6417 58.8805 27.6395 59.2454 27.6327C59.43 27.6239 59.5867 27.6311 59.6854 27.6527C59.7454 27.6706 59.8867 27.6561 60.0039 27.6519C60.6293 27.612 61.2158 27.6025 61.7225 27.6242C61.7872 27.6277 61.8582 27.629 61.934 27.628C62.422 27.6272 62.9276 27.6224 63.396 27.6223C63.5193 27.624 63.6354 27.6287 63.7428 27.6362C63.7313 27.6484 63.6985 27.6616 63.6513 27.6732C63.604 27.6847 63.5459 27.6937 63.489 27.6981C63.0459 27.7323 62.6181 27.7504 62.2236 27.7515C61.5669 27.7472 60.879 27.757 60.167 27.7808C59.6146 27.8048 59.1109 27.7998 58.6933 27.766C58.367 27.7408 57.9424 27.7503 57.4925 27.7928C57.3 27.8131 57.1132 27.8212 56.9576 27.8161C56.8078 27.8093 56.6359 27.8109 56.452 27.8209C56.0642 27.8399 55.6913 27.8487 55.3406 27.8472C54.9977 27.8402 54.6778 27.8211 54.3257 27.8153C53.9735 27.8095 53.4372 27.8128 53.0029 27.803C52.5687 27.7931 52.1393 27.7918 51.7148 27.799ZM82.9443 26.8028C82.9045 26.8554 82.7637 26.8882 82.6122 26.9023C82.09 26.9646 81.5736 26.9911 81.1499 26.9774C80.921 26.9582 80.6159 26.9656 80.2945 26.9981C79.9203 27.0318 79.5705 27.0374 79.3068 27.0139C79.2421 27.0098 79.1927 27.0011 79.1628 26.9886C79.1569 26.9783 79.1463 26.9596 79.1443 26.9562C79.172 26.9476 79.206 26.9396 79.2436 26.9328C79.2813 26.9261 79.3215 26.9207 79.3614 26.9173L81.0913 26.857L81.3928 26.8437C81.9434 26.809 82.4681 26.7951 82.9443 26.8028ZM79.5415 27.6363C79.2715 27.7223 79.2706 27.7206 79.1323 27.7402C78.465 27.8219 77.7981 27.8659 77.2111 27.8672C77.0806 27.8669 76.9698 27.8586 76.8882 27.843C76.8463 27.8409 76.8195 27.8341 76.8139 27.8242C76.8083 27.8143 76.8242 27.8021 76.8582 27.7902L77.0729 27.7296C77.4628 27.7034 77.8471 27.6825 78.2235 27.6672C78.6617 27.6491 79.0501 27.6484 79.5044 27.6411L79.5415 27.6363ZM57.3516 40.5331C57.1 40.6515 57.099 40.6498 56.6778 40.6803C56.3843 40.7019 56.0996 40.7146 55.8321 40.718C55.5053 40.7217 55.1702 40.7284 54.8443 40.7338C54.7648 40.7376 54.6973 40.7345 54.6551 40.725C54.6129 40.7156 54.599 40.7006 54.6159 40.6828C54.6587 40.6636 54.7256 40.6449 54.8057 40.6299C54.8859 40.615 54.9746 40.6045 55.0574 40.6003L55.2352 40.5975C55.4511 40.5916 55.6754 40.5828 55.884 40.5815C56.0193 40.5864 56.1761 40.5826 56.3421 40.5704C56.5081 40.5582 56.6788 40.538 56.8407 40.5112L57.3516 40.5331ZM78.1981 26.9575C78.131 26.978 78.055 26.9976 77.9722 27.0159C77.6518 27.0664 77.3127 27.0952 77.0213 27.0964C76.8836 27.0995 76.7576 27.0884 76.6173 27.1046C76.3657 27.1263 76.122 27.1379 75.8991 27.1387C75.8991 27.1387 75.8366 27.1339 75.8161 27.1329L75.7734 27.058C75.8789 27.0406 75.9889 27.0264 76.0984 27.0161C76.4658 26.9962 76.8269 26.9825 77.187 26.9672C77.547 26.9519 77.6726 26.9448 77.9081 26.9382C78.0131 26.9419 78.1103 26.9483 78.1981 26.9575ZM86.1547 36.2738L85.6739 36.4272C85.5183 36.4405 85.3729 36.4429 85.2599 36.4341C85.1469 36.4252 85.0725 36.4055 85.0479 36.3781C85.0083 36.3652 85.0043 36.3462 85.0368 36.325C85.0693 36.3037 85.1358 36.2819 85.2222 36.2642C85.3055 36.2431 85.4005 36.2243 85.5013 36.2088C85.6022 36.1932 85.7069 36.1814 85.8088 36.174L86.1547 36.2738ZM82.1514 35.5101C82.4659 35.4841 82.7667 35.4735 83.0308 35.479C83.1972 35.4942 83.4227 35.4894 83.661 35.4654C84.0944 35.4177 84.5121 35.4045 84.8261 35.4286C84.8261 35.4286 84.8378 35.449 84.891 35.455C84.9442 35.4609 84.7332 35.4753 84.6867 35.4813C84.3462 35.4959 84.0037 35.5072 83.7077 35.5124C83.5239 35.5122 83.3295 35.517 83.1278 35.5268C82.8503 35.542 82.5872 35.5469 82.3486 35.5414C82.3486 35.5414 82.2563 35.5368 82.1524 35.5118L82.1514 35.5101ZM48.5663 27.5211C48.7165 27.4922 48.8794 27.4687 49.0427 27.4524C49.2061 27.4361 49.3656 27.4274 49.5094 27.4269C49.6196 27.4254 49.7087 27.4331 49.7627 27.4486C49.8167 27.4642 49.8325 27.4868 49.8075 27.5128C49.6961 27.5272 49.5475 27.5463 49.464 27.5571C49.1743 27.5561 48.9272 27.5422 48.5663 27.5211ZM20.4483 29.9554C20.5688 29.9321 20.7015 29.9143 20.8314 29.904C20.9613 29.8938 21.083 29.8914 21.1827 29.8973C21.2339 29.8998 21.1992 29.9262 21.2079 29.9415C21.2136 29.945 21.2135 29.9493 21.2077 29.9541C21.2019 29.9588 21.1905 29.9637 21.1748 29.9683C21.1591 29.973 21.1396 29.9772 21.1184 29.9804C21.0972 29.9837 21.0751 29.9859 21.0543 29.9869C20.9235 29.9969 20.8001 29.9999 20.6951 29.9956C20.59 29.9913 20.5065 29.9798 20.4521 29.9622L20.4483 29.9554ZM18.5643 30.2878C18.583 30.2741 18.6226 30.2598 18.676 30.2475C18.7295 30.2352 18.7931 30.2258 18.8552 30.221C18.965 30.2204 19.0648 30.2242 19.1507 30.2323C19.244 30.2386 19.1769 30.2783 19.0507 30.3019C18.9973 30.3113 18.9402 30.3187 18.8841 30.3234C18.8279 30.3281 18.7741 30.33 18.7271 30.329C18.68 30.328 18.641 30.324 18.6131 30.3174C18.5852 30.3109 18.5691 30.3019 18.5662 30.2912L18.5643 30.2878ZM73.3074 27.1035C73.5885 27.0544 73.8048 27.0668 74.0428 27.0471C74.2807 27.0274 74.3394 27.0253 74.3075 27.0568C74.2756 27.0883 74.1125 27.082 74.0103 27.0951C73.8723 27.1126 73.7335 27.1226 73.6093 27.1241C73.4852 27.1256 73.3806 27.1184 73.3074 27.1035ZM14.7368 35.3991C14.8857 35.3881 15.0315 35.3803 15.1721 35.3759C15.1906 35.3804 15.2022 35.3864 15.2062 35.3934C15.2102 35.4004 15.2065 35.4084 15.1954 35.4167C15.1954 35.4167 15.1 35.4418 15.0443 35.449C14.8391 35.4736 14.8289 35.4384 14.7368 35.3991ZM-6.30528 39.967C-6.40604 40.0001 -6.45302 40.0226 -6.53368 40.0384C-6.57074 40.044 -6.60905 40.048 -6.64576 40.0502C-6.68247 40.0524 -6.71663 40.0527 -6.74574 40.0512C-6.78119 40.0416 -6.7895 40.027 -6.76901 40.0103C-6.76901 40.0103 -6.66634 39.9806 -6.62725 39.9792C-6.51575 39.9722 -6.40768 39.9681 -6.30528 39.967ZM78.0917 26.8231C78.3053 26.7956 78.5096 26.7693 78.6575 26.8014C78.3183 26.836 78.3183 26.836 78.0917 26.8231ZM74.6325 27.1374C74.8482 27.0785 74.9747 27.0732 75.0782 27.08C75.1002 27.0817 75.1148 27.0855 75.1197 27.0908C75.1246 27.0961 75.1196 27.1026 75.1055 27.1094C75.0913 27.1162 75.0688 27.1228 75.0412 27.1284C75.0137 27.1339 74.9827 27.138 74.9529 27.14C74.8405 27.1417 74.7332 27.1408 74.6325 27.1374ZM63.5327 27.1623C63.5279 27.1538 63.5221 27.1436 63.5778 27.1364C63.5924 27.1327 63.6095 27.1296 63.6274 27.1273C63.6454 27.125 63.6635 27.1236 63.6799 27.1232C63.6799 27.1232 63.6857 27.1334 63.6896 27.1403L63.5327 27.1623ZM55.8248 41.3003L55.9488 41.3081L55.8931 41.3153L55.7461 41.3196L55.8248 41.3003ZM12.1492 30.1549C12.1956 30.1489 12.2421 30.1429 12.2488 30.1549C12.2586 30.1567 12.2647 30.1594 12.2666 30.1626C12.2684 30.1659 12.266 30.1696 12.2595 30.1736C12.2595 30.1736 12.1945 30.182 12.1666 30.1856L12.1492 30.1549ZM19.3802 30.2502C19.4108 30.2496 19.4383 30.2504 19.4613 30.2526L19.4671 30.2628L19.3742 30.2748L19.3802 30.2502ZM82.3967 32.6851C82.4325 32.6789 82.4705 32.674 82.5081 32.6707L82.5545 32.6647C82.5545 32.6647 82.5046 32.6821 82.4768 32.6857C82.4489 32.6893 82.4265 32.6849 82.3967 32.6851Z" fill="#016A70"/>
</g>
<path d="M23.119 2.6158C22.816 2.74172 22.7029 2.98987 22.6988 3.51578V3.80467H20.7231H18.7514L18.6181 3.88615C18.3434 4.06022 18.2343 4.30466 18.303 4.59724C18.3474 4.79353 18.5656 5.01205 18.7757 5.0639C18.9898 5.11945 27.8179 5.11575 28.0522 5.0602C28.3957 4.97872 28.6381 4.64909 28.5735 4.34169C28.5411 4.17132 28.4078 3.99355 28.2381 3.88985L28.1007 3.80467H26.1291H24.1533V3.49726C24.1533 2.96765 24.0321 2.73061 23.7008 2.60099C23.5028 2.52691 23.321 2.53062 23.119 2.6158Z" fill="#016A70"/>
<path d="M16.0848 6.17886C15.8949 6.23071 15.6889 6.43441 15.6364 6.61959C15.6 6.74922 15.6202 6.94922 15.7333 7.7455C15.806 8.27512 15.8788 8.7677 15.8909 8.83066L15.9151 8.95288H16.6182C17.2767 8.95288 17.3252 8.94918 17.3252 8.88622C17.3252 8.81585 17.1838 7.77883 17.1394 7.55291L17.1192 7.43439H23.4261C26.8927 7.43439 29.729 7.4455 29.729 7.46032C29.729 7.47884 29.6846 7.79735 29.628 8.17141C29.5714 8.54548 29.527 8.8714 29.527 8.90103C29.527 8.94177 29.6563 8.95288 30.234 8.95288C30.933 8.95288 30.9411 8.95288 30.9573 8.8677C30.9694 8.82325 31.0421 8.33067 31.1229 7.77883C31.2441 6.927 31.2603 6.74552 31.2199 6.61219C31.1674 6.4233 30.9573 6.23071 30.7472 6.17516C30.5532 6.12701 16.2707 6.13071 16.0848 6.17886Z" fill="#016A70"/>
<path d="M17.6484 20.9636C17.6484 21.0673 17.9313 22.9525 17.9595 23.0155C18.0121 23.1562 18.1454 23.2895 18.2989 23.3599C18.4525 23.434 18.5333 23.434 23.4786 23.4266L28.5048 23.4154L28.6502 23.3117C28.731 23.2562 28.828 23.1599 28.8603 23.1006C28.9129 23.0117 29.2038 21.2044 29.2038 20.9785C29.2038 20.9229 29.1432 20.9155 28.5007 20.9155C27.8058 20.9155 27.7977 20.9155 27.7775 20.997C27.7654 21.0451 27.725 21.3192 27.6846 21.6118L27.6119 22.1377L23.4301 22.1303L19.2444 22.1192L19.1555 21.5266C19.107 21.2007 19.0666 20.9303 19.0666 20.9229C19.0626 20.9192 18.7434 20.9155 18.3555 20.9155C17.7898 20.9155 17.6484 20.9266 17.6484 20.9636Z" fill="#016A70"/>
<path d="M21.8208 9.18835C21.4918 9.32249 21.3641 9.46303 20.984 10.1018C20.7221 10.5426 20.6422 10.6959 20.6582 10.7534C20.671 10.8077 20.9425 11.0025 21.6867 11.4912C22.5554 12.0598 22.7087 12.146 22.7662 12.1204C22.8078 12.1013 22.9738 11.8266 23.2006 11.3986C23.4018 11.0185 23.5807 10.7119 23.5935 10.7183C23.619 10.7247 24.4143 12.2354 24.4111 12.2737C24.4111 12.2833 24.2451 12.3887 24.0438 12.5133C23.6382 12.7528 23.5583 12.8359 23.6158 12.9413C23.635 12.9796 23.6829 13.0148 23.7212 13.0211C23.9257 13.0659 26.3435 13.3278 26.3946 13.3118C26.4266 13.3022 26.4904 13.2128 26.5384 13.1106C27.2602 11.5998 27.7361 10.5586 27.7361 10.4979C27.7361 10.4468 27.7105 10.4085 27.6594 10.3861C27.5924 10.3542 27.5317 10.3765 27.1771 10.565C26.8546 10.7374 26.7651 10.7726 26.7428 10.7374C26.7268 10.7119 26.5671 10.4372 26.3882 10.1242C26.1295 9.67383 26.0241 9.51733 25.8804 9.38318C25.577 9.10211 25.644 9.11169 23.6989 9.11169H22.0029L21.8208 9.18835ZM23.1847 9.86867C23.2996 10.1082 23.3923 10.3222 23.3923 10.3478C23.3923 10.3893 22.7119 11.6573 22.664 11.7052C22.6449 11.7244 21.1469 10.7694 21.0511 10.6799C21.0287 10.6576 21.4759 9.86867 21.5813 9.75049C21.7985 9.49816 21.9997 9.43428 22.5522 9.43109H22.977L23.1847 9.86867ZM25.4141 9.48219C25.6696 9.56843 25.791 9.71216 26.187 10.4212C26.3914 10.7822 26.5863 11.1047 26.6214 11.1399C26.6821 11.2038 26.6853 11.2038 26.944 11.0696C27.0909 10.9962 27.2123 10.9419 27.2187 10.9482C27.2283 10.9578 26.3339 12.871 26.2701 12.97C26.2509 13.002 26.0561 12.986 25.315 12.8966C24.8008 12.8359 24.3664 12.7848 24.3473 12.7848C24.277 12.7848 24.3409 12.7177 24.5581 12.5708C24.6794 12.4846 24.7848 12.3951 24.7912 12.3664C24.7976 12.3376 24.475 11.6829 24.079 10.9067C23.6829 10.1338 23.3603 9.48539 23.3603 9.46622C23.3603 9.44067 23.6414 9.43109 24.3121 9.43109C25.0979 9.43109 25.2927 9.44067 25.4141 9.48219Z" fill="#016A70"/>
<path d="M20.8851 12.009C20.8149 12.0154 20.208 12.057 19.5341 12.0985C18.7164 12.1496 18.2948 12.1879 18.2629 12.2135C18.2341 12.2358 18.2182 12.2933 18.2245 12.3508C18.2341 12.437 18.282 12.4754 18.6493 12.7149C18.8793 12.8618 19.0837 12.9928 19.1061 13.0056C19.1412 13.0247 19.071 13.194 18.8122 13.737C18.627 14.1267 18.4577 14.5195 18.4385 14.6122C18.3938 14.8198 18.4194 15.1232 18.5024 15.3276C18.6142 15.6055 20.1218 18.2597 20.2559 18.4098C20.406 18.5791 20.7127 18.742 20.9618 18.7899C21.0544 18.8059 21.3036 18.8218 21.5112 18.8218C22.0701 18.8218 22.019 18.9688 22.019 17.3845C22.019 16.1165 22.0158 16.0718 21.9551 16.0111C21.8944 15.9504 21.8497 15.9472 21.2205 15.9472C20.8149 15.9472 20.5498 15.9345 20.5498 15.9153C20.5498 15.8578 21.3898 14.3822 21.4249 14.3822C21.4441 14.3822 21.623 14.4461 21.8242 14.5259C22.1659 14.6601 22.1947 14.6665 22.265 14.6217C22.3033 14.593 22.3384 14.5419 22.3384 14.5068C22.3384 14.4109 21.2908 12.0761 21.2269 12.025C21.1758 11.9867 21.1407 11.9867 20.8851 12.009ZM21.4633 13.2451C21.6804 13.737 21.8561 14.149 21.8529 14.1618C21.8465 14.1778 21.7443 14.1458 21.6198 14.0915C21.3323 13.9702 21.2684 13.9734 21.1886 14.1011C21.1534 14.1586 20.8053 14.7846 20.4124 15.4905C20.0228 16.1996 19.6938 16.7777 19.6842 16.7777C19.6746 16.7777 19.4702 16.4263 19.2307 15.9983C18.7611 15.1583 18.7132 15.021 18.7643 14.708C18.7771 14.6217 18.9432 14.2321 19.1604 13.7785C19.4127 13.2515 19.5277 12.98 19.5149 12.9321C19.5053 12.8906 19.384 12.7916 19.2019 12.6766C19.039 12.5712 18.924 12.4818 18.9432 12.4754C19.0071 12.453 20.6743 12.3444 20.8788 12.3508L21.064 12.354L21.4633 13.2451ZM21.6996 17.3845V18.4705H21.3068C20.9522 18.4705 20.8979 18.4641 20.7542 18.3907C20.6648 18.3459 20.5562 18.2693 20.5083 18.2214C20.3869 18.0936 19.8758 17.1865 19.8886 17.1258C19.895 17.0971 20.0068 16.9022 20.1314 16.6883L20.3613 16.2986H21.0289H21.6996V17.3845Z" fill="#016A70"/>
<path d="M26.6184 13.5673C25.7177 14.1167 25.5484 14.2285 25.5388 14.2956C25.5324 14.3499 25.6442 14.5926 25.8806 15.027C26.0754 15.3847 26.2415 15.7041 26.2543 15.7329C26.2734 15.784 26.2095 15.7872 25.459 15.7872H24.6445L24.6317 15.3719C24.6221 15.0046 24.6157 14.9535 24.5582 14.912C24.5231 14.8833 24.472 14.8641 24.4465 14.8705C24.4049 14.8769 22.7249 16.7549 22.6035 16.9274C22.5748 16.9721 22.562 17.0296 22.5748 17.0711C22.5844 17.1127 22.9932 17.6748 23.4819 18.3264C24.3858 19.5337 24.4401 19.5912 24.5614 19.4922C24.5934 19.4635 24.6062 19.374 24.6062 19.1377V18.8215H25.2609C25.9381 18.8215 26.1648 18.7927 26.3756 18.6873C26.6343 18.5564 26.7717 18.3647 27.3658 17.3011C27.682 16.7422 28.0525 16.0906 28.193 15.8542C28.3336 15.6211 28.4805 15.3528 28.522 15.2601C28.6178 15.0525 28.6498 14.7395 28.6019 14.5128C28.5827 14.4201 28.4102 14.0209 28.2186 13.628C27.8832 12.9445 27.864 12.9126 27.7778 12.9158C27.7203 12.9158 27.3179 13.1425 26.6184 13.5673ZM27.9854 13.858C28.1323 14.1678 28.2697 14.4968 28.2888 14.5926C28.3431 14.8513 28.2888 15.0525 28.0557 15.4518L27.8577 15.7872L27.2508 15.7808L26.6407 15.7712L26.2798 15.1005C26.0786 14.7299 25.9157 14.4137 25.9157 14.3978C25.9189 14.369 27.6596 13.2958 27.7043 13.2958C27.7139 13.2958 27.8385 13.5482 27.9854 13.858ZM24.3474 16.0555C24.3858 16.1002 24.5455 16.1066 26.0147 16.1066C26.909 16.1066 27.6405 16.1193 27.6405 16.1353C27.6405 16.1577 26.6695 17.8952 26.5162 18.1443C26.481 18.2018 26.3852 18.2944 26.3054 18.3519L26.1552 18.4541L25.2929 18.4637C24.4656 18.4733 24.4273 18.4765 24.3602 18.5404C24.3123 18.5851 24.2868 18.6458 24.2868 18.7161C24.2868 18.7735 24.2772 18.8215 24.2644 18.8183C24.2229 18.8151 22.9613 17.0967 22.9613 17.0456C22.9613 17.02 23.2551 16.6623 23.616 16.2471L24.2708 15.4933L24.2868 15.7488C24.2963 15.8926 24.3219 16.0235 24.3474 16.0555Z" fill="#016A70"/>
</svg>
