<svg width="72" height="97" viewBox="0 0 72 97" fill="none" xmlns="http://www.w3.org/2000/svg">
<path d="M34.5678 0.310317C33.171 0.890764 32.6495 2.03459 32.6309 4.45881V5.79042H23.5238H14.4353L13.8207 6.166C12.5543 6.96839 12.0514 8.09514 12.368 9.44382C12.5729 10.3486 13.5786 11.3559 14.547 11.5949C15.5341 11.851 56.2275 11.8339 57.3077 11.5778C58.8907 11.2022 60.0081 9.68283 59.7101 8.26585C59.5612 7.48054 58.9466 6.66109 58.1644 6.18307L57.5311 5.79042H48.4427H39.3355V4.37345C39.3355 1.93215 38.7768 0.839548 37.2496 0.24203C36.3371 -0.0994098 35.499 -0.0823378 34.5678 0.310317Z" fill="#016A70"/>
<path d="M2.14323 16.7339C1.2679 16.9729 0.318078 17.9119 0.0759668 18.7655C-0.0916489 19.363 0.00147098 20.2849 0.522942 23.9554C0.858173 26.3966 1.1934 28.6672 1.24928 28.9574L1.36102 29.5208H4.60159C7.6373 29.5208 7.86078 29.5037 7.86078 29.2135C7.86078 28.8892 7.20895 24.109 7.00408 23.0676L6.91096 22.5213H35.983C51.9623 22.5213 65.0364 22.5725 65.0364 22.6408C65.0364 22.7262 64.8315 24.1944 64.5708 25.9186C64.31 27.6429 64.1052 29.1452 64.1052 29.2818C64.1052 29.4696 64.7011 29.5208 67.3644 29.5208C70.5863 29.5208 70.6235 29.5208 70.698 29.1282C70.7539 28.9233 71.0891 26.6527 71.4616 24.109C72.0203 20.1824 72.0948 19.3459 71.9086 18.7313C71.6665 17.8607 70.698 16.9729 69.7296 16.7168C68.8356 16.4949 2.99993 16.512 2.14323 16.7339Z" fill="#016A70"/>
<path d="M9.35107 84.8849C9.35107 85.3629 10.6548 94.0525 10.7851 94.3428C11.0272 94.9915 11.6418 95.6061 12.3495 95.9305C13.0572 96.2719 13.4297 96.2719 36.2255 96.2378L59.3937 96.1865L60.0641 95.7085C60.4366 95.4525 60.8836 95.0086 61.0326 94.7354C61.2747 94.3257 62.6156 85.9946 62.6156 84.9532C62.6156 84.6971 62.3363 84.663 59.375 84.663C56.1717 84.663 56.1345 84.663 56.0414 85.0386C55.9855 85.2605 55.7992 86.5238 55.613 87.8725L55.2778 90.2967L36.002 90.2626L16.7075 90.2114L16.2978 87.4798C16.0743 85.9775 15.8881 84.7313 15.8881 84.6971C15.8695 84.68 14.3982 84.663 12.6103 84.663C10.0029 84.663 9.35107 84.7142 9.35107 84.8849Z" fill="#016A70"/>
<path d="M28.5834 30.606C27.067 31.2244 26.4781 31.8722 24.726 34.8167C23.5188 36.8485 23.1507 37.5552 23.2243 37.8202C23.2832 38.0705 24.5346 38.9686 27.9651 41.2212C31.9697 43.8418 32.6764 44.2393 32.9414 44.1216C33.1328 44.0332 33.8984 42.7671 34.9437 40.7942C35.8712 39.0422 36.6957 37.6288 36.7546 37.6582C36.8724 37.6877 40.5383 44.6516 40.5236 44.8283C40.5236 44.8724 39.758 45.3583 38.8305 45.9325C36.9607 47.0367 36.5926 47.4195 36.8576 47.9053C36.946 48.082 37.1668 48.2439 37.3435 48.2734C38.2858 48.4795 49.4309 49.6868 49.6665 49.6132C49.8137 49.569 50.1082 49.1568 50.329 48.6856C53.6564 41.7217 55.8501 36.9221 55.8501 36.6424C55.8501 36.4068 55.7323 36.2301 55.4967 36.1271C55.1875 35.9798 54.9078 36.0829 53.2736 36.9515C51.7866 37.7466 51.3743 37.9085 51.2713 37.7466C51.1977 37.6288 50.4615 36.3626 49.637 34.9198C48.4445 32.8439 47.9586 32.1225 47.2961 31.5041C45.8974 30.2085 46.2066 30.2527 37.2404 30.2527H29.4226L28.5834 30.606ZM34.8701 33.742C35.4001 34.8462 35.827 35.8326 35.827 35.9504C35.827 36.1418 32.6911 41.9867 32.4702 42.2076C32.3819 42.2959 25.4769 37.8938 25.0352 37.4816C24.9322 37.3785 26.9934 33.742 27.4792 33.1972C28.4804 32.0341 29.4079 31.7397 31.9549 31.7249H33.9131L34.8701 33.742ZM45.1466 31.9605C46.3244 32.358 46.8839 33.0206 48.7095 36.289C49.6518 37.9527 50.5499 39.4397 50.7118 39.6017C50.9915 39.8961 51.0063 39.8961 52.1988 39.2777C52.8761 38.9391 53.4355 38.6888 53.465 38.7183C53.5091 38.7625 49.3868 47.5814 49.0923 48.0378C49.004 48.1851 48.1059 48.1114 44.6902 47.6992C42.3198 47.4195 40.3175 47.1839 40.2292 47.1839C39.9053 47.1839 40.1997 46.8747 41.2009 46.1975C41.7603 45.8 42.2462 45.3877 42.2756 45.2552C42.3051 45.1227 40.8181 42.1045 38.9924 38.5269C37.1668 34.964 35.6798 31.9752 35.6798 31.8869C35.6798 31.7691 36.9754 31.7249 40.0672 31.7249C43.689 31.7249 44.5871 31.7691 45.1466 31.9605Z" fill="#016A70"/>
<path d="M24.2705 43.6079C23.9466 43.6373 21.1493 43.8287 18.0428 44.0201C14.2738 44.2557 12.3303 44.4323 12.1831 44.5501C12.0506 44.6532 11.977 44.9182 12.0064 45.1832C12.0506 45.5807 12.2715 45.7574 13.9646 46.8616C15.0246 47.5389 15.9669 48.1425 16.0699 48.2014C16.2319 48.2897 15.908 49.07 14.7154 51.5729C13.8615 53.3691 13.0812 55.18 12.9929 55.607C12.7868 56.5639 12.9045 57.9626 13.2873 58.9049C13.8026 60.1857 20.7518 72.4204 21.3702 73.1124C22.0621 73.8927 23.4755 74.6435 24.6239 74.8644C25.0509 74.938 26.1992 75.0116 27.1562 75.0116C29.7327 75.0116 29.4971 75.6889 29.4971 68.3864C29.4971 62.5414 29.4824 62.3353 29.2027 62.0555C28.923 61.7758 28.7168 61.7611 25.8164 61.7611C23.9466 61.7611 22.7247 61.7022 22.7247 61.6139C22.7247 61.3488 26.5968 54.5469 26.7587 54.5469C26.847 54.5469 27.6715 54.8414 28.5991 55.2094C30.1744 55.8278 30.3069 55.8572 30.6308 55.6511C30.8075 55.5186 30.9694 55.2831 30.9694 55.1211C30.9694 54.6794 26.1403 43.917 25.8459 43.6815C25.6103 43.5048 25.4484 43.5048 24.2705 43.6079ZM26.9354 49.3056C27.9365 51.5729 28.7463 53.4721 28.7316 53.531C28.7021 53.6047 28.231 53.4574 27.6568 53.2071C26.3317 52.6477 26.0373 52.6624 25.6692 53.2513C25.5073 53.5163 23.9025 56.402 22.0916 59.6557C20.2954 62.9242 18.7789 65.589 18.7348 65.589C18.6906 65.589 17.7483 63.9695 16.6441 61.9967C14.4799 58.1246 14.259 57.4915 14.4946 56.0486C14.5535 55.6511 15.3191 53.8549 16.3202 51.7643C17.4833 49.335 18.0134 48.0836 17.9545 47.8628C17.9103 47.6714 17.3508 47.2149 16.5116 46.6849C15.7608 46.1991 15.2307 45.7868 15.3191 45.7574C15.6135 45.6543 23.2988 45.1538 24.2411 45.1832L25.095 45.1979L26.9354 49.3056ZM28.0249 68.3864V73.3921H26.214C24.5797 73.3921 24.3294 73.3627 23.6669 73.024C23.2547 72.8179 22.7541 72.4646 22.5333 72.2437C21.9738 71.6548 19.6181 67.4735 19.677 67.1938C19.7065 67.0613 20.2218 66.1632 20.796 65.1768L21.856 63.3806H24.9331H28.0249V68.3864Z" fill="#016A70"/>
<path d="M50.698 50.7906C46.5462 53.323 45.7659 53.8383 45.7217 54.1474C45.6923 54.3977 46.2076 55.5167 47.2971 57.519C48.1952 59.1679 48.9607 60.6402 49.0196 60.7727C49.108 61.0083 48.8135 61.023 45.3537 61.023H41.5993L41.5405 59.109C41.4963 57.4159 41.4668 57.1803 41.2018 56.9889C41.0399 56.8564 40.8043 56.7681 40.6865 56.7975C40.4951 56.827 32.7509 65.484 32.1915 66.279C32.059 66.4851 32.0001 66.7502 32.059 66.9416C32.1031 67.133 33.9876 69.7242 36.2402 72.7276C40.4068 78.2928 40.6571 78.5579 41.2165 78.1014C41.3638 77.9689 41.4227 77.5567 41.4227 76.4672V75.0097H44.4408C47.5621 75.0097 48.6074 74.8771 49.5791 74.3913C50.7717 73.7877 51.4047 72.9043 54.1432 68.0016C55.6007 65.4251 57.3086 62.4217 57.9564 61.3322C58.6042 60.2574 59.2814 59.0207 59.4728 58.5937C59.9145 57.6367 60.0617 56.1939 59.8409 55.1486C59.7526 54.7216 58.9575 52.8813 58.0742 51.0704C56.5283 47.9197 56.4399 47.7725 56.0424 47.7872C55.7774 47.7872 53.9223 48.8325 50.698 50.7906ZM56.9994 52.1304C57.6767 53.5585 58.3097 55.075 58.3981 55.5167C58.6484 56.7092 58.3981 57.6367 57.3233 59.4771L56.4105 61.023L53.6132 60.9935L50.8011 60.9494L49.1374 57.8576C48.2099 56.1497 47.459 54.6922 47.459 54.6186C47.4737 54.4861 55.4977 49.5392 55.7038 49.5392C55.748 49.5392 56.3222 50.7023 56.9994 52.1304ZM40.2301 62.2597C40.4068 62.4658 41.1429 62.4953 47.9154 62.4953C52.0378 62.4953 55.4093 62.5542 55.4093 62.6278C55.4093 62.7308 50.9336 70.74 50.2269 71.8884C50.065 72.1534 49.6233 72.5804 49.2552 72.8454L48.5632 73.3165L44.5881 73.3607C40.7749 73.4049 40.5982 73.4196 40.289 73.714C40.0682 73.9202 39.9504 74.1999 39.9504 74.5238C39.9504 74.7888 39.9062 75.0097 39.8473 74.9949C39.6559 74.9802 33.8404 67.0593 33.8404 66.8238C33.8404 66.706 35.1949 65.057 36.8586 63.1431L39.8768 59.6685L39.9504 60.8463C39.9946 61.5088 40.1123 62.1125 40.2301 62.2597Z" fill="#016A70"/>
</svg>
