<svg width="139" height="40" viewBox="0 0 139 40" fill="none" xmlns="http://www.w3.org/2000/svg">
<path d="M16.8821 30H9.40331C7.02909 30 5.35725 29.5944 4.38778 28.7832C3.43809 27.9522 2.96325 26.498 2.96325 24.4206V8.86949H16.8821V12.5495H7.08845V17.5057H13.944L13.6472 21.1857H7.08845V24.1238C7.08845 24.9548 7.27641 25.5286 7.65232 25.8451C8.02824 26.1617 8.71083 26.32 9.70008 26.32H16.8821V30ZM57.6513 30H53.3481L52.161 26.3496H45.068L43.9106 30H39.6073L46.3738 10.6501C46.6706 9.97745 46.997 9.5125 47.3532 9.2553C47.7291 8.99809 48.1842 8.86949 48.7184 8.86949C49.2526 8.86949 49.6779 8.9882 49.9945 9.22562C50.3308 9.46304 50.6276 9.93788 50.8848 10.6501L57.6513 30ZM51.2113 22.8774L48.7184 14.5082L46.1067 22.8774H51.2113ZM76.1612 17.387L72.3624 25.4C71.8084 26.4684 71.116 27.0026 70.285 27.0026C69.4738 27.0026 68.7912 26.4387 68.2372 25.3109L64.3791 17.387V30H60.2539V8.86949H64.3198L70.285 21.067L76.2205 8.86949H80.2864V30H76.1612V17.387ZM99.9196 23.9161C99.9196 25.8748 99.3854 27.3785 98.317 28.4271C97.2683 29.4757 95.7944 30 93.895 30H91.0459C88.7113 30 87.0493 29.5944 86.0601 28.7832C85.0906 27.972 84.6059 26.5673 84.6059 24.569V8.86949H93.5388C95.5569 8.86949 97.0705 9.37401 98.0795 10.383C99.1084 11.3921 99.6228 12.8166 99.6228 14.6566C99.6228 15.725 99.3458 16.6351 98.7918 17.387C98.2576 18.1388 97.664 18.673 97.0111 18.9896C98.9501 19.8997 99.9196 21.5419 99.9196 23.9161ZM93.2124 17.1199C94.7358 17.1199 95.4976 16.3582 95.4976 14.8347C95.4976 13.3112 94.7358 12.5495 93.2124 12.5495H88.7311V17.1199H93.2124ZM95.7944 23.7083C95.7944 22.7586 95.6262 22.0464 95.2898 21.5715C94.9535 21.0769 94.35 20.8296 93.4795 20.8296H88.7311V24.1535C88.7311 24.9647 88.9289 25.5286 89.3246 25.8451C89.7401 26.1617 90.4128 26.32 91.3427 26.32H93.4795C95.0227 26.32 95.7944 25.4494 95.7944 23.7083ZM107.909 26.0232C108.225 26.32 108.384 26.963 108.384 27.9522C108.384 28.9415 108.225 29.5944 107.909 29.911C107.612 30.2275 106.969 30.3858 105.98 30.3858C104.991 30.3858 104.338 30.2275 104.021 29.911C103.705 29.5944 103.546 28.9415 103.546 27.9522C103.546 26.963 103.705 26.32 104.021 26.0232C104.338 25.7066 104.991 25.5483 105.98 25.5483C106.969 25.5483 107.612 25.7066 107.909 26.0232ZM119.837 30.0297L116.483 30C115 30 113.872 29.5647 113.1 28.6942C112.348 27.8236 111.972 26.7849 111.972 25.578V7.68238H115.831V15.1612L120.431 13.0244C122.191 13.0244 123.487 13.4992 124.318 14.4489C125.05 15.2997 125.505 16.6747 125.683 18.5741C125.743 19.3655 125.773 20.3449 125.773 21.5122C125.773 27.1905 123.794 30.0297 119.837 30.0297ZM116.81 26.7058H118.709C120.846 26.7058 121.914 24.9746 121.914 21.5122C121.914 19.7513 121.746 18.5246 121.41 17.8321C121.093 17.1397 120.391 16.7934 119.303 16.7934L115.831 18.6631V25.3406C115.831 26.132 116.157 26.5871 116.81 26.7058ZM138.195 13.1134L137.126 16.9121C136.83 16.7934 136.493 16.7341 136.117 16.7341C135.128 16.7341 133.911 17.1595 132.467 18.0102V30H128.609V13.054H131.488L132.378 14.5379L136.473 12.8463C136.671 12.8265 136.938 12.8166 137.275 12.8166C137.611 12.8166 137.918 12.9155 138.195 13.1134Z" fill="white"/>
<mask id="mask0_17_193" style="mask-type:alpha" maskUnits="userSpaceOnUse" x="9" y="34" width="118" height="6">
<rect width="117.392" height="5.27603" transform="matrix(-1 0 0 1 126.795 34.2942)" fill="#C4C4C4"/>
</mask>
<g mask="url(#mask0_17_193)">
<path d="M107.558 33.6398L107.207 33.5784L107.889 33.4905L107.562 33.4261C107.235 33.4267 106.81 33.5232 106.578 33.4719C106.55 33.4223 106.907 33.4064 106.998 33.3668C107.079 33.3263 107.145 33.2861 107.195 33.2466C107.016 33.247 106.82 33.2565 106.618 33.2747C106.345 33.3043 106.078 33.3187 105.846 33.3162C105.371 33.3242 104.912 33.3163 104.395 33.318L104.567 33.1986L103.901 33.2265C103.83 33.2356 103.746 33.221 103.677 33.2323C103.1 33.3275 102.856 33.2756 102.579 33.2326C102.522 33.2214 102.453 33.2131 102.375 33.2079C101.605 33.2307 100.911 33.3641 100.218 33.4327C100.088 33.4502 99.9624 33.4726 99.8515 33.4984C99.6103 33.5486 99.3421 33.5896 99.0713 33.6177C98.8006 33.6457 98.5359 33.6598 98.3015 33.6589C97.7832 33.6578 97.1976 33.691 96.6014 33.7553C96.4241 33.7765 96.2467 33.7904 96.0805 33.7963C95.9143 33.8022 95.7629 33.7998 95.636 33.7894L95.2329 33.8576C95.0582 33.8299 94.8367 33.8147 94.5817 33.813C94.3268 33.8112 94.0438 33.8229 93.7499 33.8473C93.4367 33.8737 93.1186 33.8916 92.7936 33.9196C92.1224 33.9731 91.4691 34.0058 90.8541 34.0167C89.9383 34.0491 89.0434 34.0742 88.1195 34.1145C87.5415 34.134 86.9783 34.1447 86.4333 34.1466C85.7805 34.1542 85.0744 34.1911 84.349 34.2555V34.2555C84.3834 34.3159 84.7015 34.2981 84.9149 34.296C85.6036 34.286 86.3085 34.26 87.017 34.2404C87.3362 34.2328 87.6466 34.2299 87.9464 34.2318C88.4476 34.2293 88.976 34.2132 89.5225 34.1838C90.3858 34.1514 91.2216 34.1358 92.0212 34.1372C92.0838 34.1396 92.1413 34.1439 92.1925 34.1499C92.2032 34.1551 92.2053 34.1617 92.1986 34.169C92.192 34.1763 92.1767 34.1841 92.1544 34.1916C92.1321 34.1991 92.1034 34.2061 92.0712 34.212C92.0389 34.2178 92.004 34.2222 91.97 34.2249C91.6525 34.2658 91.3114 34.3098 91.0119 34.316C91.0003 34.3164 90.988 34.3175 90.9758 34.3191C90.9636 34.3206 90.9518 34.3227 90.9413 34.3251C90.2709 34.4115 89.7196 34.3969 89.1973 34.4109C88.3302 34.4489 87.4944 34.4667 86.7024 34.4639C86.5827 34.4641 86.4534 34.469 86.3193 34.4786C85.4898 34.5171 84.7142 34.5214 84.0287 34.4913C83.7466 34.4837 83.4843 34.4665 83.1812 34.4662C82.9944 34.4651 82.8319 34.4541 82.7033 34.4341C82.5747 34.414 82.4828 34.3853 82.433 34.3496C82.3051 34.3684 82.1752 34.3852 82.0448 34.3997C81.967 34.408 81.8923 34.4102 81.8359 34.4058C81.7796 34.4015 81.7457 34.3909 81.7411 34.3763C81.7178 34.3353 81.8954 34.3147 82.0496 34.2972C81.9566 34.2884 81.8519 34.2832 81.7378 34.2818C81.0955 34.2724 80.4065 34.2835 79.6859 34.3147C79.1264 34.3521 78.6798 34.3217 78.0912 34.3744C78.0206 34.3835 77.9625 34.3701 77.8975 34.3669C77.7282 34.35 77.5172 34.3462 77.2829 34.3559C77.0485 34.3655 76.7979 34.3882 76.5528 34.4221C76.2475 34.3295 75.5881 34.4353 75.1012 34.4449C74.9512 34.492 75.1233 34.4837 75.1306 34.4966C75.138 34.5096 75.1307 34.4966 75.1895 34.489C75.6757 34.5558 76.3418 34.5703 77.0944 34.5306C77.2336 34.5308 77.3662 34.5339 77.4909 34.5397C77.6799 34.5481 77.893 34.5472 78.1208 34.5373C78.3698 34.53 78.5984 34.5334 78.7958 34.5475C78.9094 34.5473 79.0054 34.5544 79.075 34.5681C79.1446 34.5818 79.1855 34.6016 79.194 34.6259C79.1181 34.6446 79.0341 34.6617 78.945 34.6765C78.4801 34.7351 78.0165 34.7593 77.6454 34.7444C76.9995 34.7189 76.231 34.7438 75.5442 34.7351C75.08 34.7316 74.5859 34.7416 74.0715 34.7651C74.0715 34.7651 74.085 34.7889 74.0862 34.791C74.0254 34.8013 73.9614 34.8096 73.898 34.8153C73.898 34.8153 73.898 34.8153 73.8919 34.8045C73.9201 34.7941 73.9583 34.7844 74.0021 34.7764L74.1551 34.7567C74.0511 34.7516 73.954 34.7363 73.8457 34.7456C73.6175 34.763 73.3994 34.7703 73.2045 34.7671C73.0096 34.764 72.8419 34.7505 72.7117 34.7274C72.4807 34.6978 72.1935 34.6843 71.8685 34.6879C71.6194 34.6846 71.3794 34.6777 71.1496 34.6671C71.1496 34.6671 71.1349 34.6412 71.026 34.6274C71.1291 34.6104 71.2366 34.5966 71.3436 34.5865C71.809 34.5612 72.2756 34.5381 72.7329 34.5209C72.9014 34.519 73.0597 34.5219 73.205 34.5295C73.6074 34.5384 74.0594 34.5258 74.5348 34.4924C74.5348 34.4924 74.6289 34.4803 74.676 34.4742C74.5425 34.4173 74.0826 34.4743 73.8965 34.4357C73.7833 34.4364 73.584 34.4413 73.5909 34.4311C73.6064 34.4176 73.6082 34.405 73.5963 34.3943C73.5843 34.3836 73.5589 34.375 73.5218 34.3692C73.4847 34.3633 73.4368 34.3604 73.3816 34.3605C73.3264 34.3607 73.2653 34.3639 73.2026 34.37C72.679 34.4031 72.1859 34.4123 71.7534 34.397C71.5894 34.3973 71.4056 34.4071 71.2428 34.4096C71.1432 34.4125 71.0523 34.4109 70.975 34.4047C70.5818 34.3595 70.0527 34.3562 69.4671 34.3953C69.1842 34.4094 68.9197 34.4113 68.6875 34.4009C68.5223 34.399 68.4523 34.4312 68.3347 34.4464L67.8352 34.4783L68.4767 34.5184C68.3395 34.6101 68.2305 34.6404 68.0065 34.6461C67.6797 34.6548 67.3615 34.6587 67.0536 34.6578C66.8259 34.657 66.6379 34.6373 66.3296 34.6724C66.2752 34.6781 66.2227 34.68 66.1811 34.6776C65.8201 34.6465 65.3854 34.6393 64.9066 34.6567C64.6587 34.5983 64.2365 34.655 63.8459 34.7008C63.7199 34.6568 63.9483 34.6366 64.0845 34.6098C63.7578 34.6125 63.4286 34.611 63.0914 34.6174C62.9899 34.6151 62.874 34.6191 62.7526 34.6291C62.6313 34.6391 62.5079 34.6549 62.392 34.6751C62.3355 34.6882 62.2674 34.6981 62.2018 34.7027C62.1363 34.7072 62.0782 34.7062 62.0398 34.6997C61.8648 34.6806 61.5844 34.6982 61.4398 34.6659C61.3884 34.6584 61.3149 34.6574 61.2324 34.6629C61.15 34.6685 61.064 34.6802 60.9898 34.6961V34.6961C61.071 34.701 61.1433 34.7088 61.205 34.7193C61.4264 34.7533 61.3451 34.8101 61.0639 34.8926C60.632 34.8881 60.1908 34.8894 59.7906 34.8738C59.5675 34.8599 59.2941 34.8642 59.0012 34.8864C58.7083 34.9087 58.4074 34.9478 58.1325 34.9996C58.033 35.0195 57.9196 35.0332 57.8148 35.0382C57.71 35.0431 57.6214 35.0388 57.5668 35.0262C57.5328 35.0115 57.5223 34.993 57.5361 34.9722L57.8184 34.9358C57.8184 34.9358 57.8074 34.9164 57.8049 34.9121L57.3991 34.9088C57.1844 34.9087 56.9603 34.9145 56.7574 34.9128C56.4593 34.902 56.119 34.908 55.7574 34.9306C55.424 34.9537 55.0962 34.9712 54.7771 34.9828C54.4683 34.9948 54.2445 34.9565 53.9507 34.9504C53.7284 34.9458 53.484 34.9507 53.2267 34.965C52.7821 34.9903 52.3742 34.9904 52.0399 34.9651C51.6502 35.1011 51.4608 35.1232 51.0989 35.0864L50.9288 35.0759L50.8823 35.1051L50.7524 35.0987C50.5093 35.093 50.2661 35.0873 50.0124 35.0852C49.6597 35.0978 49.2788 35.1318 48.907 35.1837C48.8364 35.1928 48.7403 35.2237 48.6784 35.2479C48.6164 35.2721 48.4812 35.3451 48.382 35.3926C48.4902 35.4273 48.6101 35.4605 48.6959 35.5004C48.7045 35.5072 48.7037 35.5153 48.6934 35.5241C48.6832 35.5329 48.6639 35.5421 48.637 35.551C48.6101 35.5598 48.5764 35.5681 48.5387 35.5752C48.5009 35.5822 48.4601 35.5879 48.4196 35.5916C48.3405 35.5996 48.2625 35.605 48.1887 35.6074C47.8253 35.6117 47.4772 35.6085 47.148 35.598C47.0278 35.5832 46.8632 35.5818 46.6804 35.594C46.4975 35.6063 46.3068 35.6315 46.1386 35.6656C45.7078 35.6451 45.2073 35.6512 44.6715 35.6834C44.1048 35.6638 43.4203 35.7034 42.8909 35.6605C42.9031 35.682 42.8485 35.7192 42.7723 35.7406C42.6519 35.7731 42.5153 35.8032 42.3686 35.8297L41.2491 35.8814C41.2072 35.9079 41.1549 35.9348 41.0928 35.9617C41.0503 35.9829 40.9762 36.0037 40.8862 36.0196C40.7963 36.0355 40.6976 36.0454 40.6111 36.047C40.3883 36.0548 40.2015 36.0372 39.9359 36.0807C40.3449 36.1219 40.8967 36.1164 41.4927 36.0653C42.0527 36.0265 42.5913 36.0071 43.0886 36.0078C43.2526 36.0075 43.4686 36.0098 43.5198 36.0333C43.6334 36.0997 43.9304 36.0892 44.277 36.0769C44.5492 36.0635 44.7979 36.065 45.0025 36.0813C45.2071 36.0976 45.3619 36.1282 45.454 36.1707C45.4774 36.2117 45.4215 36.2466 45.1826 36.2705L44.1891 36.3661C44.0427 36.3538 43.9038 36.3393 43.7729 36.3225C43.5524 36.3003 43.2802 36.2942 42.9774 36.3047C42.6747 36.3152 42.3495 36.342 42.0272 36.3831C41.8625 36.4044 41.6978 36.4256 41.5785 36.4155C41.4737 36.4039 41.3772 36.3901 41.2897 36.374C41.272 36.3632 41.265 36.3509 41.2688 36.3373C41.2054 36.3436 41.142 36.3518 41.0806 36.3616C40.5901 36.4758 40.2102 36.4738 39.8651 36.4442C39.7717 36.4354 39.7006 36.4214 39.606 36.4104C39.5113 36.3994 39.478 36.3852 39.392 36.3894C38.7062 36.4268 38.5088 36.3017 37.9309 36.3068C37.9027 36.3019 37.8852 36.2946 37.88 36.2855C37.8749 36.2765 37.8822 36.266 37.9014 36.255C37.9422 36.2451 37.9894 36.2365 38.0387 36.2302C38.0881 36.2238 38.1379 36.2198 38.1837 36.2186C38.4496 36.2026 38.6845 36.2075 38.8481 36.2325C38.964 36.2428 39.0867 36.2509 39.2156 36.257L39.7942 36.0758C39.2336 36.0924 38.7034 36.0923 38.2158 36.0755C38.1095 36.0661 37.9293 36.0823 37.7796 36.0854L36.6782 36.1024C36.4517 36.1038 36.2588 36.0754 35.9429 36.1416C35.9429 36.1416 35.7344 36.1522 35.6787 36.1432C35.6231 36.1342 35.3764 36.078 35.2293 36.0413C35.0585 36.0518 34.822 36.0799 34.7156 36.0705C34.5298 36.0473 34.3689 36.0176 34.2359 35.9818L33.5705 36.0329C33.5713 36.0782 33.5956 36.1208 33.643 36.1601C33.6949 36.198 33.6931 36.2436 33.6378 36.2929C33.5826 36.3423 33.4754 36.3942 33.325 36.4443L32.6681 36.7096C32.5609 36.7273 32.4466 36.7393 32.3407 36.7438C32.2349 36.7484 32.1426 36.7452 32.0765 36.7349C31.7938 36.7042 31.4771 36.6801 31.1945 36.6494C30.8299 36.6964 30.9236 36.7723 30.6585 36.8389L29.7999 36.9496C29.6689 37.0522 29.5354 37.1504 29.9338 37.1848C30.0129 37.1908 29.9595 37.2301 30.0319 37.2462C29.7222 37.3232 29.3818 37.3462 29.0679 37.3936C28.9441 37.4277 28.8406 37.4638 28.7624 37.5002C28.6765 37.5549 28.5024 37.6108 28.2776 37.6558C28.0528 37.7008 27.7954 37.7313 27.5611 37.7407C27.1679 37.7695 26.7653 37.8128 26.3713 37.8686C26.2367 37.888 26.0984 37.9021 25.9657 37.91C25.833 37.9179 25.709 37.9195 25.602 37.9145C25.2209 37.9057 24.8982 37.8755 24.6551 37.8258C24.4147 37.7836 24.0907 37.7633 23.7124 37.7667C23.0655 37.8501 22.935 37.9757 22.5435 38.0864L23.2197 38.0988C23.2443 38.142 23.1995 38.1964 23.4767 38.1954C23.7539 38.1944 23.6133 38.2357 23.5234 38.2773C23.4917 38.2983 23.4299 38.3199 23.3484 38.3384C23.267 38.3569 23.1708 38.3713 23.0763 38.379L22.5006 38.4323C22.2965 38.4526 22.0989 38.4613 21.9297 38.4574C21.7604 38.4535 21.6259 38.4371 21.5411 38.4101C21.4436 38.3845 21.3091 38.3672 21.1459 38.3592C20.9378 38.3383 20.7667 38.3072 20.6389 38.2671L19.8263 38.3255C19.7917 38.2852 19.68 38.2569 19.5101 38.2455C19.3403 38.2341 19.1227 38.2401 18.8941 38.2627L18.3464 38.2986C17.7374 38.3377 17.6038 38.3248 17.4254 38.2112L18.1558 38.0082C18.0496 37.9548 17.9471 37.9078 17.8445 37.8608C18.0265 37.7939 18.2693 37.7307 18.5482 37.6775C18.8084 37.6203 19.0761 37.5649 19.3501 37.5116C19.6473 37.457 19.9612 37.4096 20.3303 37.3482C20.3947 37.3283 20.4883 37.2931 20.6078 37.2591C20.7275 37.2262 20.8524 37.1938 20.982 37.1623C20.9574 37.1191 20.9353 37.0803 20.9825 37.0302C20.7552 37.0462 20.5204 37.0741 20.2993 37.1115C20.0781 37.1489 19.8776 37.1946 19.7157 37.2445C19.6885 37.2533 19.6551 37.2616 19.6178 37.2688C19.5805 37.276 19.5402 37.2819 19.4996 37.2862C19.1003 37.3168 18.9095 37.3808 18.7143 37.4592C18.5828 37.4993 18.4134 37.5349 18.2294 37.5611C17.8765 37.6066 17.531 37.665 17.1936 37.7154C17.0903 37.7322 16.983 37.7461 16.876 37.7564C16.5233 37.7891 16.1684 37.8348 15.8292 37.8913C15.7185 37.9057 15.6122 37.9246 15.5194 37.9467C15.4265 37.9687 15.3497 37.9932 15.2953 38.018C15.3793 38.0452 15.4246 38.0795 15.4285 38.1189C15.4433 38.1448 15.1956 38.1976 15.0785 38.2358C14.9613 38.2741 15.191 38.2561 15.2689 38.2599C15.5888 38.2673 15.6481 38.2828 15.4566 38.3677C15.3926 38.3944 15.3501 38.4211 15.3318 38.4462C15.3135 38.4713 15.3197 38.4942 15.3502 38.5134C15.3956 38.5933 15.5339 38.6588 15.6289 38.7369C15.4814 38.7883 15.235 38.8432 15.2081 38.9069C15.1952 38.921 15.1679 38.936 15.1282 38.9507C15.0886 38.9654 15.0375 38.9795 14.9788 38.992C14.824 39.019 14.6832 39.0512 14.5674 39.0862C14.4516 39.1212 14.3638 39.1581 14.3109 39.1939C14.2936 39.2087 14.2519 39.2244 14.194 39.2379C14.1361 39.2514 14.0663 39.2616 13.9988 39.2665C13.9181 39.2726 13.8458 39.2718 13.7968 39.2643C13.7479 39.2568 13.7262 39.2432 13.736 39.2263C13.734 39.1946 13.7447 39.1614 13.768 39.1273C13.7544 39.1035 13.7409 39.0798 13.7943 39.0405C13.5532 39.0548 13.3001 39.0836 13.0625 39.1236C12.8248 39.1636 12.6117 39.2134 12.4464 39.2675C12.2636 39.3235 12.0951 39.3823 11.8925 39.4477C11.9342 39.5211 11.9342 39.5211 11.5031 39.6508L9.21596 39.714L8.74721 39.7999C8.31007 39.8748 8.20614 39.8696 7.93158 39.8309L7.74676 39.7946C7.35861 39.8446 6.91162 39.9022 6.66885 39.8084C6.59001 39.8696 6.53857 39.8901 6.55647 39.8993C6.67234 39.9895 6.87371 40.066 7.1526 40.1259C7.2237 40.1399 7.27374 40.1612 7.3566 40.1737C7.62375 40.2441 7.68572 40.3529 7.52982 40.4778C7.45243 40.5331 7.34004 40.5898 7.19624 40.6459C7.40672 40.7238 7.68551 40.7883 8.02518 40.8378C8.31344 40.876 8.55081 40.9273 8.73051 40.99C8.89185 41.0532 9.13345 41.1008 9.44148 41.1299C9.59773 41.1423 9.71173 41.1667 9.77218 41.2008C9.79016 41.2929 9.74883 41.3915 9.64909 41.4945C9.6303 41.5258 9.57693 41.5597 9.49317 41.5934C9.4094 41.6271 9.29752 41.6597 9.16628 41.6887C9.16628 41.6887 9.10308 41.7108 9.07271 41.7239C9.0474 41.8355 9.14213 41.9339 9.35056 42.0123C9.3847 42.0346 9.45458 42.0507 9.55267 42.0588C9.65076 42.067 9.77333 42.067 9.90721 42.0587C10.19 42.0454 10.4542 42.0437 10.7277 42.0363C11.0225 42.0257 11.2821 42.034 11.4793 42.0604C11.6765 42.0867 11.804 42.1301 11.8483 42.1859C11.8512 42.2017 11.8598 42.2169 11.8741 42.2312C11.8824 42.2386 11.8869 42.2466 11.8876 42.255L11.2595 42.4378L11.9701 42.5106C12.0118 42.584 11.6707 42.6279 11.4997 42.6824L11.6054 42.7128C11.7415 42.73 11.9247 42.6971 12.0906 42.678L12.2553 42.6568L12.275 42.6913C12.3775 42.7383 12.7514 42.6855 12.8973 42.7199C13.0432 42.7544 12.9391 42.7933 12.7205 42.8307C12.5685 42.8585 12.4054 42.8807 12.2433 42.8956C12.0812 42.9105 11.9244 42.9177 11.7846 42.9166C11.7012 42.9129 11.6319 42.9045 11.5811 42.8919C11.2862 42.8381 10.9603 42.7919 10.606 42.7536C10.3343 42.7192 9.99416 42.7045 9.60935 42.7107C9.49645 42.7081 9.36027 42.7163 9.22475 42.7337C9.08923 42.7512 8.96307 42.7769 8.86836 42.8062V42.8062L8.6691 42.8111C8.6691 42.8111 8.56008 42.8413 8.57553 42.8463C8.65138 42.9359 8.56324 43.0456 8.32423 43.1589V43.1589L8.53208 43.1691C8.82912 43.1586 8.64076 43.2269 8.68517 43.2606C8.89619 43.2542 9.17039 43.2258 9.27045 43.2685L9.42019 43.2654L9.3614 43.273L9.29028 43.259L9.01096 43.3228C9.14333 43.3335 9.23919 43.3466 9.3561 43.3524C9.42068 43.3574 9.47209 43.3663 9.50723 43.3784C9.54238 43.3906 9.56054 43.4059 9.56062 43.4233C9.5603 43.45 9.59511 43.4726 9.66176 43.4887C9.72841 43.5048 9.82469 43.514 9.94139 43.5154C10.0806 43.516 10.1603 43.5451 10.2419 43.5554L9.88726 43.7308C9.88726 43.7308 10.0637 43.7081 9.96766 43.739L9.95537 43.7174L9.74049 43.7613C9.58564 43.7998 9.47735 43.8091 9.38589 43.7816C9.29443 43.754 9.31529 43.7907 9.2714 43.7801C9.28737 43.8082 9.38691 43.8278 9.47223 43.8445C9.57087 43.8577 9.6822 43.8674 9.80437 43.8735C9.5842 43.9968 9.57367 44.0005 9.89528 44.0332C10.2169 44.0658 10.1059 44.1148 10.375 44.1218C10.6442 44.1288 10.3382 44.2123 10.158 44.2285C10.0245 44.2392 9.88837 44.2559 9.75893 44.2774C9.62949 44.2989 9.50984 44.3246 9.40824 44.353L9.46229 44.4479C9.5415 44.44 9.62084 44.4298 9.69755 44.4176C9.95826 44.3654 10.1954 44.3163 10.4273 44.3467L10.3169 44.4188L11.1264 44.377C11.1054 44.431 10.982 44.4926 10.7823 44.5487V44.5487C10.8123 44.5795 10.8308 44.6119 10.8375 44.6458C10.851 44.6695 10.9309 44.6546 10.9829 44.6571C11.1683 44.6611 11.3204 44.6772 11.4259 44.704C11.5315 44.7307 11.5871 44.7674 11.588 44.8107C11.6089 44.8474 11.3239 44.9235 11.1458 44.921C10.7009 44.9283 10.2198 44.9565 9.7285 45.0041C9.429 45.0103 9.38672 44.9138 8.89393 44.9797C8.88414 45.0242 8.94726 45.0602 9.07375 45.0824C9.20024 45.1045 9.38323 45.1115 9.59506 45.1023C9.47462 45.2012 8.80751 45.227 8.778 45.3304C8.94412 45.3231 9.12175 45.3059 9.29332 45.2805C9.46489 45.2552 9.62444 45.2225 9.7562 45.1858C9.78464 45.1767 9.82035 45.1684 9.86002 45.1615C9.89969 45.1546 9.94206 45.1495 9.98316 45.1465C10.0243 45.1435 10.0628 45.1428 10.0952 45.1444C10.1276 45.146 10.1528 45.1499 10.1684 45.1558C10.0761 45.1932 9.97442 45.2364 9.85854 45.2768C9.74267 45.3172 9.71477 45.3347 9.6312 45.3431C9.0078 45.4235 8.71142 45.5682 8.1721 45.6632C8.03096 45.6814 8.01339 45.7392 8.13593 45.7327C8.25251 45.7262 8.35804 45.727 8.44073 45.7352C8.52341 45.7433 8.58 45.7584 8.60413 45.7789C8.69459 45.8027 8.80724 45.8216 8.93924 45.8352C8.38613 45.9838 7.72665 46.115 7.02269 46.2166C6.88937 46.2367 6.75031 46.2489 6.62592 46.2515C6.23295 46.2517 5.81597 46.2635 5.38335 46.2866C5.22992 46.293 5.08814 46.2924 4.96573 46.2849C4.56424 46.2672 4.24541 46.306 3.95415 46.4153L3.47206 46.5886C3.48803 46.6166 3.56894 46.6479 3.63125 46.6908L3.25468 46.7833L0.380925 46.5702L-0.195963 46.7766L-1.02319 46.7651C-1.0866 46.7711 -1.15031 46.7793 -1.21136 46.7894C-1.37867 46.8503 -1.5095 46.9088 -1.69103 46.967C-1.87256 47.0251 -2.19679 47.0322 -2.42291 47.1007C-2.64904 47.1692 -2.87551 47.1706 -3.15534 47.2113C-3.18166 47.2643 -3.15447 47.3121 -3.07549 47.3515C-3.04969 47.3968 -2.90749 47.4248 -2.88292 47.468C-2.88563 47.5116 -2.8328 47.5486 -2.72919 47.5757C-2.62558 47.6027 -2.47447 47.619 -2.28959 47.623C-1.77185 47.7159 -1.14749 47.782 -0.435431 47.8194C-0.372885 47.8221 -0.321019 47.8284 -0.283063 47.8378C-0.245106 47.8473 -0.221875 47.8597 -0.214778 47.8743C-0.215756 47.9166 -0.168282 47.9532 -0.0757983 47.9813C0.0166853 48.0095 0.151847 48.0285 0.319758 48.037C0.364477 48.0387 0.398225 48.044 0.416809 48.0522C0.480495 48.0576 0.52692 48.0678 0.551537 48.0819C0.576153 48.0959 0.578135 48.1134 0.557341 48.1326C0.536546 48.1519 0.493662 48.1721 0.432814 48.1915C0.371965 48.2109 0.295203 48.2287 0.209974 48.2433C0.0863521 48.2668 -0.0399213 48.2892 -0.168339 48.3106C-0.160968 48.3236 -0.0335324 48.3257 -0.0521431 48.3373C-0.102455 48.3745 -0.114096 48.4094 -0.0861911 48.4392C-0.0582863 48.4689 0.00841988 48.4928 0.108654 48.5088L-0.578153 48.8104C-0.995037 48.8521 -1.40398 48.923 -1.72736 49.0094C-1.72779 49.0236 -1.70918 49.0355 -1.67338 49.0439C-1.63759 49.0523 -1.58587 49.0569 -1.52339 49.0572C-1.35574 49.0634 -1.19738 49.0754 -1.01673 49.0822C-0.906313 49.0873 -0.814441 49.0986 -0.746424 49.1152C-0.678408 49.1319 -0.635616 49.1537 -0.620541 49.1794L-1.0238 49.2916C-0.894598 49.3189 -0.798747 49.332 -0.713432 49.3488C-0.761767 49.3841 -0.844925 49.4205 -0.95644 49.4554C-1.06795 49.4902 -1.20484 49.5226 -1.35652 49.5498C-1.39719 49.5554 -1.43867 49.5595 -1.47853 49.5619C-1.51839 49.5642 -1.55584 49.5648 -1.58861 49.5635C-1.90091 49.525 -2.26623 49.593 -2.62104 49.6572C-2.97584 49.7215 -3.16845 49.7602 -3.43039 49.8102L-3.93158 49.8169C-4.05843 49.8406 -4.17163 49.8684 -4.26211 49.8981C-4.3526 49.9279 -4.41783 49.9588 -4.45264 49.9883C-4.42562 50.0357 -4.18792 50.0097 -4.04625 50.0146C-3.71015 50.0442 -3.26825 50.0379 -2.79385 49.9968C-2.67623 49.9816 -2.55563 49.9938 -2.44117 49.9953C-2.19425 50.0012 -1.95696 50.0108 -1.73037 50.0241C-1.58116 50.0364 -1.44171 50.0517 -1.31292 50.0698C-1.27852 50.1303 -1.82011 50.1769 -1.51272 50.2068C-1.61858 50.2204 -1.65824 50.2394 -1.71266 50.2325C-2.06136 50.2718 -2.40491 50.2911 -2.70349 50.2885C-3.27649 50.2801 -3.92712 50.3077 -4.60212 50.3688C-5.33072 50.4321 -6.02962 50.4587 -6.64117 50.4464C-6.87409 50.4456 -7.13445 50.4586 -7.40237 50.4843C-7.71878 50.5198 -8.03298 50.5422 -8.32457 50.5499C-8.42112 50.5502 -8.52869 50.5562 -8.63851 50.5675C-8.74834 50.5789 -8.85731 50.5952 -8.95657 50.6151V50.6151C-8.94797 50.6302 -8.85336 50.6412 -8.87443 50.6485C-9.17623 50.7615 -9.29859 50.8792 -9.76312 50.9947C-10.0807 51.0356 -10.4453 51.0826 -10.653 51.0283C-10.8607 50.974 -10.7863 50.9274 -10.373 50.7884C-10.4627 50.7864 -10.5707 50.7929 -10.6782 50.8068C-10.7857 50.8206 -10.8858 50.841 -10.9611 50.8643L-11.3185 50.9682L-11.6407 51.0676C-11.6124 51.1173 -11.5903 51.1561 -11.567 51.1971C-11.5301 51.2406 -11.5706 51.2936 -11.6827 51.3486C-11.7503 51.3786 -11.8092 51.4087 -11.8588 51.4385C-12.0602 51.5576 -12.1185 51.6701 -12.0272 51.7635C-11.8523 51.8978 -11.6087 52.0214 -11.2993 52.1328C-10.9724 52.2412 -10.7935 52.3779 -10.5242 52.4961C-10.3869 52.5498 -10.2201 52.5981 -10.0255 52.6402C-9.65654 52.7339 -9.25226 52.823 -8.88203 52.9189C-8.51181 53.0147 -8.0938 53.0836 -7.68267 53.1626C-7.07049 53.2563 -6.4088 53.3373 -5.70125 53.405C-5.26344 53.4644 -4.81385 53.5222 -4.40886 53.5904C-3.93054 53.6673 -3.36862 53.7225 -2.7371 53.7547C-2.17933 53.7932 -1.68097 53.8502 -1.2516 53.9245C-1.20656 53.9325 -1.17102 53.9427 -1.14595 53.9549C-1.06864 54.0306 -0.85197 54.084 -0.529068 54.1069C-0.548691 54.1291 -0.573772 54.1516 -0.604212 54.1745C-0.649024 54.2017 -0.658364 54.2272 -0.630979 54.2476C-0.603595 54.268 -0.540775 54.2824 -0.450652 54.289C-0.192346 54.3078 0.0223389 54.3396 0.183805 54.3832C0.24312 54.3941 0.279893 54.4101 0.29102 54.4296C0.302146 54.4491 0.287293 54.4717 0.247687 54.4954C0.212617 54.5198 0.210034 54.5422 0.240297 54.5597C0.270559 54.5773 0.332268 54.5892 0.417425 54.5939C0.636061 54.617 0.870156 54.6355 1.11822 54.6495C1.64608 54.6802 2.26004 54.6798 2.92307 54.6484C2.99364 54.6393 3.06473 54.6533 3.14707 54.6427C3.61593 54.6075 4.05138 54.602 4.40069 54.627C4.81026 54.6367 5.23843 54.6348 5.67029 54.6393C6.29422 54.6363 6.86977 54.6548 7.38089 54.6944C7.96513 54.6561 8.29341 54.7227 8.78654 54.7239C9.24182 54.7308 9.67334 54.7471 10.077 54.7729C10.7278 54.8072 11.3761 54.8371 12.0175 54.8771C12.6193 54.8962 13.1734 54.9327 13.6704 54.9859C13.8608 55.01 14.2056 54.9725 14.3353 55.0229C14.4651 55.0734 14.7268 55.0674 14.9384 55.0842L15.6058 55.1255C15.7206 55.1353 15.8468 55.1416 15.9825 55.1441C16.6031 55.1475 17.0328 55.2148 17.6088 55.2285L17.6677 55.221C18.6903 55.3211 19.8607 55.376 21.1443 55.3842C21.8941 55.4149 22.7139 55.4134 23.5095 55.4359C23.6993 55.4809 24.1474 55.4255 24.3855 55.4666C24.6235 55.5077 25.0122 55.4807 25.3191 55.4875C25.626 55.4942 25.9259 55.5111 26.2539 55.5105C26.5387 55.5107 26.7791 55.5291 26.9534 55.5639C27.3513 55.6216 27.8363 55.6554 28.3866 55.664C29.1148 55.679 29.8033 55.713 30.544 55.7055C30.5334 55.7475 30.5789 55.7832 30.6756 55.809C30.7724 55.8348 30.9171 55.8497 31.0947 55.8522C31.8866 55.8682 32.6048 55.91 33.4072 55.9223L33.6219 55.9224L36.0219 55.9465C36.6685 55.9512 37.2915 55.9589 37.9511 55.9642C38.1981 55.9323 38.204 55.9871 38.3749 55.9767C38.4226 55.9497 38.479 55.9378 38.5631 55.9524L38.5815 55.9848L41.3204 56.0277C42.3928 56.0591 43.5208 56.0685 44.6949 56.0559C44.9734 56.0591 45.2334 56.0698 45.4707 56.0879C45.6906 56.0945 45.9199 56.0974 46.1574 56.0966C46.4785 56.0885 46.7922 56.0844 47.0973 56.0843C47.8998 56.0966 48.7419 56.09 49.6206 56.0809C50.4992 56.0719 51.1649 56.088 51.947 56.0867C52.4766 56.0856 53.0038 56.0802 53.5521 56.0674C53.8138 56.0615 54.1363 56.0291 54.4074 56.0174C54.6784 56.0056 54.7669 56.0057 54.8027 56.0243C54.9207 56.0762 55.2172 56.0426 55.4542 56.0376C55.9164 56.0289 55.9821 56.0112 56.1076 55.8769L55.5404 55.8343C55.4014 55.8205 55.2266 55.8181 55.0328 55.8272C54.839 55.8364 54.6327 55.8568 54.4339 55.8866C54.3556 55.8993 54.2739 55.9094 54.1932 55.9162C54.1126 55.923 54.0347 55.9265 53.9641 55.9263C53.3918 55.919 52.8276 55.9037 52.2776 55.8913L52.1972 55.8831L52.1921 55.7634C52.2649 55.7516 52.3403 55.7419 52.4156 55.7345L55.1742 55.6568C55.8073 55.6378 56.4646 55.5947 57.0859 55.5772C57.7072 55.5596 58.0419 55.5489 58.524 55.5307C58.7274 55.5204 58.9349 55.5068 59.1448 55.4901C59.1326 55.4785 59.1256 55.4663 59.1239 55.4534C59.1128 55.434 59.0981 55.4081 59.1873 55.3873C59.2846 55.358 59.4146 55.333 59.5514 55.3172C59.6799 55.3068 59.8045 55.301 59.9202 55.2998C60.4797 55.2898 61.1187 55.2265 61.701 55.1235L61.9043 55.1923C62.7788 55.1536 63.6662 55.1157 64.5796 55.079C64.7625 55.069 64.9544 55.0498 65.141 55.0228C65.341 54.9971 65.525 54.9432 65.7355 54.9138C65.9435 54.8926 66.15 54.8761 66.3513 54.8645C66.2968 54.8468 66.2249 54.8327 66.138 54.8225C66.0525 54.819 65.9901 54.8079 65.9601 54.791C65.93 54.774 65.9337 54.7521 65.9707 54.7283C66.0359 54.6875 66.0645 54.6491 65.9228 54.6442C65.7919 54.6349 65.6983 54.6147 65.6529 54.5861C65.6075 54.5575 65.6123 54.5216 65.6667 54.4827C65.6906 54.4599 65.7074 54.4376 65.7171 54.416V54.416L65.7759 54.4084C65.9699 54.3278 66.3574 54.2987 66.6355 54.2328C66.7667 54.2136 66.9026 54.2026 67.0217 54.2015C67.3293 54.1873 67.6288 54.1811 67.9469 54.1633C68.0988 54.1551 68.2577 54.1401 68.4142 54.1193C68.6377 54.0905 68.6612 54.0874 68.791 53.9827C68.5894 53.9845 68.4297 53.9689 68.3387 53.9384C68.2478 53.9079 68.2311 53.8645 68.2917 53.8155C68.458 53.7084 68.6335 53.5954 69.3856 53.5193C69.1404 53.5156 68.9043 53.5081 68.6785 53.497C68.6128 53.4946 68.5636 53.4867 68.5375 53.4745C68.5114 53.4622 68.5097 53.446 68.5325 53.4282C68.5553 53.4104 68.6016 53.3918 68.6652 53.3749C68.7288 53.3579 68.8066 53.3434 68.8883 53.3333C69.2853 53.2727 69.6994 53.2322 70.0842 53.2162C70.4085 53.2092 70.7011 53.2131 71.0798 53.213L71.5267 53.1553C71.5194 53.1424 71.585 53.1247 71.5683 53.1176C71.4548 53.0512 71.3295 52.9863 71.2004 52.9149C71.4065 52.8764 71.585 52.8298 71.7156 52.7807C71.8461 52.7315 71.9234 52.6816 71.9385 52.6368C71.9496 52.6233 71.9467 52.611 71.93 52.6007C71.9132 52.5905 71.8831 52.5826 71.8416 52.5775C71.724 52.5689 71.6331 52.5523 71.5761 52.5291C71.5192 52.506 71.4976 52.4768 71.513 52.4439L71.8606 52.3227C72.9071 52.2362 73.9349 52.1744 74.9247 52.1384L75.8183 52.1112C75.9261 52.0788 75.8928 52.0646 75.7913 52.0638C75.6898 52.063 75.4045 52.072 75.2053 52.0768C75.0332 52.0832 74.8804 52.079 74.7616 52.0647C74.6429 52.0504 74.5622 52.0264 74.5275 51.9951L74.8275 51.8569C74.8128 51.831 74.7919 51.7943 74.6292 51.7968C74.518 51.7938 74.4361 51.7807 74.3966 51.7598C74.3572 51.7388 74.3626 51.7111 74.4118 51.6812C74.4193 51.6596 74.4081 51.6398 74.3787 51.623C74.138 51.6216 73.8986 51.6223 73.6802 51.6157C73.5785 51.6136 73.4926 51.6055 73.4284 51.5922C73.3641 51.5789 73.3231 51.5607 73.308 51.5387C73.3001 51.5172 73.3193 51.4927 73.364 51.4673C73.4088 51.4418 73.4777 51.416 73.5654 51.392C73.9077 51.3623 74.2207 51.362 74.436 51.391C74.5127 51.4137 74.6359 51.4261 74.7895 51.4266C74.943 51.427 75.1196 51.4155 75.296 51.3936C75.498 51.3682 75.6995 51.3571 75.8644 51.3622C76.0293 51.3672 76.1467 51.3882 76.1955 51.4212C76.4028 51.4084 76.5866 51.3986 76.768 51.3844C76.9819 51.3666 77.1841 51.3614 77.3528 51.3693C77.6226 51.3748 77.9133 51.3716 78.2184 51.3596C79.0978 51.3296 79.9784 51.3018 80.8298 51.2893C81.055 51.2857 81.2499 51.2953 81.4727 51.2875C81.6955 51.2796 81.8717 51.3009 82.1503 51.258C82.2033 51.2513 82.2568 51.2471 82.3063 51.2455C82.3558 51.2439 82.4001 51.2452 82.4356 51.249C82.9248 51.2829 83.4985 51.2877 84.1228 51.2631C84.9779 51.2571 85.8647 51.24 86.721 51.2362C86.9722 51.2395 87.2095 51.2484 87.4306 51.2628C87.5988 51.2715 87.775 51.2774 87.9583 51.2805C88.0987 51.2832 88.233 51.2752 88.2093 51.3222C88.1856 51.3693 88.3961 51.3398 88.5174 51.3311C88.9342 51.3083 89.3601 51.2774 89.7905 51.2388C90.2146 51.1969 90.6301 51.1724 91.0122 51.167C91.2882 51.1639 91.5728 51.1758 91.9276 51.1116C91.914 51.0878 91.9005 51.0641 91.8233 51.0393C92.1127 50.9711 92.4428 50.9125 92.7864 50.8682C93.13 50.8239 93.4773 50.7952 93.7994 50.7846L94.2435 50.6556C94.3529 50.6404 94.4646 50.6294 94.5717 50.6231C94.6788 50.6169 94.7792 50.6156 94.8668 50.6192C94.9344 50.6211 95.0169 50.6163 95.099 50.6057C95.1811 50.5951 95.2573 50.5795 95.3137 50.5616C95.3981 50.5389 95.5011 50.5193 95.6099 50.5053C95.7187 50.4912 95.8285 50.4834 95.9254 50.4828C96.2306 50.4687 96.5563 50.4363 96.8693 50.3889C96.9506 50.3611 97.0015 50.3323 97.0158 50.3062C97.0301 50.2801 97.0071 50.2577 96.9497 50.2419C96.8573 50.2139 96.8054 50.1783 96.7971 50.1372C96.7889 50.0961 96.8245 50.0503 96.9019 50.0026C96.9415 49.9734 96.9547 49.9457 96.9408 49.9212C96.9268 49.8967 96.886 49.876 96.8208 49.8602C96.5773 49.7874 96.6424 49.7466 97.0408 49.6258C97.1055 49.6056 97.1835 49.5868 97.2699 49.5705C97.3562 49.5542 97.449 49.5407 97.5424 49.531C97.7615 49.5113 97.9775 49.4967 98.1867 49.4873C98.3043 49.4722 98.4249 49.4844 98.5604 49.4785C99.2381 49.4491 99.3373 49.4015 99.5567 49.2992L99.7167 49.2253C100.013 49.1654 100.338 49.1157 100.667 49.0798C100.995 49.0438 101.32 49.0224 101.618 49.0172C101.737 49.0168 101.873 49.0066 102.006 48.9881C102.438 48.9316 102.877 48.8925 103.291 48.8733C103.55 48.8626 103.828 48.8347 104.094 48.7932C104.359 48.7516 104.599 48.698 104.787 48.6389C104.955 48.5857 105.175 48.5379 105.416 48.5023C105.698 48.4659 105.724 48.4231 105.567 48.3902C105.409 48.3572 105.145 48.3149 104.911 48.2802C104.829 48.2685 104.778 48.2493 104.765 48.2249C104.751 48.2006 104.774 48.1719 104.832 48.1422C104.869 48.0913 104.876 48.043 104.851 47.9984C104.838 47.9799 104.847 47.9587 104.878 47.9362C104.908 47.9137 104.959 47.8905 105.028 47.868C105.096 47.8456 105.181 47.8245 105.275 47.8061C105.369 47.7877 105.472 47.7726 105.575 47.7616C106.01 47.7055 106.433 47.6509 106.877 47.6099C107.063 47.5906 107.249 47.5666 107.43 47.5386C107.801 47.4694 108.197 47.412 108.596 47.3698C108.786 47.3509 108.971 47.3179 109.112 47.2778C109.557 47.17 109.966 47.0566 110.334 46.9397C110.422 46.9035 110.538 46.8681 110.674 46.8359C110.81 46.8036 110.963 46.7751 111.123 46.7523C111.253 46.7356 111.358 46.6989 111.458 46.6744C111.53 46.6178 111.538 46.5655 111.48 46.5223C111.423 46.4791 111.301 46.4465 111.128 46.4275C110.963 46.4047 110.809 46.3782 110.667 46.3503C110.496 46.3276 110.292 46.314 110.064 46.31C109.793 46.2978 109.593 46.2631 109.489 46.2103C110.23 46.1148 110.935 45.9777 111.584 46.0097L112.078 45.923C112.058 45.8884 112.041 45.8582 112.025 45.8302C111.908 45.7791 111.871 45.7148 111.918 45.6425C111.957 45.6076 111.954 45.5758 111.908 45.5503C111.863 45.5249 111.777 45.5067 111.659 45.4976C110.962 45.4045 110.156 45.3417 109.502 45.236C109.298 45.2162 109.058 45.2072 108.793 45.2094C108.537 45.2031 108.548 45.1554 108.842 45.0965C109.008 45.0658 109.176 45.0363 109.348 45.0082C110.102 45.0036 110.41 45.1445 111.271 45.1053L111.671 44.9195C111.779 44.9166 111.883 44.9155 111.984 44.9161L113.429 44.9916C113.549 44.9954 113.643 45.0083 113.699 45.0289C113.755 45.0494 113.772 45.0769 113.748 45.108C113.738 45.1461 113.758 45.181 113.807 45.2115C113.838 45.2329 113.818 45.2613 113.751 45.2905C113.599 45.3564 113.794 45.3661 113.917 45.3826C113.948 45.3842 113.984 45.3841 114.023 45.3821C114.062 45.3802 114.103 45.3765 114.144 45.3712C114.184 45.366 114.223 45.3594 114.259 45.3517C114.295 45.344 114.326 45.3355 114.352 45.3265C114.569 45.2638 114.758 45.1977 114.971 45.1286C114.82 45.0624 114.998 44.9537 114.762 44.8939C114.736 44.8819 114.725 44.8673 114.731 44.851C114.737 44.8348 114.759 44.8171 114.796 44.7991C114.893 44.7528 114.938 44.7076 114.929 44.6681C114.92 44.6286 114.856 44.5963 114.744 44.5743L114.731 44.5506C115.026 44.4708 114.948 44.3998 115.064 44.3154L115.348 44.2602C116.055 44.1274 116.056 44.1296 116.665 44.1345C116.788 44.0839 116.632 44.0762 116.515 44.0704L115.536 44.0137C114.896 43.9758 114.237 43.9496 113.522 43.9353C112.806 43.9209 112.009 43.8732 111.27 43.8388C111.232 43.8362 111.204 43.8309 111.186 43.8235C111.169 43.816 111.163 43.8067 111.17 43.7961C111.199 43.7848 111.238 43.7738 111.282 43.764C111.327 43.7542 111.377 43.7459 111.428 43.7397C111.663 43.7094 111.905 43.6898 112.155 43.6645L112.623 43.6204L112.766 43.5625C112.86 43.5273 112.924 43.4843 113.048 43.459C113.151 43.4402 113.262 43.4258 113.371 43.4175C113.479 43.4093 113.581 43.4073 113.666 43.4119C113.899 43.4235 114.111 43.4402 114.334 43.4554C114.558 43.4706 114.681 43.4872 114.874 43.4946C115.268 43.498 115.648 43.507 116.013 43.5215C116.321 43.5558 116.606 43.5965 116.865 43.6432C117.027 43.6617 117.179 43.6839 117.456 43.6598C117.587 43.6379 117.7 43.6092 117.775 43.5788C117.85 43.5483 117.882 43.5181 117.866 43.4934C117.851 43.4741 117.809 43.4588 117.744 43.449C117.678 43.4391 117.592 43.4351 117.493 43.4373C117.215 43.4337 116.958 43.4218 116.728 43.4016C116.407 43.3651 116.016 43.3494 115.578 43.3553C115.429 43.3606 115.33 43.341 115.2 43.3346C115.07 43.3282 114.96 43.3123 114.815 43.324C114.365 43.3542 114.149 43.3079 113.88 43.2778C113.788 43.2645 113.732 43.2429 113.716 43.2155C113.701 43.1881 113.726 43.1559 113.791 43.1225C113.916 43.0559 114.068 42.9889 114.245 42.9227C114.337 42.8901 114.454 42.8591 114.588 42.8323C114.721 42.8054 114.868 42.7833 115.016 42.7678C115.104 42.727 115.152 42.6869 115.153 42.6511C115.155 42.6153 115.111 42.585 115.025 42.5628C114.807 42.5122 114.614 42.4607 114.125 42.489C113.895 42.4998 113.679 42.5019 113.484 42.4951C113.054 42.4859 112.557 42.5061 112.041 42.5539C111.907 42.5661 111.776 42.5744 111.651 42.5786C110.758 42.608 109.908 42.6226 109.055 42.633C108.604 42.6379 108.148 42.6364 107.677 42.6509C106.571 42.6823 105.564 42.6661 104.497 42.6764C103.938 42.6816 103.438 42.6605 103.022 42.6141C102.941 42.5985 102.872 42.5803 102.815 42.5598C103.09 42.5058 103.392 42.4631 103.693 42.4357C103.993 42.4084 104.282 42.3972 104.531 42.4034C104.668 42.4185 104.845 42.4212 105.042 42.4113C105.239 42.4015 105.449 42.3793 105.648 42.3474V42.3474L105.07 42.3293C104.686 42.3209 104.293 42.3182 103.92 42.3061C103.327 42.2853 102.778 42.2519 102.164 42.2383C101.669 42.2259 101.226 42.1941 100.848 42.144C100.575 42.1075 100.264 42.0815 99.9203 42.0668C99.676 42.0589 99.676 42.0589 99.5197 41.9841C99.6437 41.9357 99.804 41.9289 99.9549 41.928C100.86 41.8976 101.721 41.8922 102.522 41.9121C102.925 41.9139 103.283 41.9344 103.579 41.9727C103.651 41.9888 103.836 41.9812 103.985 41.9759C104.45 41.9679 104.895 41.9703 105.314 41.9828C105.894 42.0038 106.539 41.9989 107.225 41.9681C107.355 41.9305 107.205 41.9336 107.198 41.9207C106.667 41.8965 106.146 41.8687 105.604 41.8483C105.456 41.841 105.297 41.8374 105.13 41.8375C104.508 41.8502 103.989 41.815 103.647 41.737C103.629 41.7068 103.404 41.7104 103.305 41.6908C103.256 41.6738 103.223 41.6538 103.208 41.6315C103.353 41.5757 103.517 41.5754 103.643 41.5754C104.009 41.5816 104.361 41.5934 104.698 41.6107C105.011 41.6272 105.358 41.6316 105.728 41.6238C106.002 41.6163 106.236 41.6279 106.512 41.6247C106.661 41.6181 106.816 41.6074 106.973 41.593C106.799 41.5541 106.561 41.5302 106.277 41.523C106.062 41.4998 105.793 41.4928 105.758 41.4324C105.86 41.3892 105.973 41.3885 106.064 41.393C106.253 41.3928 106.436 41.3955 106.612 41.4011C106.984 41.4134 107.386 41.4136 107.811 41.4016C108.035 41.3971 108.248 41.3985 108.445 41.4056C108.892 41.4151 109.321 41.4363 109.731 41.446C110.569 41.456 111.335 41.4916 112.141 41.5105C112.32 41.5151 112.481 41.5314 112.718 41.5033C112.954 41.4751 112.965 41.4714 112.992 41.4539C113.059 41.4248 113.079 41.3965 113.048 41.3749C113.002 41.3548 112.91 41.3436 112.791 41.3433C112.07 41.3113 111.386 41.2664 110.744 41.2088C110.462 41.1973 110.214 41.1737 110.01 41.139C109.848 41.1151 109.657 41.0993 109.441 41.092C109.126 41.0748 108.799 41.0621 108.459 41.0541C108.301 41.0498 108.167 41.037 108.064 41.0164C107.962 40.9959 107.892 40.968 107.861 40.9344L108.277 40.8229C108.343 40.8177 108.407 40.8132 108.472 40.8094L111.926 40.8897L112.268 40.8919C112.643 40.8853 112.735 40.8688 113.091 40.7396C112.279 40.7092 111.641 40.6206 111.24 40.4827C111.336 40.4678 111.435 40.4551 111.534 40.4447C112.183 40.4121 112.796 40.4034 113.35 40.4191C113.679 40.4206 114.018 40.4164 114.357 40.4143C114.258 40.3507 113.877 40.3696 113.629 40.3553C113.037 40.3328 112.513 40.2865 112.074 40.2177C111.923 40.1909 111.733 40.1737 111.515 40.167C111.296 40.1647 111.113 40.1485 110.982 40.1197C110.852 40.091 110.777 40.0506 110.764 40.0021C110.744 39.9582 110.699 39.9173 110.632 39.8802C110.751 39.8276 110.941 39.7772 111.165 39.7384C111.39 39.6997 111.633 39.6754 111.85 39.6699C112.314 39.6482 112.794 39.6127 113.28 39.5644C113.522 39.5399 113.759 39.5259 113.976 39.5232C114.168 39.5212 114.385 39.5035 114.596 39.473C114.807 39.4425 114.999 39.4009 115.143 39.3544C115.337 39.2969 115.519 39.2387 115.7 39.1806C115.882 39.1225 116.092 39.049 116.304 38.9777C116.491 38.9665 116.673 38.9594 116.848 38.9563C116.983 38.9589 117.142 38.9511 117.304 38.9339C117.467 38.9166 117.626 38.8906 117.764 38.8589V38.8589C117.684 38.8277 117.592 38.8001 117.496 38.7639C117.628 38.7161 117.724 38.6673 117.778 38.6206C117.831 38.5739 117.842 38.5301 117.808 38.4921C117.788 38.4576 117.932 38.3997 117.982 38.3539C118.046 38.3144 118.058 38.2776 118.016 38.2482C117.975 38.2189 117.882 38.1984 117.749 38.1894C117.585 38.1727 117.451 38.1477 117.354 38.1153C117.321 38.1069 117.305 38.0954 117.306 38.0818C117.307 38.0682 117.325 38.053 117.359 38.0376C117.393 38.0222 117.441 38.007 117.5 37.9935C117.559 37.98 117.625 37.9685 117.695 37.9602C117.906 37.9366 118.116 37.9214 118.313 37.9152C118.652 37.904 118.976 37.897 119.286 37.8941C119.628 37.8897 120.009 37.863 120.39 37.8165C120.731 37.7725 121.037 37.7331 121.204 37.6491C121.371 37.5651 121.638 37.5677 121.843 37.5066C121.727 37.4514 121.523 37.4131 121.249 37.3955C121.07 37.3892 120.921 37.3727 120.81 37.3471C120.7 37.3214 120.631 37.2871 120.609 37.2465L121.231 37.0759C121.728 36.9956 122.003 37.0574 122.541 37.0253L121.987 36.9623C121.976 36.9561 121.972 36.9488 121.975 36.9407C122.029 36.8134 122.114 36.7861 122.68 36.7155L122.998 36.6746L123.5 36.626C123.581 36.5999 123.636 36.5727 123.662 36.5471C123.687 36.5215 123.681 36.4984 123.644 36.4801C123.571 36.4493 123.548 36.41 123.579 36.3657C123.628 36.3364 123.632 36.3094 123.591 36.2894C123.549 36.2693 123.465 36.2575 123.353 36.256C123.263 36.2537 123.256 36.2198 123.207 36.2006C123.159 36.1742 123.076 36.1539 122.964 36.1411C122.852 36.1284 122.714 36.1234 122.559 36.1267C122.103 36.1293 121.674 36.1194 121.28 36.0971L121.35 36.088C120.94 36.1076 120.556 36.11 120.218 36.095C119.879 36.0762 119.444 36.0883 119.084 36.0768C118.791 36.0794 118.568 36.0534 118.462 36.0041C118.359 35.9571 117.987 35.9681 117.702 35.9771C117.533 35.9829 117.369 35.9854 117.213 35.9845C117.004 35.9738 116.742 35.9838 116.472 36.0129C116.391 36.0218 116.311 36.0265 116.24 36.0266C115.552 36.0388 114.866 36.0531 114.188 36.0595C114.032 36.0558 113.848 36.0642 113.659 36.0837C113.579 36.0921 113.502 36.0956 113.437 36.0937C112.366 36.0744 111.157 36.1237 110.106 36.097C109.979 36.0907 109.838 36.0894 109.687 36.0931C109.349 36.1088 109.055 36.0987 108.85 36.0644C108.74 36.0462 108.598 36.0361 108.434 36.0349C108.271 36.0337 108.088 36.0413 107.899 36.0573C107.584 36.0785 107.293 36.0808 107.057 36.064C106.596 36.0484 106.112 36.042 105.607 36.0448C105.452 36.0475 105.316 36.0415 105.21 36.0271C105.103 36.0128 105.028 35.9905 104.992 35.962C105.116 35.9136 105.251 35.9077 105.38 35.912C105.878 35.901 106.376 35.8878 106.865 35.8826C107.304 35.8677 107.724 35.8632 108.12 35.869C108.317 35.8756 108.563 35.8606 108.804 35.8273C109.099 35.7851 109.403 35.7641 109.654 35.7686C109.84 35.7697 110.037 35.7661 110.241 35.7578C110.372 35.7477 110.506 35.7304 110.629 35.7077C110.678 35.6979 110.732 35.6896 110.786 35.6834C110.84 35.6772 110.894 35.6732 110.944 35.6718C110.995 35.6703 111.04 35.6714 111.078 35.6749C111.115 35.6784 111.145 35.6843 111.163 35.6921C111.352 35.7581 111.775 35.7244 112.137 35.7171C112.68 35.6055 113.083 35.6716 113.59 35.6086C113.63 35.6044 113.67 35.6018 113.706 35.6011C113.743 35.6004 113.776 35.6015 113.803 35.6044C114.784 35.6423 115.927 35.6107 116.957 35.6238C117.071 35.6257 117.203 35.6191 117.338 35.6048C118.221 35.5102 119.07 35.4833 119.719 35.5294C119.798 35.5336 119.888 35.5338 119.985 35.53C120.428 35.4923 120.853 35.4773 121.222 35.4862C121.802 35.4834 122.358 35.4857 122.947 35.477C123.352 35.4646 123.708 35.4778 123.979 35.5153C123.987 35.5304 124.167 35.5142 124.305 35.5126C124.385 35.4746 124.454 35.4402 124.535 35.4065C124.609 35.3648 124.718 35.3226 124.857 35.2828C124.995 35.243 125.159 35.2064 125.338 35.1757C125.644 35.1363 125.675 35.0791 125.461 35.058C124.909 34.9884 124.216 34.9599 123.431 34.9746C122.775 34.9758 122.107 34.9785 121.442 34.9855C121.054 34.9915 120.645 35.0048 120.268 35.0072C120.14 35.0123 120.01 35.0199 119.877 35.0298C119.714 35.0442 119.555 35.052 119.41 35.0529C118.944 35.0408 118.424 35.0514 117.875 35.0841C117.674 35.0912 117.48 35.0936 117.298 35.0913C116.867 35.0824 116.399 35.0889 115.908 35.1107C115.602 35.123 115.306 35.1294 115.022 35.1299C114.922 35.1312 114.84 35.1209 114.744 35.1287C113.894 35.2105 113.292 35.1514 112.527 35.1829C112.156 35.1916 111.8 35.1917 111.467 35.183C110.816 35.1834 110.147 35.1923 109.462 35.2098C108.557 35.2385 107.718 35.2285 106.853 35.2404C106.683 35.2429 106.518 35.2425 106.36 35.2391C105.593 35.2171 104.76 35.2217 103.881 35.253C103.681 35.2576 103.502 35.252 103.354 35.2368C103.207 35.2216 103.094 35.197 103.022 35.1645C102.992 35.1423 103.012 35.1134 103.077 35.0834C103.186 35.0451 103.308 35.0076 103.443 34.9714L108.336 34.8502C108.541 34.8439 108.741 34.8404 108.936 34.84C109.507 34.8389 110.096 34.8295 110.7 34.8117C111.296 34.795 111.866 34.798 112.444 34.793C112.614 34.7913 112.789 34.7873 112.968 34.7811C114.174 34.7316 115.351 34.7014 116.489 34.6907C116.968 34.6892 117.486 34.6665 117.974 34.6591C118.462 34.6518 119.13 34.6491 119.709 34.6462L121.502 34.6467C121.855 34.6452 122.198 34.6496 122.54 34.6518C122.955 34.494 123.098 34.4571 123.652 34.388C123.842 34.3625 124.035 34.3473 124.208 34.3441C124.758 34.3566 125.448 34.3047 125.97 34.3116C126.285 34.3082 126.552 34.3257 126.744 34.3623C126.91 34.3911 127.101 34.4138 127.313 34.4302C127.892 34.2953 127.943 34.2077 127.507 34.1736C127.389 34.1657 127.227 34.1681 127.141 34.1513C127.092 34.1411 127.025 34.1352 126.946 34.1342C126.866 34.1332 126.777 34.1371 126.683 34.1455C126.389 34.1676 126.113 34.1728 125.884 34.1605C125.668 34.1444 125.403 34.145 125.115 34.1624C124.903 34.1897 124.717 34.1512 124.534 34.14C124.351 34.1289 124.201 34.1089 123.915 34.1388C123.862 34.1448 123.81 34.1484 123.763 34.1493C123.715 34.1502 123.673 34.1484 123.64 34.1441C123.333 34.1249 122.966 34.1269 122.57 34.15C121.962 34.1728 121.392 34.1737 120.88 34.1526C120.573 34.1341 120.311 34.1014 120.105 34.0556C120.049 34.0403 119.965 34.0312 119.862 34.029C119.346 34.0385 118.786 34.0745 118.218 34.1344C118.004 34.1585 117.79 34.1775 117.581 34.1911C117.151 34.2212 116.736 34.2381 116.347 34.2413C115.782 34.2418 115.193 34.2534 114.587 34.276C114.212 34.2886 113.851 34.2932 113.509 34.2899C113.156 34.2883 112.78 34.2979 112.389 34.3185C111.999 34.3352 111.656 34.3256 111.401 34.2907C111.316 34.2719 111.249 34.2495 111.199 34.2241C111.769 34.1413 112.358 34.0992 112.849 34.1064C113.035 34.1009 113.19 34.1064 113.386 34.0742L113.392 34.085C113.431 34.0919 113.49 34.0936 113.557 34.0896C113.625 34.0856 113.697 34.0762 113.758 34.0632V34.0632C113.735 34.0222 113.713 33.9834 113.697 33.9553C113.323 33.9603 112.96 33.9599 112.61 33.9541C112.315 33.9459 111.915 34.0183 111.659 33.991C111.161 34.0252 110.844 33.9781 110.397 33.9917C109.95 34.0052 109.458 34.0502 109.011 34.0637C108.621 34.0712 108.243 34.0728 107.878 34.0686C107.752 34.0627 107.606 34.0641 107.451 34.0727C107.232 34.0889 107.029 34.0916 106.864 34.0805C106.699 34.0694 106.579 34.0449 106.519 34.0099C106.576 33.9771 106.653 33.9347 106.741 33.8909C106.578 33.8549 106.33 33.8397 106.035 33.8476L105.617 33.8459C105.507 33.8469 105.422 33.8371 105.381 33.8187C105.34 33.8003 105.346 33.7746 105.397 33.747C106.189 33.6078 106.218 33.5925 106.799 33.682L107.571 33.6404L107.558 33.6398ZM97.1194 34.022L97.1782 34.0144L97.1194 34.022ZM0.945094 48.8247L0.958607 48.8485L0.943866 48.8226L0.814498 48.8393L0.805898 48.8242L0.945094 48.8247ZM19.7306 38.4235C19.9134 38.3976 20.0981 38.3738 20.2834 38.3523C20.3319 38.3489 20.3773 38.3482 20.4158 38.3501C20.4542 38.352 20.4846 38.3564 20.5043 38.3632C20.519 38.389 20.4156 38.407 20.3215 38.4191C20.2028 38.4355 20.0816 38.4458 19.9703 38.4492C19.859 38.4525 19.7617 38.4488 19.6884 38.4382L19.5821 38.4288L19.7306 38.4235ZM113.925 44.7331C113.805 44.7374 113.691 44.7381 113.586 44.7352C113.119 44.7143 112.673 44.6838 112.195 44.6644C111.591 44.6152 110.898 44.5951 110.141 44.605C109.845 44.6098 109.595 44.5938 109.42 44.5589C109.315 44.5402 109.18 44.5293 109.023 44.5268L107.021 44.4699C106.897 44.4581 106.79 44.4415 106.702 44.4206C106.879 44.3979 106.996 44.3827 107.067 44.3736C107.213 44.3711 107.339 44.378 107.432 44.3937C107.532 44.4204 107.7 44.4309 107.903 44.4233C108.109 44.4169 108.309 44.4135 108.504 44.4131C108.87 44.4144 109.24 44.42 109.608 44.4235C109.751 44.4977 110.174 44.4641 110.536 44.4568L110.816 44.4601C111.73 44.4985 112.603 44.5514 113.431 44.6185C113.591 44.6299 113.729 44.648 113.84 44.6723C113.882 44.6912 113.896 44.7149 113.88 44.7413L113.938 44.7337L113.925 44.7331ZM73.1045 51.8242C72.8827 51.8293 72.6518 51.8397 72.4151 51.8552C72.2327 51.8711 72.0548 51.8807 71.8884 51.8837C70.9561 51.9004 69.9845 51.9388 68.9867 51.9984C68.8563 52.0074 68.7309 52.0119 68.6154 52.0115L67.7987 51.9964C67.5414 51.9879 67.5365 51.9793 67.7238 51.8648C67.8793 51.8426 68.0365 51.8223 68.1943 51.8042C68.2884 51.792 68.4413 51.7723 68.4771 51.7909C68.6953 51.8415 69.0933 51.8087 69.4281 51.798C70.3971 51.7703 71.3966 51.7295 72.3749 51.696C72.5818 51.6878 72.7821 51.6837 72.9739 51.6836C73.0929 51.6819 73.2015 51.6851 73.295 51.6932C73.3223 51.694 73.3452 51.6964 73.3621 51.7002C73.379 51.704 73.3896 51.7091 73.3931 51.7153C73.3966 51.7214 73.3929 51.7284 73.3823 51.7357C73.3718 51.7431 73.3546 51.7506 73.3319 51.7579C73.2518 51.7834 73.1593 51.8078 73.0575 51.8303L73.1045 51.8242ZM66.0056 35.212L65.051 35.1984C64.9365 35.197 64.8394 35.1817 64.7169 35.1883C64.0632 35.209 63.458 35.2032 62.927 35.1712C62.7461 35.1581 62.5346 35.1555 62.3039 35.1635C61.5977 35.1872 60.9315 35.1881 60.3233 35.1664C59.9303 35.162 59.5624 35.1474 59.2253 35.1227C59.1993 35.117 59.1831 35.1092 59.1778 35.0999C59.1725 35.0906 59.1782 35.0799 59.1945 35.0688C59.1988 35.0617 59.2103 35.0541 59.2284 35.0465C59.2465 35.0389 59.2706 35.0314 59.2992 35.0247C59.3277 35.0179 59.36 35.012 59.3938 35.0073C59.4276 35.0026 59.4621 34.9993 59.495 34.9976C59.9209 34.9642 60.3253 34.9525 60.675 34.9636C60.9992 34.9769 61.3484 34.9808 61.7169 34.9752C62.0696 34.9737 62.3089 35.017 62.7446 34.984C62.9289 34.9731 63.0915 34.9767 63.2049 34.9941C63.4332 35.023 63.7517 35.0246 64.1039 34.9986C64.3146 34.9855 64.516 34.9799 64.7005 34.982C65.1478 34.9915 65.5752 35.0105 65.9897 35.0288C66.1203 35.0331 66.2602 35.0337 66.4073 35.0306L68.4827 34.9946C68.9815 34.9836 69.479 34.9704 69.9684 34.9652C70.3687 34.9539 70.7412 34.9575 71.0728 34.9757C71.4264 34.9948 71.812 35.0026 72.2223 34.9989C72.8596 35.0094 73.4932 35.0134 74.1868 35.012C74.6292 35.0128 75.0821 35.01 75.5443 35.0014C75.7782 34.9903 75.9767 34.9993 76.1017 35.0268C76.1777 35.0494 76.3566 35.031 76.5051 35.0257C77.2973 34.9751 78.0402 34.9631 78.682 34.9906C78.7639 34.9951 78.8539 34.9967 78.9499 34.9954C79.568 34.9945 80.2084 34.9884 80.8018 34.9883C80.958 34.9904 81.105 34.9963 81.241 35.0058C81.2265 35.0213 81.185 35.0381 81.1251 35.0527C81.0653 35.0673 80.9916 35.0786 80.9196 35.0843C80.3584 35.1276 79.8165 35.1504 79.3168 35.1519C78.4849 35.1464 77.6135 35.1588 76.7117 35.189C76.012 35.2194 75.3739 35.213 74.8451 35.1702C74.4317 35.1383 73.8939 35.1503 73.3241 35.2042C73.0802 35.2299 72.8436 35.2402 72.6464 35.2337C72.4567 35.2251 72.239 35.2271 72.006 35.2398C71.5149 35.2639 71.0425 35.275 70.5982 35.2731C70.1639 35.2642 69.7588 35.24 69.3127 35.2327C68.8666 35.2253 68.1872 35.2295 67.6372 35.2171C67.0872 35.2046 66.5434 35.2029 66.0056 35.212ZM105.563 33.9502C105.513 34.0169 105.334 34.0584 105.142 34.0762C104.481 34.1551 103.827 34.1888 103.29 34.1713C103 34.1471 102.614 34.1564 102.207 34.1975C101.733 34.2403 101.289 34.2474 100.955 34.2176C100.874 34.2124 100.811 34.2013 100.773 34.1855C100.766 34.1726 100.752 34.1488 100.75 34.1445C100.785 34.1336 100.828 34.1234 100.875 34.1149C100.923 34.1063 100.974 34.0996 101.025 34.0952L103.216 34.0188L103.598 34.002C104.295 33.958 104.96 33.9405 105.563 33.9502V33.9502ZM101.253 35.0059C100.911 35.1148 100.91 35.1127 100.734 35.1376C99.8891 35.241 99.0445 35.2968 98.3009 35.2984C98.1356 35.2981 97.9953 35.2876 97.892 35.2678C97.8388 35.2651 97.8049 35.2565 97.7978 35.244C97.7907 35.2315 97.8108 35.216 97.8539 35.2009L98.1258 35.1242C98.6197 35.0909 99.1065 35.0645 99.5833 35.0451C100.138 35.0222 100.63 35.0213 101.206 35.012L101.253 35.0059ZM73.1455 51.3419C72.8268 51.4918 72.8256 51.4897 72.2921 51.5284C71.9203 51.5558 71.5597 51.5718 71.2209 51.5761C70.8069 51.5809 70.3824 51.5893 69.9697 51.5961C69.8689 51.6009 69.7835 51.597 69.73 51.585C69.6766 51.5731 69.6589 51.554 69.6804 51.5316C69.7345 51.5072 69.8193 51.4836 69.9208 51.4646C70.0223 51.4456 70.1347 51.4324 70.2396 51.4271L70.4648 51.4235C70.7383 51.416 71.0224 51.4049 71.2866 51.4032C71.458 51.4095 71.6566 51.4047 71.8668 51.3892C72.0771 51.3738 72.2933 51.3481 72.4984 51.3142L73.1455 51.3419ZM99.5511 34.1462C99.4661 34.1721 99.3698 34.197 99.265 34.2201C98.8591 34.2841 98.4296 34.3205 98.0605 34.3221C97.886 34.3261 97.7264 34.3119 97.5488 34.3325C97.2301 34.36 96.9213 34.3746 96.639 34.3756C96.639 34.3756 96.5599 34.3696 96.5339 34.3684L96.4798 34.2734C96.6135 34.2514 96.7528 34.2335 96.8915 34.2204C97.3569 34.1951 97.8142 34.1779 98.2703 34.1584C98.7264 34.139 98.8855 34.1301 99.1837 34.1217C99.3168 34.1263 99.4398 34.1345 99.5511 34.1462ZM109.629 45.9468L109.02 46.1411C108.823 46.158 108.639 46.161 108.496 46.1498C108.353 46.1386 108.259 46.1137 108.228 46.0789C108.177 46.0626 108.172 46.0385 108.214 46.0116C108.255 45.9847 108.339 45.9571 108.448 45.9346C108.554 45.908 108.674 45.8841 108.802 45.8644C108.93 45.8447 109.062 45.8297 109.191 45.8203L109.629 45.9468ZM104.559 44.9795C104.957 44.9465 105.338 44.933 105.673 44.9401C105.883 44.9594 106.169 44.9532 106.471 44.9229C107.02 44.8624 107.549 44.8457 107.947 44.8762C107.947 44.8762 107.961 44.9021 108.029 44.9096C108.096 44.9171 107.829 44.9354 107.77 44.943C107.339 44.9615 106.905 44.9757 106.53 44.9824C106.297 44.9821 106.051 44.9882 105.795 45.0007C105.444 45.0198 105.111 45.026 104.808 45.019C104.808 45.019 104.692 45.0133 104.56 44.9816L104.559 44.9795ZM62.0175 34.86C62.2078 34.8234 62.4141 34.7937 62.621 34.773C62.8279 34.7524 63.03 34.7414 63.2122 34.7408C63.3517 34.7389 63.4645 34.7485 63.5329 34.7682C63.6013 34.7879 63.6213 34.8166 63.5897 34.8496C63.4486 34.8678 63.2604 34.892 63.1545 34.9057C62.7876 34.9043 62.4746 34.8868 62.0175 34.86ZM26.4013 37.9434C26.554 37.914 26.7221 37.8915 26.8866 37.8784C27.0511 37.8654 27.2053 37.8624 27.3316 37.8698C27.3965 37.873 27.3525 37.9065 27.3635 37.9259C27.3707 37.9303 27.3706 37.9358 27.3632 37.9418C27.3559 37.9478 27.3415 37.954 27.3216 37.9599C27.3017 37.9658 27.277 37.9711 27.2502 37.9752C27.2233 37.9793 27.1953 37.9822 27.169 37.9834C27.0034 37.9961 26.847 37.9999 26.7139 37.9944C26.5808 37.9889 26.4751 37.9744 26.4062 37.9521L26.4013 37.9434ZM24.015 38.3645C24.0386 38.3471 24.0888 38.329 24.1565 38.3135C24.2242 38.2979 24.3048 38.286 24.3835 38.28C24.5225 38.2791 24.6489 38.284 24.7577 38.2942C24.8759 38.3022 24.7909 38.3525 24.6311 38.3823C24.5635 38.3943 24.4912 38.4037 24.42 38.4096C24.3488 38.4156 24.2808 38.418 24.2212 38.4167C24.1616 38.4154 24.1122 38.4104 24.0768 38.4021C24.0414 38.3938 24.0211 38.3824 24.0174 38.3688L24.015 38.3645ZM93.3562 34.331C93.7122 34.2689 93.9863 34.2846 94.2877 34.2596C94.5891 34.2346 94.6634 34.232 94.623 34.272C94.5826 34.3119 94.376 34.3038 94.2466 34.3205C94.0718 34.3426 93.8959 34.3553 93.7387 34.3572C93.5814 34.359 93.449 34.35 93.3562 34.331V34.331ZM19.1668 44.8388C19.3554 44.8249 19.5401 44.815 19.7182 44.8094C19.7416 44.8152 19.7563 44.8227 19.7614 44.8316C19.7664 44.8405 19.7618 44.8506 19.7477 44.8612C19.7477 44.8612 19.6269 44.893 19.5563 44.9021C19.2963 44.9333 19.2835 44.8886 19.1668 44.8388V44.8388ZM-7.48649 50.6248C-7.61412 50.6667 -7.67363 50.6952 -7.7758 50.7153C-7.82274 50.7223 -7.87127 50.7274 -7.91777 50.7302C-7.96427 50.733 -8.00753 50.7334 -8.0444 50.7314C-8.08931 50.7194 -8.09984 50.7009 -8.07389 50.6797C-8.07389 50.6797 -7.94383 50.6421 -7.89432 50.6403C-7.75308 50.6314 -7.61619 50.6262 -7.48649 50.6248V50.6248ZM99.4164 33.976C99.6869 33.9411 99.9457 33.9077 100.133 33.9484C99.7034 33.9922 99.7034 33.9922 99.4164 33.976ZM95.0347 34.374C95.3078 34.2995 95.4681 34.2927 95.5993 34.3013C95.6271 34.3034 95.6456 34.3082 95.6518 34.315C95.658 34.3217 95.6517 34.33 95.6338 34.3386C95.6158 34.3472 95.5873 34.3556 95.5524 34.3626C95.5176 34.3696 95.4783 34.3747 95.4406 34.3773C95.2981 34.3794 95.1622 34.3784 95.0347 34.374V34.374ZM80.975 34.4056C80.9689 34.3948 80.9615 34.3818 81.0321 34.3727C81.0505 34.3681 81.0722 34.3642 81.0949 34.3612C81.1176 34.3583 81.1406 34.3565 81.1614 34.3561C81.1614 34.3561 81.1688 34.369 81.1737 34.3776L80.975 34.4056ZM71.2116 52.3137L71.3687 52.3236L71.2982 52.3327L71.1119 52.3381L71.2116 52.3137ZM15.8892 38.1962C15.948 38.1886 16.0068 38.181 16.0154 38.1961C16.0278 38.1985 16.0355 38.2018 16.0378 38.206C16.0402 38.2101 16.0371 38.2149 16.0289 38.2199C16.0289 38.2199 15.9466 38.2305 15.9113 38.235L15.8892 38.1962ZM25.0484 38.317C25.0871 38.3161 25.122 38.3171 25.1511 38.3199C25.1511 38.3199 25.1585 38.3329 25.1585 38.3329L25.0409 38.348L25.0484 38.317ZM104.869 41.4011C104.915 41.3932 104.963 41.387 105.01 41.3829L105.069 41.3753C105.069 41.3753 105.006 41.3973 104.971 41.4019C104.935 41.4064 104.907 41.4008 104.869 41.4011Z" fill="white"/>
</g>
<path d="M29.7841 3.31343C29.4003 3.47293 29.257 3.78725 29.2519 4.45341V4.81932H26.7493H24.2518L24.083 4.92253C23.7349 5.14302 23.5968 5.45264 23.6838 5.82325C23.7401 6.07189 24.0164 6.34868 24.2825 6.41435C24.5538 6.48472 35.7361 6.48003 36.0329 6.40966C36.4679 6.30646 36.775 5.88893 36.6931 5.49956C36.6521 5.28376 36.4832 5.05858 36.2683 4.92722L36.0943 4.81932H33.5968H31.0943V4.42995C31.0943 3.7591 30.9407 3.45886 30.5211 3.29466C30.2703 3.20084 30.04 3.20553 29.7841 3.31343Z" fill="white"/>
<path d="M20.8741 7.82658C20.6336 7.89225 20.3726 8.15027 20.306 8.38484C20.26 8.54903 20.2856 8.80236 20.4289 9.81098C20.521 10.4818 20.6131 11.1058 20.6284 11.1855L20.6592 11.3403H21.5496C22.3838 11.3403 22.4452 11.3356 22.4452 11.2559C22.4452 11.1668 22.2661 9.8532 22.2098 9.56703L22.1842 9.41691H30.173C34.5641 9.41691 38.1567 9.43099 38.1567 9.44975C38.1567 9.47321 38.1004 9.87666 38.0288 10.3505C37.9571 10.8243 37.9008 11.2371 37.9008 11.2747C37.9008 11.3263 38.0646 11.3403 38.7964 11.3403C39.6818 11.3403 39.692 11.3403 39.7125 11.2324C39.7279 11.1761 39.82 10.5522 39.9223 9.8532C40.0759 8.77421 40.0963 8.54434 40.0452 8.37545C39.9786 8.1362 39.7125 7.89225 39.4464 7.82188C39.2007 7.7609 21.1095 7.76559 20.8741 7.82658Z" fill="white"/>
<path d="M22.8547 26.5541C22.8547 26.6854 23.213 29.0733 23.2488 29.153C23.3153 29.3313 23.4842 29.5002 23.6787 29.5893C23.8732 29.6832 23.9755 29.6832 30.2396 29.6738L36.6061 29.6597L36.7903 29.5283C36.8927 29.458 37.0155 29.336 37.0565 29.2609C37.123 29.1483 37.4915 26.859 37.4915 26.5728C37.4915 26.5025 37.4147 26.4931 36.601 26.4931C35.7207 26.4931 35.7105 26.4931 35.6849 26.5963C35.6696 26.6573 35.6184 27.0044 35.5672 27.375L35.4751 28.0412L30.1782 28.0318L24.8762 28.0178L24.7637 27.2671C24.7022 26.8543 24.6511 26.5119 24.6511 26.5025C24.6459 26.4978 24.2416 26.4931 23.7503 26.4931C23.0339 26.4931 22.8547 26.5072 22.8547 26.5541Z" fill="white"/>
<path d="M28.1397 11.6386C27.723 11.8085 27.5611 11.9866 27.0797 12.7957C26.7479 13.354 26.6468 13.5482 26.667 13.621C26.6832 13.6898 27.0271 13.9366 27.9697 14.5556C29.0702 15.2757 29.2644 15.385 29.3372 15.3526C29.3898 15.3283 29.6002 14.9804 29.8874 14.4383C30.1423 13.9568 30.3689 13.5684 30.385 13.5765C30.4174 13.5846 31.4248 15.4982 31.4208 15.5468C31.4208 15.5589 31.2104 15.6924 30.9555 15.8502C30.4417 16.1537 30.3405 16.2588 30.4134 16.3924C30.4376 16.4409 30.4983 16.4854 30.5469 16.4935C30.8058 16.5501 33.8684 16.8819 33.9332 16.8617C33.9736 16.8495 34.0545 16.7362 34.1152 16.6068C35.0295 14.6931 35.6324 13.3742 35.6324 13.2974C35.6324 13.2326 35.6 13.1841 35.5353 13.1558C35.4503 13.1153 35.3734 13.1436 34.9244 13.3823C34.5157 13.6008 34.4025 13.6453 34.3741 13.6008C34.3539 13.5684 34.1516 13.2205 33.9251 12.824C33.5974 12.2536 33.4638 12.0553 33.2818 11.8854C32.8974 11.5294 32.9824 11.5415 30.5186 11.5415H28.3703L28.1397 11.6386ZM29.8672 12.5004C30.0128 12.8038 30.1302 13.0749 30.1302 13.1072C30.1302 13.1598 29.2684 14.766 29.2077 14.8267C29.1835 14.8509 27.286 13.6413 27.1646 13.528C27.1363 13.4997 27.7027 12.5004 27.8362 12.3507C28.1113 12.0311 28.3662 11.9501 29.0661 11.9461H29.6042L29.8672 12.5004ZM32.6911 12.0108C33.0148 12.1201 33.1685 12.3021 33.6702 13.2003C33.9291 13.6574 34.1759 14.0661 34.2204 14.1106C34.2973 14.1915 34.3013 14.1915 34.629 14.0216C34.8151 13.9285 34.9689 13.8597 34.977 13.8678C34.9891 13.88 33.8563 16.3034 33.7754 16.4288C33.7511 16.4692 33.5043 16.449 32.5657 16.3357C31.9143 16.2588 31.3641 16.1941 31.3398 16.1941C31.2508 16.1941 31.3317 16.1092 31.6069 15.9231C31.7606 15.8138 31.8941 15.7005 31.9022 15.6641C31.9103 15.6277 31.5017 14.7983 31 13.8152C30.4983 12.8362 30.0897 12.0149 30.0897 11.9906C30.0897 11.9582 30.4457 11.9461 31.2953 11.9461C32.2906 11.9461 32.5374 11.9582 32.6911 12.0108Z" fill="white"/>
<path d="M26.9546 15.2114C26.8656 15.2194 26.0969 15.272 25.2433 15.3246C24.2076 15.3894 23.6735 15.4379 23.6331 15.4703C23.5967 15.4986 23.5764 15.5714 23.5845 15.6443C23.5967 15.7535 23.6574 15.802 24.1226 16.1055C24.4139 16.2916 24.6728 16.4574 24.7012 16.4736C24.7457 16.4979 24.6567 16.7123 24.3289 17.4001C24.0943 17.8937 23.8799 18.3913 23.8556 18.5086C23.799 18.7716 23.8313 19.1559 23.9365 19.4149C24.0781 19.7669 25.9877 23.1289 26.1576 23.319C26.3478 23.5334 26.7362 23.7398 27.0517 23.8004C27.1691 23.8207 27.4846 23.8409 27.7476 23.8409C28.4556 23.8409 28.3909 24.027 28.3909 22.0203C28.3909 20.4142 28.3868 20.3575 28.3099 20.2807C28.2331 20.2038 28.1764 20.1997 27.3794 20.1997C26.8656 20.1997 26.5298 20.1836 26.5298 20.1593C26.5298 20.0865 27.5939 18.2173 27.6384 18.2173C27.6626 18.2173 27.8892 18.2983 28.1441 18.3994C28.577 18.5693 28.6134 18.5774 28.7024 18.5208C28.7509 18.4844 28.7954 18.4196 28.7954 18.3751C28.7954 18.2537 27.4684 15.2963 27.3875 15.2316C27.3228 15.183 27.2783 15.183 26.9546 15.2114ZM27.6869 16.7771C27.962 17.4001 28.1845 17.922 28.1805 17.9382C28.1724 17.9584 28.0429 17.918 27.8851 17.8492C27.521 17.6954 27.4401 17.6995 27.339 17.8613C27.2945 17.9341 26.8535 18.7271 26.3559 19.6212C25.8623 20.5194 25.4456 21.2516 25.4334 21.2516C25.4213 21.2516 25.1624 20.8066 24.8589 20.2645C24.2642 19.2004 24.2035 19.0265 24.2683 18.63C24.2844 18.5208 24.4948 18.0272 24.7699 17.4527C25.0895 16.7851 25.2352 16.4413 25.219 16.3806C25.2069 16.328 25.0531 16.2026 24.8225 16.0569C24.6162 15.9234 24.4705 15.8101 24.4948 15.802C24.5757 15.7737 26.6876 15.6362 26.9465 15.6443L27.1812 15.6483L27.6869 16.7771ZM27.9863 22.0203V23.3959H27.4887C27.0396 23.3959 26.9708 23.3878 26.7888 23.2947C26.6755 23.2381 26.5379 23.141 26.4772 23.0803C26.3235 22.9185 25.6762 21.7695 25.6924 21.6926C25.7005 21.6562 25.8421 21.4094 25.9998 21.1384L26.2911 20.6448H27.1367H27.9863V22.0203Z" fill="white"/>
<path d="M34.2168 17.1852C33.0759 17.8811 32.8615 18.0227 32.8493 18.1076C32.8412 18.1764 32.9828 18.4839 33.2822 19.0341C33.529 19.4872 33.7394 19.8918 33.7556 19.9282C33.7799 19.9929 33.6989 19.997 32.7482 19.997H31.7165L31.7003 19.471C31.6882 19.0058 31.6801 18.941 31.6073 18.8884C31.5628 18.852 31.4981 18.8278 31.4657 18.8358C31.4131 18.8439 29.285 21.2228 29.1313 21.4413C29.0949 21.4979 29.0787 21.5708 29.0949 21.6234C29.107 21.6759 29.6249 22.388 30.2439 23.2133C31.3888 24.7426 31.4576 24.8154 31.6113 24.69C31.6518 24.6536 31.668 24.5403 31.668 24.2409V23.8404H32.4974C33.3551 23.8404 33.6423 23.804 33.9093 23.6705C34.237 23.5046 34.411 23.2619 35.1635 21.9146C35.564 21.2066 36.0333 20.3813 36.2113 20.0819C36.3893 19.7866 36.5755 19.4468 36.628 19.3294C36.7494 19.0665 36.7899 18.67 36.7292 18.3827C36.7049 18.2654 36.4864 17.7597 36.2437 17.2621C35.8189 16.3963 35.7946 16.3558 35.6854 16.3599C35.6126 16.3599 35.1028 16.6471 34.2168 17.1852ZM35.9484 17.5533C36.1345 17.9458 36.3084 18.3625 36.3327 18.4839C36.4015 18.8116 36.3327 19.0665 36.0374 19.5722L35.7865 19.997L35.0178 19.9889L34.2451 19.9767L33.7879 19.1271C33.5331 18.6578 33.3267 18.2573 33.3267 18.2371C33.3308 18.2007 35.5357 16.8413 35.5923 16.8413C35.6045 16.8413 35.7623 17.1609 35.9484 17.5533ZM31.3403 20.3368C31.3888 20.3935 31.5911 20.4015 33.4521 20.4015C34.585 20.4015 35.5114 20.4177 35.5114 20.438C35.5114 20.4663 34.2815 22.6672 34.0873 22.9827C34.0428 23.0555 33.9215 23.1729 33.8203 23.2457L33.6302 23.3752L32.5378 23.3873C31.49 23.3994 31.4414 23.4035 31.3565 23.4844C31.2958 23.541 31.2634 23.6179 31.2634 23.7069C31.2634 23.7797 31.2513 23.8404 31.2351 23.8364C31.1825 23.8323 29.5844 21.6557 29.5844 21.591C29.5844 21.5586 29.9566 21.1055 30.4138 20.5796L31.2432 19.6248L31.2634 19.9484C31.2755 20.1305 31.3079 20.2964 31.3403 20.3368Z" fill="white"/>
</svg>
