<svg width="221" height="65" viewBox="0 0 221 65" fill="none" xmlns="http://www.w3.org/2000/svg">
<path d="M26.486 48.594H14.5087C10.7064 48.594 8.0289 47.9444 6.47629 46.6453C4.95536 45.3145 4.1949 42.9856 4.1949 39.6586V14.7534H26.486V20.647H10.8014V28.5843H21.7806L21.3053 34.4779H10.8014V39.1833C10.8014 40.5141 11.1024 41.433 11.7045 41.9399C12.3065 42.4469 13.3997 42.7004 14.984 42.7004H26.486V48.594ZM91.7781 48.594H84.8864L82.9852 42.7479H71.6258L69.7722 48.594H62.8805L73.7171 17.6051C74.1924 16.5278 74.7152 15.7832 75.2856 15.3713C75.8876 14.9594 76.6164 14.7534 77.4719 14.7534C78.3274 14.7534 79.0087 14.9435 79.5156 15.3237C80.0543 15.704 80.5296 16.4644 80.9415 17.6051L91.7781 48.594ZM81.4643 37.1871L77.4719 23.7839L73.2893 37.1871H81.4643ZM121.422 28.3942L115.338 41.227C114.451 42.9381 113.342 43.7936 112.011 43.7936C110.712 43.7936 109.619 42.8905 108.731 41.0844L102.553 28.3942V48.594H95.9462V14.7534H102.458L112.011 34.2878L121.517 14.7534H128.028V48.594H121.422V28.3942ZM159.471 38.8506C159.471 41.9875 158.615 44.3956 156.904 46.075C155.225 47.7543 152.864 48.594 149.822 48.594H145.26C141.521 48.594 138.859 47.9444 137.275 46.6453C135.722 45.3462 134.946 43.0965 134.946 39.8962V14.7534H149.252C152.484 14.7534 154.908 15.5614 156.524 17.1774C158.172 18.7934 158.996 21.0747 158.996 24.0215C158.996 25.7326 158.552 27.1901 157.665 28.3942C156.809 29.5983 155.859 30.4538 154.813 30.9608C157.918 32.4183 159.471 35.0482 159.471 38.8506ZM148.729 27.9664C151.169 27.9664 152.389 26.7465 152.389 24.3067C152.389 21.8669 151.169 20.647 148.729 20.647H141.552V27.9664H148.729ZM152.864 38.5179C152.864 36.9969 152.595 35.8562 152.056 35.0958C151.518 34.3036 150.551 33.9076 149.157 33.9076H141.552V39.2308C141.552 40.5299 141.869 41.433 142.503 41.9399C143.168 42.4469 144.246 42.7004 145.735 42.7004H149.157C151.629 42.7004 152.864 41.3062 152.864 38.5179ZM172.266 42.2251C172.773 42.7004 173.026 43.7302 173.026 45.3145C173.026 46.8988 172.773 47.9444 172.266 48.4514C171.79 48.9584 170.761 49.2119 169.176 49.2119C167.592 49.2119 166.546 48.9584 166.039 48.4514C165.532 47.9444 165.279 46.8988 165.279 45.3145C165.279 43.7302 165.532 42.7004 166.039 42.2251C166.546 41.7181 167.592 41.4647 169.176 41.4647C170.761 41.4647 171.79 41.7181 172.266 42.2251ZM191.369 48.6415L185.998 48.594C183.621 48.594 181.815 47.8969 180.58 46.5027C179.376 45.1085 178.773 43.445 178.773 41.5122V12.8522H184.952V24.8295L192.319 21.4074C195.139 21.4074 197.215 22.1679 198.546 23.6888C199.718 25.0513 200.447 27.2535 200.732 30.2954C200.827 31.5628 200.874 33.1312 200.874 35.0007C200.874 44.0946 197.706 48.6415 191.369 48.6415ZM186.521 43.3183H189.563C192.985 43.3183 194.696 40.5458 194.696 35.0007C194.696 32.1807 194.426 30.2161 193.888 29.1071C193.381 27.9981 192.256 27.4436 190.513 27.4436L184.952 30.4379V41.132C184.952 42.3994 185.475 43.1282 186.521 43.3183ZM220.769 21.55L219.058 27.6337C218.582 27.4436 218.044 27.3486 217.442 27.3486C215.857 27.3486 213.909 28.0298 211.596 29.3923V48.594H205.417V21.455H210.027L211.453 23.8314L218.012 21.1223C218.329 21.0906 218.757 21.0747 219.295 21.0747C219.834 21.0747 220.325 21.2332 220.769 21.55Z" fill="#016A70"/>
<mask id="mask0_17_364" style="mask-type:alpha" maskUnits="userSpaceOnUse" x="14" y="55" width="189" height="9">
<rect width="188.003" height="8.44959" transform="matrix(-1 0 0 1 202.512 55.5162)" fill="#C4C4C4"/>
</mask>
<g mask="url(#mask0_17_364)">
<path d="M171.703 54.4683L171.142 54.3701L172.235 54.2292L171.711 54.1261C171.186 54.1271 170.505 54.2815 170.135 54.1995C170.09 54.12 170.662 54.0945 170.808 54.0312C170.937 53.9663 171.042 53.9018 171.122 53.8386C170.836 53.8392 170.522 53.8545 170.198 53.8836C169.762 53.931 169.334 53.954 168.962 53.9502C168.201 53.963 167.466 53.9502 166.638 53.953L166.913 53.7618L165.847 53.8065C165.734 53.8211 165.599 53.7976 165.488 53.8157C164.564 53.9682 164.173 53.8851 163.729 53.8162C163.638 53.7983 163.529 53.785 163.404 53.7766C162.171 53.8131 161.059 54.0269 159.949 54.1366C159.74 54.1646 159.539 54.2006 159.362 54.2419C158.975 54.3223 158.546 54.388 158.112 54.4329C157.679 54.4778 157.255 54.5004 156.879 54.4989C156.049 54.4971 155.111 54.5503 154.157 54.6533C153.873 54.6872 153.589 54.7096 153.322 54.719C153.056 54.7284 152.814 54.7246 152.611 54.7079L151.965 54.8171C151.685 54.7728 151.33 54.7485 150.922 54.7456C150.514 54.7428 150.061 54.7615 149.59 54.8006C149.088 54.843 148.579 54.8716 148.059 54.9164C146.984 55.0021 145.937 55.0545 144.952 55.072C143.486 55.1239 142.053 55.164 140.573 55.2286C139.647 55.2598 138.745 55.277 137.872 55.28C136.827 55.2922 135.696 55.3513 134.534 55.4544V55.4544C134.589 55.5511 135.099 55.5225 135.441 55.5193C136.544 55.5032 137.673 55.4615 138.807 55.4302C139.318 55.418 139.815 55.4134 140.296 55.4164C141.098 55.4124 141.945 55.3866 142.82 55.3395C144.202 55.2877 145.541 55.2627 146.821 55.265C146.922 55.2688 147.014 55.2756 147.096 55.2853C147.113 55.2936 147.116 55.3041 147.106 55.3158C147.095 55.3275 147.071 55.34 147.035 55.352C146.999 55.3641 146.953 55.3753 146.901 55.3847C146.85 55.394 146.794 55.4011 146.74 55.4054C146.231 55.4709 145.685 55.5413 145.205 55.5512C145.186 55.552 145.167 55.5537 145.147 55.5562C145.128 55.5587 145.109 55.562 145.092 55.5658C144.018 55.7042 143.135 55.6808 142.299 55.7033C140.91 55.7642 139.572 55.7926 138.303 55.7882C138.112 55.7885 137.905 55.7964 137.69 55.8116C136.361 55.8734 135.119 55.8803 134.021 55.832C133.57 55.8198 133.15 55.7923 132.664 55.7919C132.365 55.79 132.105 55.7725 131.899 55.7404C131.693 55.7083 131.546 55.6623 131.466 55.6051C131.261 55.6352 131.053 55.662 130.844 55.6853C130.72 55.6985 130.6 55.7021 130.51 55.6951C130.419 55.6882 130.365 55.6713 130.358 55.6478C130.32 55.5822 130.605 55.5492 130.852 55.5211C130.703 55.507 130.535 55.4988 130.353 55.4965C129.324 55.4815 128.221 55.4992 127.066 55.5492C126.17 55.6091 125.455 55.5603 124.512 55.6448C124.399 55.6593 124.306 55.6379 124.202 55.6328C123.931 55.6058 123.593 55.5997 123.218 55.6151C122.843 55.6305 122.441 55.667 122.049 55.7213C121.56 55.5729 120.504 55.7424 119.724 55.7576C119.484 55.8331 119.759 55.8198 119.771 55.8406C119.783 55.8613 119.771 55.8406 119.865 55.8284C120.644 55.9353 121.711 55.9586 122.916 55.895C123.139 55.8953 123.351 55.9002 123.551 55.9096C123.854 55.9229 124.195 55.9216 124.56 55.9057C124.959 55.8939 125.325 55.8995 125.641 55.9221C125.823 55.9217 125.977 55.933 126.088 55.9549C126.2 55.9769 126.265 56.0087 126.279 56.0476C126.157 56.0775 126.022 56.1049 125.88 56.1286C125.135 56.2224 124.393 56.2612 123.799 56.2374C122.764 56.1965 121.533 56.2364 120.433 56.2225C119.69 56.2168 118.899 56.2329 118.075 56.2706C118.075 56.2706 118.097 56.3086 118.099 56.312C118.001 56.3285 117.899 56.3417 117.797 56.3509C117.797 56.3509 117.797 56.3509 117.787 56.3336C117.832 56.317 117.894 56.3014 117.964 56.2886L118.209 56.257C118.042 56.2488 117.887 56.2244 117.713 56.2393C117.348 56.2671 116.999 56.2788 116.686 56.2738C116.374 56.2688 116.106 56.2471 115.897 56.2101C115.527 56.1627 115.067 56.1411 114.547 56.1468C114.148 56.1416 113.764 56.1305 113.396 56.1135C113.396 56.1135 113.372 56.072 113.198 56.05C113.363 56.0228 113.535 56.0006 113.706 55.9845C114.452 55.944 115.199 55.907 115.931 55.8794C116.201 55.8764 116.455 55.881 116.687 55.8932C117.332 55.9074 118.056 55.8872 118.817 55.8338C118.817 55.8338 118.968 55.8143 119.043 55.8046C118.829 55.7135 118.093 55.8047 117.795 55.743C117.613 55.7441 117.294 55.7519 117.305 55.7356C117.33 55.714 117.333 55.6938 117.314 55.6767C117.295 55.6595 117.254 55.6458 117.195 55.6364C117.135 55.627 117.058 55.6223 116.97 55.6226C116.882 55.6228 116.784 55.628 116.683 55.6378C115.845 55.6907 115.055 55.7055 114.362 55.6811C114.1 55.6815 113.805 55.6972 113.545 55.7012C113.385 55.7059 113.24 55.7032 113.116 55.6934C112.486 55.6209 111.639 55.6156 110.701 55.6783C110.248 55.7009 109.824 55.7039 109.452 55.6872C109.188 55.6842 109.076 55.7358 108.887 55.76L108.087 55.8112L109.115 55.8754C108.895 56.0223 108.721 56.0708 108.362 56.08C107.838 56.0938 107.329 56.1 106.836 56.0987C106.471 56.0975 106.17 56.0658 105.676 56.122C105.589 56.1312 105.505 56.1342 105.438 56.1304C104.86 56.0805 104.164 56.0691 103.397 56.0969C103 56.0034 102.324 56.0943 101.699 56.1675C101.497 56.0971 101.863 56.0648 102.081 56.0218C101.557 56.0262 101.03 56.0237 100.49 56.034C100.328 56.0302 100.142 56.0366 99.9477 56.0527C99.7534 56.0687 99.5557 56.094 99.3702 56.1264C99.2797 56.1474 99.1706 56.1632 99.0656 56.1705C98.9606 56.1778 98.8677 56.1761 98.8061 56.1658C98.5258 56.1351 98.0769 56.1633 97.8452 56.1116C97.7629 56.0997 97.6451 56.098 97.5131 56.1069C97.381 56.1158 97.2433 56.1346 97.1246 56.16V56.16C97.2546 56.1679 97.3703 56.1804 97.4693 56.1972C97.8238 56.2516 97.6936 56.3425 97.2432 56.4748C96.5515 56.4675 95.845 56.4696 95.204 56.4446C94.8467 56.4223 94.4089 56.4293 93.9398 56.4648C93.4706 56.5004 92.9888 56.5631 92.5485 56.646C92.3892 56.6779 92.2076 56.6999 92.0397 56.7078C91.8719 56.7157 91.7301 56.7089 91.6427 56.6886C91.5882 56.6652 91.5713 56.6355 91.5935 56.6022L92.0456 56.544C92.0456 56.544 92.0279 56.5129 92.0239 56.5059L91.3739 56.5007C91.0301 56.5005 90.6713 56.5097 90.3463 56.5071C89.8689 56.4897 89.3239 56.4994 88.7449 56.5355C88.2108 56.5725 87.6859 56.6005 87.1749 56.6192C86.6804 56.6384 86.322 56.5771 85.8513 56.5673C85.4955 56.5599 85.104 56.5678 84.6918 56.5907C83.9799 56.6312 83.3266 56.6313 82.7913 56.5909C82.1671 56.8086 81.8637 56.8439 81.2843 56.7851L81.0119 56.7683L80.9374 56.815L80.7293 56.8047C80.3399 56.7956 79.9505 56.7865 79.5442 56.7832C78.9794 56.8034 78.3694 56.8577 77.7739 56.9409C77.6608 56.9555 77.507 57.005 77.4077 57.0438C77.3085 57.0825 77.092 57.1994 76.9331 57.2755C77.1063 57.3311 77.2984 57.3842 77.4358 57.4481C77.4496 57.459 77.4482 57.472 77.4319 57.4861C77.4155 57.5001 77.3845 57.5149 77.3414 57.5291C77.2984 57.5433 77.2445 57.5566 77.184 57.5679C77.1236 57.5792 77.0582 57.5882 76.9933 57.5941C76.8667 57.607 76.7417 57.6156 76.6235 57.6195C76.0415 57.6263 75.4841 57.6213 74.9569 57.6044C74.7643 57.5807 74.5008 57.5784 74.2079 57.598C73.9151 57.6176 73.6097 57.658 73.3403 57.7127C72.6504 57.6798 71.8488 57.6895 70.9907 57.7411C70.0832 57.7098 68.987 57.7732 68.139 57.7045C68.1587 57.739 68.0712 57.7985 67.9492 57.8328C67.7563 57.8848 67.5376 57.9331 67.3026 57.9755L65.5097 58.0582C65.4426 58.1008 65.3589 58.1439 65.2594 58.1869C65.1913 58.2209 65.0726 58.2542 64.9286 58.2797C64.7846 58.3051 64.6265 58.3208 64.4879 58.3234C64.1311 58.336 63.832 58.3078 63.4066 58.3775C64.0617 58.4434 64.9453 58.4346 65.8998 58.3528C66.7967 58.2906 67.6593 58.2595 68.4558 58.2607C68.7184 58.2602 69.0642 58.2639 69.1463 58.3015C69.3282 58.4079 69.8039 58.391 70.3589 58.3714C70.7948 58.3499 71.1931 58.3524 71.5208 58.3785C71.8485 58.4046 72.0964 58.4536 72.244 58.5215C72.2813 58.5872 72.1919 58.6432 71.8093 58.6814L70.2182 58.8346C69.9837 58.8149 69.7612 58.7916 69.5516 58.7647C69.1985 58.7291 68.7626 58.7193 68.2777 58.7362C67.7928 58.753 67.272 58.796 66.7558 58.8618C66.4921 58.8958 66.2284 58.9298 66.0372 58.9136C65.8694 58.8951 65.7149 58.8729 65.5748 58.8472C65.5464 58.8299 65.5352 58.8101 65.5413 58.7884C65.4398 58.7985 65.3382 58.8116 65.2399 58.8273C64.4543 59.0101 63.8459 59.007 63.2932 58.9595C63.1436 58.9454 63.0298 58.923 62.8782 58.9055C62.7267 58.8879 62.6733 58.8651 62.5355 58.8718C61.4373 58.9317 61.1211 58.7315 60.1955 58.7395C60.1504 58.7317 60.1224 58.72 60.1142 58.7055C60.1059 58.691 60.1176 58.6742 60.1483 58.6566C60.2137 58.6407 60.2893 58.627 60.3683 58.6168C60.4473 58.6067 60.5271 58.6003 60.6004 58.5983C61.0264 58.5726 61.4026 58.5805 61.6646 58.6206C61.8502 58.637 62.0467 58.6501 62.253 58.6597L63.1798 58.3697C62.2819 58.3963 61.4328 58.3961 60.652 58.3691C60.4816 58.354 60.1931 58.3801 59.9533 58.385L58.1893 58.4121C57.8267 58.4144 57.5177 58.3689 57.0119 58.4749C57.0119 58.4749 56.6779 58.492 56.5888 58.4775C56.4996 58.4631 56.1046 58.3731 55.8691 58.3144C55.5955 58.3311 55.2168 58.3762 55.0464 58.3611C54.7488 58.324 54.4911 58.2763 54.278 58.2191L53.2125 58.3008C53.2137 58.3734 53.2526 58.4417 53.3286 58.5047C53.4116 58.5654 53.4088 58.6383 53.3203 58.7173C53.2318 58.7964 53.0601 58.8795 52.8193 58.9597L51.7672 59.3846C51.5955 59.413 51.4125 59.4322 51.243 59.4395C51.0735 59.4467 50.9257 59.4417 50.8197 59.4251C50.3671 59.3759 49.8599 59.3375 49.4072 59.2883C48.8233 59.3635 48.9734 59.4851 48.5488 59.5918L47.1737 59.769C46.964 59.9333 46.7503 60.0906 47.3882 60.1456C47.515 60.1552 47.4295 60.2182 47.5453 60.244C47.0493 60.3673 46.5041 60.4042 46.0014 60.4801C45.8032 60.5347 45.6375 60.5925 45.5123 60.6507C45.3747 60.7383 45.0958 60.8279 44.7358 60.8999C44.3758 60.972 43.9636 61.0209 43.5883 61.0359C42.9586 61.0821 42.3138 61.1514 41.6829 61.2407C41.4674 61.2718 41.2459 61.2944 41.0334 61.3071C40.8209 61.3198 40.6223 61.3222 40.4509 61.3142C39.8404 61.3002 39.3238 61.2518 38.9344 61.1722C38.5494 61.1047 38.0305 61.0722 37.4247 61.0776C36.3886 61.2111 36.1797 61.4124 35.5527 61.5896L36.6357 61.6095C36.675 61.6786 36.6033 61.7657 37.0472 61.7641C37.4912 61.7625 37.266 61.8286 37.122 61.8954C37.0713 61.929 36.9723 61.9635 36.8418 61.9932C36.7113 62.0228 36.5573 62.0458 36.4059 62.0581L35.484 62.1436C35.1571 62.1761 34.8407 62.19 34.5696 62.1837C34.2985 62.1775 34.0831 62.1513 33.9472 62.1081C33.7912 62.067 33.5758 62.0392 33.3144 62.0265C32.9812 61.993 32.7071 61.9432 32.5025 61.8789L31.201 61.9725C31.1456 61.908 30.9667 61.8627 30.6947 61.8444C30.4227 61.8261 30.0742 61.8358 29.7081 61.872L28.8309 61.9294C27.8556 61.9921 27.6416 61.9715 27.356 61.7895L28.5257 61.4644C28.3556 61.3788 28.1914 61.3035 28.0272 61.2282C28.3187 61.1212 28.7074 61.0199 29.1541 60.9347C29.5709 60.8431 29.9996 60.7544 30.4384 60.669C30.9144 60.5817 31.4171 60.5057 32.0081 60.4073C32.1113 60.3755 32.2612 60.3191 32.4527 60.2647C32.6443 60.2119 32.8443 60.1601 33.0518 60.1096C33.0125 60.0405 32.9771 59.9783 33.0527 59.8981C32.6887 59.9237 32.3127 59.9685 31.9585 60.0284C31.6043 60.0883 31.2831 60.1614 31.0239 60.2412C30.9803 60.2554 30.9269 60.2686 30.8672 60.2802C30.8075 60.2917 30.7429 60.3012 30.6778 60.3081C30.0384 60.3571 29.7328 60.4595 29.4202 60.5851C29.2096 60.6493 28.9382 60.7064 28.6436 60.7483C28.0785 60.8211 27.5251 60.9147 26.9848 60.9955C26.8194 61.0224 26.6475 61.0446 26.4762 61.061C25.9113 61.1134 25.3428 61.1867 24.7996 61.2771C24.6223 61.3001 24.4522 61.3305 24.3035 61.3658C24.1547 61.4011 24.0317 61.4403 23.9447 61.4801C24.0791 61.5236 24.1517 61.5786 24.158 61.6417C24.1816 61.6832 23.7849 61.7677 23.5973 61.8289C23.4098 61.8902 23.7776 61.8613 23.9024 61.8675C24.4147 61.8793 24.5097 61.9042 24.2029 62.0401C24.1005 62.0829 24.0324 62.1257 24.0031 62.1658C23.9738 62.206 23.9838 62.2426 24.0325 62.2735C24.1053 62.4013 24.3268 62.5063 24.4789 62.6313C24.2427 62.7137 23.848 62.8016 23.8049 62.9036C23.7843 62.9262 23.7406 62.9502 23.6771 62.9738C23.6136 62.9974 23.5318 63.02 23.4377 63.0399C23.1898 63.0831 22.9643 63.1347 22.7788 63.1908C22.5934 63.2468 22.4528 63.3058 22.3681 63.3632C22.3405 63.387 22.2736 63.4122 22.1808 63.4337C22.0881 63.4553 21.9764 63.4717 21.8682 63.4796C21.739 63.4893 21.6232 63.488 21.5448 63.476C21.4665 63.464 21.4317 63.4422 21.4474 63.4152C21.4443 63.3643 21.4613 63.3113 21.4986 63.2565C21.4769 63.2185 21.4553 63.1805 21.5408 63.1176C21.1547 63.1405 20.7493 63.1866 20.3687 63.2507C19.9881 63.3148 19.6469 63.3945 19.3821 63.4811C19.0894 63.5708 18.8194 63.6649 18.495 63.7698C18.5619 63.8872 18.5619 63.8872 17.8713 64.0949L14.2085 64.1962L13.4578 64.3338C12.7577 64.4537 12.5913 64.4455 12.1516 64.3835L11.8556 64.3252C11.234 64.4053 10.5181 64.4976 10.1293 64.3475C10.0031 64.4453 9.92068 64.4782 9.94935 64.493C10.1349 64.6374 10.4574 64.76 10.9041 64.8558C11.0179 64.8782 11.0981 64.9124 11.2308 64.9324C11.6586 65.0451 11.7578 65.2194 11.5082 65.4195C11.3842 65.5081 11.2042 65.5987 10.9739 65.6886C11.311 65.8134 11.7575 65.9167 12.3015 65.9959C12.7632 66.0572 13.1433 66.1392 13.4311 66.2397C13.6895 66.341 14.0764 66.4172 14.5697 66.4638C14.8199 66.4836 15.0025 66.5227 15.0993 66.5772C15.1281 66.7248 15.0619 66.8828 14.9022 67.0477C14.8721 67.0979 14.7866 67.152 14.6525 67.206C14.5183 67.26 14.3392 67.3123 14.129 67.3587C14.129 67.3587 14.0278 67.394 13.9791 67.4151C13.9386 67.5938 14.0903 67.7513 14.4241 67.877C14.4788 67.9126 14.5907 67.9384 14.7478 67.9515C14.9049 67.9645 15.1012 67.9645 15.3156 67.9512C15.7685 67.9299 16.1916 67.9273 16.6297 67.9153C17.1017 67.8984 17.5175 67.9117 17.8333 67.9539C18.1491 67.9961 18.3532 68.0655 18.4242 68.155C18.4288 68.1803 18.4427 68.2046 18.4655 68.2275C18.4789 68.2394 18.4861 68.2521 18.4872 68.2655L17.4812 68.5584L18.6193 68.675C18.6862 68.7925 18.1398 68.8629 17.866 68.9501L18.0352 68.9988C18.2531 69.0263 18.5466 68.9736 18.8123 68.9431L19.0761 68.9091L19.1076 68.9644C19.2717 69.0396 19.8706 68.955 20.1042 69.0102C20.3378 69.0654 20.1711 69.1277 19.821 69.1876C19.5777 69.2322 19.3164 69.2677 19.0568 69.2916C18.7972 69.3154 18.546 69.3269 18.3222 69.3252C18.1886 69.3193 18.0777 69.3058 17.9964 69.2856C17.524 69.1995 17.0021 69.1255 16.4347 69.0641C15.9996 69.009 15.4548 68.9856 14.8386 68.9954C14.6577 68.9913 14.4396 69.0043 14.2226 69.0323C14.0056 69.0603 13.8035 69.1014 13.6518 69.1484V69.1484L13.3327 69.1562C13.3327 69.1562 13.1581 69.2046 13.1829 69.2126C13.3044 69.3562 13.1632 69.5317 12.7804 69.7132V69.7132L13.1133 69.7296C13.589 69.7128 13.2873 69.8221 13.3585 69.876C13.6964 69.8658 14.1356 69.8204 14.2958 69.8887L14.5356 69.8838L14.4414 69.8959L14.3276 69.8735L13.8802 69.9756C14.0922 69.9928 14.2457 70.0138 14.433 70.0231C14.5364 70.0311 14.6187 70.0453 14.675 70.0648C14.7313 70.0843 14.7604 70.1088 14.7605 70.1366C14.76 70.1795 14.8157 70.2156 14.9225 70.2414C15.0292 70.2672 15.1834 70.282 15.3703 70.2842C15.5933 70.2852 15.7209 70.3318 15.8516 70.3483L15.2836 70.6292C15.2836 70.6292 15.5662 70.5928 15.4124 70.6422L15.3927 70.6077L15.0486 70.678C14.8006 70.7396 14.6272 70.7546 14.4807 70.7104C14.3342 70.6663 14.3676 70.725 14.2973 70.7081C14.3229 70.753 14.4823 70.7844 14.6189 70.8113C14.7769 70.8324 14.9552 70.8479 15.1509 70.8577C14.7983 71.0552 14.7814 71.0611 15.2965 71.1133C15.8115 71.1656 15.6338 71.2442 16.0648 71.2554C16.4958 71.2666 16.0057 71.4002 15.7173 71.4262C15.5034 71.4434 15.2854 71.4701 15.0781 71.5045C14.8708 71.5389 14.6792 71.5802 14.5165 71.6255L14.603 71.7775C14.7299 71.765 14.8569 71.7486 14.9798 71.729C15.3973 71.6455 15.7771 71.5669 16.1485 71.6154L15.9717 71.7309L17.2681 71.664C17.2345 71.7505 17.0369 71.8491 16.717 71.939V71.939C16.7652 71.9883 16.7947 72.0403 16.8055 72.0944C16.8271 72.1324 16.9551 72.1085 17.0383 72.1126C17.3352 72.119 17.5788 72.1447 17.7478 72.1876C17.9168 72.2305 18.006 72.2892 18.0074 72.3586C18.0408 72.4173 17.5845 72.5392 17.2991 72.5352C16.5866 72.5469 15.8161 72.5921 15.0294 72.6683C14.5497 72.6782 14.482 72.5237 13.6928 72.6292C13.6771 72.7005 13.7782 72.7582 13.9808 72.7937C14.1834 72.8291 14.4764 72.8403 14.8157 72.8256C14.6228 72.984 13.5544 73.0253 13.5071 73.1908C13.7732 73.1791 14.0577 73.1516 14.3324 73.111C14.6072 73.0704 14.8627 73.0181 15.0737 72.9592C15.1193 72.9447 15.1765 72.9314 15.24 72.9204C15.3035 72.9094 15.3714 72.9011 15.4372 72.8963C15.503 72.8915 15.5647 72.8904 15.6166 72.893C15.6685 72.8956 15.7088 72.9019 15.7339 72.9112C15.586 72.9711 15.4232 73.0403 15.2376 73.105C15.0521 73.1697 15.0074 73.1977 14.8735 73.2113C13.8752 73.34 13.4005 73.5717 12.5368 73.7239C12.3107 73.753 12.2826 73.8456 12.4789 73.8352C12.6656 73.8247 12.8346 73.8261 12.967 73.8391C13.0994 73.8522 13.19 73.8764 13.2287 73.9091C13.3736 73.9472 13.554 73.9776 13.7654 73.9994C12.8796 74.2372 11.8234 74.4474 10.696 74.6101C10.4825 74.6423 10.2598 74.6619 10.0606 74.6661C9.43124 74.6663 8.76344 74.6852 8.07059 74.7223C7.82487 74.7324 7.59782 74.7315 7.40177 74.7195C6.75878 74.6911 6.24818 74.7533 5.78172 74.9283L5.00965 75.2059C5.03523 75.2508 5.1648 75.3008 5.2646 75.3696L4.66152 75.5178L0.0591905 75.1764L-0.864699 75.5069L-2.18951 75.4886C-2.29105 75.4981 -2.39308 75.5113 -2.49086 75.5274C-2.75881 75.625 -2.96833 75.7187 -3.25905 75.8118C-3.54977 75.9049 -4.06903 75.9163 -4.43117 76.026C-4.79331 76.1357 -5.156 76.138 -5.60416 76.2031C-5.6463 76.2881 -5.60276 76.3645 -5.47628 76.4277C-5.43496 76.5003 -5.20723 76.5451 -5.16788 76.6142C-5.17221 76.684 -5.08761 76.7433 -4.92167 76.7867C-4.75574 76.83 -4.51374 76.8561 -4.21765 76.8625C-3.38848 77.0112 -2.38857 77.1171 -1.24821 77.177C-1.14804 77.1813 -1.06498 77.1914 -1.00419 77.2065C-0.943402 77.2217 -0.906196 77.2415 -0.894831 77.265C-0.896397 77.3327 -0.820367 77.3913 -0.672255 77.4364C-0.524142 77.4815 -0.307679 77.5119 -0.0387689 77.5255C0.0328487 77.5282 0.086895 77.5367 0.116658 77.5499C0.218651 77.5585 0.293002 77.5748 0.332425 77.5974C0.371848 77.6199 0.375022 77.6479 0.34172 77.6787C0.308418 77.7095 0.239738 77.7419 0.14229 77.773C0.0448408 77.804 -0.0780948 77.8326 -0.214589 77.8559C-0.41257 77.8935 -0.614797 77.9295 -0.820458 77.9637C-0.808653 77.9844 -0.604565 77.9878 -0.634371 78.0065C-0.714945 78.0661 -0.733588 78.1219 -0.688899 78.1696C-0.644209 78.2173 -0.537379 78.2554 -0.376853 78.2811L-1.47678 78.764C-2.14442 78.8309 -2.79934 78.9444 -3.31723 79.0829C-3.31792 79.1056 -3.28812 79.1246 -3.23079 79.138C-3.17346 79.1514 -3.09064 79.1588 -2.99058 79.1594C-2.72209 79.1693 -2.46847 79.1886 -2.17917 79.1995C-2.00233 79.2076 -1.85519 79.2256 -1.74626 79.2523C-1.63734 79.279 -1.56881 79.3139 -1.54466 79.355L-2.19048 79.5347C-1.98357 79.5785 -1.83006 79.5995 -1.69343 79.6264C-1.77084 79.6829 -1.90401 79.7413 -2.08261 79.7971C-2.2612 79.8529 -2.48042 79.9046 -2.72334 79.9483C-2.78847 79.9573 -2.85489 79.9639 -2.91873 79.9676C-2.98258 79.9714 -3.04254 79.9723 -3.09503 79.9702C-3.59518 79.9086 -4.18024 80.0174 -4.74846 80.1203C-5.31668 80.2232 -5.62515 80.2852 -6.04464 80.3653L-6.84731 80.376C-7.05045 80.4139 -7.23175 80.4585 -7.37666 80.5061C-7.52157 80.5538 -7.62604 80.6032 -7.68179 80.6505C-7.63851 80.7265 -7.25783 80.6848 -7.03094 80.6927C-6.49268 80.74 -5.78498 80.7299 -5.02523 80.6641C-4.83685 80.6398 -4.64371 80.6594 -4.4604 80.6617C-4.06497 80.6712 -3.68494 80.6866 -3.32206 80.7078C-3.08309 80.7276 -2.85976 80.7521 -2.65351 80.7811C-2.59842 80.8779 -3.46578 80.9526 -2.9735 81.0004C-3.14303 81.0222 -3.20655 81.0527 -3.2937 81.0417C-3.85214 81.1045 -4.40234 81.1355 -4.88051 81.1312C-5.79817 81.1179 -6.84017 81.162 -7.92117 81.2599C-9.08803 81.3613 -10.2073 81.4039 -11.1867 81.3841C-11.5598 81.383 -11.9767 81.4037 -12.4058 81.4448C-12.9125 81.5018 -13.4157 81.5376 -13.8827 81.5499C-14.0373 81.5503 -14.2096 81.56 -14.3855 81.5782C-14.5614 81.5963 -14.7359 81.6225 -14.8948 81.6544V81.6544C-14.8811 81.6786 -14.7296 81.6961 -14.7633 81.7079C-15.2466 81.8889 -15.4426 82.0773 -16.1865 82.2622C-16.6952 82.3278 -17.2791 82.403 -17.6117 82.3161C-17.9443 82.2292 -17.8251 82.1545 -17.1632 81.932C-17.3069 81.9288 -17.4799 81.9391 -17.652 81.9613C-17.8241 81.9835 -17.9845 82.0161 -18.1051 82.0534L-18.6775 82.2199L-19.1934 82.3791C-19.1482 82.4585 -19.1128 82.5207 -19.0754 82.5864C-19.0163 82.6561 -19.0812 82.741 -19.2607 82.8291C-19.3691 82.8772 -19.4634 82.9253 -19.5428 82.973C-19.8653 83.1637 -19.9587 83.344 -19.8125 83.4936C-19.5323 83.7087 -19.1422 83.9066 -18.6467 84.085C-18.1232 84.2586 -17.8367 84.4775 -17.4055 84.6667C-17.1855 84.7529 -16.9183 84.8301 -16.6068 84.8975C-16.0158 85.0476 -15.3684 85.1903 -14.7755 85.3439C-14.1826 85.4974 -13.5131 85.6076 -12.8547 85.7341C-11.8743 85.8843 -10.8146 86.014 -9.68145 86.1224C-8.98028 86.2175 -8.26027 86.3101 -7.61168 86.4194C-6.84563 86.5425 -5.94572 86.6309 -4.93435 86.6824C-4.04106 86.7441 -3.24295 86.8353 -2.55531 86.9543C-2.48318 86.9672 -2.42626 86.9836 -2.38611 87.003C-2.26229 87.1243 -1.9153 87.2098 -1.39817 87.2465C-1.42959 87.282 -1.46976 87.3181 -1.51851 87.3547C-1.59028 87.3983 -1.60524 87.4391 -1.56138 87.4718C-1.51752 87.5045 -1.41692 87.5276 -1.27258 87.5381C-0.858906 87.5682 -0.515088 87.6192 -0.256499 87.689C-0.161507 87.7065 -0.102613 87.732 -0.0847946 87.7633C-0.066976 87.7946 -0.090763 87.8307 -0.154192 87.8686C-0.210357 87.9077 -0.214493 87.9436 -0.166028 87.9717C-0.117562 87.9998 -0.0187347 88.0189 0.117643 88.0264C0.46779 88.0634 0.842695 88.0931 1.23997 88.1154C2.08534 88.1646 3.06861 88.164 4.13044 88.1137C4.24347 88.0991 4.35732 88.1215 4.48918 88.1045C5.24006 88.0481 5.93744 88.0394 6.49686 88.0794C7.15278 88.095 7.8385 88.0919 8.53013 88.0991C9.52935 88.0943 10.4511 88.1239 11.2697 88.1873C12.2053 88.1261 12.7311 88.2326 13.5208 88.2346C14.2499 88.2456 14.941 88.2718 15.5875 88.3131C16.6297 88.3679 17.668 88.4158 18.6953 88.48C19.659 88.5105 20.5463 88.569 21.3423 88.6543C21.6473 88.6928 22.1995 88.6328 22.4072 88.7135C22.615 88.7943 23.0342 88.7848 23.373 88.8116L24.4419 88.8778C24.6257 88.8935 24.8279 88.9035 25.0452 88.9075C26.0391 88.9129 26.7273 89.0208 27.6497 89.0428L27.744 89.0306C29.3818 89.191 31.2562 89.279 33.3118 89.292C34.5126 89.3412 35.8255 89.3389 37.0997 89.3749C37.4036 89.447 38.1214 89.3581 38.5026 89.424C38.8838 89.4898 39.5063 89.4466 39.9978 89.4575C40.4892 89.4683 40.9696 89.4954 41.4948 89.4944C41.9509 89.4947 42.336 89.5241 42.6152 89.5799C43.2523 89.6722 44.029 89.7264 44.9105 89.7402C46.0767 89.7642 47.1793 89.8186 48.3655 89.8067C48.3485 89.8739 48.4213 89.9311 48.5763 89.9724C48.7313 90.0137 48.963 90.0376 49.2474 90.0416C50.5157 90.0672 51.6658 90.1341 52.951 90.1539L53.2948 90.154L57.1384 90.1926C58.1739 90.2001 59.1716 90.2124 60.2279 90.2209C60.6235 90.1699 60.6331 90.2577 60.9066 90.2409C60.9831 90.1977 61.0734 90.1787 61.208 90.2021L61.2375 90.2539L65.624 90.3227C67.3414 90.3729 69.1479 90.388 71.0282 90.3678C71.4743 90.3729 71.8907 90.39 72.2706 90.419C72.6228 90.4296 72.9901 90.4343 73.3704 90.433C73.8847 90.42 74.3871 90.4134 74.8757 90.4133C76.1608 90.4331 77.5095 90.4224 78.9167 90.4079C80.3238 90.3934 81.3899 90.4192 82.6424 90.4172C83.4907 90.4154 84.3349 90.4067 85.213 90.3862C85.6322 90.3767 86.1487 90.325 86.5828 90.3061C87.0169 90.2872 87.1586 90.2875 87.2159 90.3172C87.4048 90.4004 87.8797 90.3466 88.2593 90.3385C88.9995 90.3246 89.1047 90.2962 89.3057 90.0812L88.3974 90.0128C88.1748 89.9908 87.8948 89.9869 87.5844 90.0016C87.274 90.0163 86.9436 90.049 86.6252 90.0966C86.4999 90.1171 86.3689 90.1332 86.2398 90.1441C86.1107 90.155 85.986 90.1605 85.8729 90.1602C84.9564 90.1486 84.0527 90.1241 83.1719 90.1042L83.0431 90.0911L83.0351 89.8993C83.1516 89.8805 83.2724 89.8649 83.3929 89.8532L87.8109 89.7287C88.8247 89.6982 89.8774 89.6292 90.8724 89.6011C91.8674 89.573 92.4035 89.5558 93.1756 89.5267C93.5014 89.5102 93.8335 89.4884 94.1697 89.4616C94.1502 89.4432 94.139 89.4235 94.1362 89.4029C94.1185 89.3718 94.095 89.3304 94.2378 89.2971C94.3936 89.2502 94.6019 89.2101 94.8209 89.1849C95.0267 89.1682 95.2262 89.1588 95.4116 89.1569C96.3076 89.1409 97.3311 89.0395 98.2636 88.8746L98.5892 88.9847C99.9896 88.9228 101.411 88.862 102.874 88.8033C103.167 88.7873 103.474 88.7565 103.773 88.7133C104.093 88.6721 104.388 88.5859 104.725 88.5387C105.058 88.5048 105.389 88.4783 105.711 88.4598C105.624 88.4315 105.509 88.4088 105.369 88.3926C105.232 88.3869 105.133 88.3692 105.084 88.342C105.036 88.3149 105.042 88.2798 105.102 88.2417C105.206 88.1763 105.252 88.1148 105.025 88.1069C104.815 88.092 104.665 88.0598 104.593 88.0139C104.52 87.9681 104.528 87.9106 104.615 87.8483C104.653 87.8118 104.68 87.7761 104.695 87.7415V87.7415L104.79 87.7293C105.1 87.6003 105.721 87.5537 106.166 87.448C106.376 87.4174 106.594 87.3998 106.785 87.398C107.277 87.3753 107.757 87.3654 108.266 87.3368C108.51 87.3236 108.764 87.2997 109.015 87.2663C109.373 87.2201 109.41 87.2153 109.618 87.0476C109.295 87.0505 109.04 87.0254 108.894 86.9766C108.748 86.9279 108.722 86.8583 108.819 86.7798C109.085 86.6082 109.366 86.4274 110.57 86.3055C110.178 86.2995 109.8 86.2875 109.438 86.2697C109.333 86.2659 109.254 86.2533 109.212 86.2336C109.17 86.2139 109.168 86.1881 109.204 86.1596C109.241 86.1311 109.315 86.1013 109.417 86.0741C109.519 86.0469 109.643 86.0238 109.774 86.0076C110.41 85.9106 111.073 85.8456 111.689 85.8201C112.209 85.8088 112.677 85.8151 113.284 85.8148L114 85.7226C113.988 85.7018 114.093 85.6735 114.066 85.6621C113.884 85.5557 113.684 85.4518 113.477 85.3375C113.807 85.2758 114.093 85.2013 114.302 85.1225C114.511 85.0437 114.635 84.9639 114.659 84.8921C114.677 84.8705 114.672 84.8508 114.645 84.8344C114.618 84.8179 114.57 84.8053 114.504 84.7972C114.315 84.7833 114.17 84.7568 114.079 84.7197C113.987 84.6826 113.953 84.6359 113.977 84.5832L114.534 84.389C116.21 84.2505 117.856 84.1515 119.441 84.094L120.872 84.0504C121.045 83.9985 120.992 83.9757 120.829 83.9744C120.667 83.9731 120.21 83.9875 119.891 83.9953C119.615 84.0054 119.37 83.9988 119.18 83.9758C118.99 83.9529 118.861 83.9146 118.805 83.8645L119.286 83.6431C119.262 83.6016 119.229 83.5429 118.968 83.5468C118.79 83.542 118.659 83.5211 118.596 83.4875C118.533 83.454 118.541 83.4096 118.62 83.3617C118.632 83.327 118.614 83.2955 118.567 83.2684C118.181 83.2662 117.798 83.2674 117.448 83.2569C117.285 83.2534 117.148 83.2405 117.045 83.2192C116.942 83.1979 116.876 83.1687 116.852 83.1334C116.84 83.099 116.87 83.0599 116.942 83.0191C117.014 82.9783 117.124 82.937 117.264 82.8986C117.813 82.8511 118.314 82.8504 118.659 82.8969C118.782 82.9333 118.979 82.9532 119.225 82.9539C119.471 82.9547 119.754 82.9362 120.036 82.9011C120.359 82.8605 120.682 82.8427 120.946 82.8508C121.21 82.8589 121.398 82.8924 121.477 82.9453C121.809 82.9248 122.103 82.9091 122.393 82.8865C122.736 82.8579 123.06 82.8495 123.33 82.8622C123.762 82.8711 124.228 82.8659 124.716 82.8466C126.125 82.7986 127.535 82.7541 128.898 82.7341C129.259 82.7283 129.571 82.7437 129.928 82.7311C130.285 82.7185 130.567 82.7526 131.013 82.684C131.098 82.6733 131.184 82.6664 131.263 82.6639C131.342 82.6615 131.413 82.6634 131.47 82.6696C132.254 82.7239 133.172 82.7315 134.172 82.6921C135.542 82.6825 136.962 82.6552 138.333 82.649C138.735 82.6543 139.116 82.6686 139.47 82.6917C139.739 82.7056 140.021 82.7151 140.315 82.72C140.54 82.7243 140.755 82.7114 140.717 82.7868C140.679 82.8622 141.016 82.815 141.21 82.8011C141.878 82.7645 142.56 82.7151 143.249 82.6532C143.928 82.586 144.594 82.5469 145.206 82.5383C145.648 82.5332 146.103 82.5523 146.671 82.4494C146.65 82.4114 146.628 82.3734 146.505 82.3337C146.968 82.2245 147.497 82.1306 148.047 82.0597C148.597 81.9887 149.153 81.9428 149.669 81.9258L150.381 81.7192C150.556 81.6949 150.734 81.6772 150.906 81.6672C151.078 81.6572 151.238 81.6551 151.379 81.661C151.487 81.664 151.619 81.6563 151.751 81.6393C151.882 81.6224 152.004 81.5973 152.094 81.5687C152.23 81.5323 152.395 81.5009 152.569 81.4785C152.743 81.456 152.919 81.4435 153.074 81.4424C153.563 81.42 154.084 81.3681 154.586 81.2921C154.716 81.2475 154.797 81.2015 154.82 81.1597C154.843 81.1178 154.806 81.082 154.715 81.0567C154.566 81.0119 154.483 80.9548 154.47 80.889C154.457 80.8231 154.514 80.7498 154.638 80.6734C154.701 80.6266 154.722 80.5822 154.7 80.543C154.678 80.5038 154.612 80.4706 154.508 80.4454C154.118 80.3288 154.222 80.2634 154.86 80.0699C154.964 80.0377 155.089 80.0075 155.227 79.9814C155.365 79.9553 155.514 79.9338 155.664 79.9182C156.014 79.8867 156.361 79.8632 156.695 79.8482C156.884 79.824 157.077 79.8436 157.294 79.8341C158.379 79.7869 158.538 79.7108 158.89 79.5469L159.146 79.4285C159.621 79.3327 160.14 79.2531 160.667 79.1955C161.194 79.1379 161.714 79.1037 162.191 79.0953C162.381 79.0947 162.599 79.0783 162.812 79.0487C163.505 78.9582 164.206 78.8955 164.871 78.8649C165.284 78.8477 165.731 78.8031 166.155 78.7365C166.58 78.6699 166.966 78.5841 167.265 78.4895C167.534 78.4043 167.887 78.3277 168.273 78.2706C168.725 78.2123 168.767 78.1439 168.514 78.0911C168.262 78.0384 167.839 77.9705 167.464 77.915C167.333 77.8962 167.252 77.8655 167.23 77.8265C167.208 77.7875 167.245 77.7416 167.338 77.6939C167.397 77.6124 167.408 77.5351 167.369 77.4637C167.348 77.4341 167.362 77.4001 167.411 77.3641C167.46 77.3281 167.542 77.2908 167.652 77.2549C167.762 77.2189 167.897 77.1851 168.048 77.1557C168.199 77.1263 168.362 77.102 168.528 77.0844C169.225 76.9946 169.903 76.9072 170.613 76.8415C170.911 76.8106 171.209 76.7722 171.499 76.7274C172.092 76.6165 172.727 76.5246 173.367 76.4569C173.67 76.4267 173.967 76.3738 174.193 76.3097C174.905 76.137 175.561 75.9554 176.149 75.7682C176.291 75.7102 176.476 75.6535 176.694 75.6019C176.912 75.5502 177.157 75.5046 177.414 75.468C177.621 75.4413 177.79 75.3825 177.949 75.3433C178.065 75.2527 178.078 75.1689 177.985 75.0997C177.893 75.0306 177.699 74.9783 177.421 74.9479C177.157 74.9114 176.911 74.869 176.683 74.8242C176.409 74.7879 176.082 74.7662 175.716 74.7597C175.283 74.7402 174.962 74.6846 174.796 74.6001C175.983 74.4471 177.112 74.2275 178.152 74.2788L178.942 74.1399C178.911 74.0846 178.883 74.0362 178.858 73.9913C178.67 73.9096 178.611 73.8064 178.687 73.6907C178.749 73.6347 178.743 73.5838 178.67 73.5431C178.597 73.5023 178.46 73.4732 178.271 73.4587C177.155 73.3096 175.865 73.2089 174.818 73.0398C174.49 73.008 174.105 72.9936 173.681 72.9971C173.271 72.9869 173.288 72.9105 173.76 72.8163C174.025 72.7671 174.296 72.7199 174.57 72.6749C175.779 72.6674 176.271 72.8932 177.651 72.8304L178.29 72.5328C178.463 72.5282 178.631 72.5264 178.793 72.5274L181.106 72.6483C181.298 72.6544 181.448 72.675 181.539 72.708C181.629 72.7409 181.656 72.7848 181.616 72.8347C181.601 72.8957 181.633 72.9516 181.711 73.0005C181.761 73.0348 181.729 73.0802 181.621 73.1271C181.378 73.2326 181.69 73.248 181.887 73.2745C181.937 73.2771 181.995 73.2768 182.058 73.2737C182.12 73.2706 182.186 73.2646 182.251 73.2563C182.315 73.2479 182.378 73.2373 182.436 73.225C182.493 73.2127 182.543 73.199 182.584 73.1847C182.931 73.0843 183.235 72.9784 183.576 72.8676C183.334 72.7616 183.619 72.5877 183.241 72.4918C183.199 72.4726 183.182 72.4493 183.191 72.4232C183.201 72.3971 183.236 72.3688 183.296 72.34C183.45 72.2658 183.523 72.1934 183.509 72.1302C183.494 72.067 183.392 72.0152 183.212 71.98L183.191 71.942C183.664 71.8142 183.538 71.7006 183.724 71.5654L184.18 71.477C185.312 71.2643 185.314 71.2677 186.289 71.2756C186.486 71.1946 186.236 71.1823 186.049 71.1731L184.48 71.0822C183.455 71.0215 182.4 70.9795 181.255 70.9566C180.109 70.9336 178.832 70.8572 177.648 70.8021C177.588 70.7978 177.543 70.7894 177.515 70.7775C177.487 70.7656 177.478 70.7506 177.488 70.7338C177.535 70.7155 177.597 70.6979 177.668 70.6823C177.74 70.6666 177.82 70.6533 177.902 70.6434C178.278 70.5948 178.665 70.5635 179.066 70.5229L179.815 70.4524L180.045 70.3596C180.195 70.3032 180.297 70.2344 180.497 70.1939C180.661 70.1637 180.839 70.1407 181.013 70.1274C181.187 70.1142 181.35 70.1111 181.485 70.1184C181.859 70.1369 182.198 70.1637 182.556 70.1881C182.913 70.2124 183.111 70.2389 183.421 70.2509C184.051 70.2563 184.66 70.2707 185.245 70.2939C185.738 70.3489 186.193 70.414 186.609 70.4889C186.869 70.5185 187.112 70.5539 187.555 70.5154C187.765 70.4804 187.946 70.4344 188.066 70.3857C188.187 70.3369 188.238 70.2885 188.212 70.249C188.188 70.218 188.121 70.1935 188.016 70.1777C187.912 70.162 187.773 70.1556 187.615 70.159C187.17 70.1533 186.758 70.1342 186.389 70.1019C185.875 70.0435 185.249 70.0183 184.547 70.0278C184.309 70.0362 184.15 70.0048 183.942 69.9946C183.734 69.9843 183.558 69.9588 183.326 69.9776C182.605 70.026 182.26 69.9518 181.828 69.9036C181.682 69.8823 181.591 69.8478 181.566 69.8039C181.541 69.76 181.583 69.7084 181.686 69.6549C181.885 69.5483 182.129 69.441 182.414 69.3349C182.56 69.2827 182.748 69.2332 182.962 69.1901C183.176 69.1471 183.411 69.1117 183.647 69.0868C183.789 69.0215 183.865 68.9573 183.868 68.9C183.87 68.8427 183.8 68.794 183.663 68.7585C183.313 68.6775 183.003 68.595 182.22 68.6403C181.852 68.6576 181.506 68.6609 181.195 68.6502C180.505 68.6354 179.709 68.6677 178.883 68.7442C178.669 68.7638 178.459 68.7772 178.258 68.7839C176.829 68.8309 175.467 68.8544 174.102 68.8709C173.379 68.8789 172.649 68.8765 171.894 68.8996C170.123 68.9499 168.511 68.9241 166.802 68.9404C165.906 68.9488 165.105 68.915 164.44 68.8406C164.31 68.8157 164.199 68.7866 164.107 68.7537C164.548 68.6673 165.032 68.5989 165.514 68.5551C165.995 68.5112 166.457 68.4934 166.856 68.5032C167.075 68.5274 167.359 68.5318 167.674 68.516C167.99 68.5002 168.326 68.4647 168.645 68.4136V68.4136L167.719 68.3846C167.104 68.3711 166.475 68.3669 165.878 68.3475C164.928 68.3141 164.049 68.2606 163.066 68.2389C162.272 68.219 161.562 68.1681 160.958 68.0879C160.521 68.0293 160.023 67.9878 159.472 67.9642C159.081 67.9516 159.081 67.9516 158.83 67.8318C159.029 67.7543 159.286 67.7434 159.527 67.7419C160.977 67.6932 162.356 67.6846 163.638 67.7165C164.284 67.7193 164.858 67.7522 165.331 67.8135C165.447 67.8393 165.743 67.8271 165.981 67.8187C166.726 67.8059 167.439 67.8096 168.11 67.8298C169.038 67.8634 170.072 67.8554 171.17 67.8062C171.379 67.7459 171.139 67.7509 171.127 67.7302C170.276 67.6915 169.442 67.647 168.574 67.6142C168.337 67.6026 168.083 67.5968 167.816 67.597C166.819 67.6173 165.988 67.561 165.439 67.436C165.412 67.3877 165.051 67.3934 164.892 67.362C164.813 67.3348 164.761 67.3029 164.737 67.267C164.969 67.1778 165.231 67.1773 165.434 67.1772C166.02 67.1871 166.584 67.206 167.124 67.2338C167.625 67.2601 168.18 67.2672 168.774 67.2547C169.212 67.2428 169.586 67.2613 170.028 67.2562C170.268 67.2456 170.516 67.2285 170.768 67.2054C170.487 67.1432 170.107 67.1049 169.652 67.0933C169.308 67.0561 168.877 67.0449 168.821 66.9482C168.984 66.879 169.166 66.8779 169.311 66.885C169.614 66.8848 169.907 66.8891 170.188 66.8981C170.784 66.9178 171.429 66.918 172.11 66.8989C172.468 66.8918 172.808 66.8939 173.124 66.9053C173.841 66.9205 174.527 66.9544 175.183 66.97C176.527 66.986 177.752 67.0431 179.043 67.0732C179.33 67.0807 179.588 67.1068 179.967 67.0617C180.345 67.0166 180.362 67.0107 180.407 66.9827C180.513 66.936 180.545 66.8907 180.497 66.8562C180.422 66.824 180.275 66.8061 180.084 66.8056C178.93 66.7543 177.835 66.6824 176.807 66.5901C176.354 66.5717 175.958 66.534 175.631 66.4784C175.372 66.4401 175.065 66.4147 174.719 66.4031C174.216 66.3754 173.691 66.3552 173.147 66.3424C172.894 66.3355 172.679 66.315 172.515 66.2821C172.35 66.2491 172.239 66.2045 172.189 66.1507L172.856 65.972C172.96 65.9637 173.064 65.9565 173.167 65.9505L178.699 66.0791L179.247 66.0827C179.848 66.072 179.995 66.0457 180.564 65.8387C179.264 65.7901 178.242 65.6482 177.6 65.4272C177.755 65.4034 177.913 65.383 178.071 65.3665C179.11 65.3142 180.092 65.3003 180.98 65.3253C181.507 65.3279 182.049 65.321 182.593 65.3177C182.434 65.2158 181.824 65.2462 181.427 65.2232C180.478 65.1872 179.638 65.113 178.936 65.0029C178.694 64.9599 178.39 64.9324 178.04 64.9217C177.69 64.918 177.397 64.892 177.188 64.846C176.979 64.8 176.859 64.7353 176.839 64.6576C176.806 64.5872 176.734 64.5218 176.626 64.4624C176.818 64.3781 177.121 64.2974 177.481 64.2353C177.84 64.1733 178.23 64.1343 178.578 64.1256C179.32 64.0909 180.09 64.034 180.867 63.9565C181.255 63.9174 181.635 63.895 181.983 63.8907C182.289 63.8874 182.638 63.8591 182.975 63.8103C183.312 63.7615 183.62 63.6947 183.851 63.6202C184.162 63.5282 184.453 63.435 184.744 63.3419C185.034 63.2488 185.372 63.1312 185.711 63.017C186.01 62.9991 186.302 62.9876 186.581 62.9827C186.799 62.9869 187.052 62.9744 187.313 62.9468C187.573 62.9192 187.828 62.8776 188.049 62.8268V62.8268C187.92 62.7768 187.773 62.7326 187.619 62.6746C187.831 62.5981 187.984 62.52 188.07 62.4451C188.156 62.3703 188.173 62.3002 188.119 62.2393C188.088 62.184 188.318 62.0913 188.398 62.018C188.5 61.9548 188.519 61.8958 188.453 61.8488C188.386 61.8018 188.237 61.7689 188.025 61.7545C187.762 61.7279 187.548 61.6878 187.391 61.6359C187.34 61.6224 187.313 61.604 187.315 61.5822C187.316 61.5605 187.346 61.5362 187.4 61.5114C187.454 61.4867 187.532 61.4624 187.626 61.4408C187.72 61.4191 187.827 61.4008 187.937 61.3875C188.276 61.3497 188.613 61.3253 188.928 61.3155C189.47 61.2975 189.989 61.2862 190.486 61.2816C191.034 61.2746 191.645 61.2318 192.255 61.1573C192.801 61.0869 193.291 61.0238 193.558 60.8892C193.825 60.7547 194.252 60.759 194.581 60.661C194.396 60.5727 194.068 60.5113 193.63 60.4831C193.343 60.4731 193.104 60.4466 192.927 60.4055C192.751 60.3644 192.641 60.3096 192.604 60.2445L193.601 59.9713C194.398 59.8427 194.838 59.9417 195.699 59.8902L194.812 59.7893C194.794 59.7794 194.788 59.7676 194.792 59.7548C194.878 59.5508 195.015 59.5072 195.922 59.3941L196.43 59.3286L197.235 59.2508C197.364 59.209 197.453 59.1654 197.494 59.1244C197.534 59.0834 197.525 59.0463 197.466 59.017C197.348 58.9678 197.312 58.9048 197.362 58.8339C197.44 58.787 197.446 58.7437 197.38 58.7116C197.314 58.6795 197.179 58.6606 196.999 58.6582C196.855 58.6545 196.844 58.6002 196.766 58.5695C196.689 58.5272 196.556 58.4947 196.377 58.4742C196.197 58.4538 195.976 58.4459 195.728 58.4511C194.997 58.4553 194.31 58.4394 193.679 58.4037L193.792 58.3891C193.135 58.4205 192.521 58.4243 191.979 58.4004C191.436 58.3702 190.739 58.3896 190.163 58.3712C189.693 58.3754 189.336 58.3337 189.166 58.2548C189.002 58.1796 188.406 58.1971 187.949 58.2115C187.678 58.2208 187.417 58.2248 187.167 58.2233C186.832 58.2063 186.413 58.2223 185.979 58.2688C185.85 58.2831 185.722 58.2906 185.608 58.2908C184.507 58.3103 183.408 58.3333 182.322 58.3435C182.071 58.3376 181.777 58.351 181.474 58.3822C181.347 58.3958 181.223 58.4014 181.12 58.3983C179.403 58.3673 177.467 58.4464 175.784 58.4036C175.581 58.3935 175.355 58.3914 175.114 58.3974C174.572 58.4225 174.101 58.4063 173.773 58.3514C173.596 58.3221 173.369 58.306 173.107 58.3041C172.845 58.3021 172.553 58.3143 172.25 58.34C171.746 58.374 171.28 58.3776 170.902 58.3507C170.163 58.3257 169.387 58.3155 168.579 58.32C168.331 58.3243 168.114 58.3146 167.943 58.2917C167.772 58.2687 167.652 58.233 167.594 58.1874C167.792 58.1099 168.009 58.1005 168.215 58.1073C169.014 58.0896 169.811 58.0685 170.595 58.0602C171.296 58.0364 171.969 58.0291 172.604 58.0385C172.919 58.049 173.313 58.025 173.698 57.9716C174.171 57.904 174.658 57.8704 175.06 57.8776C175.359 57.8794 175.674 57.8736 176.001 57.8602C176.21 57.8441 176.425 57.8165 176.622 57.7801C176.701 57.7643 176.786 57.751 176.873 57.7411C176.96 57.7312 177.046 57.7249 177.127 57.7225C177.207 57.7202 177.28 57.7219 177.341 57.7275C177.401 57.7331 177.448 57.7425 177.478 57.7552C177.78 57.8608 178.457 57.8069 179.037 57.7952C179.906 57.6165 180.553 57.7223 181.365 57.6213C181.429 57.6146 181.492 57.6106 181.55 57.6094C181.609 57.6082 181.661 57.61 181.704 57.6146C183.276 57.6753 185.107 57.6247 186.757 57.6457C186.939 57.6487 187.15 57.6382 187.367 57.6153C188.781 57.4637 190.141 57.4207 191.18 57.4946C191.307 57.5013 191.45 57.5016 191.605 57.4955C192.316 57.4352 192.995 57.4112 193.587 57.4254C194.515 57.4208 195.407 57.4245 196.349 57.4106C196.999 57.3908 197.568 57.4119 198.002 57.472C198.015 57.4962 198.304 57.4701 198.525 57.4676C198.652 57.4067 198.762 57.3517 198.893 57.2977C199.01 57.231 199.186 57.1634 199.408 57.0996C199.629 57.0358 199.892 56.9773 200.179 56.928C200.669 56.8649 200.718 56.7733 200.375 56.7396C199.492 56.6281 198.381 56.5825 197.124 56.606C196.074 56.6079 195.005 56.6122 193.939 56.6235C193.318 56.6331 192.663 56.6545 192.059 56.6582C191.855 56.6664 191.645 56.6786 191.432 56.6945C191.171 56.7175 190.917 56.7301 190.685 56.7314C189.939 56.712 189.106 56.7289 188.226 56.7814C187.904 56.7928 187.595 56.7966 187.303 56.7929C186.612 56.7786 185.863 56.7891 185.076 56.824C184.587 56.8437 184.112 56.8539 183.658 56.8547C183.497 56.8569 183.366 56.8404 183.212 56.8529C181.851 56.9838 180.887 56.8892 179.662 56.9396C179.067 56.9536 178.498 56.9537 177.964 56.9397C176.921 56.9404 175.849 56.9547 174.753 56.9827C173.303 57.0287 171.959 57.0127 170.575 57.0317C170.302 57.0357 170.038 57.035 169.785 57.0297C168.557 56.9943 167.222 57.0018 165.815 57.052C165.495 57.0592 165.208 57.0503 164.971 57.026C164.735 57.0016 164.554 56.9622 164.44 56.9102C164.392 56.8746 164.423 56.8283 164.528 56.7802C164.701 56.7189 164.898 56.6588 165.113 56.6009L172.949 56.4068C173.278 56.3966 173.599 56.3912 173.91 56.3904C174.825 56.3887 175.769 56.3736 176.735 56.3452C177.691 56.3185 178.603 56.3232 179.529 56.3152C179.802 56.3125 180.081 56.3061 180.367 56.2961C182.3 56.2169 184.184 56.1686 186.007 56.1514C186.774 56.1489 187.603 56.1126 188.385 56.1008C189.166 56.089 190.236 56.0847 191.163 56.0801L194.035 56.0808C194.6 56.0785 195.15 56.0855 195.698 56.089C196.362 55.8364 196.592 55.7772 197.479 55.6665C197.783 55.6257 198.091 55.6014 198.369 55.5963C199.25 55.6163 200.355 55.5332 201.19 55.5442C201.694 55.5387 202.122 55.5668 202.43 55.6255C202.697 55.6715 203.002 55.708 203.341 55.7342C204.269 55.5182 204.351 55.3778 203.653 55.3232C203.464 55.3105 203.203 55.3144 203.066 55.2875C202.988 55.2712 202.881 55.2618 202.754 55.2602C202.626 55.2586 202.482 55.2647 202.333 55.2782C201.862 55.3136 201.42 55.3219 201.053 55.3023C200.707 55.2764 200.282 55.2775 199.821 55.3053C199.482 55.349 199.184 55.2873 198.891 55.2695C198.597 55.2517 198.357 55.2196 197.899 55.2675C197.815 55.2771 197.732 55.2828 197.655 55.2843C197.579 55.2858 197.512 55.2829 197.459 55.276C196.967 55.2452 196.38 55.2484 195.745 55.2855C194.772 55.322 193.859 55.3234 193.038 55.2896C192.547 55.26 192.128 55.2076 191.797 55.1343C191.707 55.1098 191.574 55.0951 191.409 55.0916C190.583 55.1069 189.686 55.1644 188.776 55.2605C188.433 55.299 188.09 55.3294 187.755 55.3512C187.068 55.3995 186.402 55.4266 185.779 55.4316C184.874 55.4324 183.931 55.451 182.96 55.4872C182.36 55.5074 181.783 55.5148 181.234 55.5095C180.669 55.5069 180.067 55.5223 179.44 55.5553C178.816 55.5821 178.267 55.5666 177.858 55.5107C177.723 55.4806 177.614 55.4449 177.534 55.4041C178.447 55.2715 179.391 55.2041 180.177 55.2155C180.475 55.2068 180.723 55.2156 181.037 55.164L181.047 55.1812C181.109 55.1925 181.204 55.1951 181.312 55.1887C181.42 55.1823 181.535 55.1672 181.634 55.1464V55.1464C181.596 55.0808 181.561 55.0186 181.535 54.9737C180.937 54.9816 180.356 54.9809 179.795 54.9717C179.322 54.9585 178.681 55.0746 178.272 55.0309C177.474 55.0855 176.966 55.0101 176.25 55.0318C175.535 55.0536 174.747 55.1255 174.031 55.1473C173.407 55.1592 172.801 55.1618 172.216 55.1551C172.014 55.1456 171.781 55.1478 171.532 55.1616C171.182 55.1876 170.856 55.192 170.592 55.1742C170.328 55.1564 170.136 55.1172 170.039 55.0611C170.131 55.0085 170.254 54.9407 170.396 54.8705C170.135 54.8128 169.738 54.7885 169.264 54.8012L168.596 54.7984C168.418 54.7999 168.283 54.7843 168.217 54.7548C168.151 54.7254 168.16 54.6842 168.242 54.64C169.511 54.4171 169.557 54.3926 170.488 54.5359L171.724 54.4693L171.703 54.4683ZM154.986 55.0804L155.08 55.0682L154.986 55.0804ZM0.962709 78.7871L0.98435 78.8251L0.960741 78.7836L0.753558 78.8103L0.739786 78.7861L0.962709 78.7871ZM31.0477 62.1295C31.3406 62.088 31.6363 62.0499 31.9331 62.0154C32.0108 62.01 32.0835 62.0088 32.1451 62.0118C32.2067 62.0149 32.2553 62.0221 32.2868 62.0328C32.3104 62.0743 32.1448 62.103 31.9941 62.1225C31.804 62.1486 31.6099 62.1652 31.4317 62.1706C31.2535 62.176 31.0976 62.1699 30.9802 62.153L30.8099 62.1379L31.0477 62.1295ZM181.901 72.2343C181.708 72.2412 181.526 72.2424 181.357 72.2376C180.61 72.2041 179.895 72.1554 179.129 72.1243C178.163 72.0454 177.052 72.0133 175.84 72.0291C175.366 72.0369 174.966 72.0113 174.686 71.9554C174.518 71.9254 174.302 71.9078 174.05 71.9038L170.843 71.8127C170.645 71.7938 170.474 71.7673 170.333 71.7339C170.616 71.6974 170.804 71.6732 170.917 71.6586C171.152 71.6545 171.353 71.6656 171.502 71.6908C171.661 71.7335 171.931 71.7504 172.257 71.7381C172.586 71.728 172.907 71.7225 173.218 71.7218C173.806 71.7239 174.397 71.7329 174.987 71.7385C175.216 71.8573 175.893 71.8034 176.473 71.7917L176.921 71.7971C178.385 71.8586 179.783 71.9433 181.109 72.0508C181.366 72.069 181.586 72.098 181.765 72.1369C181.832 72.1672 181.854 72.2051 181.828 72.2474L181.922 72.2353L181.901 72.2343ZM116.526 83.5908C116.171 83.5989 115.801 83.6155 115.422 83.6404C115.13 83.6658 114.845 83.6813 114.579 83.6861C113.086 83.7127 111.53 83.7742 109.932 83.8697C109.723 83.8842 109.522 83.8913 109.337 83.8908L108.029 83.8665C107.617 83.8529 107.609 83.8391 107.909 83.6557C108.158 83.6202 108.41 83.5877 108.663 83.5586C108.813 83.5392 109.058 83.5076 109.115 83.5373C109.465 83.6184 110.102 83.5659 110.638 83.5487C112.19 83.5044 113.791 83.439 115.358 83.3854C115.689 83.3723 116.01 83.3657 116.317 83.3656C116.508 83.3628 116.682 83.368 116.831 83.3809C116.875 83.3822 116.912 83.386 116.939 83.3921C116.966 83.3982 116.983 83.4065 116.988 83.4163C116.994 83.4261 116.988 83.4372 116.971 83.449C116.954 83.4608 116.927 83.4729 116.89 83.4845C116.762 83.5253 116.614 83.5644 116.451 83.6005L116.526 83.5908ZM105.157 56.9863L103.629 56.9645C103.445 56.9622 103.29 56.9377 103.094 56.9482C102.047 56.9813 101.077 56.9721 100.227 56.9209C99.9373 56.9 99.5985 56.8958 99.2291 56.9086C98.0981 56.9464 97.0312 56.948 96.0572 56.9132C95.4277 56.9062 94.8386 56.8828 94.2986 56.8432C94.257 56.834 94.2311 56.8215 94.2226 56.8066C94.2142 56.7917 94.2233 56.7747 94.2494 56.7568C94.2562 56.7455 94.2747 56.7333 94.3037 56.7211C94.3326 56.7089 94.3713 56.697 94.417 56.6862C94.4627 56.6754 94.5144 56.6659 94.5685 56.6584C94.6226 56.6509 94.6779 56.6456 94.7305 56.6429C95.4127 56.5893 96.0603 56.5707 96.6204 56.5884C97.1397 56.6097 97.6989 56.6159 98.289 56.607C98.8539 56.6046 99.237 56.6739 99.9349 56.621C100.23 56.6036 100.49 56.6094 100.672 56.6373C101.038 56.6835 101.548 56.6861 102.112 56.6445C102.449 56.6235 102.772 56.6145 103.067 56.6178C103.784 56.633 104.468 56.6635 105.132 56.6929C105.341 56.6997 105.565 56.7006 105.801 56.6957L109.124 56.6381C109.923 56.6204 110.72 56.5993 111.504 56.591C112.145 56.5729 112.741 56.5786 113.273 56.6078C113.839 56.6384 114.456 56.6509 115.114 56.6449C116.134 56.6617 117.149 56.6681 118.26 56.6658C118.968 56.6672 119.693 56.6627 120.434 56.6489C120.808 56.6311 121.126 56.6456 121.326 56.6896C121.448 56.7258 121.735 56.6963 121.972 56.6879C123.241 56.6069 124.431 56.5877 125.459 56.6317C125.59 56.6388 125.734 56.6414 125.888 56.6394C126.878 56.6379 127.903 56.6281 128.854 56.628C129.104 56.6314 129.339 56.6407 129.557 56.656C129.534 56.6808 129.467 56.7077 129.371 56.7311C129.275 56.7545 129.158 56.7726 129.042 56.7817C128.143 56.851 127.276 56.8876 126.475 56.89C125.143 56.8812 123.748 56.901 122.303 56.9494C121.183 56.9981 120.161 56.9878 119.314 56.9194C118.652 56.8682 117.791 56.8875 116.878 56.9737C116.487 57.0149 116.108 57.0314 115.793 57.0209C115.489 57.0071 115.14 57.0105 114.767 57.0307C113.98 57.0693 113.224 57.0871 112.513 57.084C111.817 57.0698 111.168 57.0311 110.454 57.0193C109.739 57.0076 108.651 57.0143 107.77 56.9943C106.89 56.9744 106.019 56.9717 105.157 56.9863ZM168.509 54.9654C168.428 55.0722 168.142 55.1387 167.835 55.1672C166.776 55.2937 165.728 55.3475 164.869 55.3196C164.404 55.2807 163.785 55.2957 163.133 55.3616C162.374 55.43 161.665 55.4414 161.13 55.3936C160.999 55.3853 160.898 55.3676 160.837 55.3423C160.826 55.3215 160.804 55.2835 160.8 55.2766C160.856 55.2591 160.925 55.2429 161.002 55.2292C161.078 55.2155 161.16 55.2047 161.24 55.1976L164.75 55.0753L165.361 55.0484C166.478 54.9779 167.543 54.9499 168.509 54.9654V54.9654ZM161.606 56.6562C161.058 56.8306 161.056 56.8272 160.776 56.867C159.422 57.0327 158.069 57.1221 156.878 57.1246C156.614 57.1241 156.389 57.1073 156.224 57.0755C156.138 57.0712 156.084 57.0576 156.073 57.0375C156.061 57.0174 156.094 56.9926 156.163 56.9684L156.598 56.8455C157.389 56.7923 158.169 56.7501 158.932 56.719C159.821 56.6823 160.609 56.6809 161.531 56.6659L161.606 56.6562ZM116.592 82.8184C116.082 83.0585 116.08 83.055 115.225 83.1169C114.63 83.1608 114.052 83.1866 113.51 83.1934C112.847 83.201 112.167 83.2145 111.506 83.2255C111.344 83.2332 111.208 83.2268 111.122 83.2077C111.036 83.1886 111.008 83.158 111.043 83.122C111.129 83.083 111.265 83.0452 111.428 83.0148C111.59 82.9844 111.77 82.9632 111.938 82.9547L112.299 82.949C112.737 82.937 113.192 82.9192 113.615 82.9166C113.889 82.9265 114.207 82.9188 114.544 82.8941C114.881 82.8693 115.227 82.8282 115.556 82.7739L116.592 82.8184ZM158.881 55.2793C158.744 55.3209 158.59 55.3607 158.422 55.3977C157.772 55.5003 157.084 55.5585 156.493 55.561C156.214 55.5674 155.958 55.5447 155.674 55.5777C155.164 55.6217 154.669 55.6452 154.217 55.6468C154.217 55.6468 154.09 55.6372 154.049 55.6351L153.962 55.4831C154.176 55.4479 154.399 55.4191 154.621 55.3981C155.367 55.3577 156.099 55.33 156.829 55.2989C157.56 55.2678 157.815 55.2535 158.292 55.2402C158.505 55.2475 158.702 55.2606 158.881 55.2793ZM175.021 74.178L174.046 74.4892C173.73 74.5162 173.435 74.5211 173.206 74.5031C172.977 74.4852 172.826 74.4453 172.776 74.3896C172.696 74.3635 172.688 74.3249 172.753 74.2818C172.819 74.2387 172.954 74.1946 173.13 74.1585C173.298 74.1159 173.491 74.0776 173.696 74.0461C173.9 74.0146 174.113 73.9906 174.319 73.9755L175.021 74.178ZM166.9 72.6288C167.538 72.5761 168.148 72.5545 168.684 72.5658C169.022 72.5966 169.479 72.5868 169.962 72.5382C170.842 72.4414 171.689 72.4146 172.326 72.4635C172.326 72.4635 172.35 72.5049 172.458 72.517C172.566 72.529 172.137 72.5583 172.043 72.5704C171.352 72.6001 170.658 72.6229 170.057 72.6335C169.684 72.6331 169.29 72.6429 168.881 72.6628C168.318 72.6935 167.784 72.7034 167.3 72.6922C167.3 72.6922 167.113 72.683 166.902 72.6323L166.9 72.6288ZM98.7704 56.4225C99.0751 56.3639 99.4055 56.3163 99.7369 56.2832C100.068 56.2502 100.392 56.2325 100.684 56.2316C100.907 56.2285 101.088 56.244 101.197 56.2755C101.307 56.3071 101.339 56.3529 101.288 56.4058C101.062 56.4349 100.761 56.4738 100.591 56.4956C100.004 56.4935 99.5025 56.4654 98.7704 56.4225ZM41.7309 61.3606C41.9754 61.3135 42.2447 61.2774 42.5082 61.2565C42.7716 61.2357 43.0185 61.2309 43.2208 61.2428C43.3248 61.2479 43.2542 61.3015 43.2719 61.3326C43.2834 61.3396 43.2833 61.3484 43.2715 61.358C43.2597 61.3675 43.2366 61.3776 43.2048 61.387C43.1729 61.3964 43.1334 61.4049 43.0904 61.4115C43.0474 61.4181 43.0025 61.4227 42.9604 61.4247C42.6951 61.445 42.4448 61.451 42.2316 61.4423C42.0185 61.4335 41.8491 61.4102 41.7388 61.3744L41.7309 61.3606ZM37.9092 62.035C37.9471 62.0071 38.0275 61.9781 38.1359 61.9533C38.2443 61.9284 38.3733 61.9093 38.4993 61.8996C38.722 61.8983 38.9244 61.906 39.0988 61.9224C39.288 61.9351 39.1518 62.0157 38.896 62.0635C38.7876 62.0827 38.6718 62.0977 38.5579 62.1072C38.4439 62.1168 38.3349 62.1207 38.2394 62.1186C38.144 62.1165 38.0648 62.1085 38.0082 62.0951C37.9515 62.0818 37.919 62.0636 37.9131 62.0419L37.9092 62.035ZM148.959 55.5754C149.53 55.4759 149.969 55.5009 150.451 55.4609C150.934 55.421 151.053 55.4168 150.988 55.4807C150.924 55.5447 150.593 55.5317 150.385 55.5584C150.105 55.5939 149.824 55.6142 149.572 55.6172C149.32 55.6202 149.108 55.6057 148.959 55.5754V55.5754ZM30.1448 72.4036C30.4468 72.3813 30.7427 72.3655 31.0279 72.3565C31.0654 72.3658 31.0889 72.3779 31.097 72.3921C31.1051 72.4063 31.0977 72.4224 31.0751 72.4394C31.0751 72.4394 30.8817 72.4903 30.7687 72.5049C30.3523 72.5548 30.3318 72.4833 30.1448 72.4036V72.4036ZM-12.5405 81.6699C-12.7449 81.737 -12.8402 81.7827 -13.0038 81.8149C-13.079 81.8261 -13.1567 81.8342 -13.2312 81.8387C-13.3057 81.8431 -13.375 81.8438 -13.434 81.8407C-13.5059 81.8213 -13.5228 81.7917 -13.4812 81.7577C-13.4812 81.7577 -13.2729 81.6975 -13.1936 81.6947C-12.9675 81.6805 -12.7482 81.6721 -12.5405 81.6699V81.6699ZM158.665 55.0067C159.098 54.9509 159.513 54.8974 159.813 54.9626C159.125 55.0328 159.124 55.0328 158.665 55.0067ZM151.648 55.6442C152.085 55.5248 152.342 55.514 152.552 55.5277C152.596 55.5311 152.626 55.5388 152.636 55.5496C152.646 55.5604 152.636 55.5737 152.607 55.5874C152.578 55.6012 152.533 55.6147 152.477 55.6259C152.421 55.6371 152.358 55.6453 152.298 55.6494C152.069 55.6529 151.852 55.6511 151.648 55.6442V55.6442ZM129.131 55.6947C129.121 55.6775 129.109 55.6567 129.222 55.6422C129.252 55.6348 129.287 55.6284 129.323 55.6237C129.359 55.619 129.396 55.6162 129.429 55.6155C129.429 55.6155 129.441 55.6362 129.449 55.65L129.131 55.6947ZM113.495 84.3747L113.746 84.3904L113.633 84.405L113.335 84.4138L113.495 84.3747ZM24.8957 61.7654C24.9899 61.7533 25.0841 61.7411 25.0979 61.7653C25.1177 61.7691 25.13 61.7745 25.1338 61.7811C25.1376 61.7877 25.1327 61.7953 25.1195 61.8033C25.1195 61.8033 24.9876 61.8203 24.9311 61.8276L24.8957 61.7654ZM39.5643 61.9588C39.6263 61.9575 39.6822 61.9591 39.7288 61.9636C39.7288 61.9636 39.7406 61.9843 39.7406 61.9843L39.5522 62.0086L39.5643 61.9588ZM167.398 66.8981C167.47 66.8855 167.548 66.8755 167.624 66.8689L167.718 66.8568C167.718 66.8568 167.617 66.8921 167.56 66.8994C167.504 66.9066 167.458 66.8977 167.398 66.8981Z" fill="#016A70"/>
</g>
<path d="M47.1487 5.90051C46.534 6.15595 46.3045 6.65933 46.2963 7.72618V8.3122H42.2884H38.2887L38.0182 8.47749C37.4609 8.83061 37.2396 9.32647 37.3789 9.92C37.4691 10.3182 37.9117 10.7615 38.3379 10.8667C38.7723 10.9793 56.6807 10.9718 57.1561 10.8591C57.8528 10.6938 58.3445 10.0252 58.2134 9.4016C58.1478 9.056 57.8773 8.69537 57.5331 8.48501L57.2544 8.3122H53.2547H49.2469V7.68862C49.2469 6.61425 49.001 6.13341 48.3289 5.87045C47.9273 5.72019 47.5585 5.72771 47.1487 5.90051Z" fill="#016A70"/>
<path d="M32.8792 13.1283C32.494 13.2334 32.076 13.6467 31.9695 14.0223C31.8957 14.2853 31.9367 14.691 32.1662 16.3063C32.3137 17.3807 32.4612 18.3799 32.4858 18.5076L32.535 18.7556H33.9611C35.2971 18.7556 35.3954 18.748 35.3954 18.6203C35.3954 18.4776 35.1086 16.3739 35.0184 15.9156L34.9774 15.6752H47.7715C54.8038 15.6752 60.5574 15.6977 60.5574 15.7278C60.5574 15.7653 60.4673 16.4115 60.3525 17.1703C60.2378 17.9291 60.1476 18.5903 60.1476 18.6504C60.1476 18.733 60.4099 18.7556 61.5819 18.7556C62.9998 18.7556 63.0162 18.7556 63.049 18.5828C63.0736 18.4926 63.2211 17.4934 63.3851 16.3739C63.6309 14.6459 63.6637 14.2778 63.5818 14.0073C63.4752 13.6241 63.049 13.2334 62.6228 13.1207C62.2294 13.0231 33.2563 13.0306 32.8792 13.1283Z" fill="#016A70"/>
<path d="M36.051 43.1203C36.051 43.3307 36.6248 47.1548 36.6821 47.2826C36.7887 47.5681 37.0591 47.8385 37.3706 47.9813C37.682 48.1315 37.846 48.1315 47.878 48.1165L58.0739 48.094L58.369 47.8836C58.5329 47.7709 58.7296 47.5756 58.7952 47.4554C58.9017 47.275 59.4918 43.6087 59.4918 43.1504C59.4918 43.0377 59.3689 43.0226 58.0657 43.0226C56.656 43.0226 56.6396 43.0226 56.5986 43.1879C56.574 43.2856 56.4921 43.8416 56.4101 44.4351L56.2626 45.502L47.7796 45.4869L39.2885 45.4644L39.1082 44.2623C39.0098 43.6012 38.9279 43.0527 38.9279 43.0377C38.9197 43.0302 38.2722 43.0226 37.4853 43.0226C36.3379 43.0226 36.051 43.0452 36.051 43.1203Z" fill="#016A70"/>
<path d="M44.5152 19.2332C43.8479 19.5053 43.5887 19.7904 42.8177 21.0862C42.2864 21.9804 42.1244 22.2914 42.1568 22.408C42.1827 22.5181 42.7334 22.9134 44.2431 23.9047C46.0055 25.058 46.3165 25.233 46.4331 25.1811C46.5173 25.1422 46.8542 24.585 47.3143 23.7168C47.7225 22.9458 48.0853 22.3238 48.1112 22.3367C48.1631 22.3497 49.7764 25.4144 49.7699 25.4921C49.7699 25.5116 49.433 25.7254 49.0248 25.9781C48.2019 26.464 48.0399 26.6325 48.1566 26.8463C48.1955 26.924 48.2926 26.9953 48.3704 27.0083C48.7851 27.099 53.6899 27.6303 53.7935 27.5979C53.8583 27.5784 53.9879 27.397 54.0851 27.1897C55.5494 24.125 56.5148 22.0128 56.5148 21.8897C56.5148 21.786 56.463 21.7082 56.3593 21.6629C56.2232 21.5981 56.1001 21.6434 55.3809 22.0257C54.7265 22.3756 54.5451 22.4469 54.4998 22.3756C54.4674 22.3238 54.1434 21.7666 53.7806 21.1316C53.2557 20.218 53.0419 19.9005 52.7504 19.6284C52.1348 19.0582 52.2709 19.0777 48.325 19.0777H44.8846L44.5152 19.2332ZM47.2819 20.6132C47.5151 21.0992 47.703 21.5333 47.703 21.5851C47.703 21.6694 46.3229 24.2416 46.2258 24.3388C46.1869 24.3777 43.1481 22.4404 42.9537 22.259C42.9084 22.2136 43.8155 20.6132 44.0293 20.3735C44.4699 19.8617 44.8781 19.7321 45.999 19.7256H46.8607L47.2819 20.6132ZM51.8044 19.8293C52.3227 20.0042 52.5689 20.2958 53.3724 21.7342C53.787 22.4663 54.1823 23.1207 54.2536 23.192C54.3767 23.3216 54.3831 23.3216 54.908 23.0494C55.206 22.9004 55.4522 22.7903 55.4652 22.8032C55.4846 22.8227 53.6704 26.7037 53.5408 26.9046C53.502 26.9694 53.1067 26.937 51.6035 26.7556C50.5604 26.6325 49.6792 26.5288 49.6403 26.5288C49.4978 26.5288 49.6274 26.3927 50.068 26.0947C50.3142 25.9198 50.528 25.7383 50.5409 25.68C50.5539 25.6217 49.8995 24.2935 49.0961 22.719C48.2926 21.151 47.6382 19.8357 47.6382 19.7969C47.6382 19.745 48.2084 19.7256 49.5691 19.7256C51.1629 19.7256 51.5582 19.745 51.8044 19.8293Z" fill="#016A70"/>
<path d="M42.6171 24.955C42.4746 24.9679 41.2435 25.0522 39.8764 25.1364C38.2177 25.2401 37.3624 25.3178 37.2976 25.3697C37.2393 25.415 37.2069 25.5316 37.2199 25.6483C37.2393 25.8232 37.3365 25.901 38.0816 26.3869C38.5481 26.6849 38.9628 26.9506 39.0082 26.9765C39.0794 27.0154 38.9369 27.3588 38.4121 28.4603C38.0363 29.2507 37.6929 30.0477 37.654 30.2356C37.5633 30.6567 37.6151 31.2723 37.7836 31.6869C38.0103 32.2506 41.0686 37.6349 41.3407 37.9394C41.6452 38.2828 42.2672 38.6133 42.7726 38.7104C42.9605 38.7428 43.4659 38.7752 43.887 38.7752C45.0209 38.7752 44.9172 39.0733 44.9172 35.8596C44.9172 33.2873 44.9108 33.1966 44.7876 33.0735C44.6645 32.9504 44.5738 32.9439 43.2974 32.9439C42.4746 32.9439 41.9368 32.918 41.9368 32.8791C41.9368 32.7625 43.6408 29.7691 43.7121 29.7691C43.751 29.7691 44.1138 29.8987 44.522 30.0606C45.2153 30.3328 45.2736 30.3457 45.4161 30.255C45.4939 30.1967 45.5652 30.093 45.5652 30.0218C45.5652 29.8274 43.44 25.0911 43.3104 24.9874C43.2067 24.9096 43.1354 24.9096 42.6171 24.955ZM43.7898 27.4625C44.2304 28.4603 44.5868 29.2961 44.5803 29.322C44.5674 29.3544 44.36 29.2896 44.1073 29.1795C43.5242 28.9332 43.3946 28.9397 43.2326 29.1989C43.1614 29.3155 42.4551 30.5855 41.6582 32.0174C40.8677 33.4558 40.2003 34.6285 40.1809 34.6285C40.1615 34.6285 39.7468 33.9158 39.2608 33.0476C38.3084 31.3435 38.2112 31.0649 38.3149 30.43C38.3408 30.255 38.6777 29.4645 39.1183 28.5445C39.6302 27.4754 39.8634 26.9247 39.8375 26.8275C39.8181 26.7433 39.5718 26.5424 39.2025 26.3092C38.8721 26.0953 38.6388 25.9139 38.6777 25.901C38.8073 25.8556 42.1895 25.6353 42.6041 25.6483L42.9799 25.6547L43.7898 27.4625ZM44.2693 35.8596V38.0625H43.4724C42.7532 38.0625 42.643 38.0496 42.3514 37.9005C42.17 37.8098 41.9497 37.6543 41.8525 37.5571C41.6063 37.298 40.5697 35.4579 40.5956 35.3348C40.6085 35.2764 40.8353 34.8812 41.088 34.4471L41.5545 33.6566H42.9087H44.2693V35.8596Z" fill="#016A70"/>
<path d="M54.2474 28.116C52.4203 29.2304 52.0769 29.4572 52.0575 29.5933C52.0445 29.7034 52.2713 30.1958 52.7507 31.077C53.146 31.8027 53.4829 32.4506 53.5088 32.5089C53.5477 32.6126 53.4181 32.6191 51.8955 32.6191H50.2433L50.2174 31.7768C50.1979 31.0317 50.185 30.928 50.0683 30.8438C49.9971 30.7854 49.8934 30.7466 49.8416 30.7595C49.7573 30.7725 46.3492 34.5823 46.103 34.9322C46.0447 35.0229 46.0188 35.1395 46.0447 35.2237C46.0642 35.308 46.8935 36.4483 47.8848 37.7701C49.7185 40.2192 49.8286 40.3359 50.0748 40.135C50.1396 40.0767 50.1655 39.8953 50.1655 39.4158V38.7744H51.4938C52.8674 38.7744 53.3274 38.7161 53.755 38.5022C54.2798 38.2366 54.5585 37.8478 55.7636 35.6902C56.405 34.5564 57.1566 33.2346 57.4417 32.7551C57.7268 32.2822 58.0249 31.7379 58.1091 31.55C58.3035 31.1288 58.3683 30.4939 58.2711 30.0339C58.2322 29.846 57.8823 29.036 57.4936 28.2391C56.8132 26.8525 56.7744 26.7877 56.5994 26.7942C56.4828 26.7942 55.6664 27.2543 54.2474 28.116ZM57.0206 28.7056C57.3186 29.3341 57.5972 30.0015 57.6361 30.1958C57.7462 30.7207 57.6361 31.1288 57.1631 31.9388L56.7614 32.6191L55.5303 32.6061L54.2928 32.5867L53.5606 31.226C53.1525 30.4744 52.822 29.833 52.822 29.8006C52.8285 29.7423 56.3597 27.5653 56.4504 27.5653C56.4698 27.5653 56.7225 28.0771 57.0206 28.7056ZM49.6407 33.1633C49.7185 33.254 50.0424 33.267 53.0229 33.267C54.8371 33.267 56.3208 33.2929 56.3208 33.3253C56.3208 33.3707 54.3511 36.8954 54.0401 37.4008C53.9688 37.5174 53.7745 37.7053 53.6125 37.8219L53.308 38.0293L51.5586 38.0487C49.8804 38.0681 49.8027 38.0746 49.6666 38.2042C49.5694 38.2949 49.5176 38.418 49.5176 38.5606C49.5176 38.6772 49.4982 38.7744 49.4722 38.7679C49.388 38.7614 46.8287 35.2756 46.8287 35.1719C46.8287 35.1201 47.4248 34.3944 48.157 33.5521L49.4852 32.023L49.5176 32.5413C49.537 32.8329 49.5889 33.0985 49.6407 33.1633Z" fill="#016A70"/>
</svg>
