<svg width="65" height="68" viewBox="0 0 65 68" fill="none" xmlns="http://www.w3.org/2000/svg">
<path id="Vector" d="M10.2568 68V53.38C7.00882 50.4333 4.48735 46.9908 2.69241 43.0525C0.897471 39.1142 0 34.9633 0 30.6C0 22.1 2.99157 14.875 8.97471 8.925C14.9578 2.975 22.2231 0 30.7704 0C37.8932 0 44.204 2.0825 49.7028 6.2475C55.2016 10.4125 58.7772 15.8383 60.4297 22.525L64.8743 39.95C65.1592 41.0267 64.9598 42.0042 64.276 42.8825C63.5922 43.7608 62.6805 44.2 61.5408 44.2H54.703V54.4C54.703 56.27 54.0334 57.8708 52.6943 59.2025C51.3553 60.5342 49.7455 61.2 47.8651 61.2H41.0272V68H34.1894V54.4H47.8651V37.4H57.0962L53.8482 24.225C52.5376 19.0683 49.7455 14.875 45.4718 11.645C41.1982 8.415 36.2977 6.8 30.7704 6.8C24.1605 6.8 18.5192 9.095 13.8467 13.685C9.17414 18.275 6.83787 23.8567 6.83787 30.43C6.83787 33.83 7.5359 37.06 8.93197 40.12C10.328 43.18 12.3082 45.9 14.8724 48.28L17.0947 50.32V68H10.2568ZM30.7704 47.6C31.7391 47.6 32.5511 47.2742 33.2064 46.6225C33.8617 45.9708 34.1894 45.1633 34.1894 44.2C34.1894 43.2367 33.8617 42.4292 33.2064 41.7775C32.5511 41.1258 31.7391 40.8 30.7704 40.8C29.8017 40.8 28.9897 41.1258 28.3344 41.7775C27.6791 42.4292 27.3515 43.2367 27.3515 44.2C27.3515 45.1633 27.6791 45.9708 28.3344 46.6225C28.9897 47.2742 29.8017 47.6 30.7704 47.6ZM28.2062 36.72H33.4201C33.4201 35.3033 33.6053 34.1558 33.9757 33.2775C34.3461 32.3992 35.1011 31.3367 36.2407 30.09C37.2664 28.9567 38.2636 27.8092 39.2323 26.6475C40.201 25.4858 40.6853 23.97 40.6853 22.1C40.6853 19.72 39.7594 17.7083 37.9074 16.065C36.0555 14.4217 33.762 13.6 31.0268 13.6C28.7475 13.6 26.6819 14.2517 24.83 15.555C22.9781 16.8583 21.6817 18.5583 20.941 20.655L25.642 22.61C26.0409 21.3633 26.7389 20.3575 27.7361 19.5925C28.7333 18.8275 29.8302 18.445 31.0268 18.445C32.2804 18.445 33.3204 18.785 34.1466 19.465C34.9729 20.145 35.386 21.0233 35.386 22.1C35.386 23.29 35.0298 24.3525 34.3176 25.2875C33.6053 26.2225 32.7648 27.1717 31.7961 28.135C30.6565 29.325 29.7732 30.515 29.1464 31.705C28.5196 32.895 28.2062 34.5667 28.2062 36.72Z" fill="#393E46"/>
</svg>
