<svg width="70" height="70" viewBox="0 0 70 70" fill="none" xmlns="http://www.w3.org/2000/svg">
<path id="Vector" d="M31.5 52.5H38.5V31.5H31.5V52.5ZM35 24.5C35.9917 24.5 36.8229 24.1646 37.4937 23.4937C38.1646 22.8229 38.5 21.9917 38.5 21C38.5 20.0083 38.1646 19.1771 37.4937 18.5063C36.8229 17.8354 35.9917 17.5 35 17.5C34.0083 17.5 33.1771 17.8354 32.5062 18.5063C31.8354 19.1771 31.5 20.0083 31.5 21C31.5 21.9917 31.8354 22.8229 32.5062 23.4937C33.1771 24.1646 34.0083 24.5 35 24.5ZM35 70C30.1583 70 25.6083 69.0812 21.35 67.2438C17.0917 65.4062 13.3875 62.9125 10.2375 59.7625C7.0875 56.6125 4.59375 52.9083 2.75625 48.65C0.91875 44.3917 0 39.8417 0 35C0 30.1583 0.91875 25.6083 2.75625 21.35C4.59375 17.0917 7.0875 13.3875 10.2375 10.2375C13.3875 7.0875 17.0917 4.59375 21.35 2.75625C25.6083 0.91875 30.1583 0 35 0C39.8417 0 44.3917 0.91875 48.65 2.75625C52.9083 4.59375 56.6125 7.0875 59.7625 10.2375C62.9125 13.3875 65.4062 17.0917 67.2438 21.35C69.0812 25.6083 70 30.1583 70 35C70 39.8417 69.0812 44.3917 67.2438 48.65C65.4062 52.9083 62.9125 56.6125 59.7625 59.7625C56.6125 62.9125 52.9083 65.4062 48.65 67.2438C44.3917 69.0812 39.8417 70 35 70ZM35 63C42.8167 63 49.4375 60.2875 54.8625 54.8625C60.2875 49.4375 63 42.8167 63 35C63 27.1833 60.2875 20.5625 54.8625 15.1375C49.4375 9.7125 42.8167 7 35 7C27.1833 7 20.5625 9.7125 15.1375 15.1375C9.7125 20.5625 7 27.1833 7 35C7 42.8167 9.7125 49.4375 15.1375 54.8625C20.5625 60.2875 27.1833 63 35 63Z" fill="#393E46"/>
</svg>
